<?xml version="1.0" standalone="no"?>
<!DOCTYPE svg PUBLIC "-//W3C//DTD SVG 1.1//EN" "http://www.w3.org/Graphics/SVG/1.1/DTD/svg11.dtd" >
<svg xmlns="http://www.w3.org/2000/svg" xmlns:xlink="http://www.w3.org/1999/xlink" version="1.1">
<metadata>
Created by FontForge 20161003 at Thu Aug 30 07:57:08 2018
 By www-data
(c) Copyright SoftMaker Software GmbH and its licensors
</metadata>
<defs>
<font id="AVIGNONBOLD" horiz-adv-x="503" >
  <font-face 
    font-family="AVIGNONBOLD"
    font-weight="400"
    font-stretch="normal"
    units-per-em="1000"
    panose-1="0 0 7 0 0 0 0 0 0 0"
    ascent="800"
    descent="-200"
    x-height="503"
    cap-height="670"
    bbox="-111 -257 1143 1185"
    underline-thickness="97"
    underline-position="-246"
    unicode-range="U+0020-FB04"
  />
<missing-glyph horiz-adv-x="500" 
d="M63 0v773h375v-773h-375zM125 63h250v648h-250v-648z" />
    <glyph glyph-name=".notdef" horiz-adv-x="500" 
d="M63 0v773h375v-773h-375zM125 63h250v648h-250v-648z" />
    <glyph glyph-name=".null" horiz-adv-x="0" 
 />
    <glyph glyph-name="nonmarkingreturn" horiz-adv-x="251" 
 />
    <glyph glyph-name="space" unicode=" " horiz-adv-x="251" 
 />
    <glyph glyph-name="exclam" unicode="!" horiz-adv-x="297" 
d="M226 670v-449h-156v449h156zM226 154v-154h-156v154h156z" />
    <glyph glyph-name="quotedbl" unicode="&#x22;" horiz-adv-x="263" 
d="M35 455l-9 215h86l-9 -215h-68zM159 455l-9 215h86l-9 -215h-68z" />
    <glyph glyph-name="numbersign" unicode="#" horiz-adv-x="553" 
d="M396 210l-21 -148h-93l20 148h-86l-20 -148h-94l21 148h-90l13 94h90l11 80h-90l14 94h89l21 147h94l-21 -147h86l21 147h93l-21 -147h87l-13 -94h-87l-11 -80h87l-14 -94h-86zM327 384h-86l-11 -80h86z" />
    <glyph glyph-name="dollar" unicode="$" horiz-adv-x="553" 
d="M338 735v-92q46 -11 76 -41q51 -52 51 -121q0 -3 -1 -10h-140q-4 58 -50 58q-21 0 -35 -14.5t-14 -36.5q0 -37 47 -62q15 -8 76.5 -31.5t97 -69.5t35.5 -105q0 -63 -38.5 -112t-104.5 -71v-95h-122v91q-74 16 -111 62q-40 49 -40 109q0 5 1 9h155q6 -64 53 -64
q22 0 37 15.5t15 38.5q0 32 -30 53q-21 15 -83 38q-142 53 -142 176q0 144 145 183v92h122z" />
    <glyph glyph-name="percent" unicode="%" horiz-adv-x="804" 
d="M194 683q71 0 118 -46t47 -116t-47 -116t-119 -46q-70 0 -116.5 46.5t-46.5 116.5q0 68 47 114.5t117 46.5zM195 583q-25 0 -42.5 -18t-17.5 -43q0 -27 17 -45t43 -18q25 0 42 18t17 44t-17 44t-42 18zM609 311q71 0 118 -46t47 -116t-47 -116t-119 -46
q-70 0 -116.5 46.5t-46.5 116.5q0 68 47 114.5t117 46.5zM610 211q-25 0 -42.5 -18t-17.5 -43q0 -27 17 -45t43 -18q25 0 42 18t17 44t-17 44t-42 18zM490 670h106l-282 -670h-106z" />
    <glyph glyph-name="ampersand" unicode="&#x26;" horiz-adv-x="663" 
d="M488 395h158l-51 -125q-20 -48 -51 -89l92 -94l-102 -100l-80 81q-91 -82 -200 -82q-94 0 -159 56.5t-65 138.5q0 55 28 96.5t96 88.5q-63 64 -63 144q0 73 53.5 123t132.5 50q75 0 125.5 -47.5t50.5 -117.5q0 -88 -93 -153l79 -80zM354 167l-108 108q-51 -40 -51 -78
q0 -29 21.5 -48t55.5 -19q48 0 82 37zM275 446q42 42 42 73q0 43 -39 43q-17 0 -29 -12.5t-12 -31.5q0 -33 38 -72z" />
    <glyph glyph-name="quotesingle" unicode="'" horiz-adv-x="139" 
d="M35 455l-9 215h86l-9 -215h-68z" />
    <glyph glyph-name="parenleft" unicode="(" horiz-adv-x="374" 
d="M347 -51v-150q-74 29 -130 71q-88 67 -137.5 168t-49.5 213q0 113 49.5 213.5t137.5 168.5q56 43 130 71v-150q-71 -39 -115 -123.5t-44 -180.5q0 -94 44.5 -178.5t114.5 -122.5z" />
    <glyph glyph-name="parenright" unicode=")" horiz-adv-x="374" 
d="M27 554v150q74 -28 130 -71q88 -67 137.5 -168t49.5 -214q0 -112 -49.5 -213t-137.5 -168q-57 -43 -130 -71v150q70 38 114.5 123t44.5 181q0 94 -44.5 178t-114.5 123z" />
    <glyph glyph-name="asterisk" unicode="*" horiz-adv-x="486" 
d="M190 670h108l-6 -127l116 44l35 -99l-119 -37l75 -100l-84 -63l-74 104l-72 -104l-84 63l78 100l-119 37l33 99l116 -44z" />
    <glyph glyph-name="plus" unicode="+" horiz-adv-x="553" 
d="M334 392h177v-114h-177v-177h-114v177h-178v114h178v178h114v-178z" />
    <glyph glyph-name="comma" unicode="," horiz-adv-x="263" 
d="M210 154v-190q0 -49 -25.5 -79.5t-66.5 -30.5h-64v81h31q39 0 39 34v31h-70v154h156z" />
    <glyph glyph-name="hyphen" unicode="-" horiz-adv-x="255" 
d="M255 321v-127h-255v127h255z" />
    <glyph glyph-name="period" unicode="." horiz-adv-x="263" 
d="M210 154v-154h-156v154h156z" />
    <glyph glyph-name="slash" unicode="/" horiz-adv-x="424" 
d="M243 670h148l-263 -838h-147z" />
    <glyph glyph-name="zero" unicode="0" horiz-adv-x="553" 
d="M26 238v194q0 99 60 165q36 39 88 62.5t104 23.5q59 0 117 -30.5t92 -80.5q39 -56 39 -140v-194q0 -94 -50 -156q-76 -95 -197 -95q-58 0 -113.5 28t-92.5 75q-47 60 -47 148zM355 237v196q0 53 -23 76t-56 23q-30 0 -52 -21q-27 -25 -27 -78v-196q0 -53 27 -78
q22 -21 52 -21q42 0 66 34q13 20 13 65z" />
    <glyph glyph-name="one" unicode="1" horiz-adv-x="553" 
d="M386 670v-670h-171v526h-110v144h281z" />
    <glyph glyph-name="two" unicode="2" horiz-adv-x="553" 
d="M287 144h227v-144h-473v133q123 80 173 129q125 122 125 206q0 29 -18 47t-46 18q-71 0 -77 -107h-163q3 97 39 154q66 104 208 104q98 0 163 -56t65 -140q0 -114 -104 -229q-44 -49 -119 -115z" />
    <glyph glyph-name="three" unicode="3" horiz-adv-x="550" 
d="M23 199h173q15 -61 77 -61q33 0 53.5 18.5t20.5 47.5q0 41 -34 58q-18 9 -57 9h-60v126h29q84 0 84 77q0 58 -47 58q-50 0 -53 -57h-169q2 94 65 151t165 57q89 0 149.5 -52.5t60.5 -130.5q0 -94 -89 -141q127 -43 127 -161q0 -88 -73 -149.5t-176 -61.5q-69 0 -127 27
t-86 72.5t-33 112.5z" />
    <glyph glyph-name="four" unicode="4" horiz-adv-x="553" 
d="M305 118h-295v125l300 427h159v-418h74v-134h-74v-118h-164v118zM316 252v210l-135 -210h135z" />
    <glyph glyph-name="five" unicode="5" horiz-adv-x="553" 
d="M42 291l57 379h371v-144h-239l-15 -91q39 20 91 20q105 0 167 -74q56 -67 56 -151q0 -99 -72.5 -171.5t-184.5 -72.5q-100 0 -169.5 52.5t-86.5 141.5h173q31 -43 78 -43q37 0 64 26.5t27 62.5q0 38 -26 63t-66 25q-62 0 -87 -57z" />
    <glyph glyph-name="six" unicode="6" horiz-adv-x="553" 
d="M441 670l-148 -204q27 4 42 4q87 0 145.5 -65.5t58.5 -162.5q0 -110 -74.5 -182.5t-187.5 -72.5q-133 0 -210 101q-54 71 -54 156q0 88 63 181l166 245h199zM274 319q-39 0 -65.5 -25.5t-26.5 -62.5q0 -39 26.5 -66t66.5 -27q39 0 66 26t27 64t-27 64.5t-67 26.5z" />
    <glyph glyph-name="seven" unicode="7" horiz-adv-x="553" 
d="M61 670h437v-132l-236 -538h-188l247 526h-260v144z" />
    <glyph glyph-name="eight" unicode="8" horiz-adv-x="553" 
d="M416 369q105 -45 105 -167q0 -89 -71.5 -152.5t-171.5 -63.5q-101 0 -173.5 63.5t-72.5 152.5q0 122 105 167q-66 53 -66 125q0 82 58 135.5t147 53.5q87 0 145.5 -53.5t58.5 -132.5q0 -76 -64 -128zM277 544q-26 0 -44.5 -18.5t-18.5 -44.5t17.5 -43t43.5 -17t44 18.5
t18 44.5q0 25 -18 42.5t-42 17.5zM276 290q-31 0 -52 -21.5t-21 -53.5q0 -34 21.5 -56t54.5 -22q29 0 50 22.5t21 53.5q0 32 -21.5 54.5t-52.5 22.5z" />
    <glyph glyph-name="nine" unicode="9" horiz-adv-x="553" 
d="M127 0l151 208q-23 -7 -45 -7q-65 0 -115 31q-46 29 -75 85t-29 117q0 107 74.5 178.5t186.5 71.5q116 0 190.5 -74t74.5 -189q0 -83 -47 -156l-171 -265h-195zM276 533q-37 0 -64 -26.5t-27 -62.5q0 -38 27 -65t64 -27q39 0 66 26.5t27 64.5q0 37 -27.5 63.5t-65.5 26.5
z" />
    <glyph glyph-name="colon" unicode=":" horiz-adv-x="263" 
d="M210 154v-154h-156v154h156zM210 503v-154h-156v154h156z" />
    <glyph glyph-name="semicolon" unicode=";" horiz-adv-x="263" 
d="M210 154v-190q0 -49 -25.5 -79.5t-66.5 -30.5h-64v81h31q39 0 39 34v31h-70v154h156zM210 503v-154h-156v154h156z" />
    <glyph glyph-name="less" unicode="&#x3c;" 
d="M470 641v-163l-262 -139l261 -139l1 -163l-436 234v137z" />
    <glyph glyph-name="equal" unicode="=" horiz-adv-x="553" 
d="M42 473h469v-107h-469v107zM42 305h469v-107h-469v107z" />
    <glyph glyph-name="greater" unicode="&#x3e;" 
d="M34 37v164l262 139l-261 139l-1 162l436 -233v-138z" />
    <glyph glyph-name="question" unicode="?" horiz-adv-x="498" 
d="M180 442h-167v17q0 97 67 160.5t171 63.5q92 0 154.5 -55.5t62.5 -136.5q0 -50 -26 -93q-19 -32 -76 -85q-68 -63 -70 -100h-156q-1 38 20 73.5t73 85.5q61 59 61 100q0 56 -52 56q-33 0 -47 -19.5t-15 -66.5zM296 154v-154h-156v154h156z" />
    <glyph glyph-name="at" unicode="@" horiz-adv-x="754" 
d="M483 498l90 -1l-38 -197q-6 -31 -6 -43q0 -30 21 -30q31 0 57 50t26 109q0 95 -66 155t-169 60q-115 0 -192.5 -78.5t-77.5 -194.5q0 -113 74 -189q69 -71 196 -71q103 0 190 35l21 -83q-96 -34 -210 -34q-157 0 -253 92q-106 101 -106 252q0 148 103 250.5t252 102.5
q137 0 228 -84.5t91 -212.5q0 -93 -51 -164t-117 -71q-27 0 -49.5 14.5t-29.5 36.5q-43 -59 -122 -59q-62 0 -103.5 46t-41.5 115q0 82 53.5 143t124.5 61q56 0 98 -45zM390 414q-35 0 -61.5 -31.5t-26.5 -74.5q0 -33 18 -53t47 -20q34 0 59.5 32t25.5 75q0 32 -17 52
t-45 20z" />
    <glyph glyph-name="A" unicode="A" horiz-adv-x="664" 
d="M449 97h-232l-36 -97h-184l269 670h135l266 -670h-185zM263 233h141l-70 229z" />
    <glyph glyph-name="B" unicode="B" horiz-adv-x="580" 
d="M57 0v670h207q142 0 190 -37q64 -49 64 -139q0 -89 -78 -134q111 -36 111 -156q0 -88 -62 -146q-37 -34 -81.5 -46t-137.5 -12h-213zM221 416h61q72 0 72 53q0 29 -23 42q-14 8 -49 8h-61v-103zM221 151h81q85 0 85 64q0 38 -34 52q-15 6 -51 6h-81v-122z" />
    <glyph glyph-name="C" unicode="C" horiz-adv-x="740" 
d="M542 251h179q-28 -118 -122 -191t-217 -73q-148 0 -250.5 102t-102.5 248t101.5 246t249.5 100q169 0 272 -125q57 -70 69 -142h-179q-20 54 -64 85.5t-99 31.5q-76 0 -127.5 -56t-51.5 -139q0 -85 52 -142.5t128 -57.5q106 0 162 113z" />
    <glyph glyph-name="D" unicode="D" horiz-adv-x="666" 
d="M57 0v670h226q97 0 156 -20t107 -70q91 -94 91 -242q0 -171 -108 -265q-84 -73 -208 -73h-264zM228 151h74q65 0 102 28q62 47 62 153q0 102 -54 151q-39 36 -109 36h-75v-368z" />
    <glyph glyph-name="E" unicode="E" horiz-adv-x="471" 
d="M57 0v670h373v-151h-209v-103h202v-151h-202v-114h209v-151h-373z" />
    <glyph glyph-name="F" unicode="F" horiz-adv-x="446" 
d="M57 0v670h366v-151h-202v-113h195v-151h-195v-255h-164z" />
    <glyph glyph-name="G" unicode="G" horiz-adv-x="771" 
d="M344 381h398l1 -35q4 -152 -100.5 -255.5t-257.5 -103.5q-149 0 -252.5 101.5t-103.5 248.5q0 153 109 253q47 43 114.5 68t135.5 25q115 0 210 -67.5t124 -169.5h-192q-47 87 -147 87q-78 0 -132 -56q-51 -52 -51 -132q0 -97 53.5 -152.5t141.5 -55.5q57 0 96.5 28.5
t51.5 78.5h-199v137z" />
    <glyph glyph-name="H" unicode="H" horiz-adv-x="675" 
d="M57 0v670h171v-251h219v251h171v-670h-171v268h-219v-268h-171z" />
    <glyph glyph-name="I" unicode="I" horiz-adv-x="285" 
d="M57 0v670h171v-670h-171z" />
    <glyph glyph-name="J" unicode="J" horiz-adv-x="507" 
d="M286 670h171v-406q0 -135 -41 -189q-31 -40 -82.5 -64t-107.5 -24q-61 0 -114 26.5t-81 71.5q-31 50 -31 130h182q4 -77 53 -77q23 0 37 17t14 67v448z" />
    <glyph glyph-name="K" unicode="K" horiz-adv-x="606" 
d="M57 0v670h171v-302l191 302h180l-222 -334l236 -336h-200l-185 290v-290h-171z" />
    <glyph glyph-name="L" unicode="L" horiz-adv-x="440" 
d="M57 0v670h171v-519h198v-151h-369z" />
    <glyph glyph-name="M" unicode="M" horiz-adv-x="821" 
d="M57 0v670h220l134 -441l132 441h221v-670h-157l5 504l-145 -504h-113l-145 504l6 -504h-158z" />
    <glyph glyph-name="N" unicode="N" horiz-adv-x="680" 
d="M57 0v670h147l262 -421l-7 421h164v-670h-149l-259 408l6 -408h-164z" />
    <glyph glyph-name="O" unicode="O" horiz-adv-x="765" 
d="M382 684q149 0 252 -101t103 -248q0 -146 -102.5 -247t-251.5 -101q-152 0 -253 101t-101 252q0 144 102.5 244t250.5 100zM383 533q-77 0 -130 -56t-53 -138q0 -86 53 -143.5t133 -57.5q76 0 128 57t52 139q0 84 -53 141.5t-130 57.5z" />
    <glyph glyph-name="P" unicode="P" horiz-adv-x="581" 
d="M57 0v670h219q145 0 206 -50q79 -65 79 -178q0 -108 -71 -174q-62 -58 -195 -58h-74v-210h-164zM221 361h69q59 0 81 19q26 22 26 60q0 43 -31 63q-24 16 -82 16h-63v-158z" />
    <glyph glyph-name="Q" unicode="Q" horiz-adv-x="769" 
d="M772 124v-136q-21 -2 -44 -2q-106 0 -156 53q-85 -53 -182 -53q-164 0 -269 114q-92 100 -92 231q0 148 102.5 250.5t249.5 102.5q151 0 255.5 -102t104.5 -250q0 -98 -57 -185q26 -24 74 -24q8 0 14 1zM547 242q23 55 23 99q0 83 -53 137.5t-135 54.5
q-71 0 -119.5 -45.5t-61.5 -124.5q52 23 96 23q132 0 250 -144zM451 163q-75 98 -172 98q-27 0 -60 -11q21 -50 65.5 -81.5t94.5 -31.5q37 0 72 26z" />
    <glyph glyph-name="R" unicode="R" horiz-adv-x="590" 
d="M57 0v670h212q84 0 128 -10t78 -38q83 -68 83 -183q0 -107 -73 -169q-37 -31 -94 -42l182 -228h-196l-156 217v-217h-164zM221 334h61q112 0 112 95q0 51 -42 76q-23 14 -69 14h-62v-185z" />
    <glyph glyph-name="S" unicode="S" horiz-adv-x="519" 
d="M486 475h-170q-9 65 -61 65q-25 0 -42 -15.5t-17 -37.5q0 -24 16.5 -39t122.5 -63q84 -38 120.5 -83t36.5 -110q0 -96 -62.5 -151t-171.5 -55q-95 0 -159 43q-71 48 -83 138q-2 18 -2 54h172q0 -42 18.5 -66.5t50.5 -24.5q28 0 47 18.5t19 45.5t-19.5 43.5t-129.5 61.5
q-147 60 -147 186q0 83 68 141t167 58q117 0 181 -77q40 -48 45 -132z" />
    <glyph glyph-name="T" unicode="T" horiz-adv-x="450" 
d="M140 0v519h-133v151h436v-151h-132v-519h-171z" />
    <glyph glyph-name="U" unicode="U" horiz-adv-x="615" 
d="M50 670h171v-405q0 -127 88 -127q42 0 63.5 26t21.5 101v405h171v-405q0 -137 -67 -205q-71 -73 -189 -73q-119 0 -192 72q-38 37 -52.5 82t-14.5 124v405z" />
    <glyph glyph-name="V" unicode="V" horiz-adv-x="606" 
d="M-10 670h177l135 -470l137 470h177l-226 -670h-176z" />
    <glyph glyph-name="W" unicode="W" horiz-adv-x="872" 
d="M7 670h174l90 -436l100 436h131l98 -437l92 437h174l-178 -670h-151l-101 434l-101 -434h-155z" />
    <glyph glyph-name="X" unicode="X" horiz-adv-x="647" 
d="M438 670h193l-205 -317l231 -353h-193l-145 237l-138 -237h-191l234 357l-207 313h194l115 -191z" />
    <glyph glyph-name="Y" unicode="Y" horiz-adv-x="550" 
d="M190 0v244l-200 426h186l100 -269l100 269h184l-199 -426v-244h-171z" />
    <glyph glyph-name="Z" unicode="Z" horiz-adv-x="460" 
d="M17 0v113l231 406h-231v151h423v-139l-214 -380h214v-151h-423z" />
    <glyph glyph-name="bracketleft" unicode="[" horiz-adv-x="374" 
d="M313 704v-148q-53 -2 -76 -30.5t-23 -90.5v-367q0 -63 23 -91t76 -31v-147q-63 10 -92 20t-61 34q-53 40 -76.5 93.5t-23.5 138.5v333q0 134 71 206q33 34 69 50q33 15 97 27z" />
    <glyph glyph-name="backslash" unicode="\" horiz-adv-x="424" 
d="M181 670l263 -838h-148l-262 838h147z" />
    <glyph glyph-name="bracketright" unicode="]" horiz-adv-x="374" 
d="M61 -201v147q53 3 76 31t23 91v367q0 62 -23 90.5t-76 30.5v148q62 -10 91 -20t61 -34q54 -40 77.5 -94t23.5 -138v-333q0 -134 -71 -206q-33 -34 -67.5 -49.5t-98.5 -27.5q-2 -1 -16 -3z" />
    <glyph glyph-name="asciicircum" unicode="^" 
d="M157 348h-145l148 326h183l148 -326h-145l-95 215z" />
    <glyph glyph-name="underscore" unicode="_" 
d="M0 -54h503v-97h-503v97z" />
    <glyph glyph-name="grave" unicode="`" 
d="M150 770l196 -150l-51 -74l-205 132z" />
    <glyph glyph-name="a" unicode="a" horiz-adv-x="631" 
d="M580 503v-503h-142v54q-35 -71 -156 -71q-113 0 -184 75t-71 194q0 118 72.5 193.5t186.5 75.5q111 0 152 -71v53h142zM303 379q-53 0 -89 -36.5t-36 -89.5q0 -55 36 -92t90 -37q55 0 90.5 36t35.5 92q0 55 -36 91t-91 36z" />
    <glyph glyph-name="b" unicode="b" horiz-adv-x="621" 
d="M50 0v670h151v-207q54 57 145 57q102 0 175 -72t73 -193q0 -120 -71 -196t-183 -76q-46 0 -76.5 14.5t-71.5 56.5v-54h-142zM320 379q-53 0 -89.5 -36.5t-36.5 -89.5q0 -55 35.5 -92t88.5 -37t89 37t36 91q0 53 -35.5 90t-87.5 37z" />
    <glyph glyph-name="c" unicode="c" horiz-adv-x="577" 
d="M408 191h152q-23 -92 -96 -150t-168 -58q-113 0 -191 78t-78 191t76.5 190.5t188.5 77.5q99 0 173 -58.5t94 -152.5h-153q-29 70 -109 70q-52 0 -85.5 -36.5t-33.5 -92.5q0 -55 33.5 -90.5t85.5 -35.5q67 0 111 67z" />
    <glyph glyph-name="d" unicode="d" horiz-adv-x="626" 
d="M575 670v-670h-142v54q-60 -71 -155 -71q-110 0 -181 76t-71 193q0 116 71 192t179 76q89 0 148 -60v210h151zM306 379q-56 0 -92.5 -35.5t-36.5 -90.5q0 -56 36 -92.5t91 -36.5t92 37t37 93q0 53 -36.5 89t-90.5 36z" />
    <glyph glyph-name="e" unicode="e" horiz-adv-x="581" 
d="M382 157h154q-35 -82 -100 -128t-146 -46q-109 0 -186 78t-77 189q0 113 76 191.5t185 78.5q113 0 189 -78.5t76 -196.5q0 -20 -4 -41h-376q5 -42 35.5 -68t74.5 -26q52 0 92 40zM176 305h227q-7 39 -38.5 63t-75.5 24q-92 0 -113 -87z" />
    <glyph glyph-name="f" unicode="f" horiz-adv-x="296" 
d="M64 0v389h-56v114h56v26q0 77 47 116t145 39h22v-114h-17q-46 0 -46 -47v-20h63v-114h-63v-389h-151z" />
    <glyph glyph-name="g" unicode="g" horiz-adv-x="623" 
d="M573 503v-442q0 -65 -3 -88q-6 -48 -29 -82q-36 -53 -104 -84t-150 -31q-102 0 -170.5 48.5t-79.5 128.5h173q21 -50 89 -50q63 0 98 46q24 31 24 90v16q-16 -31 -59 -51.5t-92 -20.5q-101 0 -172 77.5t-71 187.5q0 117 73 194.5t183 77.5q94 0 148 -64v47h142zM300 379
q-51 0 -86.5 -36.5t-35.5 -88.5q0 -56 34.5 -93t86.5 -37q54 0 88.5 35t34.5 90q0 57 -34.5 93.5t-87.5 36.5z" />
    <glyph glyph-name="h" unicode="h" horiz-adv-x="563" 
d="M50 0v670h151v-213q37 63 131 63q110 0 158 -82q26 -44 26 -157v-281h-151v274q0 105 -80 105q-40 0 -64 -26q-20 -21 -20 -74v-279h-151z" />
    <glyph glyph-name="i" unicode="i" horiz-adv-x="251" 
d="M201 503v-503h-151v503h151zM201 670v-114h-151v114h151z" />
    <glyph glyph-name="j" unicode="j" horiz-adv-x="251" 
d="M201 503v-491q0 -111 -40.5 -153.5t-146.5 -42.5h-37v114h20q30 0 41.5 16.5t11.5 59.5v497h151zM201 670v-114h-151v114h151z" />
    <glyph glyph-name="k" unicode="k" horiz-adv-x="514" 
d="M50 0v670h151v-349l141 182h178l-189 -221l184 -282h-171l-143 242v-242h-151z" />
    <glyph glyph-name="l" unicode="l" horiz-adv-x="251" 
d="M50 0v670h151v-670h-151z" />
    <glyph glyph-name="m" unicode="m" horiz-adv-x="869" 
d="M50 0v503h142v-53q49 70 138 70q98 0 146 -90q55 90 159 90q78 0 131 -50q38 -37 49 -91q6 -29 6 -105v-274h-151v267q0 61 -18 86.5t-57 25.5q-37 0 -59.5 -24.5t-22.5 -80.5v-274h-151v274q0 105 -77 105q-84 0 -84 -105v-274h-151z" />
    <glyph glyph-name="n" unicode="n" horiz-adv-x="563" 
d="M50 0v503h142v-53q51 70 138 70q83 0 136 -51q28 -27 39 -61t11 -94v-314h-151v274q0 51 -15 74q-20 31 -64 31q-59 0 -79 -49q-6 -15 -6 -49v-281h-151z" />
    <glyph glyph-name="o" unicode="o" horiz-adv-x="598" 
d="M298 520q134 0 211 -95q61 -75 61 -173q0 -113 -79 -194q-74 -75 -194 -75q-118 0 -194 76t-76 194q0 112 79 192q74 75 192 75zM299 379q-50 0 -85.5 -37t-35.5 -89q0 -55 34.5 -92t86.5 -37q51 0 85.5 36.5t34.5 91.5q0 52 -35 89.5t-85 37.5z" />
    <glyph glyph-name="p" unicode="p" horiz-adv-x="627" 
d="M50 -168v671h142v-55q56 72 159 72q107 0 174 -73q72 -78 72 -200q0 -112 -70.5 -188t-174.5 -76q-92 0 -151 63v-214h-151zM320 379q-56 0 -91 -39t-35 -87q0 -53 37 -91t90 -38t89 37t36 91t-36.5 90.5t-89.5 36.5z" />
    <glyph glyph-name="q" unicode="q" horiz-adv-x="626" 
d="M575 503v-671h-151v219q-61 -68 -155 -68q-104 0 -173.5 74t-69.5 185q0 121 71.5 199.5t182.5 78.5q97 0 153 -72v55h142zM303 379q-52 0 -89 -36.5t-37 -89.5q0 -55 36.5 -92t91.5 -37q52 0 89 37.5t37 89.5q0 54 -37 91t-91 37z" />
    <glyph glyph-name="r" unicode="r" horiz-adv-x="325" 
d="M50 0v503h142v-53q22 40 53.5 55t68.5 15h4v-151q-65 -1 -92 -22t-27 -69v-278h-149z" />
    <glyph glyph-name="s" unicode="s" horiz-adv-x="448" 
d="M409 362h-147q-4 37 -43 37q-48 0 -48 -32q0 -34 78 -55q96 -26 128 -53q48 -40 48 -106q0 -73 -60 -122t-149 -49q-90 0 -149 55q-45 42 -52 112h150q6 -46 57 -46q22 0 37 11.5t15 27.5q0 17 -13.5 28t-30 16.5t-103.5 28.5q-47 12 -77 51t-30 88q0 70 59 118t144 48
q100 0 153 -67q28 -35 33 -91z" />
    <glyph glyph-name="t" unicode="t" horiz-adv-x="295" 
d="M215 670v-167h72v-114h-72v-389h-151v389h-74v114h74v167h151z" />
    <glyph glyph-name="u" unicode="u" horiz-adv-x="565" 
d="M515 503v-503h-142v54q-38 -71 -134 -71q-91 0 -146 63q-26 31 -36 64t-10 92v301h151v-281q0 -55 21.5 -76.5t59.5 -21.5q85 0 85 98v281h151z" />
    <glyph glyph-name="v" unicode="v" horiz-adv-x="486" 
d="M496 503l-181 -503h-145l-180 503h156l97 -314l97 314h156z" />
    <glyph glyph-name="w" unicode="w" horiz-adv-x="757" 
d="M0 503h155l77 -312l83 312h127l84 -312l76 312h155l-154 -503h-140l-85 325l-85 -325h-140z" />
    <glyph glyph-name="x" unicode="x" horiz-adv-x="548" 
d="M354 503h178l-169 -234l195 -269h-184l-101 156l-103 -156h-180l191 269l-169 234h180l81 -132z" />
    <glyph glyph-name="y" unicode="y" horiz-adv-x="499" 
d="M349 503h160l-252 -671h-160l80 193l-187 478h160l102 -292z" />
    <glyph glyph-name="z" unicode="z" horiz-adv-x="408" 
d="M194 114h197v-114h-374v103l212 286h-212v114h374v-115z" />
    <glyph glyph-name="braceleft" unicode="{" horiz-adv-x="311" 
d="M198 480v-107q0 -58 -22 -88q-11 -15 -43 -34q14 -16 26 -28q39 -40 39 -105v-95q0 -50 16 -60.5t60 -10.5h14v-120h-34l-33 -2h-17q-84 0 -118.5 32t-34.5 110v148q0 39 -11 57t-40 27v94q51 16 51 75v159q0 77 34.5 108.5t120.5 31.5l12 -1t37 -1h33v-120h-13
q-47 0 -62 -12t-15 -58z" />
    <glyph glyph-name="bar" unicode="|" 
d="M168 670h166v-838h-166v838z" />
    <glyph glyph-name="braceright" unicode="}" horiz-adv-x="311" 
d="M113 22v107q0 58 22 88q11 15 43 34q-50 53 -56 70q-9 25 -9 63v95q0 50 -16 60.5t-60 10.5h-14v120h34l33 2h17q84 0 118.5 -32t34.5 -110v-148q0 -39 11 -57t40 -27v-94q-51 -16 -51 -75v-159q0 -77 -34.5 -108.5t-120.5 -31.5l-12 1t-37 1h-33v120h13q47 0 62 12
t15 58z" />
    <glyph glyph-name="asciitilde" unicode="~" horiz-adv-x="670" 
d="M172 550l-79 66q56 142 152 142q33 0 113 -33q58 -24 74 -24q37 0 68 60l80 -67q-31 -76 -67 -108t-91 -32q-32 0 -112 34q-49 21 -71 21q-34 0 -67 -59z" />
    <glyph glyph-name="nonbreakingspace" unicode="&#xa0;" horiz-adv-x="251" 
 />
    <glyph glyph-name="exclamdown" unicode="&#xa1;" horiz-adv-x="297" 
d="M226 503v-154h-156v154h156zM226 282v-450h-156v450h156z" />
    <glyph glyph-name="cent" unicode="&#xa2;" horiz-adv-x="553" 
d="M334 652v-92q64 -16 112 -67.5t55 -112.5h-157q-20 36 -64 36q-32 0 -55 -22.5t-23 -54.5t22.5 -54t55.5 -22q36 0 61 31h160q-11 -62 -57.5 -111.5t-104.5 -59.5v-95h-124v95q-76 25 -119 82.5t-43 132.5q0 76 44 135.5t118 83.5v95h119z" />
    <glyph glyph-name="sterling" unicode="&#xa3;" horiz-adv-x="553" 
d="M400 229h145q10 -29 10 -58q0 -39 -20 -75q-54 -96 -178 -96h-322v134h45q83 0 83 49q0 24 -17 46l-22 28h-116v121h44q-26 48 -26 85q0 91 71 156t170 65q137 0 203 -107q26 -41 35 -117h-158q-7 73 -70 73q-34 0 -57 -23.5t-23 -58.5q0 -37 31 -73h142v-121h-70
q30 -34 30 -61q0 -31 -36 -62h38q74 0 74 62q0 15 -6 33z" />
    <glyph glyph-name="currency" unicode="&#xa4;" horiz-adv-x="728" 
d="M545 256h-216q20 -54 65 -86t101 -32q84 0 139 74v-199q-63 -26 -137 -26q-124 0 -221 75.5t-123 193.5h-127l64 152h61q25 121 121 198.5t222 77.5q115 0 207 -65l-69 -158q-58 72 -138 72q-124 0 -168 -125h283z" />
    <glyph glyph-name="yen" unicode="&#xa5;" horiz-adv-x="553" 
d="M196 168h-126v105h113l-39 90h-101v105h56l-88 202h171l96 -269l96 269h169l-91 -212h59v-105h-104l-34 -80h111v-105h-124v-168h-164v168z" />
    <glyph glyph-name="brokenbar" unicode="&#xa6;" 
d="M168 670h166v-357h-166v357zM168 154h166v-322h-166v322z" />
    <glyph glyph-name="section" unicode="&#xa7;" horiz-adv-x="553" 
d="M487 510h-138q-14 49 -75 49q-58 0 -58 -44q0 -29 50 -51l154 -69q105 -47 105 -140q0 -37 -15.5 -65.5t-56.5 -67.5q43 -59 43 -119q0 -81 -59 -132.5t-152 -51.5q-122 0 -192 83q-39 46 -44 116h138q12 -72 96 -72q32 0 53.5 15.5t21.5 38.5q0 20 -15.5 34.5
t-58.5 34.5l-144 66q-60 27 -86 61.5t-26 85.5q0 83 80 141q-27 40 -27 94q0 74 56 120t146 46q87 0 144 -48.5t60 -124.5zM343 287l-155 70q-33 -16 -33 -46q0 -33 45 -54l170 -78q31 20 31 52q0 30 -58 56z" />
    <glyph glyph-name="dieresis" unicode="&#xa8;" 
d="M79 577v137h144v-137h-144zM280 577v137h144v-137h-144z" />
    <glyph glyph-name="copyright" unicode="&#xa9;" horiz-adv-x="788" 
d="M497 290h120q-19 -73 -80 -117t-143 -44q-97 0 -164 61t-67 149q0 87 66.5 147.5t163.5 60.5q83 0 147.5 -47t76.5 -116h-120q-29 69 -104 69q-49 0 -82 -32.5t-33 -81.5t33 -82.5t82 -33.5q69 0 104 67zM395 683q143 0 245.5 -102.5t102.5 -245.5t-102.5 -245.5
t-245.5 -102.5q-146 0 -247.5 102.5t-101.5 249.5q0 140 103.5 242t245.5 102zM395 641q-123 0 -213 -90t-90 -213q0 -128 88.5 -218.5t214.5 -90.5q124 0 213 90t89 215q0 126 -89 216.5t-213 90.5z" />
    <glyph glyph-name="ordfeminine" unicode="&#xaa;" horiz-adv-x="427" 
d="M387 571v-303h-96v27q-31 -37 -100 -37q-74 0 -121 45t-47 117q0 71 47.5 116.5t123.5 45.5q66 0 97 -38v27h96zM204 494q-33 0 -56 -21t-23 -52q0 -32 23 -53.5t57 -21.5q35 0 57.5 21t22.5 54q0 32 -23 52.5t-58 20.5z" />
    <glyph glyph-name="guillemotleft" unicode="&#xab;" horiz-adv-x="370" 
d="M151 437v-135l-47 -40l47 -43v-133l-117 116v116zM315 437v-135l-47 -40l47 -43v-133l-117 116v116z" />
    <glyph glyph-name="logicalnot" unicode="&#xac;" 
d="M310 0v150h-276v144h436v-294h-160z" />
    <glyph glyph-name="sfthyphen" unicode="&#xad;" horiz-adv-x="255" 
d="M255 321v-127h-255v127h255z" />
    <glyph glyph-name="registered" unicode="&#xae;" horiz-adv-x="788" 
d="M240 141v402h140q97 0 136 -29q54 -40 54 -111q0 -49 -29.5 -84t-77.5 -42l119 -136h-132l-99 125v-125h-111zM351 343h37q71 0 71 54q0 52 -70 52h-38v-106zM395 683q143 0 245.5 -102.5t102.5 -245.5t-102.5 -245.5t-245.5 -102.5q-146 0 -247.5 102.5t-101.5 249.5
q0 140 103.5 242t245.5 102zM395 641q-123 0 -213 -90t-90 -213q0 -128 88.5 -218.5t214.5 -90.5q124 0 213 90t89 215q0 126 -89 216.5t-213 90.5z" />
    <glyph glyph-name="overscore.001" unicode="&#xaf;" 
d="M0 885h503v-96h-503v96z" />
    <glyph glyph-name="degree" unicode="&#xb0;" horiz-adv-x="385" 
d="M192 688q63 0 107 -43t44 -104t-44 -104.5t-106 -43.5q-63 0 -107 43.5t-44 106.5q0 59 44.5 102t105.5 43zM192 614q-30 0 -52 -21.5t-22 -50.5q0 -31 22 -52.5t53 -21.5q30 0 52 21.5t22 51.5t-22 51.5t-53 21.5z" />
    <glyph glyph-name="plusminus" unicode="&#xb1;" horiz-adv-x="553" 
d="M334 392h177v-114h-177v-167h-114v167h-178v114h178v178h114v-178zM42 80h469v-114h-469v114z" />
    <glyph glyph-name="twosuperior" unicode="&#xb2;" horiz-adv-x="376" 
d="M200 358h144v-90h-311v82q77 45 112 77q81 72 81 120q0 37 -39 37q-45 0 -48 -63h-110q3 62 26 95q44 62 136 62q64 0 107 -34t43 -85q0 -49 -31.5 -94t-109.5 -107z" />
    <glyph glyph-name="threesuperior" unicode="&#xb3;" horiz-adv-x="374" 
d="M21 390h117q9 -36 48 -36q46 0 46 37q0 38 -57 38h-41v79h21q53 0 53 43q0 33 -29 33q-32 0 -32 -34h-114q1 58 42.5 93t108.5 35q59 0 99 -32t40 -79q0 -55 -55 -83q79 -26 79 -97q0 -53 -48 -90t-115 -37q-101 0 -141 60q-16 24 -22 70z" />
    <glyph glyph-name="acute" unicode="&#xb4;" 
d="M353 770l60 -92l-205 -132l-51 74z" />
    <glyph glyph-name="mu1" unicode="&#xb5;" 
d="M27 -172v655h139v-249q0 -59 15 -85q25 -43 71 -43q84 0 84 131v246h139v-483h-139v63q-28 -73 -87 -73q-52 0 -83 59v-221h-139z" />
    <glyph glyph-name="mu1" unicode="&#x3bc;" 
d="M27 -172v655h139v-249q0 -59 15 -85q25 -43 71 -43q84 0 84 131v246h139v-483h-139v63q-28 -73 -87 -73q-52 0 -83 59v-221h-139z" />
    <glyph glyph-name="paragraph" unicode="&#xb6;" horiz-adv-x="553" 
d="M202 -94v415h-12q-76 0 -123 47.5t-47 123.5q0 107 79 151q48 27 141 27h280v-87h-58v-677h-90v677h-80v-677h-90z" />
    <glyph glyph-name="middot.001" unicode="&#xb7;" horiz-adv-x="263" 
d="M210 335v-154h-156v154h156z" />
    <glyph glyph-name="cedilla" unicode="&#xb8;" 
d="M278 0l-27 -52q15 3 25 3q30 0 51.5 -22t21.5 -53q0 -43 -28 -69.5t-72 -26.5q-86 0 -96 83h63q11 -25 31 -25q35 0 35 34q0 31 -31 31q-14 0 -27 -13l-45 31l38 79h61z" />
    <glyph glyph-name="onesuperior" unicode="&#xb9;" horiz-adv-x="376" 
d="M260 670v-402h-115v312h-71v90h186z" />
    <glyph glyph-name="ordmasculine" unicode="&#xba;" horiz-adv-x="405" 
d="M202 581q77 0 128 -46t51 -115q0 -70 -51 -116t-130 -46q-76 0 -126 46t-50 117q0 68 51 114t127 46zM202 493q-32 0 -54 -21t-22 -51q0 -32 22 -53.5t54 -21.5q33 0 55 21t22 53q0 30 -22.5 51.5t-54.5 21.5z" />
    <glyph glyph-name="guillemotright" unicode="&#xbb;" horiz-adv-x="355" 
d="M204 86v135l47 40l-47 42v134l117 -120v-116zM40 86v135l47 40l-47 42v134l117 -120v-116z" />
    <glyph glyph-name="onequarter" unicode="&#xbc;" horiz-adv-x="905" 
d="M260 670v-402h-115v312h-71v90h186zM547 670h92l-281 -670h-93zM733 70h-191v77l195 255h107v-248h48v-84h-48v-70h-111v70zM745 149v128l-90 -128h90z" />
    <glyph glyph-name="onehalf" unicode="&#xbd;" horiz-adv-x="905" 
d="M260 670v-402h-115v312h-71v90h186zM547 670h92l-281 -670h-93zM729 90h144v-90h-311v82q80 48 112 77q81 72 81 120q0 37 -39 37q-45 0 -48 -63h-110q3 62 26 95q44 62 136 62q64 0 107 -34t43 -85q0 -49 -31.5 -94t-109.5 -107z" />
    <glyph glyph-name="threequarters" unicode="&#xbe;" horiz-adv-x="904" 
d="M21 390h117q9 -36 48 -36q46 0 46 37q0 38 -57 38h-41v79h21q53 0 53 43q0 33 -29 33q-32 0 -32 -34h-114q1 58 42.5 93t108.5 35q59 0 99 -32t40 -79q0 -55 -55 -83q79 -26 79 -97q0 -53 -48 -90t-115 -37q-101 0 -141 60q-16 24 -22 70zM546 670h92l-282 -670h-92z
M732 70h-192v77l196 255h107v-248h48v-84h-48v-70h-111v70zM744 149v128l-90 -128h90z" />
    <glyph glyph-name="questiondown" unicode="&#xbf;" horiz-adv-x="498" 
d="M318 61h166q1 -7 1 -17q0 -98 -67 -161.5t-171 -63.5q-92 0 -154.5 55.5t-62.5 136.5q0 51 26 94q19 32 76 84q66 61 70 100h156q1 -68 -93 -159q-61 -59 -61 -100q0 -56 52 -56q33 0 47 20t15 67zM202 349v154h156v-154h-156z" />
    <glyph glyph-name="Agrave" unicode="&#xc0;" horiz-adv-x="664" 
d="M449 97h-232l-36 -97h-184l269 670h135l266 -670h-185zM263 233h141l-70 229zM177 937l241 -131l-44 -92l-248 109z" />
    <glyph glyph-name="Aacute" unicode="&#xc1;" horiz-adv-x="664" 
d="M449 97h-232l-36 -97h-184l269 670h135l266 -670h-185zM263 233h141l-70 229zM497 937l51 -114l-247 -109l-45 92z" />
    <glyph glyph-name="Acircumflex" unicode="&#xc2;" horiz-adv-x="664" 
d="M449 97h-232l-36 -97h-184l269 670h135l266 -670h-185zM263 233h141l-70 229zM339 801l-45 -64h-160l133 151h148l128 -151h-158z" />
    <glyph glyph-name="Atilde" unicode="&#xc3;" horiz-adv-x="664" 
d="M449 97h-232l-36 -97h-184l269 670h135l266 -670h-185zM263 233h141l-70 229zM485 880l47 -89q-55 -41 -108 -41q-32 0 -117 26q-13 4 -26 4q-29 0 -66 -32l-49 89q52 43 101 43q33 0 113 -25q13 -4 25 -4q29 0 80 29z" />
    <glyph glyph-name="Adieresis" unicode="&#xc4;" horiz-adv-x="664" 
d="M449 97h-232l-36 -97h-184l269 670h135l266 -670h-185zM263 233h141l-70 229zM148 737v151h158v-151h-158zM365 737v151h158v-151h-158z" />
    <glyph glyph-name="Aring" unicode="&#xc5;" horiz-adv-x="664" 
d="M449 97h-232l-36 -97h-184l269 670h135l266 -670h-185zM263 233h141l-70 229zM341 947q47 0 80.5 -34t33.5 -81t-34 -81t-82 -34t-82 34t-34 82q0 47 34.5 80.5t83.5 33.5zM340 876q-18 0 -30.5 -12.5t-12.5 -30.5q0 -19 12.5 -31.5t29.5 -12.5t29.5 13t12.5 30
q0 18 -12 31t-29 13z" />
    <glyph glyph-name="AE" unicode="&#xc6;" horiz-adv-x="863" 
d="M448 112h-195l-73 -112h-207l466 670h382v-151h-209v-103h202v-151h-202v-114h209v-151h-373v112zM448 245v182l-125 -182h125z" />
    <glyph glyph-name="Ccedilla" unicode="&#xc7;" horiz-adv-x="740" 
d="M403 -12l-17 -35q12 3 18 3q34 0 56.5 -23t22.5 -57q0 -46 -31.5 -76t-79.5 -30q-93 0 -101 92h70q12 -26 34 -26q35 0 35 34t-34 34q-15 0 -29 -15l-51 31l36 70q-131 19 -217 116.5t-86 229.5q0 146 101.5 246.5t249.5 100.5q169 0 272 -125q57 -70 69 -142h-179
q-20 54 -64 85.5t-99 31.5q-76 0 -127.5 -56t-51.5 -139q0 -85 52 -142.5t128 -57.5q106 0 162 113h179q-24 -110 -114.5 -184.5t-203.5 -78.5z" />
    <glyph glyph-name="Egrave" unicode="&#xc8;" horiz-adv-x="471" 
d="M57 0v670h373v-151h-209v-103h202v-151h-202v-114h209v-151h-373zM91 937l241 -131l-44 -92l-248 109z" />
    <glyph glyph-name="Eacute" unicode="&#xc9;" horiz-adv-x="471" 
d="M57 0v670h373v-151h-209v-103h202v-151h-202v-114h209v-151h-373zM405 937l51 -114l-247 -109l-45 92z" />
    <glyph glyph-name="Ecircumflex" unicode="&#xca;" horiz-adv-x="471" 
d="M57 0v670h373v-151h-209v-103h202v-151h-202v-114h209v-151h-373zM247 801l-45 -64h-160l133 151h148l128 -151h-158z" />
    <glyph glyph-name="Edieresis" unicode="&#xcb;" horiz-adv-x="471" 
d="M57 0v670h373v-151h-209v-103h202v-151h-202v-114h209v-151h-373zM59 737v151h158v-151h-158zM276 737v151h158v-151h-158z" />
    <glyph glyph-name="Igrave" unicode="&#xcc;" horiz-adv-x="285" 
d="M57 0v670h171v-670h-171zM-10 926l225 -120l-45 -92l-231 102z" />
    <glyph glyph-name="Iacute" unicode="&#xcd;" horiz-adv-x="285" 
d="M57 0v670h171v-670h-171zM301 926l51 -110l-231 -102l-44 92z" />
    <glyph glyph-name="Icircumflex" unicode="&#xce;" horiz-adv-x="285" 
d="M57 0v670h171v-670h-171zM146 808l-42 -71h-153l123 151h148l118 -151h-152z" />
    <glyph glyph-name="Idieresis" unicode="&#xcf;" horiz-adv-x="285" 
d="M57 0v670h171v-670h-171zM-15 737v151h137v-151h-137zM170 737v151h137v-151h-137z" />
    <glyph glyph-name="Eth" unicode="&#xd0;" horiz-adv-x="666" 
d="M57 0v288h-57v121h57v261h226q97 0 156 -20t107 -70q91 -94 91 -242q0 -152 -87 -245t-229 -93h-264zM228 151h74q64 0 102 28q62 46 62 153q0 90 -42.5 138.5t-120.5 48.5h-75v-110h124v-121h-124v-137z" />
    <glyph glyph-name="Ntilde" unicode="&#xd1;" horiz-adv-x="680" 
d="M57 0v670h147l262 -421l-7 421h164v-670h-149l-259 408l6 -408h-164zM482 880l47 -89q-55 -41 -108 -41q-32 0 -117 26q-13 4 -26 4q-29 0 -66 -32l-49 89q52 43 101 43q33 0 113 -25q13 -4 25 -4q29 0 80 29z" />
    <glyph glyph-name="Ograve" unicode="&#xd2;" horiz-adv-x="765" 
d="M382 684q149 0 252 -101t103 -248q0 -146 -102.5 -247t-251.5 -101q-152 0 -253 101t-101 252q0 144 102.5 244t250.5 100zM383 533q-77 0 -130 -56t-53 -138q0 -86 53 -143.5t133 -57.5q76 0 128 57t52 139q0 84 -53 141.5t-130 57.5zM217 937l241 -131l-44 -92
l-248 109z" />
    <glyph glyph-name="Oacute" unicode="&#xd3;" horiz-adv-x="765" 
d="M382 684q149 0 252 -101t103 -248q0 -146 -102.5 -247t-251.5 -101q-152 0 -253 101t-101 252q0 144 102.5 244t250.5 100zM383 533q-77 0 -130 -56t-53 -138q0 -86 53 -143.5t133 -57.5q76 0 128 57t52 139q0 84 -53 141.5t-130 57.5zM561 937l51 -114l-247 -109l-45 92
z" />
    <glyph glyph-name="Ocircumflex" unicode="&#xd4;" horiz-adv-x="765" 
d="M382 684q149 0 252 -101t103 -248q0 -146 -102.5 -247t-251.5 -101q-152 0 -253 101t-101 252q0 144 102.5 244t250.5 100zM383 533q-77 0 -130 -56t-53 -138q0 -86 53 -143.5t133 -57.5q76 0 128 57t52 139q0 84 -53 141.5t-130 57.5zM387 801l-45 -64h-160l133 151h148
l128 -151h-158z" />
    <glyph glyph-name="Otilde" unicode="&#xd5;" horiz-adv-x="765" 
d="M382 684q149 0 252 -101t103 -248q0 -146 -102.5 -247t-251.5 -101q-152 0 -253 101t-101 252q0 144 102.5 244t250.5 100zM383 533q-77 0 -130 -56t-53 -138q0 -86 53 -143.5t133 -57.5q76 0 128 57t52 139q0 84 -53 141.5t-130 57.5zM539 880l47 -89q-55 -41 -108 -41
q-32 0 -117 26q-13 4 -26 4q-29 0 -66 -32l-49 89q52 43 101 43q33 0 113 -25q13 -4 25 -4q29 0 80 29z" />
    <glyph glyph-name="Odieresis" unicode="&#xd6;" horiz-adv-x="765" 
d="M382 684q149 0 252 -101t103 -248q0 -146 -102.5 -247t-251.5 -101q-152 0 -253 101t-101 252q0 144 102.5 244t250.5 100zM383 533q-77 0 -130 -56t-53 -138q0 -86 53 -143.5t133 -57.5q76 0 128 57t52 139q0 84 -53 141.5t-130 57.5zM199 737v151h158v-151h-158z
M416 737v151h158v-151h-158z" />
    <glyph glyph-name="multiply" unicode="&#xd7;" horiz-adv-x="553" 
d="M355 335l138 -138l-79 -79l-138 139l-138 -139l-79 79l138 138l-138 138l79 79l138 -138l138 138l79 -79z" />
    <glyph glyph-name="Oslash" unicode="&#xd8;" horiz-adv-x="765" 
d="M72 14l58 79q-101 85 -101 243q0 149 103 248t257 99q75 0 153 -30l58 77l97 -75l-58 -76q98 -111 98 -244q0 -141 -97 -242q-103 -107 -275 -107q-87 0 -142 33l-57 -76zM231 224l217 296q-27 12 -61 12q-86 0 -136 -59q-53 -63 -53 -141q0 -56 33 -108zM538 441
l-217 -292q27 -12 59 -12q88 0 140 65q46 57 46 132q0 55 -28 107z" />
    <glyph glyph-name="Ugrave" unicode="&#xd9;" horiz-adv-x="615" 
d="M50 670h171v-405q0 -127 88 -127q42 0 63.5 26t21.5 101v405h171v-405q0 -137 -67 -205q-71 -73 -189 -73q-119 0 -192 72q-38 37 -52.5 82t-14.5 124v405zM135 937l241 -131l-44 -92l-248 109z" />
    <glyph glyph-name="Uacute" unicode="&#xda;" horiz-adv-x="615" 
d="M50 670h171v-405q0 -127 88 -127q42 0 63.5 26t21.5 101v405h171v-405q0 -137 -67 -205q-71 -73 -189 -73q-119 0 -192 72q-38 37 -52.5 82t-14.5 124v405zM489 937l51 -114l-247 -109l-45 92z" />
    <glyph glyph-name="Ucircumflex" unicode="&#xdb;" horiz-adv-x="615" 
d="M50 670h171v-405q0 -127 88 -127q42 0 63.5 26t21.5 101v405h171v-405q0 -137 -67 -205q-71 -73 -189 -73q-119 0 -192 72q-38 37 -52.5 82t-14.5 124v405zM311 801l-45 -64h-160l133 151h148l128 -151h-158z" />
    <glyph glyph-name="Udieresis" unicode="&#xdc;" horiz-adv-x="615" 
d="M50 670h171v-405q0 -127 88 -127q42 0 63.5 26t21.5 101v405h171v-405q0 -137 -67 -205q-71 -73 -189 -73q-119 0 -192 72q-38 37 -52.5 82t-14.5 124v405zM126 737v151h158v-151h-158zM343 737v151h158v-151h-158z" />
    <glyph glyph-name="Yacute" unicode="&#xdd;" horiz-adv-x="550" 
d="M190 0v244l-200 426h186l100 -269l100 269h184l-199 -426v-244h-171zM460 937l51 -114l-247 -109l-45 92z" />
    <glyph glyph-name="Thorn" unicode="&#xde;" horiz-adv-x="581" 
d="M57 0v670h164v-87h55q145 0 206 -50q79 -65 79 -178q0 -108 -71 -174q-62 -58 -195 -58h-74v-123h-164zM221 274h69q50 0 75 22t25 57q0 41 -29 63q-21 16 -77 16h-63v-158z" />
    <glyph glyph-name="germandbls" unicode="&#xdf;" horiz-adv-x="621" 
d="M198 0h-151v387q0 85 12 129.5t46 82.5q78 88 198 88q89 0 151 -55t62 -134q0 -74 -64 -117q62 -15 101.5 -64t39.5 -111q0 -92 -68.5 -157.5t-165.5 -65.5q-50 0 -85.5 16.5t-75.5 58.5v-58zM198 189h83q19 -65 79 -65q35 0 58.5 24t23.5 58q0 39 -27 61.5t-74 22.5h-82
v113h30q35 0 55.5 19t20.5 50q0 32 -22 53t-56 21q-45 0 -70 -35q-19 -26 -19 -82v-240z" />
    <glyph glyph-name="agrave" unicode="&#xe0;" horiz-adv-x="631" 
d="M580 503v-503h-142v54q-35 -71 -156 -71q-113 0 -184 75t-71 194q0 118 72.5 193.5t186.5 75.5q111 0 152 -71v53h142zM303 379q-53 0 -89 -36.5t-36 -89.5q0 -55 36 -92t90 -37q55 0 90.5 36t35.5 92q0 55 -36 91t-91 36zM205 770l196 -150l-51 -74l-205 132z" />
    <glyph glyph-name="aacute" unicode="&#xe1;" horiz-adv-x="631" 
d="M580 503v-503h-142v54q-35 -71 -156 -71q-113 0 -184 75t-71 194q0 118 72.5 193.5t186.5 75.5q111 0 152 -71v53h142zM303 379q-53 0 -89 -36.5t-36 -89.5q0 -55 36 -92t90 -37q55 0 90.5 36t35.5 92q0 55 -36 91t-91 36zM458 770l60 -92l-205 -132l-51 74z" />
    <glyph glyph-name="acircumflex" unicode="&#xe2;" horiz-adv-x="631" 
d="M580 503v-503h-142v54q-35 -71 -156 -71q-113 0 -184 75t-71 194q0 118 72.5 193.5t186.5 75.5q111 0 152 -71v53h142zM303 379q-53 0 -89 -36.5t-36 -89.5q0 -55 36 -92t90 -37q55 0 90.5 36t35.5 92q0 55 -36 91t-91 36zM332 634l-41 -58h-143l134 151h104l130 -151
h-142z" />
    <glyph glyph-name="atilde" unicode="&#xe3;" horiz-adv-x="631" 
d="M580 503v-503h-142v54q-35 -71 -156 -71q-113 0 -184 75t-71 194q0 118 72.5 193.5t186.5 75.5q111 0 152 -71v53h142zM303 379q-53 0 -89 -36.5t-36 -89.5q0 -55 36 -92t90 -37q55 0 90.5 36t35.5 92q0 55 -36 91t-91 36zM466 701l39 -78q-47 -46 -106 -46q-18 0 -61 16
q-35 13 -61 13q-32 0 -62 -31l-46 78q48 46 98 46q25 0 101 -23q20 -6 33 -6q18 0 65 31z" />
    <glyph glyph-name="adieresis" unicode="&#xe4;" horiz-adv-x="631" 
d="M580 503v-503h-142v54q-35 -71 -156 -71q-113 0 -184 75t-71 194q0 118 72.5 193.5t186.5 75.5q111 0 152 -71v53h142zM303 379q-53 0 -89 -36.5t-36 -89.5q0 -55 36 -92t90 -37q55 0 90.5 36t35.5 92q0 55 -36 91t-91 36zM161 577v137h144v-137h-144zM362 577v137h144
v-137h-144z" />
    <glyph glyph-name="aring" unicode="&#xe5;" horiz-adv-x="631" 
d="M580 503v-503h-142v54q-35 -71 -156 -71q-113 0 -184 75t-71 194q0 118 72.5 193.5t186.5 75.5q111 0 152 -71v53h142zM303 379q-53 0 -89 -36.5t-36 -89.5q0 -55 36 -92t90 -37q55 0 90.5 36t35.5 92q0 55 -36 91t-91 36zM332 778q46 0 79 -33t33 -79t-33 -79.5
t-80 -33.5t-80.5 33t-33.5 80t33.5 79.5t81.5 32.5zM331 711q-18 0 -31 -13t-13 -32t13 -32t30 -13q18 0 31 13t13 32q0 18 -13 31.5t-30 13.5z" />
    <glyph glyph-name="ae" unicode="&#xe6;" horiz-adv-x="985" 
d="M953 204h-378q7 -43 38 -68.5t77 -25.5q53 0 98 49h151q-75 -176 -238 -176q-91 0 -136 71v-54h-137v54q-30 -71 -148 -71q-106 0 -172 63q-82 78 -82 205q0 119 72 194t186 75q103 0 144 -71v54h137v-53q45 70 136 70q109 0 182.5 -80.5t73.5 -199.5q0 -17 -4 -36z
M578 305h230q-25 87 -113 87q-44 0 -76.5 -24.5t-40.5 -62.5zM300 379q-52 0 -87.5 -37t-35.5 -90q0 -55 36.5 -91.5t91.5 -36.5q52 0 87.5 36.5t35.5 90.5q0 57 -35.5 92.5t-92.5 35.5z" />
    <glyph glyph-name="ccedilla" unicode="&#xe7;" horiz-adv-x="577" 
d="M308 -17l-18 -35q15 3 25 3q30 0 51.5 -22t21.5 -53q0 -43 -28 -69.5t-72 -26.5q-86 0 -96 83h63q9 -25 31 -25q35 0 35 34q0 31 -31 31q-15 0 -28 -14l-44 32l32 66q-70 16 -112 46q-111 81 -111 220q0 113 76.5 190t188.5 77q99 0 173 -58.5t94 -152.5h-153
q-29 70 -109 70q-52 0 -85.5 -36.5t-33.5 -92.5q0 -55 33.5 -90.5t85.5 -35.5q67 0 111 67h152q-23 -90 -91.5 -147t-160.5 -61z" />
    <glyph glyph-name="egrave" unicode="&#xe8;" horiz-adv-x="581" 
d="M382 157h154q-35 -82 -100 -128t-146 -46q-109 0 -186 78t-77 189q0 113 76 191.5t185 78.5q113 0 189 -78.5t76 -196.5q0 -20 -4 -41h-376q5 -42 35.5 -68t74.5 -26q52 0 92 40zM176 305h227q-7 39 -38.5 63t-75.5 24q-92 0 -113 -87zM172 770l196 -150l-51 -74
l-205 132z" />
    <glyph glyph-name="eacute" unicode="&#xe9;" horiz-adv-x="581" 
d="M382 157h154q-35 -82 -100 -128t-146 -46q-109 0 -186 78t-77 189q0 113 76 191.5t185 78.5q113 0 189 -78.5t76 -196.5q0 -20 -4 -41h-376q5 -42 35.5 -68t74.5 -26q52 0 92 40zM176 305h227q-7 39 -38.5 63t-75.5 24q-92 0 -113 -87zM422 770l60 -92l-205 -132l-51 74z
" />
    <glyph glyph-name="ecircumflex" unicode="&#xea;" horiz-adv-x="581" 
d="M382 157h154q-35 -82 -100 -128t-146 -46q-109 0 -186 78t-77 189q0 113 76 191.5t185 78.5q113 0 189 -78.5t76 -196.5q0 -20 -4 -41h-376q5 -42 35.5 -68t74.5 -26q52 0 92 40zM176 305h227q-7 39 -38.5 63t-75.5 24q-92 0 -113 -87zM300 634l-41 -58h-143l134 151h104
l130 -151h-142z" />
    <glyph glyph-name="edieresis" unicode="&#xeb;" horiz-adv-x="581" 
d="M382 157h154q-35 -82 -100 -128t-146 -46q-109 0 -186 78t-77 189q0 113 76 191.5t185 78.5q113 0 189 -78.5t76 -196.5q0 -20 -4 -41h-376q5 -42 35.5 -68t74.5 -26q52 0 92 40zM176 305h227q-7 39 -38.5 63t-75.5 24q-92 0 -113 -87zM128 577v137h144v-137h-144z
M329 577v137h144v-137h-144z" />
    <glyph glyph-name="igrave" unicode="&#xec;" horiz-adv-x="251" 
d="M201 503v-503h-151v503h151zM14 759l183 -139l-52 -74l-191 122z" />
    <glyph glyph-name="iacute" unicode="&#xed;" horiz-adv-x="251" 
d="M201 503v-503h-151v503h151zM251 759l59 -88l-191 -125l-51 74z" />
    <glyph glyph-name="icircumflex" unicode="&#xee;" horiz-adv-x="251" 
d="M201 503v-503h-151v503h151zM129 641l-37 -65h-137l124 151h104l120 -151h-135z" />
    <glyph glyph-name="idieresis" unicode="&#xef;" horiz-adv-x="251" 
d="M202 503v-503h-151v503h151zM-18 577v137h124v-137h-124zM153 577v137h124v-137h-124z" />
    <glyph glyph-name="eth" unicode="&#xf0;" horiz-adv-x="599" 
d="M233 602l63 21q-17 28 -40 58l96 26q21 -23 41 -51l72 22l36 -59l-68 -22q138 -213 138 -350q0 -113 -77 -188t-194 -75q-119 0 -196 75t-77 191q0 111 70.5 183t179.5 72q42 0 88 -20q-12 26 -13 30q-14 29 -26 49l-63 -21zM297 377q-53 0 -86 -34t-33 -89
q0 -58 33.5 -94t87.5 -36q53 0 87 35t34 89q0 56 -34.5 92.5t-88.5 36.5z" />
    <glyph glyph-name="ntilde" unicode="&#xf1;" horiz-adv-x="563" 
d="M50 0v503h142v-53q51 70 138 70q83 0 136 -51q28 -27 39 -61t11 -94v-314h-151v274q0 51 -15 74q-20 31 -64 31q-59 0 -79 -49q-6 -15 -6 -49v-281h-151zM418 701l39 -78q-47 -46 -106 -46q-18 0 -61 16q-35 13 -61 13q-32 0 -62 -31l-46 78q48 46 98 46q25 0 101 -23
q20 -6 33 -6q18 0 65 31z" />
    <glyph glyph-name="ograve" unicode="&#xf2;" horiz-adv-x="598" 
d="M298 520q134 0 211 -95q61 -75 61 -173q0 -113 -79 -194q-74 -75 -194 -75q-118 0 -194 76t-76 194q0 112 79 192q74 75 192 75zM299 379q-50 0 -85.5 -37t-35.5 -89q0 -55 34.5 -92t86.5 -37q51 0 85.5 36.5t34.5 91.5q0 52 -35 89.5t-85 37.5zM170 770l196 -150
l-51 -74l-205 132z" />
    <glyph glyph-name="oacute" unicode="&#xf3;" horiz-adv-x="598" 
d="M298 520q134 0 211 -95q61 -75 61 -173q0 -113 -79 -194q-74 -75 -194 -75q-118 0 -194 76t-76 194q0 112 79 192q74 75 192 75zM299 379q-50 0 -85.5 -37t-35.5 -89q0 -55 34.5 -92t86.5 -37q51 0 85.5 36.5t34.5 91.5q0 52 -35 89.5t-85 37.5zM430 770l60 -92
l-205 -132l-51 74z" />
    <glyph glyph-name="ocircumflex" unicode="&#xf4;" horiz-adv-x="598" 
d="M298 520q134 0 211 -95q61 -75 61 -173q0 -113 -79 -194q-74 -75 -194 -75q-118 0 -194 76t-76 194q0 112 79 192q74 75 192 75zM299 379q-50 0 -85.5 -37t-35.5 -89q0 -55 34.5 -92t86.5 -37q51 0 85.5 36.5t34.5 91.5q0 52 -35 89.5t-85 37.5zM302 634l-41 -58h-143
l134 151h104l130 -151h-142z" />
    <glyph glyph-name="otilde" unicode="&#xf5;" horiz-adv-x="598" 
d="M298 520q134 0 211 -95q61 -75 61 -173q0 -113 -79 -194q-74 -75 -194 -75q-118 0 -194 76t-76 194q0 112 79 192q74 75 192 75zM299 379q-50 0 -85.5 -37t-35.5 -89q0 -55 34.5 -92t86.5 -37q51 0 85.5 36.5t34.5 91.5q0 52 -35 89.5t-85 37.5zM444 701l39 -78
q-47 -46 -106 -46q-18 0 -61 16q-35 13 -61 13q-32 0 -62 -31l-46 78q48 46 98 46q25 0 101 -23q20 -6 33 -6q18 0 65 31z" />
    <glyph glyph-name="odieresis" unicode="&#xf6;" horiz-adv-x="598" 
d="M298 520q134 0 211 -95q61 -75 61 -173q0 -113 -79 -194q-74 -75 -194 -75q-118 0 -194 76t-76 194q0 112 79 192q74 75 192 75zM299 379q-50 0 -85.5 -37t-35.5 -89q0 -55 34.5 -92t86.5 -37q51 0 85.5 36.5t34.5 91.5q0 52 -35 89.5t-85 37.5zM129 577v137h144v-137
h-144zM330 577v137h144v-137h-144z" />
    <glyph glyph-name="divide" unicode="&#xf7;" horiz-adv-x="553" 
d="M42 392h469v-114h-469v114zM214 565h126v-120h-126v120zM214 225h126v-120h-126v120z" />
    <glyph glyph-name="oslash" unicode="&#xf8;" horiz-adv-x="598" 
d="M421 497l51 68l65 -51l-47 -65q15 -18 39 -52q41 -65 41 -146q0 -112 -76.5 -190t-185.5 -78q-56 0 -141 27l-48 -59l-65 47l47 63q-74 77 -74 190t76 191t187 78q57 0 131 -23zM202 176l139 193q-23 10 -41 10q-52 0 -87 -36.5t-35 -91.5q0 -36 24 -75zM395 325
l-142 -190q24 -11 44 -11q53 0 87.5 36.5t34.5 92.5q0 34 -24 72z" />
    <glyph glyph-name="ugrave" unicode="&#xf9;" horiz-adv-x="565" 
d="M515 503v-503h-142v54q-38 -71 -134 -71q-91 0 -146 63q-26 31 -36 64t-10 92v301h151v-281q0 -55 21.5 -76.5t59.5 -21.5q85 0 85 98v281h151zM158 770l196 -150l-51 -74l-205 132z" />
    <glyph glyph-name="uacute" unicode="&#xfa;" horiz-adv-x="565" 
d="M515 503v-503h-142v54q-38 -71 -134 -71q-91 0 -146 63q-26 31 -36 64t-10 92v301h151v-281q0 -55 21.5 -76.5t59.5 -21.5q85 0 85 98v281h151zM414 770l60 -92l-205 -132l-51 74z" />
    <glyph glyph-name="ucircumflex" unicode="&#xfb;" horiz-adv-x="565" 
d="M515 503v-503h-142v54q-38 -71 -134 -71q-91 0 -146 63q-26 31 -36 64t-10 92v301h151v-281q0 -55 21.5 -76.5t59.5 -21.5q85 0 85 98v281h151zM289 634l-41 -58h-143l134 151h104l130 -151h-142z" />
    <glyph glyph-name="udieresis" unicode="&#xfc;" horiz-adv-x="565" 
d="M515 503v-503h-142v54q-38 -71 -134 -71q-91 0 -146 63q-26 31 -36 64t-10 92v301h151v-281q0 -55 21.5 -76.5t59.5 -21.5q85 0 85 98v281h151zM115 577v137h144v-137h-144zM316 577v137h144v-137h-144z" />
    <glyph glyph-name="yacute" unicode="&#xfd;" horiz-adv-x="499" 
d="M349 503h160l-252 -671h-160l80 193l-187 478h160l102 -292zM391 770l60 -92l-205 -132l-51 74z" />
    <glyph glyph-name="thorn" unicode="&#xfe;" horiz-adv-x="624" 
d="M50 -168v838h151v-211q64 61 150 61q107 0 174 -73q72 -78 72 -200q0 -112 -70.5 -188t-174.5 -76q-92 0 -151 63v-214h-151zM319 379q-53 0 -89.5 -36t-36.5 -89q0 -55 36.5 -92.5t90.5 -37.5q53 0 89.5 37t36.5 91t-36.5 90.5t-90.5 36.5z" />
    <glyph glyph-name="ydieresis" unicode="&#xff;" horiz-adv-x="499" 
d="M349 503h160l-252 -671h-160l80 193l-187 478h160l102 -292zM80 577v137h144v-137h-144zM281 577v137h144v-137h-144z" />
    <glyph glyph-name="Amacron" unicode="&#x100;" horiz-adv-x="664" 
d="M449 97h-232l-36 -97h-184l269 670h135l266 -670h-185zM263 233h141l-70 229zM516 865v-101h-345v101h345z" />
    <glyph glyph-name="amacron" unicode="&#x101;" horiz-adv-x="631" 
d="M580 503v-503h-142v54q-35 -71 -156 -71q-113 0 -184 75t-71 194q0 118 72.5 193.5t186.5 75.5q111 0 152 -71v53h142zM303 379q-53 0 -89 -36.5t-36 -89.5q0 -55 36 -92t90 -37q55 0 90.5 36t35.5 92q0 55 -36 91t-91 36zM499 684v-88h-322v88h322z" />
    <glyph glyph-name="Abreve" unicode="&#x102;" horiz-adv-x="664" 
d="M449 97h-232l-36 -97h-184l269 670h135l266 -670h-185zM263 233h141l-70 229zM148 885h116q7 -50 70 -50q67 0 74 50h116q-6 -71 -49 -108q-55 -47 -139 -47q-96 0 -149 57q-35 37 -39 98z" />
    <glyph glyph-name="abreve" unicode="&#x103;" horiz-adv-x="631" 
d="M580 503v-503h-142v54q-35 -71 -156 -71q-113 0 -184 75t-71 194q0 118 72.5 193.5t186.5 75.5q111 0 152 -71v53h142zM303 379q-53 0 -89 -36.5t-36 -89.5q0 -55 36 -92t90 -37q55 0 90.5 36t35.5 92q0 55 -36 91t-91 36zM164 709h95q20 -44 76 -44q51 0 69 44h95
q-8 -136 -167 -136q-77 0 -120.5 35.5t-47.5 100.5z" />
    <glyph glyph-name="Aogonek" unicode="&#x104;" horiz-adv-x="664" 
d="M667 0h-50q-37 -19 -49 -31.5t-12 -31.5t13.5 -32t33.5 -13q16 0 47 13v-82q-48 -18 -81 -18q-47 0 -80.5 26.5t-33.5 64.5q0 59 84 104h-57l-33 97h-232l-36 -97h-184l269 670h135zM263 233h141l-70 229z" />
    <glyph glyph-name="aogonek" unicode="&#x105;" horiz-adv-x="631" 
d="M513 0l-12 -6q-43 -21 -43 -59q0 -18 13.5 -31t32.5 -13q17 0 44 11l-1 -75q-45 -14 -77 -14q-49 0 -78.5 24.5t-29.5 63.5q0 48 76 99v54q-35 -71 -156 -71q-113 0 -184 75t-71 194q0 118 72.5 193.5t186.5 75.5q111 0 152 -71v53h142v-503h-67zM303 379
q-53 0 -89 -36.5t-36 -89.5q0 -55 36 -92t90 -37q55 0 90.5 36t35.5 92q0 55 -36 91t-91 36z" />
    <glyph glyph-name="Cacute" unicode="&#x106;" horiz-adv-x="740" 
d="M542 251h179q-28 -118 -122 -191t-217 -73q-148 0 -250.5 102t-102.5 248t101.5 246t249.5 100q169 0 272 -125q57 -70 69 -142h-179q-20 54 -64 85.5t-99 31.5q-76 0 -127.5 -56t-51.5 -139q0 -85 52 -142.5t128 -57.5q106 0 162 113zM501 937l62 -89l-183 -134l-54 79z
" />
    <glyph glyph-name="cacute" unicode="&#x107;" horiz-adv-x="577" 
d="M408 191h152q-23 -92 -96 -150t-168 -58q-113 0 -191 78t-78 191t76.5 190.5t188.5 77.5q99 0 173 -58.5t94 -152.5h-153q-29 70 -109 70q-52 0 -85.5 -36.5t-33.5 -92.5q0 -55 33.5 -90.5t85.5 -35.5q67 0 111 67zM376 766l74 -75l-146 -145l-62 59z" />
    <glyph glyph-name="Ccircumflex" unicode="&#x108;" horiz-adv-x="740" 
d="M542 251h179q-28 -118 -122 -191t-217 -73q-148 0 -250.5 102t-102.5 248t101.5 246t249.5 100q169 0 272 -125q57 -70 69 -142h-179q-20 54 -64 85.5t-99 31.5q-76 0 -127.5 -56t-51.5 -139q0 -85 52 -142.5t128 -57.5q106 0 162 113zM384 801l-45 -64h-160l132 151h149
l128 -151h-159z" />
    <glyph glyph-name="ccircumflex" unicode="&#x109;" horiz-adv-x="577" 
d="M408 191h152q-23 -92 -96 -150t-168 -58q-113 0 -191 78t-78 191t76.5 190.5t188.5 77.5q99 0 173 -58.5t94 -152.5h-153q-29 70 -109 70q-52 0 -85.5 -36.5t-33.5 -92.5q0 -55 33.5 -90.5t85.5 -35.5q67 0 111 67zM291 634l-41 -58h-144l134 151h105l130 -151h-142z" />
    <glyph glyph-name="Cdotaccent" unicode="&#x10a;" horiz-adv-x="740" 
d="M542 251h179q-28 -118 -122 -191t-217 -73q-148 0 -250.5 102t-102.5 248t101.5 246t249.5 100q169 0 272 -125q57 -70 69 -142h-179q-20 54 -64 85.5t-99 31.5q-76 0 -127.5 -56t-51.5 -139q0 -85 52 -142.5t128 -57.5q106 0 162 113zM308 737v151h158v-151h-158z" />
    <glyph glyph-name="cdotaccent" unicode="&#x10b;" horiz-adv-x="577" 
d="M408 191h152q-23 -92 -96 -150t-168 -58q-113 0 -191 78t-78 191t76.5 190.5t188.5 77.5q99 0 173 -58.5t94 -152.5h-153q-29 70 -109 70q-52 0 -85.5 -36.5t-33.5 -92.5q0 -55 33.5 -90.5t85.5 -35.5q67 0 111 67zM233 577v137h144v-137h-144z" />
    <glyph glyph-name="Ccaron" unicode="&#x10c;" horiz-adv-x="740" 
d="M542 251h179q-28 -118 -122 -191t-217 -73q-148 0 -250.5 102t-102.5 248t101.5 246t249.5 100q169 0 272 -125q57 -70 69 -142h-179q-20 54 -64 85.5t-99 31.5q-76 0 -127.5 -56t-51.5 -139q0 -85 52 -142.5t128 -57.5q106 0 162 113zM386 824l45 64h160l-132 -151h-149
l-128 151h159z" />
    <glyph glyph-name="ccaron" unicode="&#x10d;" horiz-adv-x="577" 
d="M408 191h152q-23 -92 -96 -150t-168 -58q-113 0 -191 78t-78 191t76.5 190.5t188.5 77.5q99 0 173 -58.5t94 -152.5h-153q-29 70 -109 70q-52 0 -85.5 -36.5t-33.5 -92.5q0 -55 33.5 -90.5t85.5 -35.5q67 0 111 67zM304 669l41 58h143l-133 -151h-105l-130 151h142z" />
    <glyph glyph-name="Dcaron" unicode="&#x10e;" horiz-adv-x="666" 
d="M57 0v670h226q97 0 156 -20t107 -70q91 -94 91 -242q0 -171 -108 -265q-84 -73 -208 -73h-264zM228 151h74q65 0 102 28q62 47 62 153q0 102 -54 151q-39 36 -109 36h-75v-368zM305 824l45 64h160l-132 -151h-149l-128 151h159z" />
    <glyph glyph-name="dcaron" unicode="&#x10f;" horiz-adv-x="770" 
d="M575 670v-670h-142v54q-60 -71 -155 -71q-110 0 -181 76t-71 193q0 116 71 192t179 76q89 0 148 -60v210h151zM306 379q-56 0 -92.5 -35.5t-36.5 -90.5q0 -56 36 -92.5t91 -36.5t92 37t37 93q0 53 -36.5 89t-90.5 36zM762 670v-102q0 -52 -19 -75q-24 -29 -59 -29h-55v60
h27q33 0 33 29v17h-60v100h133z" />
    <glyph glyph-name="Dcroat" unicode="&#x110;" horiz-adv-x="666" 
d="M57 0v288h-57v121h57v261h226q97 0 156 -20t107 -70q91 -94 91 -242q0 -152 -87 -245t-229 -93h-264zM228 151h74q64 0 102 28q62 46 62 153q0 90 -42.5 138.5t-120.5 48.5h-75v-110h124v-121h-124v-137z" />
    <glyph glyph-name="glyph211" unicode="&#x111;" horiz-adv-x="626" 
d="M575 546v-546h-142v54q-60 -71 -154 -71q-110 0 -181 76t-71 193q0 116 71 192t179 76q88 0 147 -60v86h-110v84h110v40h151v-40h57v-84h-57zM306 379q-56 0 -92 -35.5t-36 -90.5q0 -56 36 -92.5t91 -36.5t91.5 37t36.5 93q0 53 -36.5 89t-90.5 36z" />
    <glyph glyph-name="Emacron" unicode="&#x112;" horiz-adv-x="471" 
d="M57 0v670h373v-151h-209v-103h202v-151h-202v-114h209v-151h-373zM418 865v-101h-345v101h345z" />
    <glyph glyph-name="emacron" unicode="&#x113;" horiz-adv-x="581" 
d="M382 157h154q-35 -82 -100 -128t-146 -46q-109 0 -186 78t-77 189q0 113 76 191.5t185 78.5q113 0 189 -78.5t76 -196.5q0 -20 -4 -41h-376q5 -42 35.5 -68t74.5 -26q52 0 92 40zM176 305h227q-7 39 -38.5 63t-75.5 24q-92 0 -113 -87zM461 684v-88h-322v88h322z" />
    <glyph glyph-name="Ebreve" unicode="&#x114;" horiz-adv-x="471" 
d="M57 0v670h373v-151h-209v-103h202v-151h-202v-114h209v-151h-373zM62 885h116q7 -50 70 -50q67 0 74 50h116q-6 -71 -49 -108q-55 -47 -139 -47q-96 0 -149 57q-35 37 -39 98z" />
    <glyph glyph-name="ebreve" unicode="&#x115;" horiz-adv-x="581" 
d="M382 157h154q-35 -82 -100 -128t-146 -46q-109 0 -186 78t-77 189q0 113 76 191.5t185 78.5q113 0 189 -78.5t76 -196.5q0 -20 -4 -41h-376q5 -42 35.5 -68t74.5 -26q52 0 92 40zM176 305h227q-7 39 -38.5 63t-75.5 24q-92 0 -113 -87zM126 709h95q19 -44 76 -44
q51 0 69 44h95q-8 -136 -168 -136q-159 0 -167 136z" />
    <glyph glyph-name="Edotaccent" unicode="&#x116;" horiz-adv-x="471" 
d="M57 0v670h373v-151h-209v-103h202v-151h-202v-114h209v-151h-373zM168 737v151h158v-151h-158z" />
    <glyph glyph-name="edotaccent" unicode="&#x117;" horiz-adv-x="581" 
d="M382 157h154q-35 -82 -100 -128t-146 -46q-109 0 -186 78t-77 189q0 113 76 191.5t185 78.5q113 0 189 -78.5t76 -196.5q0 -20 -4 -41h-376q5 -42 35.5 -68t74.5 -26q52 0 92 40zM176 305h227q-7 39 -38.5 63t-75.5 24q-92 0 -113 -87zM228 577v137h144v-137h-144z" />
    <glyph glyph-name="Eogonek" unicode="&#x118;" horiz-adv-x="471" 
d="M430 0h-32q-36 -19 -48.5 -31.5t-12.5 -31.5t14 -32t34 -13q16 0 47 13v-82q-53 -18 -82 -18q-47 0 -80.5 27t-33.5 64q0 59 85 104h-264v670h373v-151h-209v-103h202v-151h-202v-114h209v-151z" />
    <glyph glyph-name="eogonek" unicode="&#x119;" horiz-adv-x="581" 
d="M382 157h154q-40 -96 -125 -143q-42 -34 -42 -77q0 -20 13.5 -33t32.5 -13q17 0 44 11v-75q-46 -14 -78 -14q-50 0 -79 24.5t-29 66.5q0 37 34 80q-10 -1 -19 -1q-107 0 -184 78.5t-77 188.5q0 113 76 191.5t185 78.5q113 0 189 -78.5t76 -196.5q0 -20 -4 -41h-376
q5 -42 35.5 -68t74.5 -26q52 0 92 40zM176 305h227q-7 39 -38.5 63t-75.5 24q-92 0 -113 -87z" />
    <glyph glyph-name="Ecaron" unicode="&#x11a;" horiz-adv-x="471" 
d="M57 0v670h373v-151h-209v-103h202v-151h-202v-114h209v-151h-373zM256 824l45 64h160l-132 -151h-149l-128 151h159z" />
    <glyph glyph-name="ecaron" unicode="&#x11b;" horiz-adv-x="581" 
d="M382 157h154q-35 -82 -100 -128t-146 -46q-109 0 -186 78t-77 189q0 113 76 191.5t185 78.5q113 0 189 -78.5t76 -196.5q0 -20 -4 -41h-376q5 -42 35.5 -68t74.5 -26q52 0 92 40zM176 305h227q-7 39 -38.5 63t-75.5 24q-92 0 -113 -87zM297 669l41 58h143l-133 -151h-105
l-130 151h142z" />
    <glyph glyph-name="Gcircumflex" unicode="&#x11c;" horiz-adv-x="771" 
d="M344 381h398l1 -35q4 -152 -100.5 -255.5t-257.5 -103.5q-149 0 -252.5 101.5t-103.5 248.5q0 153 109 253q47 43 114.5 68t135.5 25q115 0 210 -67.5t124 -169.5h-192q-47 87 -147 87q-78 0 -132 -56q-51 -52 -51 -132q0 -97 53.5 -152.5t141.5 -55.5q57 0 96.5 28.5
t51.5 78.5h-199v137zM393 801l-45 -64h-160l132 151h149l128 -151h-159z" />
    <glyph glyph-name="gcircumflex" unicode="&#x11d;" horiz-adv-x="623" 
d="M573 503v-442q0 -65 -3 -88q-6 -48 -29 -82q-36 -53 -104 -84t-150 -31q-102 0 -170.5 48.5t-79.5 128.5h173q21 -50 89 -50q63 0 98 46q24 31 24 90v16q-16 -31 -59 -51.5t-92 -20.5q-101 0 -172 77.5t-71 187.5q0 117 73 194.5t183 77.5q94 0 148 -64v47h142zM300 379
q-51 0 -86.5 -36.5t-35.5 -88.5q0 -56 34.5 -93t86.5 -37q54 0 88.5 35t34.5 90q0 57 -34.5 93.5t-87.5 36.5zM328 634l-41 -58h-143l134 151h104l130 -151h-142z" />
    <glyph glyph-name="Gbreve" unicode="&#x11e;" horiz-adv-x="771" 
d="M344 381h398l1 -35q4 -152 -100.5 -255.5t-257.5 -103.5q-149 0 -252.5 101.5t-103.5 248.5q0 153 109 253q47 43 114.5 68t135.5 25q115 0 210 -67.5t124 -169.5h-192q-47 87 -147 87q-78 0 -132 -56q-51 -52 -51 -132q0 -97 53.5 -152.5t141.5 -55.5q57 0 96.5 28.5
t51.5 78.5h-199v137zM204 885h116q7 -50 70 -50q67 0 74 50h116q-6 -71 -49 -108q-55 -47 -139 -47q-96 0 -149 57q-35 37 -39 98z" />
    <glyph glyph-name="gbreve" unicode="&#x11f;" horiz-adv-x="623" 
d="M573 503v-442q0 -65 -3 -88q-6 -48 -29 -82q-36 -53 -104 -84t-150 -31q-102 0 -170.5 48.5t-79.5 128.5h173q21 -50 89 -50q63 0 98 46q24 31 24 90v16q-16 -31 -59 -51.5t-92 -20.5q-101 0 -172 77.5t-71 187.5q0 117 73 194.5t183 77.5q94 0 148 -64v47h142zM300 379
q-51 0 -86.5 -36.5t-35.5 -88.5q0 -56 34.5 -93t86.5 -37q54 0 88.5 35t34.5 90q0 57 -34.5 93.5t-87.5 36.5zM157 709h95q20 -44 76 -44q51 0 69 44h95q-8 -136 -167 -136q-160 0 -168 136z" />
    <glyph glyph-name="Gdotaccent" unicode="&#x120;" horiz-adv-x="771" 
d="M344 381h398l1 -35q4 -152 -100.5 -255.5t-257.5 -103.5q-149 0 -252.5 101.5t-103.5 248.5q0 153 109 253q47 43 114.5 68t135.5 25q115 0 210 -67.5t124 -169.5h-192q-47 87 -147 87q-78 0 -132 -56q-51 -52 -51 -132q0 -97 53.5 -152.5t141.5 -55.5q57 0 96.5 28.5
t51.5 78.5h-199v137zM310 737v151h158v-151h-158z" />
    <glyph glyph-name="gdotaccent" unicode="&#x121;" horiz-adv-x="623" 
d="M573 503v-442q0 -65 -3 -88q-6 -48 -29 -82q-36 -53 -104 -84t-150 -31q-102 0 -170.5 48.5t-79.5 128.5h173q21 -50 89 -50q63 0 98 46q24 31 24 90v16q-16 -31 -59 -51.5t-92 -20.5q-101 0 -172 77.5t-71 187.5q0 117 73 194.5t183 77.5q94 0 148 -64v47h142zM300 379
q-51 0 -86.5 -36.5t-35.5 -88.5q0 -56 34.5 -93t86.5 -37q54 0 88.5 35t34.5 90q0 57 -34.5 93.5t-87.5 36.5zM249 577v137h144v-137h-144z" />
    <glyph glyph-name="Gcommaaccent" unicode="&#x122;" horiz-adv-x="771" 
d="M344 381h398l1 -35q4 -152 -100.5 -255.5t-257.5 -103.5q-149 0 -252.5 101.5t-103.5 248.5q0 153 109 253q47 43 114.5 68t135.5 25q115 0 210 -67.5t124 -169.5h-192q-47 87 -147 87q-78 0 -132 -56q-51 -52 -51 -132q0 -97 53.5 -152.5t141.5 -55.5q57 0 96.5 28.5
t51.5 78.5h-199v137zM450 -52v-102q0 -49 -20 -74q-23 -29 -59 -29h-55v60h27q33 0 33 29v16h-60v100h134z" />
    <glyph glyph-name="gcommaaccent" unicode="&#x123;" horiz-adv-x="623" 
d="M573 503v-442q0 -65 -3 -88q-6 -48 -29 -82q-36 -53 -104 -84t-150 -31q-102 0 -170.5 48.5t-79.5 128.5h173q21 -50 89 -50q63 0 98 46q24 31 24 90v16q-16 -31 -59 -51.5t-92 -20.5q-101 0 -172 77.5t-71 187.5q0 117 73 194.5t183 77.5q94 0 148 -64v47h142zM300 379
q-51 0 -86.5 -36.5t-35.5 -88.5q0 -56 34.5 -93t86.5 -37q54 0 88.5 35t34.5 90q0 57 -34.5 93.5t-87.5 36.5zM251 573v102q0 50 20 75q23 29 59 29h55v-60h-27q-33 0 -33 -29v-17h60v-100h-134z" />
    <glyph glyph-name="Hcircumflex" unicode="&#x124;" horiz-adv-x="675" 
d="M57 0v670h171v-251h219v251h171v-670h-171v268h-219v-268h-171zM341 801l-45 -64h-160l133 151h148l128 -151h-158z" />
    <glyph glyph-name="hcircumflex" unicode="&#x125;" horiz-adv-x="563" 
d="M51 0v670h151v-213q37 63 131 63q109 0 157 -82q26 -44 26 -157v-281h-151v274q0 105 -80 105q-39 0 -63 -26q-20 -21 -20 -74v-279h-151zM131 801l-45 -64h-160l133 151h148l128 -151h-158z" />
    <glyph glyph-name="Hbar" unicode="&#x126;" horiz-adv-x="675" 
d="M618 486v-486h-171v268h-219v-268h-171v486h-57v121h57v63h171v-63h219v63h171v-63h57v-121h-57zM447 486h-219v-67h219v67z" />
    <glyph glyph-name="hbar" unicode="&#x127;" horiz-adv-x="563" 
d="M50 633v37h151v-37h104v-84h-104v-92q37 63 131 63q87 0 137 -54q27 -29 37 -68t10 -117v-281h-151v274q0 105 -80 105q-40 0 -64 -26q-20 -21 -20 -74v-279h-151v549h-57v84h57z" />
    <glyph glyph-name="Itilde" unicode="&#x128;" horiz-adv-x="285" 
d="M57 0v670h171v-670h-171zM281 880l47 -89q-55 -41 -108 -41q-32 0 -117 26q-13 4 -26 4q-29 0 -66 -32l-49 89q52 43 101 43q33 0 113 -25q13 -4 25 -4q29 0 80 29z" />
    <glyph glyph-name="itilde" unicode="&#x129;" horiz-adv-x="251" 
d="M201 503v-503h-151v503h151zM260 701l39 -78q-47 -46 -106 -46q-18 0 -61 16q-35 13 -61 13q-32 0 -62 -31l-46 78q48 46 98 46q25 0 101 -23q20 -6 33 -6q18 0 65 31z" />
    <glyph glyph-name="Imacron" unicode="&#x12a;" horiz-adv-x="285" 
d="M57 0v670h171v-670h-171zM305 865v-101h-318v101h318z" />
    <glyph glyph-name="imacron" unicode="&#x12b;" horiz-adv-x="251" 
d="M202 503v-503h-151v503h151zM277 684v-88h-295v88h295z" />
    <glyph glyph-name="Ibreve" unicode="&#x12c;" horiz-adv-x="285" 
d="M57 0v670h171v-670h-171zM-48 885h116q7 -50 70 -50q67 0 74 50h116q-6 -71 -49 -108q-55 -47 -139 -47q-96 0 -149 57q-35 37 -39 98z" />
    <glyph glyph-name="ibreve" unicode="&#x12d;" horiz-adv-x="251" 
d="M201 503v-503h-151v503h151zM-29 709h95q19 -44 63 -44q45 0 62 44h95q-3 -58 -43 -95q-45 -41 -114 -41q-76 0 -122 48q-32 33 -36 88z" />
    <glyph glyph-name="Iogonek" unicode="&#x12e;" horiz-adv-x="285" 
d="M228 0h-36q-37 -19 -49 -31.5t-12 -31.5t13.5 -32t33.5 -13q15 0 47 13v-82q-48 -18 -81 -18q-47 0 -80.5 27t-33.5 64q0 59 84 104h-57v670h171v-670z" />
    <glyph glyph-name="iogonek" unicode="&#x12f;" horiz-adv-x="251" 
d="M171 0l-12 -6q-43 -21 -43 -59q0 -18 13.5 -31t32.5 -13q17 0 44 11v-75q-46 -14 -78 -14q-49 0 -78.5 24t-29.5 64q0 49 76 99h-46v503h151v-503h-30zM201 670v-114h-151v114h151z" />
    <glyph glyph-name="Idotaccent" unicode="&#x130;" horiz-adv-x="285" 
d="M57 0v670h171v-670h-171zM67 737v151h158v-151h-158z" />
    <glyph glyph-name="dotlessi" unicode="&#x131;" horiz-adv-x="251" 
d="M201 503v-503h-151v503h151z" />
    <glyph glyph-name="IJ" unicode="&#x132;" horiz-adv-x="782" 
d="M57 0v670h171v-670h-171zM561 670h171v-406q0 -135 -41 -189q-31 -40 -82.5 -64t-107.5 -24q-61 0 -114 26.5t-81 71.5q-31 50 -31 130h182q4 -77 53 -77q36 0 47 35q4 14 4 49v448z" />
    <glyph glyph-name="ij" unicode="&#x133;" horiz-adv-x="493" 
d="M201 503v-503h-151v503h151zM201 670v-114h-151v114h151zM442 503v-491q0 -111 -40.5 -153.5t-146.5 -42.5h-37v114h20q30 0 41.5 16.5t11.5 59.5v497h151zM442 670v-114h-151v114h151z" />
    <glyph glyph-name="Jcircumflex" unicode="&#x134;" horiz-adv-x="507" 
d="M286 670h171v-406q0 -135 -41 -189q-31 -40 -82.5 -64t-107.5 -24q-61 0 -114 26.5t-81 71.5q-31 50 -31 130h182q4 -77 53 -77q23 0 37 17t14 67v448zM373 801l-44 -64h-161l133 151h149l128 -151h-159z" />
    <glyph glyph-name="jcircumflex" unicode="&#x135;" horiz-adv-x="251" 
d="M201 503v-491q0 -111 -40.5 -153.5t-146.5 -42.5h-37v114h20q30 0 41.5 16.5t11.5 59.5v497h151zM129 634l-41 -58h-143l134 151h104l130 -151h-142z" />
    <glyph glyph-name="Kcommaaccent" unicode="&#x136;" horiz-adv-x="606" 
d="M57 0v670h171v-302l191 302h180l-222 -334l236 -336h-200l-185 290v-290h-171zM372 -52v-102q0 -49 -20 -74q-23 -29 -59 -29h-55v60h27q33 0 33 29v16h-60v100h134z" />
    <glyph glyph-name="kcommaaccent" unicode="&#x137;" horiz-adv-x="514" 
d="M50 0v670h151v-349l141 182h178l-189 -221l184 -282h-171l-143 242v-242h-151zM327 -52v-102q0 -49 -20 -74q-23 -29 -59 -29h-55v60h27q33 0 33 29v16h-60v100h134z" />
    <glyph glyph-name="kgreenlandic" unicode="&#x138;" horiz-adv-x="514" 
d="M50 0v503h151v-182l141 182h178l-189 -221l184 -282h-171l-143 242v-242h-151z" />
    <glyph glyph-name="Lacute" unicode="&#x139;" horiz-adv-x="440" 
d="M57 0v670h171v-519h198v-151h-369zM250 937l63 -89l-183 -134l-54 79z" />
    <glyph glyph-name="lacute" unicode="&#x13a;" horiz-adv-x="251" 
d="M50 0v670h151v-670h-151zM245 937l62 -89l-183 -134l-54 79z" />
    <glyph glyph-name="Lcommaaccent" unicode="&#x13b;" horiz-adv-x="440" 
d="M57 0v670h171v-519h198v-151h-369zM316 -52v-102q0 -49 -20 -74q-23 -29 -59 -29h-55v60h27q33 0 33 29v16h-60v100h134z" />
    <glyph glyph-name="lcommaaccent" unicode="&#x13c;" horiz-adv-x="251" 
d="M50 0v670h151v-670h-151zM193 -52v-102q0 -49 -20 -74q-23 -29 -59 -29h-55v60h27q33 0 33 29v16h-60v100h134z" />
    <glyph glyph-name="Lcaron" unicode="&#x13d;" horiz-adv-x="440" 
d="M57 0v670h171v-519h198v-151h-369zM422 670v-102q0 -49 -20 -75q-22 -29 -59 -29h-55v60h27q33 0 33 29v17h-60v100h134z" />
    <glyph glyph-name="lcaron" unicode="&#x13e;" horiz-adv-x="395" 
d="M50 0v670h151v-670h-151zM388 670v-102q0 -50 -20 -75q-23 -29 -59 -29h-55v60h27q33 0 33 29v17h-60v100h134z" />
    <glyph glyph-name="Ldot" unicode="&#x13f;" horiz-adv-x="440" 
d="M57 0v670h171v-519h198v-151h-369zM440 419v-154h-156v154h156z" />
    <glyph glyph-name="ldot" unicode="&#x140;" horiz-adv-x="408" 
d="M50 0v670h151v-670h-151zM407 419v-154h-156v154h156z" />
    <glyph glyph-name="Lslash" unicode="&#x141;" horiz-adv-x="440" 
d="M228 302v-151h198v-151h-369v217l-57 -41v142l57 41v311h171v-225l125 86v-143z" />
    <glyph glyph-name="lslash" unicode="&#x142;" horiz-adv-x="251" 
d="M201 325v-325h-151v255l-50 -38v105l50 37v311h151v-241l50 38v-105z" />
    <glyph glyph-name="Nacute" unicode="&#x143;" horiz-adv-x="680" 
d="M57 0v670h147l262 -421l-7 421h164v-670h-149l-259 408l6 -408h-164zM526 937l51 -114l-247 -109l-45 92z" />
    <glyph glyph-name="nacute" unicode="&#x144;" horiz-adv-x="563" 
d="M50 0v503h142v-53q51 70 138 70q83 0 136 -51q28 -27 39 -61t11 -94v-314h-151v274q0 51 -15 74q-20 31 -64 31q-59 0 -79 -49q-6 -15 -6 -49v-281h-151zM428 770l59 -92l-204 -132l-52 74z" />
    <glyph glyph-name="Ncommaaccent" unicode="&#x145;" horiz-adv-x="680" 
d="M57 0v670h147l262 -421l-7 421h164v-670h-149l-259 408l6 -408h-164zM404 -52v-102q0 -49 -20 -74q-23 -29 -59 -29h-55v60h27q33 0 33 29v16h-60v100h134z" />
    <glyph glyph-name="ncommaaccent" unicode="&#x146;" horiz-adv-x="563" 
d="M50 0v503h142v-53q51 70 138 70q83 0 136 -51q28 -27 39 -61t11 -94v-314h-151v274q0 51 -15 74q-20 31 -64 31q-59 0 -79 -49q-6 -15 -6 -49v-281h-151zM347 -52v-102q0 -49 -20 -74q-23 -29 -59 -29h-55v60h27q33 0 33 29v16h-60v100h134z" />
    <glyph glyph-name="Ncaron" unicode="&#x147;" horiz-adv-x="680" 
d="M57 0v670h147l262 -421l-7 421h164v-670h-149l-259 408l6 -408h-164zM349 824l45 64h160l-132 -151h-149l-128 151h159z" />
    <glyph glyph-name="ncaron" unicode="&#x148;" horiz-adv-x="563" 
d="M50 0v503h142v-53q51 70 138 70q83 0 136 -51q28 -27 39 -61t11 -94v-314h-151v274q0 51 -15 74q-20 31 -64 31q-59 0 -79 -49q-6 -15 -6 -49v-281h-151zM289 669l41 58h143l-133 -151h-105l-130 151h142z" />
    <glyph glyph-name="napostrophe" unicode="&#x149;" horiz-adv-x="776" 
d="M210 670v-190q0 -49 -25.5 -79.5t-66.5 -30.5h-64v81h31q39 0 39 34v31h-70v154h156zM264 0v503h142v-53q51 70 138 70q83 0 136 -51q28 -27 39 -61t11 -94v-314h-151v274q0 51 -15 74q-20 31 -64 31q-46 0 -71 -35q-14 -20 -14 -63v-281h-151z" />
    <glyph glyph-name="Eng" unicode="&#x14a;" horiz-adv-x="622" 
d="M57 670h162v-64q50 77 149 77q91 0 148 -56q31 -31 43.5 -67.5t12.5 -102.5v-446q0 -110 -40.5 -152.5t-146.5 -42.5h-57v127h20q30 0 41.5 16.5t11.5 59.5v393q0 59 -16 82q-23 34 -67 34q-47 0 -75 -39q-15 -21 -15 -69v-420h-171v670z" />
    <glyph glyph-name="eng" unicode="&#x14b;" horiz-adv-x="563" 
d="M50 0v503h142v-53q51 70 138 70q83 0 136 -51q28 -27 39 -61t11 -94v-303q0 -110 -40.5 -152.5t-146.5 -42.5h-37v114h20q30 0 41.5 16.5t11.5 59.5v268q0 51 -15 74q-20 31 -64 31q-59 0 -79 -49q-6 -15 -6 -49v-281h-151z" />
    <glyph glyph-name="Omacron" unicode="&#x14c;" horiz-adv-x="765" 
d="M382 684q149 0 252 -101t103 -248q0 -146 -102.5 -247t-251.5 -101q-152 0 -253 101t-101 252q0 144 102.5 244t250.5 100zM383 533q-77 0 -130 -56t-53 -138q0 -86 53 -143.5t133 -57.5q76 0 128 57t52 139q0 84 -53 141.5t-130 57.5zM559 865v-101h-345v101h345z" />
    <glyph glyph-name="omacron" unicode="&#x14d;" horiz-adv-x="598" 
d="M298 520q134 0 211 -95q61 -75 61 -173q0 -113 -79 -194q-74 -75 -194 -75q-118 0 -194 76t-76 194q0 112 79 192q74 75 192 75zM299 379q-50 0 -85.5 -37t-35.5 -89q0 -55 34.5 -92t86.5 -37q51 0 85.5 36.5t34.5 91.5q0 52 -35 89.5t-85 37.5zM463 684v-88h-322v88h322
z" />
    <glyph glyph-name="Obreve" unicode="&#x14e;" horiz-adv-x="765" 
d="M382 684q149 0 252 -101t103 -248q0 -146 -102.5 -247t-251.5 -101q-152 0 -253 101t-101 252q0 144 102.5 244t250.5 100zM383 533q-77 0 -130 -56t-53 -138q0 -86 53 -143.5t133 -57.5q76 0 128 57t52 139q0 84 -53 141.5t-130 57.5zM192 885h116q7 -50 70 -50
q66 0 75 50h115q-6 -71 -49 -108q-55 -47 -139 -47q-95 0 -149 57q-34 35 -39 98z" />
    <glyph glyph-name="obreve" unicode="&#x14f;" horiz-adv-x="598" 
d="M298 520q134 0 211 -95q61 -75 61 -173q0 -113 -79 -194q-74 -75 -194 -75q-118 0 -194 76t-76 194q0 112 79 192q74 75 192 75zM299 379q-50 0 -85.5 -37t-35.5 -89q0 -55 34.5 -92t86.5 -37q51 0 85.5 36.5t34.5 91.5q0 52 -35 89.5t-85 37.5zM128 709h95
q20 -44 77 -44q50 0 68 44h95q-8 -136 -167 -136q-77 0 -120.5 35.5t-47.5 100.5z" />
    <glyph glyph-name="Ohungarumlaut" unicode="&#x150;" horiz-adv-x="765" 
d="M382 684q149 0 252 -101t103 -248q0 -146 -102.5 -247t-251.5 -101q-152 0 -253 101t-101 252q0 144 102.5 244t250.5 100zM383 533q-77 0 -130 -56t-53 -138q0 -86 53 -143.5t133 -57.5q76 0 128 57t52 139q0 84 -53 141.5t-130 57.5zM412 937l63 -89l-183 -134l-54 79z
M613 937l63 -89l-183 -134l-54 79z" />
    <glyph glyph-name="ohungarumlaut" unicode="&#x151;" horiz-adv-x="598" 
d="M298 520q134 0 211 -95q61 -75 61 -173q0 -113 -79 -194q-74 -75 -194 -75q-118 0 -194 76t-76 194q0 112 79 192q74 75 192 75zM299 379q-50 0 -85.5 -37t-35.5 -89q0 -55 34.5 -92t86.5 -37q51 0 85.5 36.5t34.5 91.5q0 52 -35 89.5t-85 37.5zM301 766l74 -75
l-146 -145l-62 59zM470 766l74 -75l-146 -145l-62 59z" />
    <glyph glyph-name="OE" unicode="&#x152;" horiz-adv-x="977" 
d="M935 670v-151h-208v-103h201v-151h-201v-114h208v-151h-373v44q-78 -57 -185 -57q-145 0 -246.5 101t-101.5 246q0 148 101.5 248.5t250.5 100.5q102 0 181 -57v44h373zM381 532q-78 0 -129.5 -56t-51.5 -139q0 -75 44 -133q50 -66 136 -66q78 0 129.5 56.5t51.5 143.5
q0 85 -51 139.5t-129 54.5z" />
    <glyph glyph-name="oe" unicode="&#x153;" horiz-adv-x="971" 
d="M772 157h154q-33 -80 -100 -127t-148 -47q-120 0 -189 90q-71 -90 -195 -90q-115 0 -191 76t-76 191q0 119 75.5 194.5t194.5 75.5q129 0 192 -86q27 38 79.5 62t109.5 24q111 0 188 -79.5t77 -194.5q0 -18 -4 -42h-377q4 -42 35 -67.5t78 -25.5q54 0 97 46zM566 305h227
q-9 40 -39.5 63.5t-73.5 23.5q-44 0 -75.5 -24t-38.5 -63zM299 379q-50 0 -85.5 -37t-35.5 -89q0 -54 35.5 -91.5t86.5 -37.5q50 0 85 37.5t35 90.5q0 52 -36 89.5t-85 37.5z" />
    <glyph glyph-name="Racute" unicode="&#x154;" horiz-adv-x="590" 
d="M57 0v670h212q84 0 128 -10t78 -38q83 -68 83 -183q0 -107 -73 -169q-37 -31 -94 -42l182 -228h-196l-156 217v-217h-164zM221 334h61q112 0 112 95q0 51 -42 76q-23 14 -69 14h-62v-185zM458 937l51 -114l-247 -109l-45 92z" />
    <glyph glyph-name="racute" unicode="&#x155;" horiz-adv-x="325" 
d="M50 0v503h142v-53q22 40 53.5 55t68.5 15h4v-151q-65 -1 -92 -22t-27 -69v-278h-149zM278 770l60 -92l-205 -132l-51 74z" />
    <glyph glyph-name="Rcommaaccent" unicode="&#x156;" horiz-adv-x="590" 
d="M57 0v670h212q84 0 128 -10t78 -38q83 -68 83 -183q0 -107 -73 -169q-37 -31 -94 -42l182 -228h-196l-156 217v-217h-164zM221 334h61q112 0 112 95q0 51 -42 76q-23 14 -69 14h-62v-185zM362 -52v-102q0 -48 -20 -74q-22 -29 -59 -29h-55v60h27q33 0 33 29v16h-60v100
h134z" />
    <glyph glyph-name="rcommaaccent" unicode="&#x157;" horiz-adv-x="325" 
d="M50 0v503h142v-53q22 40 53.5 55t68.5 15h4v-151q-65 -1 -92 -22t-27 -69v-278h-149zM190 -52v-102q0 -49 -19 -74q-22 -29 -59 -29h-55v60h27q33 0 33 29v16h-60v100h133z" />
    <glyph glyph-name="Rcaron" unicode="&#x158;" horiz-adv-x="590" 
d="M57 0v670h212q84 0 128 -10t78 -38q83 -68 83 -183q0 -107 -73 -169q-37 -31 -94 -42l182 -228h-196l-156 217v-217h-164zM221 334h61q112 0 112 95q0 51 -42 76q-23 14 -69 14h-62v-185zM288 824l45 64h160l-133 -151h-148l-129 151h159z" />
    <glyph glyph-name="rcaron" unicode="&#x159;" horiz-adv-x="325" 
d="M50 0v503h142v-53q22 39 53 54.5t69 15.5h4v-151q-65 -1 -92 -22t-27 -69v-278h-149zM189 669l41 58h143l-133 -151h-105l-130 151h142z" />
    <glyph glyph-name="Sacute" unicode="&#x15a;" horiz-adv-x="519" 
d="M493 475h-170q-9 65 -61 65q-25 0 -42 -15.5t-17 -37.5q0 -24 16.5 -39t122.5 -63q84 -38 120.5 -83t36.5 -110q0 -96 -62.5 -151t-171.5 -55q-95 0 -159 43q-71 48 -83 138q-2 18 -2 54h172q0 -42 18.5 -66.5t50.5 -24.5q28 0 47 18.5t19 45.5t-19.5 43.5t-129.5 61.5
q-147 60 -147 186q0 83 68 141t167 58q117 0 181 -77q40 -48 45 -132zM445 937l51 -114l-247 -109l-45 92z" />
    <glyph glyph-name="sacute" unicode="&#x15b;" horiz-adv-x="448" 
d="M409 362h-147q-4 37 -43 37q-48 0 -48 -32q0 -34 78 -55q96 -26 128 -53q48 -40 48 -106q0 -73 -60 -122t-149 -49q-90 0 -149 55q-45 42 -52 112h150q6 -46 57 -46q22 0 37 11.5t15 27.5q0 17 -13.5 28t-30 16.5t-103.5 28.5q-47 12 -77 51t-30 88q0 70 59 118t144 48
q100 0 153 -67q28 -35 33 -91zM355 770l60 -92l-205 -132l-51 74z" />
    <glyph glyph-name="Scircumflex" unicode="&#x15c;" horiz-adv-x="519" 
d="M486 475h-170q-9 65 -61 65q-25 0 -42 -15.5t-17 -37.5q0 -24 16.5 -39t122.5 -63q84 -38 120.5 -83t36.5 -110q0 -96 -62.5 -151t-171.5 -55q-95 0 -159 43q-71 48 -83 138q-2 18 -2 54h172q0 -42 18.5 -66.5t50.5 -24.5q28 0 47 18.5t19 45.5t-19.5 43.5t-129.5 61.5
q-147 60 -147 186q0 83 68 141t167 58q117 0 181 -77q40 -48 45 -132zM266 801l-45 -64h-160l133 151h148l129 -151h-159z" />
    <glyph glyph-name="scircumflex" unicode="&#x15d;" horiz-adv-x="448" 
d="M409 362h-147q-4 37 -43 37q-48 0 -48 -32q0 -34 78 -55q96 -26 128 -53q48 -40 48 -106q0 -73 -60 -122t-149 -49q-90 0 -149 55q-45 42 -52 112h150q6 -46 57 -46q22 0 37 11.5t15 27.5q0 17 -13.5 28t-30 16.5t-103.5 28.5q-47 12 -77 51t-30 88q0 70 59 118t144 48
q100 0 153 -67q28 -35 33 -91zM227 634l-41 -58h-143l133 151h105l130 -151h-142z" />
    <glyph glyph-name="Scedilla" unicode="&#x15e;" horiz-adv-x="519" 
d="M275 -14l-17 -33q9 2 19 2q33 0 55.5 -22.5t22.5 -55.5q0 -46 -31.5 -76.5t-79.5 -30.5q-92 0 -101 92h71q10 -26 33 -26q35 0 35 34t-34 34q-14 0 -28 -15l-52 31l37 70q-95 14 -145 74t-46 157h172q0 -41 18.5 -65.5t50.5 -24.5q28 0 47 18.5t19 45.5q0 28 -20 44.5
t-129 60.5q-147 60 -147 186q0 83 68.5 140.5t166.5 57.5q117 0 181 -77q40 -48 45 -132h-170q-9 65 -61 65q-25 0 -42 -15.5t-17 -37.5q0 -24 17 -38q12 -12 27.5 -20t94.5 -44q85 -38 121 -83t36 -110q0 -131 -109 -182q-35 -16 -108 -24z" />
    <glyph glyph-name="scedilla" unicode="&#x15f;" horiz-adv-x="448" 
d="M231 -17l-18 -35q15 3 25 3q30 0 51.5 -22t21.5 -53q0 -43 -28 -69.5t-72 -26.5q-86 0 -96 83h63q11 -25 31 -25q35 0 35 34q0 31 -31 31q-14 0 -28 -14l-44 32l31 65q-67 11 -110.5 56.5t-46.5 106.5h150q6 -46 57 -46q22 0 37 11.5t15 27.5q0 17 -13.5 28t-30 16.5
t-103.5 28.5q-47 12 -77 51t-30 88q0 70 59 118t144 48q100 0 153 -67q28 -35 33 -91h-147q-4 37 -43 37q-48 0 -48 -32q0 -34 78 -55q96 -26 128 -53q48 -40 48 -105q0 -71 -53.5 -118t-140.5 -53z" />
    <glyph glyph-name="Scaron" unicode="&#x160;" horiz-adv-x="519" 
d="M486 475h-170q-9 65 -61 65q-25 0 -42 -15.5t-17 -37.5q0 -24 16.5 -39t122.5 -63q84 -38 120.5 -83t36.5 -110q0 -96 -62.5 -151t-171.5 -55q-95 0 -159 43q-71 48 -83 138q-2 18 -2 54h172q0 -42 18.5 -66.5t50.5 -24.5q28 0 47 18.5t19 45.5t-19.5 43.5t-129.5 61.5
q-147 60 -147 186q0 83 68 141t167 58q117 0 181 -77q40 -48 45 -132zM276 824l45 64h160l-133 -151h-148l-129 151h159z" />
    <glyph glyph-name="scaron" unicode="&#x161;" horiz-adv-x="448" 
d="M409 362h-147q-4 37 -43 37q-48 0 -48 -32q0 -34 78 -55q96 -26 128 -53q48 -40 48 -106q0 -73 -60 -122t-149 -49q-90 0 -149 55q-45 42 -52 112h150q6 -46 57 -46q22 0 37 11.5t15 27.5q0 17 -13.5 28t-30 16.5t-103.5 28.5q-47 12 -77 51t-30 88q0 70 59 118t144 48
q100 0 153 -67q28 -35 33 -91zM230 669l41 58h143l-133 -151h-105l-130 151h142z" />
    <glyph glyph-name="Tcommaaccent" unicode="&#x162;" horiz-adv-x="450" 
d="M140 0v519h-133v151h436v-151h-132v-519h-171zM292 -52v-102q0 -49 -20 -74q-23 -29 -59 -29h-55v60h27q33 0 33 29v16h-60v100h134z" />
    <glyph glyph-name="tcommaaccent" unicode="&#x163;" horiz-adv-x="295" 
d="M215 670v-167h72v-114h-72v-389h-151v389h-74v114h74v167h151zM208 -52v-102q0 -49 -20 -74q-23 -29 -59 -29h-55v60h27q33 0 33 29v16h-60v100h134z" />
    <glyph glyph-name="Tcaron" unicode="&#x164;" horiz-adv-x="450" 
d="M140 0v519h-133v151h436v-151h-132v-519h-171zM232 824l45 64h160l-133 -151h-148l-129 151h159z" />
    <glyph glyph-name="tcaron" unicode="&#x165;" horiz-adv-x="295" 
d="M214 670v-167h73v-114h-73v-389h-151v389h-73v114h73v167h151zM147 830l41 58h143l-133 -150h-105l-130 150h142z" />
    <glyph glyph-name="Tbar" unicode="&#x166;" horiz-adv-x="450" 
d="M140 426v93h-133v151h436v-151h-132v-93h72v-121h-72v-305h-171v305h-73v121h73z" />
    <glyph glyph-name="tbar" unicode="&#x167;" horiz-adv-x="295" 
d="M215 318h65v-87h-65v-231h-151v231h-67v87h67v78h-74v107h74v167h151v-167h72v-107h-72v-78z" />
    <glyph glyph-name="Utilde" unicode="&#x168;" horiz-adv-x="615" 
d="M50 670h171v-405q0 -127 88 -127q42 0 63.5 26t21.5 101v405h171v-405q0 -137 -67 -205q-71 -73 -189 -73q-119 0 -192 72q-38 37 -52.5 82t-14.5 124v405zM457 880l47 -89q-55 -41 -109 -41q-33 0 -116 26q-13 4 -26 4q-28 0 -67 -32l-48 89q50 43 101 43q34 0 113 -25
q13 -4 25 -4q29 0 80 29z" />
    <glyph glyph-name="utilde" unicode="&#x169;" horiz-adv-x="565" 
d="M515 503v-503h-142v54q-38 -71 -134 -71q-91 0 -146 63q-26 31 -36 64t-10 92v301h151v-281q0 -55 21.5 -76.5t59.5 -21.5q85 0 85 98v281h151zM423 701l40 -78q-49 -46 -107 -46q-19 0 -61 16q-34 13 -61 13q-32 0 -62 -31l-46 78q48 46 98 46q25 0 101 -23q20 -6 33 -6
q19 0 65 31z" />
    <glyph glyph-name="Umacron" unicode="&#x16a;" horiz-adv-x="615" 
d="M50 670h171v-405q0 -127 88 -127q42 0 63.5 26t21.5 101v405h171v-405q0 -137 -67 -205q-71 -73 -189 -73q-119 0 -192 72q-38 37 -52.5 82t-14.5 124v405zM487 865v-101h-346v101h346z" />
    <glyph glyph-name="umacron" unicode="&#x16b;" horiz-adv-x="565" 
d="M515 503v-503h-142v54q-38 -71 -134 -71q-91 0 -146 63q-26 31 -36 64t-10 92v301h151v-281q0 -55 21.5 -76.5t59.5 -21.5q85 0 85 98v281h151zM450 684v-88h-322v88h322z" />
    <glyph glyph-name="Ubreve" unicode="&#x16c;" horiz-adv-x="615" 
d="M50 670h171v-405q0 -127 88 -127q42 0 63.5 26t21.5 101v405h171v-405q0 -137 -67 -205q-71 -73 -189 -73q-119 0 -192 72q-38 37 -52.5 82t-14.5 124v405zM125 885h115q9 -50 71 -50q67 0 74 50h116q-6 -71 -49 -108q-55 -47 -139 -47q-96 0 -149 57q-35 37 -39 98z" />
    <glyph glyph-name="ubreve" unicode="&#x16d;" horiz-adv-x="565" 
d="M515 503v-503h-142v54q-38 -71 -134 -71q-91 0 -146 63q-26 31 -36 64t-10 92v301h151v-281q0 -55 21.5 -76.5t59.5 -21.5q85 0 85 98v281h151zM123 709h96q19 -44 76 -44q52 0 68 44h96q-9 -136 -168 -136t-168 136z" />
    <glyph glyph-name="Uring" unicode="&#x16e;" horiz-adv-x="615" 
d="M50 670h171v-405q0 -127 88 -127q42 0 63.5 26t21.5 101v405h171v-405q0 -137 -67 -205q-71 -73 -189 -73q-119 0 -192 72q-38 37 -52.5 82t-14.5 124v405zM316 947q47 0 80.5 -34t33.5 -81t-34 -81t-82 -34t-82 34t-34 82q0 47 34.5 80.5t83.5 33.5zM315 876
q-18 0 -30.5 -12.5t-12.5 -30.5t12.5 -31t29.5 -13t29.5 13t12.5 30q0 18 -12 31t-29 13z" />
    <glyph glyph-name="uring" unicode="&#x16f;" horiz-adv-x="565" 
d="M515 503v-503h-142v54q-38 -71 -134 -71q-91 0 -146 63q-26 31 -36 64t-10 92v301h151v-281q0 -55 21.5 -76.5t59.5 -21.5q85 0 85 98v281h151zM289 778q46 0 79 -33t33 -79t-33 -79.5t-80 -33.5t-80.5 33t-33.5 80t33.5 79.5t81.5 32.5zM288 711q-18 0 -31 -13t-13 -32
t13 -32t30 -13q18 0 31 13t13 32q0 18 -13 31.5t-30 13.5z" />
    <glyph glyph-name="Uhungarumlaut" unicode="&#x170;" horiz-adv-x="615" 
d="M50 670h171v-405q0 -127 88 -127q42 0 63.5 26t21.5 101v405h171v-405q0 -137 -67 -205q-71 -73 -189 -73q-119 0 -192 72q-38 37 -52.5 82t-14.5 124v405zM327 937l62 -89l-183 -134l-54 79zM528 937l62 -89l-183 -134l-54 79z" />
    <glyph glyph-name="uhungarumlaut" unicode="&#x171;" horiz-adv-x="565" 
d="M515 503v-503h-142v54q-38 -71 -134 -71q-91 0 -146 63q-26 31 -36 64t-10 92v301h151v-281q0 -55 21.5 -76.5t59.5 -21.5q85 0 85 98v281h151zM279 766l73 -75l-145 -145l-62 59zM448 766l73 -75l-145 -145l-63 59z" />
    <glyph glyph-name="Uogonek" unicode="&#x172;" horiz-adv-x="615" 
d="M565 670v-405q0 -75 -15 -121t-52 -85q-28 -29 -64 -46q-51 -34 -51 -74q0 -20 13.5 -33.5t33.5 -13.5q17 0 47 13v-82q-48 -18 -81 -18q-47 0 -80.5 27t-33.5 65q0 44 41 90q-7 -1 -17 -1q-116 0 -189 72q-38 37 -52.5 82.5t-14.5 124.5v405h171v-405q0 -128 88 -128
q42 0 63.5 26t21.5 102v405h171z" />
    <glyph glyph-name="uogonek" unicode="&#x173;" horiz-adv-x="565" 
d="M515 0h-67q-56 -30 -56 -65q0 -18 14 -31t33 -13q17 0 44 11v-75q-46 -14 -79 -14q-48 0 -77.5 24.5t-29.5 63.5q0 27 16 48t59 51v54q-34 -71 -133 -71q-91 0 -146 63q-26 31 -36 64t-10 92v301h151v-281q0 -55 21.5 -76.5t59.5 -21.5q85 0 85 98v281h151v-503z" />
    <glyph glyph-name="Wcircumflex" unicode="&#x174;" horiz-adv-x="872" 
d="M7 670h174l90 -436l100 436h131l98 -437l92 437h174l-178 -670h-151l-101 434l-101 -434h-155zM440 801l-45 -64h-160l133 151h148l129 -151h-159z" />
    <glyph glyph-name="wcircumflex" unicode="&#x175;" horiz-adv-x="757" 
d="M0 503h155l77 -312l83 312h127l84 -312l76 312h155l-154 -503h-140l-85 325l-85 -325h-140zM379 634l-41 -58h-144l134 151h105l130 -151h-142z" />
    <glyph glyph-name="Ycircumflex" unicode="&#x176;" horiz-adv-x="550" 
d="M190 0v244l-200 426h186l100 -269l100 269h184l-199 -426v-244h-171zM282 801l-45 -64h-160l133 151h148l128 -151h-158z" />
    <glyph glyph-name="ycircumflex" unicode="&#x177;" horiz-adv-x="499" 
d="M349 503h160l-252 -671h-160l80 193l-187 478h160l102 -292zM260 634l-41 -58h-144l134 151h105l130 -151h-142z" />
    <glyph glyph-name="Ydieresis" unicode="&#x178;" horiz-adv-x="550" 
d="M190 0v244l-200 426h186l100 -269l100 269h184l-199 -426v-244h-171zM94 737v151h158v-151h-158zM311 737v151h158v-151h-158z" />
    <glyph glyph-name="Zacute" unicode="&#x179;" horiz-adv-x="460" 
d="M17 0v113l231 406h-231v151h423v-139l-214 -380h214v-151h-423zM344 937l62 -89l-182 -134l-55 79z" />
    <glyph glyph-name="zacute" unicode="&#x17a;" horiz-adv-x="408" 
d="M194 114h197v-114h-374v103l212 286h-212v114h374v-115zM283 766l73 -75l-145 -145l-62 59z" />
    <glyph glyph-name="Zdotaccent" unicode="&#x17b;" horiz-adv-x="460" 
d="M17 0v113l231 406h-231v151h423v-139l-214 -380h214v-151h-423zM163 737v151h158v-151h-158z" />
    <glyph glyph-name="zdotaccent" unicode="&#x17c;" horiz-adv-x="408" 
d="M194 114h197v-114h-374v103l212 286h-212v114h374v-115zM145 577v137h144v-137h-144z" />
    <glyph glyph-name="Zcaron" unicode="&#x17d;" horiz-adv-x="460" 
d="M17 0v113l231 406h-231v151h423v-139l-214 -380h214v-151h-423zM237 824l44 64h160l-132 -151h-149l-128 151h159z" />
    <glyph glyph-name="zcaron" unicode="&#x17e;" horiz-adv-x="408" 
d="M194 114h197v-114h-374v103l212 286h-212v114h374v-115zM215 669l41 58h144l-134 -151h-105l-130 151h142z" />
    <glyph glyph-name="florin" unicode="&#x192;" horiz-adv-x="553" 
d="M406 532h66l-20 -113h-65l-50 -284q-14 -80 -28 -117.5t-41 -68.5q-68 -78 -181 -78q-35 0 -49 5l24 134q8 -1 16 -1q48 0 70.5 23t32.5 83l52 304h-66l19 113h67l5 29q14 80 73.5 128.5t139.5 48.5q25 0 38 -3l-20 -121q-70 3 -81 -69z" />
    <glyph glyph-name="Acaron" unicode="&#x1cd;" horiz-adv-x="664" 
d="M449 97h-232l-36 -97h-184l269 670h135l266 -670h-185zM263 233h141l-70 229zM339 824l45 64h160l-133 -151h-148l-129 151h159z" />
    <glyph glyph-name="acaron" unicode="&#x1ce;" horiz-adv-x="631" 
d="M580 503v-503h-142v54q-35 -71 -156 -71q-113 0 -184 75t-71 194q0 118 72.5 193.5t186.5 75.5q111 0 152 -71v53h142zM303 379q-53 0 -89 -36.5t-36 -89.5q0 -55 36 -92t90 -37q55 0 90.5 36t35.5 92q0 55 -36 91t-91 36zM331 669l42 58h143l-134 -151h-105l-130 151
h143z" />
    <glyph glyph-name="Icaron" unicode="&#x1cf;" horiz-adv-x="285" 
d="M57 0v670h171v-670h-171zM147 824l45 64h160l-132 -151h-149l-128 151h159z" />
    <glyph glyph-name="icaron" unicode="&#x1d0;" horiz-adv-x="251" 
d="M201 503v-503h-151v503h151zM131 669l41 58h143l-133 -151h-105l-130 151h142z" />
    <glyph glyph-name="Ocaron" unicode="&#x1d1;" horiz-adv-x="765" 
d="M382 684q149 0 252 -101t103 -248q0 -146 -102.5 -247t-251.5 -101q-152 0 -253 101t-101 252q0 144 102.5 244t250.5 100zM383 533q-77 0 -130 -56t-53 -138q0 -86 53 -143.5t133 -57.5q76 0 128 57t52 139q0 84 -53 141.5t-130 57.5zM383 824l44 64h161l-133 -151h-149
l-128 151h159z" />
    <glyph glyph-name="ocaron" unicode="&#x1d2;" horiz-adv-x="598" 
d="M298 520q134 0 211 -95q61 -75 61 -173q0 -113 -79 -194q-74 -75 -194 -75q-118 0 -194 76t-76 194q0 112 79 192q74 75 192 75zM299 379q-50 0 -85.5 -37t-35.5 -89q0 -55 34.5 -92t86.5 -37q51 0 85.5 36.5t34.5 91.5q0 52 -35 89.5t-85 37.5zM301 669l41 58h143
l-133 -151h-105l-130 151h142z" />
    <glyph glyph-name="Ucaron" unicode="&#x1d3;" horiz-adv-x="615" 
d="M50 670h171v-405q0 -127 88 -127q42 0 63.5 26t21.5 101v405h171v-405q0 -137 -67 -205q-71 -73 -189 -73q-119 0 -192 72q-38 37 -52.5 82t-14.5 124v405zM314 824l45 64h160l-133 -151h-148l-129 151h159z" />
    <glyph glyph-name="ucaron" unicode="&#x1d4;" horiz-adv-x="565" 
d="M515 503v-503h-142v54q-38 -71 -134 -71q-91 0 -146 63q-26 31 -36 64t-10 92v301h151v-281q0 -55 21.5 -76.5t59.5 -21.5q85 0 85 98v281h151zM289 669l41 58h143l-133 -151h-105l-130 151h142z" />
    <glyph glyph-name="Udieresismacron" unicode="&#x1d5;" horiz-adv-x="615" 
d="M50 670h171v-405q0 -127 88 -127q42 0 63.5 26t21.5 101v405h171v-405q0 -137 -67 -205q-71 -73 -189 -73q-119 0 -192 72q-38 37 -52.5 82t-14.5 124v405zM126 737v151h158v-151h-158zM344 737v151h158v-151h-158zM485 1032v-101h-345v101h345z" />
    <glyph glyph-name="udieresismacron" unicode="&#x1d6;" horiz-adv-x="565" 
d="M515 503v-503h-142v54q-38 -71 -134 -71q-91 0 -146 63q-26 31 -36 64t-10 92v301h151v-281q0 -55 21.5 -76.5t59.5 -21.5q85 0 85 98v281h151zM115 577v137h144v-137h-144zM316 577v137h144v-137h-144zM447 851v-88h-322v88h322z" />
    <glyph glyph-name="Udieresisacute" unicode="&#x1d7;" horiz-adv-x="615" 
d="M50 670h171v-405q0 -127 88 -127q42 0 63.5 26t21.5 101v405h171v-405q0 -137 -67 -205q-71 -73 -189 -73q-119 0 -192 72q-38 37 -52.5 82t-14.5 124v405zM126 737v151h158v-151h-158zM344 737v151h158v-151h-158zM510 1117l51 -113l-248 -109l-45 92z" />
    <glyph glyph-name="udieresisacute" unicode="&#x1d8;" horiz-adv-x="565" 
d="M515 503v-503h-142v54q-38 -71 -134 -71q-91 0 -146 63q-26 31 -36 64t-10 92v301h151v-281q0 -55 21.5 -76.5t59.5 -21.5q85 0 85 98v281h151zM115 577v137h144v-137h-144zM316 577v137h144v-137h-144zM431 950l60 -91l-205 -132l-51 74z" />
    <glyph glyph-name="Udieresiscaron" unicode="&#x1d9;" horiz-adv-x="615" 
d="M50 670h171v-405q0 -127 88 -127q42 0 63.5 26t21.5 101v405h171v-405q0 -137 -67 -205q-71 -73 -189 -73q-119 0 -192 72q-38 37 -52.5 82t-14.5 124v405zM126 737v151h158v-151h-158zM344 737v151h158v-151h-158zM318 991l45 64h160l-133 -151h-148l-129 151h159z" />
    <glyph glyph-name="udieresiscaron" unicode="&#x1da;" horiz-adv-x="565" 
d="M515 503v-503h-142v54q-38 -71 -134 -71q-91 0 -146 63q-26 31 -36 64t-10 92v301h151v-281q0 -55 21.5 -76.5t59.5 -21.5q85 0 85 98v281h151zM115 577v137h144v-137h-144zM316 577v137h144v-137h-144zM291 836l42 58h143l-134 -150h-105l-130 150h143z" />
    <glyph glyph-name="Udieresisgrave" unicode="&#x1db;" horiz-adv-x="615" 
d="M50 670h171v-405q0 -127 88 -127q42 0 63.5 26t21.5 101v405h171v-405q0 -137 -67 -205q-71 -73 -189 -73q-119 0 -192 72q-38 37 -52.5 82t-14.5 124v405zM126 737v151h158v-151h-158zM344 737v151h158v-151h-158zM126 1117l242 -130l-45 -92l-248 109z" />
    <glyph glyph-name="udieresisgrave" unicode="&#x1dc;" horiz-adv-x="565" 
d="M515 503v-503h-142v54q-38 -71 -134 -71q-91 0 -146 63q-26 31 -36 64t-10 92v301h151v-281q0 -55 21.5 -76.5t59.5 -21.5q85 0 85 98v281h151zM115 577v137h144v-137h-144zM316 577v137h144v-137h-144zM150 950l196 -149l-51 -74l-205 132z" />
    <glyph glyph-name="Adieresismacron" unicode="&#x1de;" horiz-adv-x="664" 
d="M449 97h-232l-36 -97h-184l269 670h135l266 -670h-185zM263 233h141l-70 229zM148 737v151h158v-151h-158zM365 737v151h158v-151h-158zM508 1032v-101h-346v101h346z" />
    <glyph glyph-name="adieresismacron" unicode="&#x1df;" horiz-adv-x="631" 
d="M580 503v-503h-142v54q-35 -71 -156 -71q-113 0 -184 75t-71 194q0 118 72.5 193.5t186.5 75.5q111 0 152 -71v53h142zM303 379q-53 0 -89 -36.5t-36 -89.5q0 -55 36 -92t90 -37q55 0 90.5 36t35.5 92q0 55 -36 91t-91 36zM161 577v137h144v-137h-144zM362 577v137h144
v-137h-144zM497 851v-88h-322v88h322z" />
    <glyph glyph-name="Adotmacron" unicode="&#x1e0;" horiz-adv-x="664" 
d="M449 97h-232l-36 -97h-184l269 670h135l266 -670h-185zM263 233h141l-70 229zM257 737v151h158v-151h-158zM508 1032v-101h-346v101h346z" />
    <glyph glyph-name="adotmacron" unicode="&#x1e1;" horiz-adv-x="631" 
d="M580 503v-503h-142v54q-35 -71 -156 -71q-113 0 -184 75t-71 194q0 118 72.5 193.5t186.5 75.5q111 0 152 -71v53h142zM303 379q-53 0 -89 -36.5t-36 -89.5q0 -55 36 -92t90 -37q55 0 90.5 36t35.5 92q0 55 -36 91t-91 36zM256 577v137h144v-137h-144zM494 851v-88h-322
v88h322z" />
    <glyph glyph-name="AEmacron" unicode="&#x1e2;" horiz-adv-x="863" 
d="M448 112h-195l-73 -112h-207l466 670h382v-151h-209v-103h202v-151h-202v-114h209v-151h-373v112zM448 245v182l-125 -182h125zM698 865v-101h-345v101h345z" />
    <glyph glyph-name="aemacron" unicode="&#x1e3;" horiz-adv-x="985" 
d="M953 204h-378q7 -43 38 -68.5t77 -25.5q53 0 98 49h151q-75 -176 -238 -176q-91 0 -136 71v-54h-137v54q-30 -71 -148 -71q-106 0 -172 63q-82 78 -82 205q0 119 72 194t186 75q103 0 144 -71v54h137v-53q45 70 136 70q109 0 182.5 -80.5t73.5 -199.5q0 -17 -4 -36z
M578 305h230q-25 87 -113 87q-44 0 -76.5 -24.5t-40.5 -62.5zM300 379q-52 0 -87.5 -37t-35.5 -90q0 -55 36.5 -91.5t91.5 -36.5q52 0 87.5 36.5t35.5 90.5q0 57 -35.5 92.5t-92.5 35.5zM658 684v-88h-322v88h322z" />
    <glyph glyph-name="Gcaron" unicode="&#x1e6;" horiz-adv-x="771" 
d="M344 381h398l1 -35q4 -152 -100.5 -255.5t-257.5 -103.5q-149 0 -252.5 101.5t-103.5 248.5q0 153 109 253q47 43 114.5 68t135.5 25q115 0 210 -67.5t124 -169.5h-192q-47 87 -147 87q-78 0 -132 -56q-51 -52 -51 -132q0 -97 53.5 -152.5t141.5 -55.5q57 0 96.5 28.5
t51.5 78.5h-199v137zM395 824l45 64h160l-132 -151h-149l-128 151h159z" />
    <glyph glyph-name="gcaron" unicode="&#x1e7;" horiz-adv-x="623" 
d="M573 503v-442q0 -65 -3 -88q-6 -48 -29 -82q-36 -53 -104 -84t-150 -31q-102 0 -170.5 48.5t-79.5 128.5h173q21 -50 89 -50q63 0 98 46q24 31 24 90v16q-16 -31 -59 -51.5t-92 -20.5q-101 0 -172 77.5t-71 187.5q0 117 73 194.5t183 77.5q94 0 148 -64v47h142zM300 379
q-51 0 -86.5 -36.5t-35.5 -88.5q0 -56 34.5 -93t86.5 -37q54 0 88.5 35t34.5 90q0 57 -34.5 93.5t-87.5 36.5zM324 669l41 58h144l-134 -151h-105l-130 151h142z" />
    <glyph glyph-name="Kcaron" unicode="&#x1e8;" horiz-adv-x="606" 
d="M57 0v670h171v-302l191 302h180l-222 -334l236 -336h-200l-185 290v-290h-171zM305 824l45 64h160l-132 -151h-149l-128 151h158z" />
    <glyph glyph-name="kcaron" unicode="&#x1e9;" horiz-adv-x="514" 
d="M51 0v670h151v-349l141 182h178l-189 -221l184 -282h-171l-143 242v-242h-151zM127 824l45 64h160l-132 -151h-149l-128 151h159z" />
    <glyph glyph-name="jcaron" unicode="&#x1f0;" horiz-adv-x="251" 
d="M201 503v-491q0 -111 -40.5 -153.5t-146.5 -42.5h-37v114h20q30 0 41.5 16.5t11.5 59.5v497h151zM129 669l41 58h143l-133 -151h-105l-130 151h142z" />
    <glyph glyph-name="Gacute" unicode="&#x1f4;" horiz-adv-x="771" 
d="M344 381h398l1 -35q4 -152 -100.5 -255.5t-257.5 -103.5q-149 0 -252.5 101.5t-103.5 248.5q0 153 109 253q47 43 114.5 68t135.5 25q115 0 210 -67.5t124 -169.5h-192q-47 87 -147 87q-78 0 -132 -56q-51 -52 -51 -132q0 -97 53.5 -152.5t141.5 -55.5q57 0 96.5 28.5
t51.5 78.5h-199v137zM565 937l51 -114l-248 -109l-45 92z" />
    <glyph glyph-name="gacute" unicode="&#x1f5;" horiz-adv-x="623" 
d="M573 503v-442q0 -65 -3 -88q-6 -48 -29 -82q-36 -53 -104 -84t-150 -31q-102 0 -170.5 48.5t-79.5 128.5h173q21 -50 89 -50q63 0 98 46q24 31 24 90v16q-16 -31 -59 -51.5t-92 -20.5q-101 0 -172 77.5t-71 187.5q0 117 73 194.5t183 77.5q94 0 148 -64v47h142zM300 379
q-51 0 -86.5 -36.5t-35.5 -88.5q0 -56 34.5 -93t86.5 -37q54 0 88.5 35t34.5 90q0 57 -34.5 93.5t-87.5 36.5zM428 770l60 -92l-205 -132l-51 74z" />
    <glyph glyph-name="Ngrave" unicode="&#x1f8;" horiz-adv-x="680" 
d="M57 0v670h147l262 -421l-7 421h164v-670h-149l-259 408l6 -408h-164zM175 937l241 -131l-44 -92l-248 109z" />
    <glyph glyph-name="ngrave" unicode="&#x1f9;" horiz-adv-x="563" 
d="M50 0v503h142v-53q51 70 138 70q83 0 136 -51q28 -27 39 -61t11 -94v-314h-151v274q0 51 -15 74q-20 31 -64 31q-59 0 -79 -49q-6 -15 -6 -49v-281h-151zM149 770l196 -150l-51 -74l-205 132z" />
    <glyph glyph-name="Aringacute" unicode="&#x1fa;" horiz-adv-x="664" 
d="M449 97h-232l-36 -97h-184l269 670h135l266 -670h-185zM263 233h141l-70 229zM341 947q47 0 80.5 -34t33.5 -81t-34 -81t-82 -34t-82 34t-34 82q0 47 34.5 80.5t83.5 33.5zM340 876q-18 0 -30.5 -12.5t-12.5 -30.5q0 -19 12.5 -31.5t29.5 -12.5t29.5 13t12.5 30
q0 18 -12 31t-29 13zM527 1185l51 -114l-248 -109l-45 92z" />
    <glyph glyph-name="aringacute" unicode="&#x1fb;" horiz-adv-x="631" 
d="M580 503v-503h-142v54q-35 -71 -156 -71q-113 0 -184 75t-71 194q0 118 72.5 193.5t186.5 75.5q111 0 152 -71v53h142zM303 379q-53 0 -89 -36.5t-36 -89.5q0 -55 36 -92t90 -37q55 0 90.5 36t35.5 92q0 55 -36 91t-91 36zM332 778q46 0 79 -33t33 -79t-33 -79.5
t-80 -33.5t-80.5 33t-33.5 80t33.5 79.5t81.5 32.5zM331 711q-18 0 -31 -13t-13 -32t13 -32t30 -13q18 0 31 13t13 32q0 18 -13 31.5t-30 13.5zM475 1017l60 -91l-205 -132l-51 74z" />
    <glyph glyph-name="AEacute" unicode="&#x1fc;" horiz-adv-x="863" 
d="M448 112h-195l-73 -112h-207l466 670h382v-151h-209v-103h202v-151h-202v-114h209v-151h-373v112zM448 245v182l-125 -182h125zM712 937l51 -114l-248 -109l-44 92z" />
    <glyph glyph-name="aeacute" unicode="&#x1fd;" horiz-adv-x="985" 
d="M953 204h-378q7 -43 38 -68.5t77 -25.5q53 0 98 49h151q-75 -176 -238 -176q-91 0 -136 71v-54h-137v54q-30 -71 -148 -71q-106 0 -172 63q-82 78 -82 205q0 119 72 194t186 75q103 0 144 -71v54h137v-53q45 70 136 70q109 0 182.5 -80.5t73.5 -199.5q0 -17 -4 -36z
M578 305h230q-25 87 -113 87q-44 0 -76.5 -24.5t-40.5 -62.5zM300 379q-52 0 -87.5 -37t-35.5 -90q0 -55 36.5 -91.5t91.5 -36.5q52 0 87.5 36.5t35.5 90.5q0 57 -35.5 92.5t-92.5 35.5zM636 770l60 -92l-205 -132l-51 74z" />
    <glyph glyph-name="Oslashacute" unicode="&#x1fe;" horiz-adv-x="765" 
d="M72 14l58 79q-101 85 -101 243q0 149 103 248t257 99q75 0 153 -30l58 77l97 -75l-58 -76q98 -111 98 -244q0 -141 -97 -242q-103 -107 -275 -107q-87 0 -142 33l-57 -76zM231 224l217 296q-27 12 -61 12q-86 0 -136 -59q-53 -63 -53 -141q0 -56 33 -108zM538 441
l-217 -292q27 -12 59 -12q88 0 140 65q46 57 46 132q0 55 -28 107zM572 937l51 -114l-248 -109l-44 92z" />
    <glyph glyph-name="oslashacute" unicode="&#x1ff;" horiz-adv-x="598" 
d="M421 497l51 68l65 -51l-47 -65q15 -18 39 -52q41 -65 41 -146q0 -112 -76.5 -190t-185.5 -78q-56 0 -141 27l-48 -59l-65 47l47 63q-74 77 -74 190t76 191t187 78q57 0 131 -23zM202 176l139 193q-23 10 -41 10q-52 0 -87 -36.5t-35 -91.5q0 -36 24 -75zM395 325
l-142 -190q24 -11 44 -11q53 0 87.5 36.5t34.5 92.5q0 34 -24 72zM435 770l60 -92l-205 -132l-51 74z" />
    <glyph glyph-name="Scommaaccent" unicode="&#x218;" horiz-adv-x="519" 
d="M486 475h-170q-9 65 -61 65q-25 0 -42 -15.5t-17 -37.5q0 -24 16.5 -39t122.5 -63q84 -38 120.5 -83t36.5 -110q0 -96 -62.5 -151t-171.5 -55q-95 0 -159 43q-71 48 -83 138q-2 18 -2 54h172q0 -42 18.5 -66.5t50.5 -24.5q28 0 47 18.5t19 45.5t-19.5 43.5t-129.5 61.5
q-147 60 -147 186q0 83 68 141t167 58q117 0 181 -77q40 -48 45 -132zM326 -52v-102q0 -49 -20 -74q-23 -29 -59 -29h-54v60h26q33 0 33 29v16h-59v100h133z" />
    <glyph glyph-name="scommaaccent" unicode="&#x219;" horiz-adv-x="448" 
d="M409 362h-147q-4 37 -43 37q-48 0 -48 -32q0 -34 78 -55q96 -26 128 -53q48 -40 48 -106q0 -73 -60 -122t-149 -49q-90 0 -149 55q-45 42 -52 112h150q6 -46 57 -46q22 0 37 11.5t15 27.5q0 17 -13.5 28t-30 16.5t-103.5 28.5q-47 12 -77 51t-30 88q0 70 59 118t144 48
q100 0 153 -67q28 -35 33 -91zM283 -52v-102q0 -49 -19 -74q-22 -29 -59 -29h-55v60h27q33 0 33 29v16h-60v100h133z" />
    <glyph glyph-name="Hcaron" unicode="&#x21e;" horiz-adv-x="675" 
d="M57 0v670h171v-251h219v251h171v-670h-171v268h-219v-268h-171zM340 824l45 64h160l-133 -151h-148l-129 151h159z" />
    <glyph glyph-name="hcaron" unicode="&#x21f;" horiz-adv-x="563" 
d="M51 0v670h151v-213q37 63 131 63q109 0 157 -82q26 -44 26 -157v-281h-151v274q0 105 -80 105q-39 0 -63 -26q-20 -21 -20 -74v-279h-151zM130 824l45 64h160l-132 -151h-149l-128 151h159z" />
    <glyph glyph-name="Adotaccent" unicode="&#x226;" horiz-adv-x="664" 
d="M449 97h-232l-36 -97h-184l269 670h135l266 -670h-185zM263 233h141l-70 229zM257 737v151h158v-151h-158z" />
    <glyph glyph-name="adotaccent" unicode="&#x227;" horiz-adv-x="631" 
d="M580 503v-503h-142v54q-35 -71 -156 -71q-113 0 -184 75t-71 194q0 118 72.5 193.5t186.5 75.5q111 0 152 -71v53h142zM303 379q-53 0 -89 -36.5t-36 -89.5q0 -55 36 -92t90 -37q55 0 90.5 36t35.5 92q0 55 -36 91t-91 36zM256 577v137h144v-137h-144z" />
    <glyph glyph-name="Odieresismacron" unicode="&#x22a;" horiz-adv-x="765" 
d="M382 684q149 0 252 -101t103 -248q0 -146 -102.5 -247t-251.5 -101q-152 0 -253 101t-101 252q0 144 102.5 244t250.5 100zM383 533q-77 0 -130 -56t-53 -138q0 -86 53 -143.5t133 -57.5q76 0 128 57t52 139q0 84 -53 141.5t-130 57.5zM199 737v151h158v-151h-158z
M416 737v151h158v-151h-158zM558 1032v-101h-345v101h345z" />
    <glyph glyph-name="odieresismacron" unicode="&#x22b;" horiz-adv-x="598" 
d="M298 520q134 0 211 -95q61 -75 61 -173q0 -113 -79 -194q-74 -75 -194 -75q-118 0 -194 76t-76 194q0 112 79 192q74 75 192 75zM299 379q-50 0 -85.5 -37t-35.5 -89q0 -55 34.5 -92t86.5 -37q51 0 85.5 36.5t34.5 91.5q0 52 -35 89.5t-85 37.5zM129 577v137h144v-137
h-144zM330 577v137h144v-137h-144zM462 851v-88h-322v88h322z" />
    <glyph glyph-name="Otildemacron" unicode="&#x22c;" horiz-adv-x="765" 
d="M382 684q149 0 252 -101t103 -248q0 -146 -102.5 -247t-251.5 -101q-152 0 -253 101t-101 252q0 144 102.5 244t250.5 100zM383 533q-77 0 -130 -56t-53 -138q0 -86 53 -143.5t133 -57.5q76 0 128 57t52 139q0 84 -53 141.5t-130 57.5zM539 880l47 -89q-55 -41 -109 -41
q-31 0 -116 26q-13 4 -26 4q-29 0 -66 -32l-49 89q50 43 101 43q34 0 113 -25q13 -4 25 -4q29 0 80 29zM564 1032v-101h-346v101h346z" />
    <glyph glyph-name="otildemacron" unicode="&#x22d;" horiz-adv-x="598" 
d="M298 520q134 0 211 -95q61 -75 61 -173q0 -113 -79 -194q-74 -75 -194 -75q-118 0 -194 76t-76 194q0 112 79 192q74 75 192 75zM299 379q-50 0 -85.5 -37t-35.5 -89q0 -55 34.5 -92t86.5 -37q51 0 85.5 36.5t34.5 91.5q0 52 -35 89.5t-85 37.5zM444 701l39 -78
q-47 -46 -106 -46q-18 0 -61 16q-35 13 -61 13q-32 0 -62 -31l-46 78q48 46 98 46q25 0 101 -23q20 -6 33 -6q19 0 65 31zM470 851v-88h-322v88h322z" />
    <glyph glyph-name="Odotaccent" unicode="&#x22e;" horiz-adv-x="765" 
d="M382 684q149 0 252 -101t103 -248q0 -146 -102.5 -247t-251.5 -101q-152 0 -253 101t-101 252q0 144 102.5 244t250.5 100zM383 533q-77 0 -130 -56t-53 -138q0 -86 53 -143.5t133 -57.5q76 0 128 57t52 139q0 84 -53 141.5t-130 57.5zM304 737v151h158v-151h-158z" />
    <glyph glyph-name="odotaccent" unicode="&#x22f;" horiz-adv-x="598" 
d="M298 520q134 0 211 -95q61 -75 61 -173q0 -113 -79 -194q-74 -75 -194 -75q-118 0 -194 76t-76 194q0 112 79 192q74 75 192 75zM299 379q-50 0 -85.5 -37t-35.5 -89q0 -55 34.5 -92t86.5 -37q51 0 85.5 36.5t34.5 91.5q0 52 -35 89.5t-85 37.5zM229 577v137h144v-137
h-144z" />
    <glyph glyph-name="Ymacron" unicode="&#x232;" horiz-adv-x="550" 
d="M190 0v244l-200 426h186l100 -269l100 269h184l-199 -426v-244h-171zM456 865v-101h-345v101h345z" />
    <glyph glyph-name="ymacron" unicode="&#x233;" horiz-adv-x="499" 
d="M349 503h160l-252 -671h-160l80 193l-187 478h160l102 -292zM416 684v-88h-322v88h322z" />
    <glyph glyph-name="circumflex" unicode="&#x2c6;" 
d="M251 634l-41 -58h-143l134 151h104l130 -151h-142z" />
    <glyph glyph-name="caron" unicode="&#x2c7;" 
d="M251 669l41 58h143l-133 -151h-105l-130 151h142z" />
    <glyph glyph-name="macron" unicode="&#x2c9;" 
d="M412 684v-88h-322v88h322z" />
    <glyph glyph-name="breve" unicode="&#x2d8;" 
d="M84 709h95q20 -44 76 -44q51 0 69 44h95q-8 -136 -167 -136q-77 0 -120.5 35.5t-47.5 100.5z" />
    <glyph glyph-name="dotaccent" unicode="&#x2d9;" 
d="M179 577v137h144v-137h-144z" />
    <glyph glyph-name="ring" unicode="&#x2da;" 
d="M253 778q46 0 79 -33t33 -79t-33 -79.5t-80 -33.5t-80.5 33t-33.5 80t33.5 79.5t81.5 32.5zM252 711q-18 0 -31 -13t-13 -32t13 -32t30 -13q18 0 31 13t13 32q0 18 -13 31.5t-30 13.5z" />
    <glyph glyph-name="ogonek" unicode="&#x2db;" 
d="M267 0h75q-55 -30 -55 -65q0 -18 13.5 -31t32.5 -13q17 0 44 11l-1 -75q-45 -14 -77 -14q-49 0 -78.5 24t-29.5 64q0 47 76 99z" />
    <glyph glyph-name="tilde" unicode="&#x2dc;" 
d="M380 701l39 -78q-47 -46 -106 -46q-18 0 -61 16q-35 13 -61 13q-32 0 -62 -31l-46 78q48 46 98 46q25 0 101 -23q20 -6 33 -6q18 0 65 31z" />
    <glyph glyph-name="hungarumlaut" unicode="&#x2dd;" 
d="M231 766l74 -75l-146 -145l-62 59zM400 766l74 -75l-146 -145l-62 59z" />
    <glyph glyph-name="commabelow" unicode="&#x326;" 
d="M319 -52v-102q0 -49 -20 -74q-23 -29 -59 -29h-55v60h27q33 0 33 29v16h-60v100h134z" />
    <glyph glyph-name="Delta" unicode="&#x394;" horiz-adv-x="656" 
d="M9 0l238 670h161l240 -670h-639zM207 135h239l-117 371z" />
    <glyph glyph-name="Delta" unicode="&#x2206;" horiz-adv-x="656" 
d="M9 0l238 670h161l240 -670h-639zM207 135h239l-117 371z" />
    <glyph glyph-name="Omega" unicode="&#x3a9;" horiz-adv-x="670" 
d="M28 0v135h133q-137 86 -137 237q0 131 90.5 223t220.5 92t220.5 -92t90.5 -224q0 -150 -137 -236h133v-135h-272v124q118 61 118 219q0 88 -44 147.5t-109 59.5t-109 -59t-44 -147q0 -159 118 -220v-124h-272z" />
    <glyph glyph-name="Bdotaccent" unicode="&#x1e02;" horiz-adv-x="580" 
d="M57 0v670h207q142 0 190 -37q64 -49 64 -139q0 -89 -78 -134q111 -36 111 -156q0 -88 -62 -146q-37 -34 -81.5 -46t-137.5 -12h-213zM221 416h61q72 0 72 53q0 29 -23 42q-14 8 -49 8h-61v-103zM221 151h81q85 0 85 64q0 38 -34 52q-15 6 -51 6h-81v-122zM204 737v151
h158v-151h-158z" />
    <glyph glyph-name="bdotaccent" unicode="&#x1e03;" horiz-adv-x="621" 
d="M50 0v670h151v-207q54 57 145 57q102 0 175 -72t73 -193q0 -120 -71 -196t-183 -76q-46 0 -76.5 14.5t-71.5 56.5v-54h-142zM320 379q-53 0 -89.5 -36.5t-36.5 -89.5q0 -55 35.5 -92t88.5 -37t89 37t36 91q0 53 -35.5 90t-87.5 37zM282 577v137h144v-137h-144z" />
    <glyph glyph-name="Ccedillaacute" unicode="&#x1e08;" horiz-adv-x="740" 
d="M403 -12l-17 -35q12 3 18 3q34 0 56.5 -23t22.5 -57q0 -46 -31.5 -76t-79.5 -30q-93 0 -101 92h70q12 -26 34 -26q35 0 35 34t-34 34q-15 0 -29 -15l-51 31l36 70q-131 19 -217 116.5t-86 229.5q0 146 101.5 246.5t249.5 100.5q169 0 272 -125q57 -70 69 -142h-179
q-20 54 -64 85.5t-99 31.5q-76 0 -127.5 -56t-51.5 -139q0 -85 52 -142.5t128 -57.5q106 0 162 113h179q-24 -110 -114.5 -184.5t-203.5 -78.5zM569 937l51 -114l-247 -109l-45 92z" />
    <glyph glyph-name="ccedillaacute" unicode="&#x1e09;" horiz-adv-x="577" 
d="M308 -17l-18 -35q15 3 25 3q30 0 51.5 -22t21.5 -53q0 -43 -28 -69.5t-72 -26.5q-86 0 -96 83h63q9 -25 31 -25q35 0 35 34q0 31 -31 31q-15 0 -28 -14l-44 32l32 66q-70 16 -112 46q-111 81 -111 220q0 113 76.5 190t188.5 77q99 0 173 -58.5t94 -152.5h-153
q-29 70 -109 70q-52 0 -85.5 -36.5t-33.5 -92.5q0 -55 33.5 -90.5t85.5 -35.5q67 0 111 67h152q-23 -90 -91.5 -147t-160.5 -61zM433 770l59 -92l-204 -132l-52 74z" />
    <glyph glyph-name="Ddotaccent" unicode="&#x1e0a;" horiz-adv-x="666" 
d="M57 0v670h226q97 0 156 -20t107 -70q91 -94 91 -242q0 -171 -108 -265q-84 -73 -208 -73h-264zM228 151h74q65 0 102 28q62 47 62 153q0 102 -54 151q-39 36 -109 36h-75v-368zM244 737v151h158v-151h-158z" />
    <glyph glyph-name="ddotaccent" unicode="&#x1e0b;" horiz-adv-x="626" 
d="M575 670v-670h-142v54q-60 -71 -155 -71q-110 0 -181 76t-71 193q0 116 71 192t179 76q89 0 148 -60v210h151zM306 379q-56 0 -92.5 -35.5t-36.5 -90.5q0 -56 36 -92.5t91 -36.5t92 37t37 93q0 53 -36.5 89t-90.5 36zM226 577v137h144v-137h-144z" />
    <glyph glyph-name="Dcommaaccent" unicode="&#x1e10;" horiz-adv-x="666" 
d="M57 0v670h226q97 0 156 -20t107 -70q91 -94 91 -242q0 -171 -108 -265q-84 -73 -208 -73h-264zM228 151h74q65 0 102 28q62 47 62 153q0 102 -54 151q-39 36 -109 36h-75v-368zM375 -52v-102q0 -49 -19 -74q-22 -29 -59 -29h-55v60h27q33 0 33 29v16h-60v100h133z" />
    <glyph glyph-name="dcommaaccent" unicode="&#x1e11;" horiz-adv-x="626" 
d="M575 670v-670h-142v54q-60 -71 -155 -71q-110 0 -181 76t-71 193q0 116 71 192t179 76q89 0 148 -60v210h151zM306 379q-56 0 -92.5 -35.5t-36.5 -90.5q0 -56 36 -92.5t91 -36.5t92 37t37 93q0 53 -36.5 89t-90.5 36zM378 -52v-102q0 -48 -20 -74q-22 -29 -59 -29h-55v60
h27q33 0 33 29v16h-60v100h134z" />
    <glyph glyph-name="Emacrongrave" unicode="&#x1e14;" horiz-adv-x="471" 
d="M57 0v670h373v-151h-209v-103h202v-151h-202v-114h209v-151h-373zM419 865v-101h-346v101h346zM68 1104l241 -130l-44 -93l-248 109z" />
    <glyph glyph-name="emacrongrave" unicode="&#x1e15;" horiz-adv-x="581" 
d="M382 157h154q-35 -82 -100 -128t-146 -46q-109 0 -186 78t-77 189q0 113 76 191.5t185 78.5q113 0 189 -78.5t76 -196.5q0 -20 -4 -41h-376q5 -42 35.5 -68t74.5 -26q52 0 92 40zM176 305h227q-7 39 -38.5 63t-75.5 24q-92 0 -113 -87zM461 684v-88h-322v88h322zM156 937
l196 -150l-51 -73l-205 132z" />
    <glyph glyph-name="Emacronacute" unicode="&#x1e16;" horiz-adv-x="471" 
d="M57 0v670h373v-151h-209v-103h202v-151h-202v-114h209v-151h-373zM418 865v-101h-345v101h345zM408 1104l51 -114l-247 -109l-45 93z" />
    <glyph glyph-name="emacronacute" unicode="&#x1e17;" horiz-adv-x="581" 
d="M382 157h154q-35 -82 -100 -128t-146 -46q-109 0 -186 78t-77 189q0 113 76 191.5t185 78.5q113 0 189 -78.5t76 -196.5q0 -20 -4 -41h-376q5 -42 35.5 -68t74.5 -26q52 0 92 40zM176 305h227q-7 39 -38.5 63t-75.5 24q-92 0 -113 -87zM461 684v-88h-322v88h322zM427 937
l59 -91l-204 -132l-52 73z" />
    <glyph glyph-name="Fdotaccent" unicode="&#x1e1e;" horiz-adv-x="446" 
d="M57 0v670h366v-151h-202v-113h195v-151h-195v-255h-164zM161 737v151h158v-151h-158z" />
    <glyph glyph-name="fdotaccent" unicode="&#x1e1f;" horiz-adv-x="296" 
d="M64 0v389h-56v114h56v26q0 77 47 116t145 39h22v-114h-17q-46 0 -46 -47v-20h63v-114h-63v-389h-151zM72 737v151h158v-151h-158z" />
    <glyph glyph-name="Gmacron" unicode="&#x1e20;" horiz-adv-x="771" 
d="M344 381h398l1 -35q4 -152 -100.5 -255.5t-257.5 -103.5q-149 0 -252.5 101.5t-103.5 248.5q0 153 109 253q47 43 114.5 68t135.5 25q115 0 210 -67.5t124 -169.5h-192q-47 87 -147 87q-78 0 -132 -56q-51 -52 -51 -132q0 -97 53.5 -152.5t141.5 -55.5q57 0 96.5 28.5
t51.5 78.5h-199v137zM566 865v-101h-345v101h345z" />
    <glyph glyph-name="gmacron" unicode="&#x1e21;" horiz-adv-x="623" 
d="M573 503v-442q0 -65 -3 -88q-6 -48 -29 -82q-36 -53 -104 -84t-150 -31q-102 0 -170.5 48.5t-79.5 128.5h173q21 -50 89 -50q63 0 98 46q24 31 24 90v16q-16 -31 -59 -51.5t-92 -20.5q-101 0 -172 77.5t-71 187.5q0 117 73 194.5t183 77.5q94 0 148 -64v47h142zM300 379
q-51 0 -86.5 -36.5t-35.5 -88.5q0 -56 34.5 -93t86.5 -37q54 0 88.5 35t34.5 90q0 57 -34.5 93.5t-87.5 36.5zM471 684v-88h-321v88h321z" />
    <glyph glyph-name="Hdotaccent" unicode="&#x1e22;" horiz-adv-x="675" 
d="M57 0v670h171v-251h219v251h171v-670h-171v268h-219v-268h-171zM264 737v151h158v-151h-158z" />
    <glyph glyph-name="hdotaccent" unicode="&#x1e23;" horiz-adv-x="563" 
d="M50 0v670h151v-213q37 63 131 63q110 0 158 -82q26 -44 26 -157v-281h-151v274q0 105 -80 105q-40 0 -64 -26q-20 -21 -20 -74v-279h-151zM262 577v137h144v-137h-144z" />
    <glyph glyph-name="Hdieresis" unicode="&#x1e26;" horiz-adv-x="675" 
d="M57 0v670h171v-251h219v251h171v-670h-171v268h-219v-268h-171zM153 737v151h158v-151h-158zM370 737v151h158v-151h-158z" />
    <glyph glyph-name="hdieresis" unicode="&#x1e27;" horiz-adv-x="563" 
d="M51 0v670h151v-213q37 63 131 63q109 0 157 -82q26 -44 26 -157v-281h-151v274q0 105 -80 105q-39 0 -63 -26q-20 -21 -20 -74v-279h-151zM-57 737v151h158v-151h-158zM161 737v151h158v-151h-158z" />
    <glyph glyph-name="Idieresisacute" unicode="&#x1e2e;" horiz-adv-x="285" 
d="M57 0v670h171v-670h-171zM-15 737v151h137v-151h-137zM169 737v151h137v-151h-137zM338 1117l51 -113l-248 -109l-45 92z" />
    <glyph glyph-name="idieresisacute" unicode="&#x1e2f;" horiz-adv-x="251" 
d="M202 503v-503h-151v503h151zM-18 577v137h124v-137h-124zM153 577v137h124v-137h-124zM269 950l60 -91l-205 -132l-52 74z" />
    <glyph glyph-name="Kacute" unicode="&#x1e30;" horiz-adv-x="606" 
d="M57 0v670h171v-302l191 302h180l-222 -334l236 -336h-200l-185 290v-290h-171zM494 937l51 -114l-247 -109l-45 92z" />
    <glyph glyph-name="kacute" unicode="&#x1e31;" horiz-adv-x="514" 
d="M50 0v670h151v-349l141 182h178l-189 -221l184 -282h-171l-143 242v-242h-151zM332 937l51 -114l-248 -109l-44 92z" />
    <glyph glyph-name="Macute" unicode="&#x1e3e;" horiz-adv-x="821" 
d="M57 0v670h220l134 -441l132 441h221v-670h-157l5 504l-145 -504h-113l-145 504l6 -504h-158zM600 937l51 -114l-248 -109l-45 92z" />
    <glyph glyph-name="macute" unicode="&#x1e3f;" horiz-adv-x="869" 
d="M50 0v503h142v-53q49 70 138 70q98 0 146 -90q55 90 159 90q78 0 131 -50q38 -37 49 -91q6 -29 6 -105v-274h-151v267q0 61 -18 86.5t-57 25.5q-37 0 -59.5 -24.5t-22.5 -80.5v-274h-151v274q0 105 -77 105q-84 0 -84 -105v-274h-151zM583 770l60 -92l-205 -132l-51 74z
" />
    <glyph glyph-name="Mdotaccent" unicode="&#x1e40;" horiz-adv-x="821" 
d="M57 0v670h220l134 -441l132 441h221v-670h-157l5 504l-145 -504h-113l-145 504l6 -504h-158zM337 737v151h158v-151h-158z" />
    <glyph glyph-name="mdotaccent" unicode="&#x1e41;" horiz-adv-x="869" 
d="M50 0v503h142v-53q49 70 138 70q98 0 146 -90q55 90 159 90q78 0 131 -50q38 -37 49 -91q6 -29 6 -105v-274h-151v267q0 61 -18 86.5t-57 25.5q-37 0 -59.5 -24.5t-22.5 -80.5v-274h-151v274q0 105 -77 105q-84 0 -84 -105v-274h-151zM366 577v137h144v-137h-144z" />
    <glyph glyph-name="Ndotaccent" unicode="&#x1e44;" horiz-adv-x="680" 
d="M57 0v670h147l262 -421l-7 421h164v-670h-149l-259 408l6 -408h-164zM272 737v151h158v-151h-158z" />
    <glyph glyph-name="Otildeacute" unicode="&#x1e4c;" horiz-adv-x="765" 
d="M382 684q149 0 252 -101t103 -248q0 -146 -102.5 -247t-251.5 -101q-152 0 -253 101t-101 252q0 144 102.5 244t250.5 100zM383 533q-77 0 -130 -56t-53 -138q0 -86 53 -143.5t133 -57.5q76 0 128 57t52 139q0 84 -53 141.5t-130 57.5zM539 880l47 -89q-55 -41 -109 -41
q-31 0 -116 26q-13 4 -26 4q-29 0 -66 -32l-49 89q50 43 101 43q34 0 113 -25q13 -4 25 -4q29 0 80 29zM577 1104l51 -114l-247 -109l-45 93z" />
    <glyph glyph-name="otildeacute" unicode="&#x1e4d;" horiz-adv-x="598" 
d="M298 520q134 0 211 -95q61 -75 61 -173q0 -113 -79 -194q-74 -75 -194 -75q-118 0 -194 76t-76 194q0 112 79 192q74 75 192 75zM299 379q-50 0 -85.5 -37t-35.5 -89q0 -55 34.5 -92t86.5 -37q51 0 85.5 36.5t34.5 91.5q0 52 -35 89.5t-85 37.5zM444 701l39 -78
q-47 -46 -106 -46q-18 0 -61 16q-35 13 -61 13q-32 0 -62 -31l-46 78q48 46 98 46q25 0 101 -23q20 -6 33 -6q19 0 65 31zM448 937l60 -91l-205 -132l-51 73z" />
    <glyph glyph-name="Otildedieresis" unicode="&#x1e4e;" horiz-adv-x="765" 
d="M382 684q149 0 252 -101t103 -248q0 -146 -102.5 -247t-251.5 -101q-152 0 -253 101t-101 252q0 144 102.5 244t250.5 100zM383 533q-77 0 -130 -56t-53 -138q0 -86 53 -143.5t133 -57.5q76 0 128 57t52 139q0 84 -53 141.5t-130 57.5zM539 880l47 -89q-55 -41 -109 -41
q-31 0 -116 26q-13 4 -26 4q-29 0 -66 -32l-49 89q50 43 101 43q34 0 113 -25q13 -4 25 -4q29 0 80 29zM211 904v151h158v-151h-158zM429 904v151h158v-151h-158z" />
    <glyph glyph-name="otildedieresis" unicode="&#x1e4f;" horiz-adv-x="598" 
d="M298 520q134 0 211 -95q61 -75 61 -173q0 -113 -79 -194q-74 -75 -194 -75q-118 0 -194 76t-76 194q0 112 79 192q74 75 192 75zM299 379q-50 0 -85.5 -37t-35.5 -89q0 -55 34.5 -92t86.5 -37q51 0 85.5 36.5t34.5 91.5q0 52 -35 89.5t-85 37.5zM444 701l39 -78
q-47 -46 -106 -46q-18 0 -61 16q-35 13 -61 13q-32 0 -62 -31l-46 78q48 46 98 46q25 0 101 -23q20 -6 33 -6q19 0 65 31zM134 744v137h144v-137h-144zM335 744v137h144v-137h-144z" />
    <glyph glyph-name="Omacrongrave" unicode="&#x1e50;" horiz-adv-x="765" 
d="M382 684q149 0 252 -101t103 -248q0 -146 -102.5 -247t-251.5 -101q-152 0 -253 101t-101 252q0 144 102.5 244t250.5 100zM383 533q-77 0 -130 -56t-53 -138q0 -86 53 -143.5t133 -57.5q76 0 128 57t52 139q0 84 -53 141.5t-130 57.5zM559 865v-101h-345v101h345z
M213 1104l241 -130l-45 -93l-247 109z" />
    <glyph glyph-name="omacrongrave" unicode="&#x1e51;" horiz-adv-x="598" 
d="M298 520q134 0 211 -95q61 -75 61 -173q0 -113 -79 -194q-74 -75 -194 -75q-118 0 -194 76t-76 194q0 112 79 192q74 75 192 75zM299 379q-50 0 -85.5 -37t-35.5 -89q0 -55 34.5 -92t86.5 -37q51 0 85.5 36.5t34.5 91.5q0 52 -35 89.5t-85 37.5zM463 684v-88h-322v88h322
zM173 937l196 -150l-51 -73l-205 132z" />
    <glyph glyph-name="Omacronacute" unicode="&#x1e52;" horiz-adv-x="765" 
d="M382 684q149 0 252 -101t103 -248q0 -146 -102.5 -247t-251.5 -101q-152 0 -253 101t-101 252q0 144 102.5 244t250.5 100zM383 533q-77 0 -130 -56t-53 -138q0 -86 53 -143.5t133 -57.5q76 0 128 57t52 139q0 84 -53 141.5t-130 57.5zM559 865v-101h-345v101h345z
M559 1104l51 -114l-248 -109l-45 93z" />
    <glyph glyph-name="omacronacute" unicode="&#x1e53;" horiz-adv-x="598" 
d="M298 520q134 0 211 -95q61 -75 61 -173q0 -113 -79 -194q-74 -75 -194 -75q-118 0 -194 76t-76 194q0 112 79 192q74 75 192 75zM299 379q-50 0 -85.5 -37t-35.5 -89q0 -55 34.5 -92t86.5 -37q51 0 85.5 36.5t34.5 91.5q0 52 -35 89.5t-85 37.5zM463 684v-88h-322v88h322
zM432 937l60 -91l-205 -132l-51 73z" />
    <glyph glyph-name="Pacute" unicode="&#x1e54;" horiz-adv-x="581" 
d="M57 0v670h219q145 0 206 -50q79 -65 79 -178q0 -108 -71 -174q-62 -58 -195 -58h-74v-210h-164zM221 361h69q59 0 81 19q26 22 26 60q0 43 -31 63q-24 16 -82 16h-63v-158zM469 937l51 -114l-248 -109l-45 92z" />
    <glyph glyph-name="pacute" unicode="&#x1e55;" horiz-adv-x="627" 
d="M50 -168v671h142v-55q56 72 159 72q107 0 174 -73q72 -78 72 -200q0 -112 -70.5 -188t-174.5 -76q-92 0 -151 63v-214h-151zM320 379q-56 0 -91 -39t-35 -87q0 -53 37 -91t90 -38t89 37t36 91t-36.5 90.5t-89.5 36.5zM449 770l60 -92l-205 -132l-51 74z" />
    <glyph glyph-name="Pdotaccent" unicode="&#x1e56;" horiz-adv-x="581" 
d="M57 0v670h219q145 0 206 -50q79 -65 79 -178q0 -108 -71 -174q-62 -58 -195 -58h-74v-210h-164zM221 361h69q59 0 81 19q26 22 26 60q0 43 -31 63q-24 16 -82 16h-63v-158zM222 737v151h158v-151h-158z" />
    <glyph glyph-name="pdotaccent" unicode="&#x1e57;" horiz-adv-x="627" 
d="M50 -168v671h142v-55q56 72 159 72q107 0 174 -73q72 -78 72 -200q0 -112 -70.5 -188t-174.5 -76q-92 0 -151 63v-214h-151zM320 379q-56 0 -91 -39t-35 -87q0 -53 37 -91t90 -38t89 37t36 91t-36.5 90.5t-89.5 36.5zM249 577v137h144v-137h-144z" />
    <glyph glyph-name="Rdotaccent" unicode="&#x1e58;" horiz-adv-x="590" 
d="M57 0v670h212q84 0 128 -10t78 -38q83 -68 83 -183q0 -107 -73 -169q-37 -31 -94 -42l182 -228h-196l-156 217v-217h-164zM221 334h61q112 0 112 95q0 51 -42 76q-23 14 -69 14h-62v-185zM215 737v151h158v-151h-158z" />
    <glyph glyph-name="rdotaccent" unicode="&#x1e59;" horiz-adv-x="325" 
d="M50 0v503h142v-53q22 40 53.5 55t68.5 15h4v-151q-65 -1 -92 -22t-27 -69v-278h-149zM53 577v137h144v-137h-144z" />
    <glyph glyph-name="Sdotaccent" unicode="&#x1e60;" horiz-adv-x="519" 
d="M486 475h-170q-9 65 -61 65q-25 0 -42 -15.5t-17 -37.5q0 -24 16.5 -39t122.5 -63q84 -38 120.5 -83t36.5 -110q0 -96 -62.5 -151t-171.5 -55q-95 0 -159 43q-71 48 -83 138q-2 18 -2 54h172q0 -42 18.5 -66.5t50.5 -24.5q28 0 47 18.5t19 45.5t-19.5 43.5t-129.5 61.5
q-147 60 -147 186q0 83 68 141t167 58q117 0 181 -77q40 -48 45 -132zM177 737v151h158v-151h-158z" />
    <glyph glyph-name="sdotaccent" unicode="&#x1e61;" horiz-adv-x="448" 
d="M409 362h-147q-4 37 -43 37q-48 0 -48 -32q0 -34 78 -55q96 -26 128 -53q48 -40 48 -106q0 -73 -60 -122t-149 -49q-90 0 -149 55q-45 42 -52 112h150q6 -46 57 -46q22 0 37 11.5t15 27.5q0 17 -13.5 28t-30 16.5t-103.5 28.5q-47 12 -77 51t-30 88q0 70 59 118t144 48
q100 0 153 -67q28 -35 33 -91zM145 577v137h144v-137h-144z" />
    <glyph glyph-name="Sacutedot" unicode="&#x1e64;" horiz-adv-x="519" 
d="M486 475h-170q-9 65 -61 65q-25 0 -42 -15.5t-17 -37.5q0 -24 16.5 -39t122.5 -63q84 -38 120.5 -83t36.5 -110q0 -96 -62.5 -151t-171.5 -55q-95 0 -159 43q-71 48 -83 138q-2 18 -2 54h172q0 -42 18.5 -66.5t50.5 -24.5q28 0 47 18.5t19 45.5t-19.5 43.5t-129.5 61.5
q-147 60 -147 186q0 83 68 141t167 58q117 0 181 -77q40 -48 45 -132zM365 937l63 -89l-183 -134l-54 79zM174 945v151h158v-151h-158z" />
    <glyph glyph-name="sacutedot" unicode="&#x1e65;" horiz-adv-x="448" 
d="M409 362h-147q-4 37 -43 37q-48 0 -48 -32q0 -34 78 -55q96 -26 128 -53q48 -40 48 -106q0 -73 -60 -122t-149 -49q-90 0 -149 55q-45 42 -52 112h150q6 -46 57 -46q22 0 37 11.5t15 27.5q0 17 -13.5 28t-30 16.5t-103.5 28.5q-47 12 -77 51t-30 88q0 70 59 118t144 48
q100 0 153 -67q28 -35 33 -91zM298 766l73 -75l-145 -145l-62 59zM148 784v137h144v-137h-144z" />
    <glyph glyph-name="Tdotaccent" unicode="&#x1e6a;" horiz-adv-x="450" 
d="M140 0v519h-133v151h436v-151h-132v-519h-171zM149 737v151h158v-151h-158z" />
    <glyph glyph-name="tdotaccent" unicode="&#x1e6b;" horiz-adv-x="295" 
d="M215 670v-167h72v-114h-72v-389h-151v389h-74v114h74v167h151zM62 737v151h158v-151h-158z" />
    <glyph glyph-name="utildeacute" unicode="&#x1e79;" horiz-adv-x="565" 
d="M515 503v-503h-142v54q-38 -71 -134 -71q-91 0 -146 63q-26 31 -36 64t-10 92v301h151v-281q0 -55 21.5 -76.5t59.5 -21.5q85 0 85 98v281h151zM423 701l40 -78q-49 -46 -107 -46q-19 0 -61 16q-34 13 -61 13q-32 0 -62 -31l-46 78q48 46 98 46q25 0 101 -23q20 -6 33 -6
q19 0 65 31zM423 937l60 -91l-205 -132l-51 73z" />
    <glyph glyph-name="Vtilde" unicode="&#x1e7c;" horiz-adv-x="606" 
d="M-10 670h177l135 -470l137 470h177l-226 -670h-176zM441 880l48 -89q-55 -41 -109 -41q-34 0 -117 26q-13 4 -25 4q-28 0 -67 -32l-49 89q52 43 102 43q33 0 112 -25q13 -4 26 -4q28 0 79 29z" />
    <glyph glyph-name="vtilde" unicode="&#x1e7d;" horiz-adv-x="486" 
d="M496 503l-181 -503h-145l-180 503h156l97 -314l97 314h156zM379 701l40 -78q-47 -46 -107 -46q-18 0 -60 16q-34 13 -62 13q-31 0 -61 -31l-46 78q48 46 98 46q25 0 101 -23q20 -6 33 -6q18 0 64 31z" />
    <glyph glyph-name="Wgrave" unicode="&#x1e80;" horiz-adv-x="872" 
d="M7 670h174l90 -436l100 436h131l98 -437l92 437h174l-178 -670h-151l-101 434l-101 -434h-155zM250 937l242 -131l-45 -92l-248 109z" />
    <glyph glyph-name="wgrave" unicode="&#x1e81;" horiz-adv-x="757" 
d="M0 503h155l77 -312l83 312h127l84 -312l76 312h155l-154 -503h-140l-85 325l-85 -325h-140zM242 770l196 -150l-51 -74l-205 132z" />
    <glyph glyph-name="Wacute" unicode="&#x1e82;" horiz-adv-x="872" 
d="M7 670h174l90 -436l100 436h131l98 -437l92 437h174l-178 -670h-151l-101 434l-101 -434h-155zM628 937l51 -114l-247 -109l-45 92z" />
    <glyph glyph-name="wacute" unicode="&#x1e83;" horiz-adv-x="757" 
d="M0 503h155l77 -312l83 312h127l84 -312l76 312h155l-154 -503h-140l-85 325l-85 -325h-140zM523 770l60 -92l-205 -132l-51 74z" />
    <glyph glyph-name="Wdieresis" unicode="&#x1e84;" horiz-adv-x="872" 
d="M7 670h174l90 -436l100 436h131l98 -437l92 437h174l-178 -670h-151l-101 434l-101 -434h-155zM252 737v151h158v-151h-158zM470 737v151h158v-151h-158z" />
    <glyph glyph-name="wdieresis" unicode="&#x1e85;" horiz-adv-x="757" 
d="M0 503h155l77 -312l83 312h127l84 -312l76 312h155l-154 -503h-140l-85 325l-85 -325h-140zM206 577v137h144v-137h-144zM407 577v137h144v-137h-144z" />
    <glyph glyph-name="Wdotaccent" unicode="&#x1e86;" horiz-adv-x="872" 
d="M7 670h174l90 -436l100 436h131l98 -437l92 437h174l-178 -670h-151l-101 434l-101 -434h-155zM360 737v151h158v-151h-158z" />
    <glyph glyph-name="wdotaccent" unicode="&#x1e87;" horiz-adv-x="757" 
d="M0 503h155l77 -312l83 312h127l84 -312l76 312h155l-154 -503h-140l-85 325l-85 -325h-140zM309 577v137h144v-137h-144z" />
    <glyph glyph-name="Xdotaccent" unicode="&#x1e8a;" horiz-adv-x="647" 
d="M438 670h193l-205 -317l231 -353h-193l-145 237l-138 -237h-191l234 357l-207 313h194l115 -191zM253 737v151h158v-151h-158z" />
    <glyph glyph-name="xdotaccent" unicode="&#x1e8b;" horiz-adv-x="548" 
d="M354 503h178l-169 -234l195 -269h-184l-101 156l-103 -156h-180l191 269l-169 234h180l81 -132zM207 577v137h144v-137h-144z" />
    <glyph glyph-name="Xdieresis" unicode="&#x1e8c;" horiz-adv-x="647" 
d="M438 670h193l-205 -317l231 -353h-193l-145 237l-138 -237h-191l234 357l-207 313h194l115 -191zM139 737v151h158v-151h-158zM356 737v151h158v-151h-158z" />
    <glyph glyph-name="xdieresis" unicode="&#x1e8d;" horiz-adv-x="548" 
d="M354 503h178l-169 -234l195 -269h-184l-101 156l-103 -156h-180l191 269l-169 234h180l81 -132zM107 577v137h144v-137h-144zM308 577v137h144v-137h-144z" />
    <glyph glyph-name="Ydotaccent" unicode="&#x1e8e;" horiz-adv-x="550" 
d="M190 0v244l-200 426h186l100 -269l100 269h184l-199 -426v-244h-171zM202 737v151h158v-151h-158z" />
    <glyph glyph-name="ydotaccent" unicode="&#x1e8f;" horiz-adv-x="499" 
d="M349 503h160l-252 -671h-160l80 193l-187 478h160l102 -292zM185 577v137h144v-137h-144z" />
    <glyph glyph-name="Zcircumflex" unicode="&#x1e90;" horiz-adv-x="460" 
d="M17 0v113l231 406h-231v151h423v-139l-214 -380h214v-151h-423zM231 801l-44 -64h-161l133 151h148l129 -151h-159z" />
    <glyph glyph-name="zcircumflex" unicode="&#x1e91;" horiz-adv-x="408" 
d="M194 114h197v-114h-374v103l212 286h-212v114h374v-115zM207 634l-41 -58h-144l134 151h105l130 -151h-142z" />
    <glyph glyph-name="tdieresis" unicode="&#x1e97;" horiz-adv-x="295" 
d="M214 670v-167h72v-114h-72v-389h-151v389h-73v114h73v167h151zM-47 737v151h158v-151h-158zM170 737v151h158v-151h-158z" />
    <glyph glyph-name="wring" unicode="&#x1e98;" horiz-adv-x="757" 
d="M0 503h155l77 -312l83 312h127l84 -312l76 312h155l-154 -503h-140l-85 325l-85 -325h-140zM383 778q46 0 79 -33t33 -79t-33 -79.5t-80 -33.5t-80.5 33t-33.5 80t33.5 79.5t81.5 32.5zM382 711q-18 0 -31 -13t-13 -32t13 -32t31 -13q17 0 30 13.5t13 31.5t-13 31.5
t-30 13.5z" />
    <glyph glyph-name="yring" unicode="&#x1e99;" horiz-adv-x="499" 
d="M349 503h160l-252 -671h-160l80 193l-187 478h160l102 -292zM259 778q46 0 79 -33t33 -79t-33 -79.5t-80 -33.5t-80.5 33t-33.5 80t33.5 79.5t81.5 32.5zM258 711q-18 0 -31 -13t-13 -32t13 -32t30 -13q18 0 31 13.5t13 31.5t-13 31.5t-30 13.5z" />
    <glyph glyph-name="Etilde" unicode="&#x1ebc;" horiz-adv-x="471" 
d="M57 0v670h373v-151h-209v-103h202v-151h-202v-114h209v-151h-373zM384 880l48 -89q-55 -41 -109 -41q-33 0 -116 26q-13 4 -26 4q-28 0 -67 -32l-49 89q52 43 102 43q34 0 113 -25q13 -4 25 -4q28 0 79 29z" />
    <glyph glyph-name="etilde" unicode="&#x1ebd;" horiz-adv-x="581" 
d="M382 157h154q-35 -82 -100 -128t-146 -46q-109 0 -186 78t-77 189q0 113 76 191.5t185 78.5q113 0 189 -78.5t76 -196.5q0 -20 -4 -41h-376q5 -42 35.5 -68t74.5 -26q52 0 92 40zM176 305h227q-7 39 -38.5 63t-75.5 24q-92 0 -113 -87zM424 701l40 -78q-49 -46 -107 -46
q-19 0 -61 16q-34 13 -61 13q-32 0 -62 -31l-46 78q48 46 98 46q26 0 101 -23q19 -6 33 -6q19 0 65 31z" />
    <glyph glyph-name="Ygrave" unicode="&#x1ef2;" horiz-adv-x="550" 
d="M190 0v244l-200 426h186l100 -269l100 269h184l-199 -426v-244h-171zM110 937l242 -131l-45 -92l-248 109z" />
    <glyph glyph-name="ygrave" unicode="&#x1ef3;" horiz-adv-x="499" 
d="M349 503h160l-252 -671h-160l80 193l-187 478h160l102 -292zM129 770l196 -150l-51 -74l-205 132z" />
    <glyph glyph-name="Ytilde" unicode="&#x1ef8;" horiz-adv-x="550" 
d="M190 0v244l-200 426h186l100 -269l100 269h184l-199 -426v-244h-171zM416 880l48 -89q-56 -41 -109 -41q-34 0 -117 26q-13 4 -26 4q-29 0 -66 -32l-49 89q52 43 101 43q34 0 113 -25q13 -4 25 -4q29 0 80 29z" />
    <glyph glyph-name="ytilde" unicode="&#x1ef9;" horiz-adv-x="499" 
d="M349 503h160l-252 -671h-160l80 193l-187 478h160l102 -292zM380 701l40 -78q-47 -46 -107 -46q-17 0 -60 16q-35 13 -62 13q-31 0 -61 -31l-46 78q48 46 98 46q25 0 101 -23q20 -6 33 -6q18 0 64 31z" />
    <glyph glyph-name="enquad" unicode="&#x2000;" 
 />
    <glyph glyph-name="emquad" unicode="&#x2001;" horiz-adv-x="1005" 
 />
    <glyph glyph-name="enspace" unicode="&#x2002;" 
 />
    <glyph glyph-name="emspace" unicode="&#x2003;" horiz-adv-x="1005" 
 />
    <glyph glyph-name="threeperemspace" unicode="&#x2004;" horiz-adv-x="335" 
 />
    <glyph glyph-name="fourperemspace" unicode="&#x2005;" horiz-adv-x="251" 
 />
    <glyph glyph-name="figurespace" unicode="&#x2007;" horiz-adv-x="553" 
 />
    <glyph glyph-name="hyphenminus" unicode="&#x2010;" horiz-adv-x="255" 
d="M255 321v-127h-255v127h255z" />
    <glyph glyph-name="endash" unicode="&#x2013;" horiz-adv-x="553" 
d="M510 321v-127h-466v127h466z" />
    <glyph glyph-name="emdash" unicode="&#x2014;" horiz-adv-x="771" 
d="M771 321v-127h-771v127h771z" />
    <glyph glyph-name="underscoredbl" unicode="&#x2017;" 
d="M0 -51h503v-67h-503v67zM0 -168h503v-67h-503v67z" />
    <glyph glyph-name="quoteleft" unicode="&#x2018;" horiz-adv-x="263" 
d="M54 371v190q0 49 25.5 79t66.5 30h64v-81h-31q-39 0 -39 -34v-30h70v-154h-156z" />
    <glyph glyph-name="quoteright" unicode="&#x2019;" horiz-adv-x="263" 
d="M210 670v-190q0 -49 -25.5 -79.5t-66.5 -30.5h-64v81h31q39 0 39 34v31h-70v154h156z" />
    <glyph glyph-name="quotesinglbase" unicode="&#x201a;" horiz-adv-x="263" 
d="M210 154v-190q0 -49 -25.5 -79.5t-66.5 -30.5h-64v81h31q39 0 39 34v31h-70v154h156z" />
    <glyph glyph-name="quotedblleft" unicode="&#x201c;" horiz-adv-x="487" 
d="M278 371v190q0 49 25.5 79t66.5 30h64v-81h-31q-39 0 -39 -34v-30h70v-154h-156zM54 371v190q0 49 25.5 79t66.5 30h64v-81h-31q-39 0 -39 -34v-30h70v-154h-156z" />
    <glyph glyph-name="quotedblright" unicode="&#x201d;" horiz-adv-x="487" 
d="M210 670v-190q0 -49 -25.5 -79.5t-66.5 -30.5h-64v81h31q39 0 39 34v31h-70v154h156zM434 670v-190q0 -49 -25.5 -79.5t-66.5 -30.5h-64v81h31q39 0 39 34v31h-70v154h156z" />
    <glyph glyph-name="quotedblbase" unicode="&#x201e;" horiz-adv-x="487" 
d="M210 154v-190q0 -49 -25.5 -79.5t-66.5 -30.5h-64v81h31q39 0 39 34v31h-70v154h156zM434 154v-190q0 -49 -25.5 -79.5t-66.5 -30.5h-64v81h31q39 0 39 34v31h-70v154h156z" />
    <glyph glyph-name="dagger" unicode="&#x2020;" horiz-adv-x="553" 
d="M350 670v-167h150v-131h-150v-540h-149v540h-149v131h149v167h149z" />
    <glyph glyph-name="daggerdbl" unicode="&#x2021;" horiz-adv-x="553" 
d="M350 670v-167h150v-131h-150v-241h150v-131h-150v-168h-149v168h-149v131h149v241h-149v131h149v167h149z" />
    <glyph glyph-name="bullet" unicode="&#x2022;" horiz-adv-x="670" 
d="M339 480q56 0 96.5 -41.5t40.5 -98.5t-41 -98t-98 -41q-58 0 -99 41t-41 98q0 58 41.5 99t100.5 41z" />
    <glyph glyph-name="trianglebullet" unicode="&#x2023;" 
d="M72 119v436l408 -218z" />
    <glyph glyph-name="onedotlead" unicode="&#x2024;" horiz-adv-x="251" 
d="M196 139v-139h-141v139h141z" />
    <glyph glyph-name="twodotlead" unicode="&#x2025;" 
d="M196 139v-139h-141v139h141zM447 139v-139h-141v139h141z" />
    <glyph glyph-name="ellipsis" unicode="&#x2026;" horiz-adv-x="790" 
d="M210 154v-154h-156v154h156zM473 154v-154h-156v154h156zM737 154v-154h-156v154h156z" />
    <glyph glyph-name="perthousand" unicode="&#x2030;" horiz-adv-x="1173" 
d="M194 683q71 0 118 -46t47 -116t-47 -116t-119 -46q-70 0 -116.5 46.5t-46.5 116.5q0 68 47 114.5t117 46.5zM195 583q-25 0 -42.5 -18t-17.5 -43q0 -27 17 -45t43 -18q25 0 42 18t17 44t-17 44t-42 18zM609 311q71 0 118 -46t47 -116t-47 -116t-119 -46
q-70 0 -116.5 46.5t-46.5 116.5q0 68 47 114.5t117 46.5zM610 211q-25 0 -42.5 -18t-17.5 -43q0 -27 17 -45t43 -18q25 0 42 18t17 44t-17 44t-42 18zM490 670h106l-282 -670h-106zM978 311q71 0 118 -46t47 -116t-47 -116t-119 -46q-70 0 -116.5 46.5t-46.5 116.5
q0 68 47 114.5t117 46.5zM979 211q-25 0 -42.5 -18t-17.5 -43q0 -27 17 -45t43 -18q25 0 42 18t17 44t-17 44t-42 18z" />
    <glyph glyph-name="minute" unicode="&#x2032;" horiz-adv-x="139" 
d="M35 455l-9 215h86l-9 -215h-68z" />
    <glyph glyph-name="second" unicode="&#x2033;" horiz-adv-x="263" 
d="M35 455l-9 215h86l-9 -215h-68zM159 455l-9 215h86l-9 -215h-68z" />
    <glyph glyph-name="guilsinglleft" unicode="&#x2039;" horiz-adv-x="190" 
d="M151 443v-141l-47 -40l47 -43v-133l-117 116v116z" />
    <glyph glyph-name="guilsinglright" unicode="&#x203a;" horiz-adv-x="190" 
d="M40 86v135l47 40l-47 42v134l117 -120v-116z" />
    <glyph glyph-name="exclamdbl" unicode="&#x203c;" horiz-adv-x="470" 
d="M193 670v-177l-44 -278h-74l-43 275v180h161zM197 161v-161h-168v161h168zM437 670v-177l-44 -278h-75l-43 275v180h162zM440 161v-161h-168v161h168z" />
    <glyph glyph-name="overscore2" unicode="&#x203e;" 
d="M0 885h503v-96h-503v96z" />
    <glyph glyph-name="fraction" unicode="&#x2044;" horiz-adv-x="153" 
d="M171 670h92l-282 -670h-92z" />
    <glyph glyph-name="zerosuperior" unicode="&#x2070;" horiz-adv-x="376" 
d="M24 411v116q0 60 39 99q52 52 127 52q38 0 76 -18.5t61 -48.5q26 -34 26 -84v-116q0 -64 -47 -107.5t-116 -43.5q-82 0 -135 62q-31 36 -31 89zM238 411v116q0 57 -49 57q-50 0 -50 -57v-116q0 -57 49 -57q50 0 50 57z" />
    <glyph glyph-name="foursuperior" unicode="&#x2074;" horiz-adv-x="376" 
d="M204 338h-191v77l195 255h107v-248h48v-84h-48v-70h-111v70zM216 417v128l-90 -128h90z" />
    <glyph glyph-name="fivesuperior" unicode="&#x2075;" horiz-adv-x="376" 
d="M33 441l38 229h245v-90h-156l-8 -49q22 11 56 11q62 0 104.5 -39t42.5 -96q0 -62 -48.5 -104.5t-120.5 -42.5q-66 0 -112 32t-57 87h116q19 -25 50 -25q23 0 40 15t17 36t-16.5 35.5t-41.5 14.5q-39 0 -56 -35z" />
    <glyph glyph-name="sixsuperior" unicode="&#x2076;" horiz-adv-x="376" 
d="M299 670l-95 -121q10 2 22 2q57 0 96 -39.5t39 -97.5q0 -66 -49 -110t-123 -44q-73 0 -123.5 45t-50.5 110q0 54 41 109l109 146h134zM187 457q-25 0 -41.5 -14.5t-16.5 -35.5q0 -23 16.5 -38t41.5 -15t42 14.5t17 36.5t-17 37t-42 15z" />
    <glyph glyph-name="sevensuperior" unicode="&#x2077;" horiz-adv-x="376" 
d="M46 670h288v-81l-154 -321h-127l161 312h-168v90z" />
    <glyph glyph-name="eightsuperior" unicode="&#x2078;" horiz-adv-x="376" 
d="M282 490q67 -27 67 -99q0 -55 -47 -93t-113 -38q-67 0 -114.5 38.5t-47.5 91.5q0 74 66 100q-40 31 -40 74q0 49 38.5 81.5t96.5 32.5t96.5 -32t38.5 -81q0 -44 -41 -75zM189 592q-16 0 -27.5 -10.5t-11.5 -24.5q0 -34 38 -34q16 0 27 10.5t11 24.5t-11 24t-26 10z
M188 442q-19 0 -32.5 -12.5t-13.5 -30.5q0 -20 13.5 -32.5t34.5 -12.5q17 0 30.5 13t13.5 31t-13.5 31t-32.5 13z" />
    <glyph glyph-name="ninesuperior" unicode="&#x2079;" horiz-adv-x="376" 
d="M86 268l97 122q-9 -2 -24 -2q-62 0 -103 40t-41 100q0 64 49 107t123 43q76 0 125 -44.5t49 -113.5q0 -50 -31 -94l-112 -158h-132zM188 584q-23 0 -40.5 -15t-17.5 -35q0 -21 17 -36.5t40 -15.5q25 0 42 15t17 36t-17 36t-41 15z" />
    <glyph glyph-name="plussuperior" unicode="&#x207a;" horiz-adv-x="338" 
d="M13 526h101v98h109v-98h101v-102h-101v-98h-109v98h-101v102z" />
    <glyph glyph-name="minussuperior" unicode="&#x207b;" horiz-adv-x="338" 
d="M13 526h311v-102h-311v102z" />
    <glyph glyph-name="parenleftsuperior" unicode="&#x207d;" horiz-adv-x="260" 
d="M236 249v-93q-52 17 -88 41q-58 39 -90 97.5t-32 124.5t32 124.5t90 97.5q35 23 88 42v-93q-47 -23 -75.5 -70t-28.5 -102q0 -53 29 -100t75 -69z" />
    <glyph glyph-name="parenrightsuperior" unicode="&#x207e;" horiz-adv-x="260" 
d="M24 590v93q53 -19 88 -42q58 -39 90 -97.5t32 -124.5t-32 -124.5t-90 -97.5q-36 -24 -88 -41v93q46 22 75 69.5t29 101.5q0 53 -29 100t-75 70z" />
    <glyph glyph-name="nsuperior" unicode="&#x207f;" horiz-adv-x="383" 
d="M39 268v303h97v-28q27 38 87 38q55 0 89 -30t34 -94v-189h-102v165q0 60 -50 60q-29 0 -45 -20q-8 -10 -8 -36v-169h-102z" />
    <glyph glyph-name="zeroinferior" unicode="&#x2080;" horiz-adv-x="376" 
d="M24 143v116q0 61 39 99q53 52 127 52q38 0 76 -18.5t61 -48.5q26 -34 26 -84v-116q0 -64 -47 -107.5t-116 -43.5q-82 0 -135 62q-31 36 -31 89zM238 143v116q0 57 -49 57q-50 0 -50 -57v-116q0 -57 49 -57q50 0 50 57z" />
    <glyph glyph-name="oneinferior" unicode="&#x2081;" horiz-adv-x="376" 
d="M260 402v-402h-115v312h-71v90h186z" />
    <glyph glyph-name="twoinferior" unicode="&#x2082;" horiz-adv-x="376" 
d="M200 90h144v-90h-311v82q80 48 112 77q81 72 81 120q0 37 -39 37q-45 0 -48 -63h-110q3 62 26 95q44 62 136 62q64 0 107 -34t43 -85q0 -49 -31.5 -94t-109.5 -107z" />
    <glyph glyph-name="threeinferior" unicode="&#x2083;" horiz-adv-x="374" 
d="M21 122h117q9 -37 48 -37q46 0 46 38t-57 38h-41v79h21q53 0 53 43q0 33 -29 33q-32 0 -32 -34h-114q1 58 42.5 93t108.5 35q59 0 99 -32t40 -79q0 -55 -55 -83q79 -27 79 -97q0 -53 -48 -90t-115 -37q-101 0 -141 60q-16 24 -22 70z" />
    <glyph glyph-name="fourinferior" unicode="&#x2084;" horiz-adv-x="376" 
d="M204 70h-191v77l195 255h107v-248h48v-84h-48v-70h-111v70zM216 149v128l-90 -128h90z" />
    <glyph glyph-name="fiveinferior" unicode="&#x2085;" horiz-adv-x="376" 
d="M33 173l38 229h245v-90h-156l-8 -49q22 11 56 11q62 0 104.5 -39t42.5 -96q0 -62 -48.5 -104.5t-120.5 -42.5q-67 0 -112.5 32t-56.5 87h116q19 -25 50 -25q23 0 40 15t17 36t-16.5 35.5t-41.5 14.5q-39 0 -56 -35z" />
    <glyph glyph-name="sixinferior" unicode="&#x2086;" horiz-adv-x="376" 
d="M299 402l-95 -120q10 1 22 1q57 0 96 -39.5t39 -97.5q0 -66 -49 -110t-123 -44q-73 0 -123.5 45t-50.5 110q0 54 41 109l109 146h134zM187 189q-25 0 -41.5 -14.5t-16.5 -35.5q0 -23 16.5 -38t41.5 -15t42 14.5t17 36.5t-17 37t-42 15z" />
    <glyph glyph-name="seveninferior" unicode="&#x2087;" horiz-adv-x="376" 
d="M46 402h288v-81l-154 -321h-127l161 312h-168v90z" />
    <glyph glyph-name="eightinferior" unicode="&#x2088;" horiz-adv-x="376" 
d="M282 222q67 -27 67 -100q0 -54 -47 -92t-113 -38q-67 0 -114.5 38.5t-47.5 91.5q0 74 66 100q-40 31 -40 74q0 49 38.5 81.5t96.5 32.5t96.5 -32.5t38.5 -80.5q0 -46 -41 -75zM189 324q-16 0 -27.5 -10.5t-11.5 -25.5q0 -34 38 -34q16 0 27 10.5t11 25.5q0 14 -11 24
t-26 10zM188 172q-20 0 -33 -12t-13 -30q0 -44 48 -44q17 0 30.5 13t13.5 30q0 18 -13.5 30.5t-32.5 12.5z" />
    <glyph glyph-name="nineinferior" unicode="&#x2089;" horiz-adv-x="376" 
d="M86 0l97 122q-9 -2 -24 -2q-62 0 -103 40t-41 100q0 64 49 107t123 43q76 0 125 -44.5t49 -113.5q0 -50 -31 -94l-112 -158h-132zM188 316q-23 0 -40.5 -15t-17.5 -35q0 -21 17 -36.5t40 -15.5q25 0 42 15t17 36t-17.5 36t-40.5 15z" />
    <glyph glyph-name="franc" unicode="&#x20a3;" horiz-adv-x="553" 
d="M57 0v670h326v-144h-168v-123h121v-144h-121v-259h-158zM371 0v303h100v-27q25 38 82 37v-94q-43 -1 -60 -12.5t-17 -39.5v-167h-105z" />
    <glyph glyph-name="lira" unicode="&#x20a4;" horiz-adv-x="553" 
d="M209 433h161v-92h-120q5 -9 25 -47h95v-92h-53q1 -4 1 -9q0 -28 -24 -59h38q74 0 74 62q0 14 -6 33h145q10 -30 10 -58q0 -39 -20 -75q-54 -96 -178 -96h-322v134h45q73 0 73 47q0 5 -4 21h-141v92h92q-12 21 -25 47h-67v92h31q-3 21 -3 31q0 91 68.5 155.5t164.5 64.5
q135 0 201 -107q26 -41 35 -117h-158q-4 44 -27 60q-19 13 -42 13q-31 0 -51 -23.5t-20 -58.5q0 -2 2 -18z" />
    <glyph glyph-name="peseta" unicode="&#x20a7;" horiz-adv-x="721" 
d="M54 0v670h179q143 0 202 -49q77 -64 77 -178q0 -108 -69 -175q-60 -58 -191 -58h-40v-210h-158zM212 355h36q106 0 106 85q0 47 -26 66.5t-87 19.5h-29v-171zM661 402v-99h47v-72h-47v-231h-105v231h-48v72h48v99h105z" />
    <glyph glyph-name="Euro" unicode="&#x20ac;" horiz-adv-x="728" 
d="M545 256h-216q20 -54 65 -86t101 -32q84 0 139 74v-199q-63 -26 -137 -26q-124 0 -221 75.5t-123 193.5h-127l64 152h61q25 121 121 198.5t222 77.5q115 0 207 -65l-69 -158q-58 72 -138 72q-124 0 -168 -125h283z" />
    <glyph glyph-name="aslashs" unicode="&#x2101;" horiz-adv-x="989" 
d="M307 325h-147l-23 -57h-124l174 402h93l172 -402h-124zM188 409h91l-45 131zM639 670h94l-282 -670h-93zM945 280h-116q-6 38 -37 38q-35 0 -35 -28q0 -11 10 -20t78 -37q104 -43 104 -117q0 -58 -41.5 -91t-114.5 -33q-75 0 -118.5 35t-43.5 96q0 8 1 14h118
q-1 -2 -1 -4q-2 -19 11 -34t32 -15q17 0 28.5 10t11.5 24q0 11 -8.5 20.5t-86.5 38.5q-98 36 -98 113q0 50 45.5 85t110.5 35q90 0 131 -61q17 -25 19 -69z" />
    <glyph glyph-name="liter" unicode="&#x2113;" 
d="M125 141v18q-29 -37 -39 -37q-7 0 -13.5 11t-6.5 24q0 11 4.5 18.5t32.5 39.5q13 15 30 39q72 417 218 417q40 0 64.5 -28t24.5 -74q0 -61 -44 -143q-23 -43 -39 -62q-17 -22 -87 -94q-1 -2 -11 -12q-22 -135 -22 -174q0 -25 13 -25q11 0 23 20q8 14 16.5 29.5t21.5 15.5
q21 0 21 -25q0 -34 -29 -73q-37 -49 -84 -49q-65 0 -85 71q-9 31 -9 93zM269 337q43 48 75 115t32 108q0 33 -21 33q-46 0 -86 -256z" />
    <glyph glyph-name="trademark" unicode="&#x2122;" horiz-adv-x="821" 
d="M94 288v291h-84v91h282v-91h-84v-291h-114zM315 288v382h145l82 -240l81 240h145v-382h-106l3 263l-85 -263h-76l-86 264l3 -264h-106z" />
    <glyph glyph-name="Ohm" unicode="&#x2126;" horiz-adv-x="670" 
d="M28 0v135h133q-137 86 -137 237q0 131 90.5 223t220.5 92t220.5 -92t90.5 -224q0 -150 -137 -236h133v-135h-272v124q118 61 118 219q0 88 -44 147.5t-109 59.5t-109 -59t-44 -147q0 -159 118 -220v-124h-272z" />
    <glyph glyph-name="onethird" unicode="&#x2153;" horiz-adv-x="903" 
d="M260 670v-402h-115v312h-71v90h186zM547 670h92l-281 -670h-93zM549 122h117q9 -37 48 -37q46 0 46 38t-57 38h-41v79h21q53 0 53 43q0 33 -29 33q-32 0 -32 -34h-114q1 58 42.5 93t108.5 35q59 0 99 -32t40 -79q0 -55 -55 -83q79 -27 79 -97q0 -53 -48 -90t-115 -37
q-101 0 -141 60q-16 24 -22 70z" />
    <glyph glyph-name="twothirds" unicode="&#x2154;" horiz-adv-x="903" 
d="M200 358h144v-90h-311v82q77 45 112 77q81 72 81 120q0 37 -39 37q-45 0 -48 -63h-110q3 62 26 95q44 62 136 62q64 0 107 -34t43 -85q0 -49 -31.5 -94t-109.5 -107zM547 670h93l-282 -670h-92zM550 122h117q9 -37 48 -37q46 0 46 38t-57 38h-41v79h21q53 0 53 43
q0 33 -29 33q-32 0 -32 -34h-114q1 58 42.5 93t108.5 35q59 0 99 -32t40 -79q0 -55 -55 -83q79 -26 79 -97q0 -53 -48 -90t-115 -37q-101 0 -141 60q-16 24 -22 70z" />
    <glyph glyph-name="onefifth" unicode="&#x2155;" horiz-adv-x="905" 
d="M260 670v-402h-115v312h-71v90h186zM547 670h92l-281 -670h-93zM561 173l38 229h245v-90h-156l-9 -49q23 11 57 11q62 0 104.5 -39t42.5 -96q0 -62 -48.5 -104.5t-120.5 -42.5q-67 0 -112.5 32t-56.5 87h116q19 -25 50 -25q23 0 40 15t17 36t-16.5 35.5t-41.5 14.5
q-39 0 -56 -35z" />
    <glyph glyph-name="twofifths" unicode="&#x2156;" horiz-adv-x="905" 
d="M200 358h144v-90h-311v82q77 45 112 77q81 72 81 120q0 37 -39 37q-45 0 -48 -63h-110q3 62 26 95q44 62 136 62q64 0 107 -34t43 -85q0 -49 -31.5 -94t-109.5 -107zM547 670h93l-282 -670h-92zM561 173l38 229h245v-90h-156l-8 -49q22 11 56 11q62 0 104.5 -39t42.5 -96
q0 -62 -48.5 -104.5t-120.5 -42.5q-67 0 -112.5 32t-56.5 87h116q19 -25 50 -25q23 0 40 15t17 36t-16.5 35.5t-41.5 14.5q-39 0 -56 -35z" />
    <glyph glyph-name="threefifths" unicode="&#x2157;" horiz-adv-x="903" 
d="M21 390h117q9 -36 48 -36q46 0 46 37q0 38 -57 38h-41v79h21q53 0 53 43q0 33 -29 33q-32 0 -32 -34h-114q1 58 42.5 93t108.5 35q59 0 99 -32t40 -79q0 -55 -55 -83q79 -26 79 -97q0 -53 -48 -90t-115 -37q-101 0 -141 60q-16 24 -22 70zM546 670h92l-282 -670h-92z
M560 173l38 229h245v-90h-156l-8 -49q22 11 56 11q62 0 104.5 -39t42.5 -96q0 -62 -48.5 -104.5t-120.5 -42.5q-67 0 -112.5 32t-56.5 87h116q19 -25 50 -25q23 0 40 15t17 36t-16.5 35.5t-41.5 14.5q-39 0 -56 -35z" />
    <glyph glyph-name="fourfifths" unicode="&#x2158;" horiz-adv-x="905" 
d="M205 338h-192v77l196 255h106v-248h48v-84h-48v-70h-110v70zM216 417v128l-89 -128h89zM547 670h93l-282 -670h-92zM562 173l38 229h245v-90h-156l-9 -49q23 11 57 11q62 0 104.5 -39t42.5 -96q0 -62 -48.5 -104.5t-120.5 -42.5q-67 0 -112.5 32t-56.5 87h116
q19 -25 50 -25q23 0 40 15t17 36t-16.5 35.5t-41.5 14.5q-39 0 -56 -35z" />
    <glyph glyph-name="onesixth" unicode="&#x2159;" horiz-adv-x="905" 
d="M260 670v-402h-115v312h-71v90h186zM547 670h92l-281 -670h-93zM828 402l-96 -120q11 1 23 1q57 0 95.5 -39.5t38.5 -97.5q0 -66 -49 -110t-123 -44q-72 0 -122.5 45t-50.5 110q0 54 41 109l108 146h135zM715 189q-24 0 -40.5 -14.5t-16.5 -35.5q0 -23 16.5 -38t41.5 -15
t41.5 14.5t16.5 36.5t-17 37t-42 15z" />
    <glyph glyph-name="fivesixths" unicode="&#x215a;" horiz-adv-x="905" 
d="M33 441l38 229h245v-90h-156l-8 -49q22 11 56 11q62 0 104.5 -39t42.5 -96q0 -62 -48.5 -104.5t-120.5 -42.5q-66 0 -112 32t-57 87h116q19 -25 50 -25q23 0 40 15t17 36t-16.5 35.5t-41.5 14.5q-39 0 -56 -35zM547 670h93l-282 -670h-92zM828 402l-95 -120q10 1 23 1
q57 0 95.5 -39.5t38.5 -97.5q0 -66 -49 -110t-123 -44q-73 0 -123.5 45t-50.5 110q0 54 41 109l109 146h134zM716 189q-25 0 -41.5 -14.5t-16.5 -35.5q0 -23 16.5 -38t41.5 -15t42 14.5t17 36.5t-17 37t-42 15z" />
    <glyph glyph-name="oneeighth" unicode="&#x215b;" horiz-adv-x="905" 
d="M260 670v-402h-115v312h-71v90h186zM547 670h92l-281 -670h-93zM811 222q67 -28 67 -100q0 -54 -47 -92t-113 -38q-67 0 -114.5 38.5t-47.5 91.5q0 72 66 100q-40 31 -40 74q0 49 38.5 81.5t96.5 32.5t96.5 -32.5t38.5 -80.5q0 -46 -41 -75zM718 324q-16 0 -27.5 -10.5
t-11.5 -25.5q0 -34 38 -34q16 0 27 10.5t11 25.5q0 14 -11 24t-26 10zM717 172q-20 0 -33 -12t-13 -30q0 -44 48 -44q17 0 30.5 13t13.5 30q0 18 -13.5 30.5t-32.5 12.5z" />
    <glyph glyph-name="threeeighths" unicode="&#x215c;" horiz-adv-x="903" 
d="M21 390h117q9 -36 48 -36q46 0 46 37q0 38 -57 38h-41v79h21q53 0 53 43q0 33 -29 33q-32 0 -32 -34h-114q1 58 42.5 93t108.5 35q59 0 99 -32t40 -79q0 -55 -55 -83q79 -26 79 -97q0 -53 -48 -90t-115 -37q-101 0 -141 60q-16 24 -22 70zM546 670h92l-282 -670h-92z
M810 222q66 -27 66 -100q0 -54 -46.5 -92t-113.5 -38q-66 0 -113.5 38.5t-47.5 91.5q0 74 66 100q-41 31 -41 74q0 49 38.5 81.5t96.5 32.5t96.5 -32.5t38.5 -80.5q0 -45 -40 -75zM716 324q-16 0 -27.5 -10.5t-11.5 -25.5q0 -34 38 -34q16 0 27 10.5t11 25.5q0 14 -11 24
t-26 10zM715 172q-19 0 -32 -12t-13 -30q0 -19 13.5 -31.5t33.5 -12.5q18 0 31 13t13 30q0 18 -13.5 30.5t-32.5 12.5z" />
    <glyph glyph-name="fiveeighths" unicode="&#x215d;" horiz-adv-x="905" 
d="M33 441l38 229h245v-90h-156l-8 -49q22 11 56 11q62 0 104.5 -39t42.5 -96q0 -62 -48.5 -104.5t-120.5 -42.5q-66 0 -112 32t-57 87h116q19 -25 50 -25q23 0 40 15t17 36t-16.5 35.5t-41.5 14.5q-39 0 -56 -35zM547 670h93l-282 -670h-92zM812 222q66 -27 66 -100
q0 -54 -46.5 -92t-113.5 -38q-66 0 -113.5 38.5t-47.5 91.5q0 73 66 100q-41 31 -41 74q0 49 38.5 81.5t96.5 32.5t96.5 -32.5t38.5 -80.5q0 -45 -40 -75zM718 324q-16 0 -27.5 -10.5t-11.5 -25.5q0 -34 38 -34q16 0 27 10.5t11 25.5q0 14 -11 24t-26 10zM717 172
q-19 0 -32 -12t-13 -30q0 -19 13.5 -31.5t33.5 -12.5q18 0 31 13t13 30q0 18 -13.5 30.5t-32.5 12.5z" />
    <glyph glyph-name="seveneighths" unicode="&#x215e;" horiz-adv-x="905" 
d="M46 670h288v-81l-154 -321h-127l161 312h-168v90zM547 670h92l-281 -670h-93zM812 222q66 -27 66 -100q0 -54 -47 -92t-113 -38q-67 0 -114.5 38.5t-47.5 91.5q0 72 66 100q-40 31 -40 74q0 49 38.5 81.5t96.5 32.5t96.5 -32.5t38.5 -80.5q0 -45 -40 -75zM718 324
q-16 0 -27.5 -10.5t-11.5 -25.5q0 -34 38 -34q16 0 27 10.5t11 25.5q0 14 -11 24t-26 10zM717 172q-20 0 -33 -12t-13 -30q0 -44 48 -44q17 0 30.5 13t13.5 30q0 18 -13.5 30.5t-32.5 12.5z" />
    <glyph glyph-name="arrowleft" unicode="&#x2190;" horiz-adv-x="670" 
d="M656 365v-51h-503q16 -19 34.5 -56t18.5 -48q0 -14 -15 -14q-9 0 -23 17q-47 56 -132 104q-23 13 -23 21t17 18q82 49 148 119q6 7 13 7q15 0 15 -15q0 -31 -53 -102h503z" />
    <glyph glyph-name="arrowup" unicode="&#x2191;" horiz-adv-x="670" 
d="M361 13h-51v503q-19 -16 -56 -34.5t-48 -18.5q-14 0 -14 15q0 9 17 23q56 48 104 133q13 23 21 23t18 -17q55 -93 118 -148q8 -7 8 -14q0 -15 -15 -15q-31 0 -102 53v-503z" />
    <glyph glyph-name="arrowright" unicode="&#x2192;" horiz-adv-x="670" 
d="M13 312v51h503q-16 19 -34.5 56t-18.5 48q0 14 15 14q9 0 23 -17q46 -55 132 -104q23 -13 23 -21t-17 -18q-92 -55 -147 -118q-7 -8 -14 -8q-15 0 -15 15q0 29 53 102h-503z" />
    <glyph glyph-name="arrowdown" unicode="&#x2193;" horiz-adv-x="670" 
d="M309 657h51v-503q18 16 55.5 34.5t48.5 18.5q14 0 14 -15q0 -9 -17 -23q-56 -48 -104 -133q-13 -23 -21 -23t-18 17q-57 95 -118 148q-8 7 -8 14q0 15 15 15q28 0 102 -53v503z" />
    <glyph glyph-name="arrowboth" unicode="&#x2194;" horiz-adv-x="670" 
d="M516 312h-363q53 -72 53 -102q0 -15 -15 -15q-8 0 -24 19q-45 53 -144 110q-10 6 -10 15q0 8 23 21q86 49 132 104q14 17 23 17q15 0 15 -14q0 -11 -18.5 -47.5t-34.5 -56.5h363q-16 19 -34.5 56t-18.5 48q0 14 15 14q9 0 23 -17q46 -55 132 -104q23 -13 23 -21t-17 -18
q-92 -55 -147 -118q-7 -8 -14 -8q-15 0 -15 15q0 29 53 102z" />
    <glyph glyph-name="arrowupdn" unicode="&#x2195;" horiz-adv-x="670" 
d="M361 516v-363q74 54 102 54q15 0 15 -15q0 -7 -19 -24q-52 -46 -110 -145q-6 -10 -15 -10q-8 0 -21 23q-47 84 -104 133q-17 14 -17 23q0 15 14 15q11 0 47.5 -19t56.5 -35v363q-19 -16 -56 -34.5t-48 -18.5q-14 0 -14 15q0 9 17 23q57 49 104 133q13 23 21 23t18 -17
q36 -61 56.5 -87t59.5 -59q10 -9 10 -16q0 -15 -15 -15q-28 0 -102 53z" />
    <glyph glyph-name="arrowupdnbse" unicode="&#x21a8;" horiz-adv-x="670" 
d="M361 516v-363q74 54 102 54q15 0 15 -15q0 -7 -19 -24q-52 -46 -110 -145q-6 -10 -15 -10q-8 0 -21 23q-47 84 -104 133q-17 14 -17 23q0 15 14 15q11 0 47.5 -19t56.5 -35v363q-19 -16 -56.5 -34.5t-48.5 -18.5q-14 0 -14 15q0 9 17 23q57 48 104 133q13 23 21 23
q9 0 19 -17q54 -92 118 -148q8 -7 8 -14q0 -15 -15 -15q-28 0 -102 53zM202 -69h265v-43h-265v43z" />
    <glyph glyph-name="partialdiff" unicode="&#x2202;" 
d="M56 547l18 120q188 -20 288 -107q124 -108 124 -295q0 -151 -90 -224q-62 -50 -149 -50q-100 0 -165.5 65.5t-65.5 165.5q0 90 58 151t144 61q67 0 119 -41q-26 45 -43 63.5t-52 40.5q-85 40 -186 50zM252 319q-41 0 -69.5 -30t-28.5 -73q0 -41 28 -71.5t67 -30.5
q40 0 68 30t28 73t-27 72.5t-66 29.5z" />
    <glyph glyph-name="emptyset" unicode="&#x2205;" horiz-adv-x="622" 
d="M441 670l48 -25l-48 -89q114 -79 114 -204q0 -103 -72.5 -174t-177.5 -71q-45 0 -80 17l-62 -124l-49 25l61 123q-108 80 -108 203q0 102 71.5 173t173.5 71q40 0 81 -14zM418 504l-166 -331q31 -9 58 -9q79 0 134 54.5t55 132.5q0 48 -22 89.5t-59 63.5zM201 199
l166 330q-27 9 -54 9q-78 0 -134 -55t-56 -132q0 -89 78 -152z" />
    <glyph glyph-name="product" unicode="&#x220f;" horiz-adv-x="670" 
d="M18 754h635v-125h-72v-755h72v-125h-275v125h63v755h-212v-755h63v-125h-274v125h73v755h-73v125z" />
    <glyph glyph-name="summation" unicode="&#x2211;" horiz-adv-x="670" 
d="M629 754v-261h-141l-17 118h-262l242 -344l-241 -375h271l9 123h148v-266h-604v165l233 352l-233 323v165h595z" />
    <glyph glyph-name="minus" unicode="&#x2212;" horiz-adv-x="553" 
d="M42 392h469v-114h-469v114z" />
    <glyph glyph-name="periodcentered" unicode="&#x2219;" horiz-adv-x="263" 
d="M210 335v-154h-156v154h156z" />
    <glyph glyph-name="radical" unicode="&#x221a;" horiz-adv-x="670" 
d="M670 831v-129h-165l-176 -702h-182l-57 251h-90v129h179l25 -102q10 -42 20 -144h9q22 165 60 313l98 384h279z" />
    <glyph glyph-name="infinity" unicode="&#x221e;" horiz-adv-x="670" 
d="M337 272q-70 -90 -160 -90q-71 0 -115.5 45t-44.5 116q0 69 45 114t115 45q87 0 155 -89q68 89 161 89q70 0 114.5 -45t44.5 -115t-44.5 -115t-113.5 -45q-91 0 -157 90zM388 342q41 -63 89 -63q27 0 45.5 18.5t18.5 44.5q0 27 -18.5 45t-45.5 18q-46 0 -89 -63zM281 341
q0 2 -3 6q-40 58 -86 58q-27 0 -45.5 -18.5t-18.5 -45.5q0 -26 18.5 -44.5t45.5 -18.5q46 0 89 63z" />
    <glyph glyph-name="intersection" unicode="&#x2229;" horiz-adv-x="635" 
d="M601 0h-157v303v85q-3 51 -20 82q-33 60 -107 60q-82 0 -114 -74q-13 -32 -13 -153v-303h-156v300q0 107 4 137q9 79 45 127q80 106 234 106q171 0 248 -125q26 -43 33 -119q3 -31 3 -126v-300z" />
    <glyph glyph-name="union" unicode="&#x222a;" horiz-adv-x="635" 
d="M34 670h157v-303v-85q3 -52 20 -82q34 -60 107 -60q82 0 112 69q15 35 15 158v303h156v-300q0 -107 -4 -137q-9 -79 -45 -127q-80 -106 -234 -106q-171 0 -248 125q-26 43 -33 119q-3 31 -3 126v300z" />
    <glyph glyph-name="integral" unicode="&#x222b;" 
d="M38 -241l25 147q27 -10 44 -10q42 0 55 35q5 13 5 111v390q0 112 2 139q1 23 9 53q16 61 68.5 95.5t127.5 34.5q39 0 90 -10l-25 -148q-24 10 -45 10q-41 0 -54 -34q-5 -13 -5 -60v-437q0 -139 -5 -168q-27 -157 -208 -157q-52 0 -84 9z" />
    <glyph glyph-name="contintegral" unicode="&#x222e;" 
d="M37 -241l26 147q33 -9 54 -9q41 0 53 35q5 11 5 63v58q-65 17 -107.5 76t-42.5 132t41.5 130.5t108.5 76.5v60q0 98 35 151q49 75 156 75q39 0 98 -10l-26 -148q-31 10 -56 10q-38 0 -51 -35q-5 -13 -5 -48v-54q69 -20 110 -76.5t41 -131.5q0 -74 -42.5 -132.5
t-108.5 -75.5v-67q0 -107 -33 -159q-49 -78 -169 -78q-44 0 -87 10zM326 398v-272q82 36 82 136q0 46 -23 84t-59 52zM175 126v272q-37 -16 -59 -53t-22 -83q0 -45 22.5 -82.5t58.5 -53.5z" />
    <glyph glyph-name="approxequal" unicode="&#x2248;" 
d="M88 350l-80 56q56 142 152 142q33 0 113 -33q58 -24 74 -24q34 0 68 49l80 -56q-31 -76 -67 -108t-91 -32q-34 0 -112 34q-48 21 -72 21q-32 0 -65 -49zM88 124l-80 56q56 141 152 141q33 0 113 -33q57 -24 74 -24q34 0 68 49l80 -55q-31 -77 -67 -109t-91 -32
q-32 0 -112 34q-49 21 -72 21q-32 0 -65 -48z" />
    <glyph glyph-name="approxequal" unicode="&#x22f2;" 
d="M88 350l-80 56q56 142 152 142q33 0 113 -33q58 -24 74 -24q34 0 68 49l80 -56q-31 -76 -67 -108t-91 -32q-34 0 -112 34q-48 21 -72 21q-32 0 -65 -49zM88 124l-80 56q56 141 152 141q33 0 113 -33q57 -24 74 -24q34 0 68 49l80 -55q-31 -77 -67 -109t-91 -32
q-32 0 -112 34q-49 21 -72 21q-32 0 -65 -48z" />
    <glyph glyph-name="notequal" unicode="&#x2260;" 
d="M257 487l70 132l101 -56l-42 -76h83v-137h-138l-40 -74h177v-137h-228l-60 -112l-102 56l32 56h-77v137h128l40 74h-167v137h223z" />
    <glyph glyph-name="equivalence" unicode="&#x2261;" 
d="M34 617h436v-144h-436v144zM34 407h436v-144h-436v144zM34 197h436v-144h-436v144z" />
    <glyph glyph-name="lessequal" unicode="&#x2264;" 
d="M470 657v-154l-257 -78l256 -77l1 -154l-436 163v138zM470 168v-144h-436v144h436z" />
    <glyph glyph-name="greaterequal" unicode="&#x2265;" 
d="M34 194l1 154l256 77l-257 78v154l436 -162v-138zM34 24v144h436v-144h-436z" />
    <glyph glyph-name="house" unicode="&#x2302;" horiz-adv-x="755" 
d="M84 0v403l293 330l293 -330v-403h-586zM135 51h484v330l-242 271l-242 -271v-330z" />
    <glyph glyph-name="turnednot" unicode="&#x2319;" 
d="M194 295v-151h276v-144h-436v295h160z" />
    <glyph glyph-name="integraltp" unicode="&#x2320;" 
d="M335 -251h-168v683q0 113 1.5 138t9.5 55q16 60 68.5 95t128.5 35q39 0 89 -11l-25 -147q-27 10 -45 10q-40 0 -54 -35q-5 -13 -5 -60v-763z" />
    <glyph glyph-name="integralbt" unicode="&#x2321;" 
d="M167 754h168v-683q0 -113 -2 -140q-1 -23 -9 -53q-16 -61 -68.5 -95.5t-127.5 -34.5q-40 0 -90 11l25 147q27 -10 45 -10q41 0 54 35q5 13 5 60v763z" />
    <glyph glyph-name="SF100000" unicode="&#x2500;" horiz-adv-x="1005" 
d="M0 218v66h1005v-66h-1005z" />
    <glyph glyph-name="SF110000" unicode="&#x2502;" horiz-adv-x="1005" 
d="M470 -251v1005h66v-1005h-66z" />
    <glyph glyph-name="SF010000" unicode="&#x250c;" horiz-adv-x="1005" 
d="M1006 284v-66h-470v-469h-66v535h536z" />
    <glyph glyph-name="SF030000" unicode="&#x2510;" horiz-adv-x="1005" 
d="M470 218h-470v66h536v-535h-66v469z" />
    <glyph glyph-name="SF020000" unicode="&#x2514;" horiz-adv-x="1005" 
d="M536 284h470v-66h-536v536h66v-470z" />
    <glyph glyph-name="SF040000" unicode="&#x2518;" horiz-adv-x="1005" 
d="M0 218v66h470v470h66v-536h-536z" />
    <glyph glyph-name="SF080000" unicode="&#x251c;" horiz-adv-x="1005" 
d="M536 284h470v-66h-470v-469h-66v1005h66v-470z" />
    <glyph glyph-name="SF090000" unicode="&#x2524;" horiz-adv-x="1005" 
d="M470 218h-470v66h470v470h66v-1005h-66v469z" />
    <glyph glyph-name="SF060000" unicode="&#x252c;" horiz-adv-x="1005" 
d="M536 218v-469h-66v469h-470v66h1005v-66h-469z" />
    <glyph glyph-name="SF070000" unicode="&#x2534;" horiz-adv-x="1005" 
d="M470 284v470h66v-470h469v-66h-1005v66h470z" />
    <glyph glyph-name="SF050000" unicode="&#x253c;" horiz-adv-x="1005" 
d="M470 218h-470v66h470v470h66v-470h469v-66h-469v-469h-66v469z" />
    <glyph glyph-name="SF430000" unicode="&#x2550;" horiz-adv-x="1005" 
d="M0 152v66h1005v-66h-1005zM0 285v66h1005v-66h-1005z" />
    <glyph glyph-name="SF240000" unicode="&#x2551;" horiz-adv-x="1005" 
d="M403 -251v1005h66v-1005h-66zM536 -251v1005h66v-1005h-66z" />
    <glyph glyph-name="SF510000" unicode="&#x2552;" horiz-adv-x="1005" 
d="M470 -251v602h536v-66h-470v-67h470v-66h-470v-403h-66z" />
    <glyph glyph-name="SF520000" unicode="&#x2553;" horiz-adv-x="1005" 
d="M536 218h-67v-469h-66v535h602v-66h-403v-469h-66v469z" />
    <glyph glyph-name="SF390000" unicode="&#x2554;" horiz-adv-x="1005" 
d="M469 285v-536h-66v602h602v-66h-536zM602 152v-403h-66v469h469v-66h-403z" />
    <glyph glyph-name="SF220000" unicode="&#x2555;" horiz-adv-x="1005" 
d="M470 152h-470v66h470v67h-470v66h536v-602h-66v403z" />
    <glyph glyph-name="SF210000" unicode="&#x2556;" horiz-adv-x="1005" 
d="M470 218v-469h-66v469h-404v66h602v-535h-66v469h-66z" />
    <glyph glyph-name="SF250000" unicode="&#x2557;" horiz-adv-x="1005" 
d="M536 285h-536v66h602v-602h-66v536zM404 152h-404v66h470v-469h-66v403z" />
    <glyph glyph-name="SF500000" unicode="&#x2558;" horiz-adv-x="1005" 
d="M470 754h66v-403h470v-66h-470v-67h470v-66h-536v602z" />
    <glyph glyph-name="SF490000" unicode="&#x2559;" horiz-adv-x="1005" 
d="M536 284v470h66v-470h403v-66h-602v536h66v-470h67z" />
    <glyph glyph-name="SF380000" unicode="&#x255a;" horiz-adv-x="1005" 
d="M469 218h536v-66h-602v602h66v-536zM602 351h403v-66h-469v469h66v-403z" />
    <glyph glyph-name="SF280000" unicode="&#x255b;" horiz-adv-x="1005" 
d="M470 351v403h66v-602h-536v66h470v67h-470v66h470z" />
    <glyph glyph-name="SF270000" unicode="&#x255c;" horiz-adv-x="1005" 
d="M470 284h66v470h66v-536h-602v66h404v470h66v-470z" />
    <glyph glyph-name="SF260000" unicode="&#x255d;" horiz-adv-x="1005" 
d="M536 218v536h66v-602h-602v66h536zM404 351v403h66v-469h-470v66h404z" />
    <glyph glyph-name="SF360000" unicode="&#x255e;" horiz-adv-x="1005" 
d="M470 754h66v-403h470v-66h-470v-67h470v-66h-470v-403h-66v1005z" />
    <glyph glyph-name="SF370000" unicode="&#x255f;" horiz-adv-x="1005" 
d="M602 218v-469h-66v1005h66v-470h403v-66h-403zM469 -251h-66v1005h66v-1005z" />
    <glyph glyph-name="SF420000" unicode="&#x2560;" horiz-adv-x="1005" 
d="M403 -251v1005h66v-1005h-66zM602 351h403v-66h-469v469h66v-403zM602 152v-403h-66v469h469v-66h-403z" />
    <glyph glyph-name="SF190000" unicode="&#x2561;" horiz-adv-x="1005" 
d="M470 351v403h66v-1005h-66v403h-470v66h470v67h-470v66h470z" />
    <glyph glyph-name="SF200000" unicode="&#x2562;" horiz-adv-x="1005" 
d="M404 218h-404v66h404v470h66v-1005h-66v469zM536 -251v1005h66v-1005h-66z" />
    <glyph glyph-name="SF230000" unicode="&#x2563;" horiz-adv-x="1005" 
d="M602 -251h-66v1005h66v-1005zM404 351v403h66v-469h-470v66h404zM404 152h-404v66h470v-469h-66v403z" />
    <glyph glyph-name="SF470000" unicode="&#x2564;" horiz-adv-x="1005" 
d="M0 351h1005v-66h-1005v66zM470 152h-470v66h1005v-66h-469v-403h-66v403z" />
    <glyph glyph-name="SF480000" unicode="&#x2565;" horiz-adv-x="1005" 
d="M403 218h-403v66h1005v-66h-403v-469h-66v469h-67v-469h-66v469z" />
    <glyph glyph-name="SF410000" unicode="&#x2566;" horiz-adv-x="1005" 
d="M0 351h1005v-66h-1005v66zM602 152v-403h-66v469h469v-66h-403zM403 152h-403v66h469v-469h-66v403z" />
    <glyph glyph-name="SF450000" unicode="&#x2567;" horiz-adv-x="1005" 
d="M0 152v66h1005v-66h-1005zM470 351v403h66v-403h469v-66h-1005v66h470z" />
    <glyph glyph-name="SF460000" unicode="&#x2568;" horiz-adv-x="1005" 
d="M0 218v66h403v470h66v-470h67v470h66v-470h403v-66h-1005z" />
    <glyph glyph-name="SF400000" unicode="&#x2569;" horiz-adv-x="1005" 
d="M0 152v66h1005v-66h-1005zM602 351h403v-66h-469v469h66v-403zM403 351v403h66v-469h-469v66h403z" />
    <glyph glyph-name="SF540000" unicode="&#x256a;" horiz-adv-x="1005" 
d="M470 218v67h-470v66h470v403h66v-403h469v-66h-469v-67h469v-66h-469v-403h-66v403h-470v66h470z" />
    <glyph glyph-name="SF530000" unicode="&#x256b;" horiz-adv-x="1005" 
d="M403 218h-403v66h403v470h66v-470h67v470h66v-470h403v-66h-403v-469h-66v469h-67v-469h-66v469z" />
    <glyph glyph-name="SF440000" unicode="&#x256c;" horiz-adv-x="1005" 
d="M602 351h403v-66h-469v469h66v-403zM403 351v403h66v-469h-469v66h403zM602 152v-403h-66v469h469v-66h-403zM403 152h-403v66h469v-469h-66v403z" />
    <glyph glyph-name="upblock" unicode="&#x2580;" horiz-adv-x="1005" 
d="M0 251v503h1005v-503h-1005z" />
    <glyph glyph-name="dnblock" unicode="&#x2584;" horiz-adv-x="1005" 
d="M0 -251v502h1005v-502h-1005z" />
    <glyph glyph-name="block" unicode="&#x2588;" horiz-adv-x="1005" 
d="M0 -251v1005h1005v-1005h-1005z" />
    <glyph glyph-name="lfblock" unicode="&#x258c;" horiz-adv-x="1005" 
d="M0 -251v1005h503v-1005h-503z" />
    <glyph glyph-name="rtblock" unicode="&#x2590;" horiz-adv-x="1005" 
d="M503 -251v1005h503v-1005h-503z" />
    <glyph glyph-name="ltshade" unicode="&#x2591;" horiz-adv-x="1005" 
d="M0 754h101v-101h-101v101zM201 754h101v-101h-101v101zM804 754h101v-101h-101v101zM402 754h101v-101h-101v101zM603 754h101v-101h-101v101zM0 553h101v-101h-101v101zM0 352h101v-101h-101v101zM0 151h101v-101h-101v101zM0 -50h101v-101h-101v101zM201 553h101v-101
h-101v101zM201 352h101v-101h-101v101zM201 151h101v-101h-101v101zM201 -50h101v-101h-101v101zM402 553h101v-101h-101v101zM402 352h101v-101h-101v101zM402 151h101v-101h-101v101zM402 -50h101v-101h-101v101zM603 553h101v-101h-101v101zM603 352h101v-101h-101v101z
M603 151h101v-101h-101v101zM603 -50h101v-101h-101v101zM804 553h101v-101h-101v101zM804 352h101v-101h-101v101zM804 151h101v-101h-101v101zM804 -50h101v-101h-101v101z" />
    <glyph glyph-name="shade" unicode="&#x2592;" horiz-adv-x="1005" 
d="M905 -151h100v-100h-100v100h-101v-100h-100v100h-101v-100h-100v100h-101v-100h-100v100h-101v-100h-100v100h-101v101h101v-101h100v101h101v-101h100v101h101v-101h100v101h101v-101h100v101h101v100h-101v-100h-100v100h-101v-100h-100v100h-101v-100h-100v100h-101
v-100h-100v100h-101v101h101v-101h100v101h101v-101h100v101h101v-101h100v101h101v-101h100v101h101v101h-101v-101h-100v101h-101v-101h-100v101h-101v-101h-100v101h-101v-101h-100v101h-101v101h101v-101h100v101h101v-101h100v101h101v-101h100v101h101v-101h100v101
h101v100h-101v-100h-100v100h-101v-100h-100v100h-101v-100h-100v100h-101v-100h-100v100h-101v101h101v-101h100v101h101v-101h100v101h101v-101h100v101h101v-101h100v101h101v100h-101v-100h-100v100h-101v-100h-100v100h-101v-100h-100v100h-101v-100h-100v100h-101v101
h101v-101h100v101h101v-101h100v101h101v-101h100v101h101v-101h100v101h101v-101h100v-100h-100v-101h100v-100h-100v-101h100v-101h-100v-101h100v-100h-100v-101z" />
    <glyph glyph-name="dkshade" unicode="&#x2593;" horiz-adv-x="1005" 
d="M1005 -251h-1005v101h101v100h-101v101h101v100h-101v101h101v99h-101v101h101v100h-101v101h101v101h101v-101h100v101h101v-101h99v101h101v-101h100v101h101v-101h100v101h101v-1005zM904 552h-100v-100h100v100zM703 552h-100v-100h100v100zM502 552h-99v-100h99v100
zM302 552h-100v-100h100v100zM904 351h-100v-99h100v99zM703 351h-100v-99h100v99zM502 351h-99v-99h99v99zM302 351h-100v-99h100v99zM904 151h-100v-100h100v100zM703 151h-100v-100h100v100zM502 151h-99v-100h99v100zM302 151h-100v-100h100v100zM904 -50h-100v-100h100
v100zM703 -50h-100v-100h100v100zM502 -50h-99v-100h99v100zM302 -50h-100v-100h100v100z" />
    <glyph glyph-name="filledbox" unicode="&#x25a0;" horiz-adv-x="670" 
d="M670 0h-670v670h670v-670z" />
    <glyph glyph-name="outlinedbox" unicode="&#x25a1;" horiz-adv-x="670" 
d="M670 0h-670v670h670v-670zM623 47v576h-576v-576h576z" />
    <glyph glyph-name="triagup" unicode="&#x25b2;" 
d="M469 147h-436l218 408z" />
    <glyph glyph-name="triagrt" unicode="&#x25b6;" 
d="M72 119v436l408 -218z" />
    <glyph glyph-name="triagdn" unicode="&#x25bc;" 
d="M34 523h436l-218 -407z" />
    <glyph glyph-name="triaglt" unicode="&#x25c0;" 
d="M431 555v-436l-408 218z" />
    <glyph glyph-name="diamondrhombsolid" unicode="&#x25c6;" horiz-adv-x="670" 
d="M334 697q23 -48 113 -174.5t143 -186.5q-162 -192 -256 -362q-72 138 -254 362q182 228 254 361z" />
    <glyph glyph-name="diamondrhomb" unicode="&#x25c7;" horiz-adv-x="670" 
d="M335 697l261 -362l-261 -361l-261 361zM335 608l-198 -273l198 -272l198 272z" />
    <glyph glyph-name="lozenge" unicode="&#x25ca;" horiz-adv-x="670" 
d="M335 697l261 -362l-261 -361l-261 361zM335 608l-198 -273l198 -272l198 272z" />
    <glyph glyph-name="circle" unicode="&#x25cb;" horiz-adv-x="670" 
d="M335 593q108 0 184.5 -75.5t76.5 -181.5t-77 -182t-184 -76q-110 0 -186 76t-76 186q0 104 77.5 178.5t184.5 74.5zM335 547q-88 0 -151.5 -61.5t-63.5 -146.5q0 -90 62.5 -152.5t152.5 -62.5q88 0 151 62.5t63 149.5t-63 149t-151 62z" />
    <glyph glyph-name="invbullet" unicode="&#x25d8;" horiz-adv-x="670" 
d="M0 0v670h670v-670h-670zM337 475q-58 0 -99 -40.5t-41 -99.5q0 -58 41 -99t97 -41q57 0 97.5 41t40.5 99q0 57 -40.5 98.5t-95.5 41.5z" />
    <glyph glyph-name="invcircle" unicode="&#x25d9;" horiz-adv-x="670" 
d="M335 546q89 0 152 -61.5t63 -148.5q0 -88 -63 -150t-152 -62q-90 0 -152.5 62.5t-62.5 151.5q0 85 63.5 146.5t151.5 61.5zM670 0h-670v670h670v-670zM335 592q-107 0 -184.5 -74.5t-77.5 -178.5q0 -109 76 -185t186 -76q108 0 185 76t77 182t-77 181t-185 75z" />
    <glyph glyph-name="smileface" unicode="&#x263a;" horiz-adv-x="670" 
d="M241 468q17 0 30 -13t13 -31t-13 -31t-31 -13t-31 13t-13 31t13 31t32 13zM436 468q18 0 31 -13t13 -31q0 -19 -13 -32t-31 -13q-19 0 -32 13t-13 32q0 18 13 31t32 13zM543 374q-8 -108 -51 -163q-55 -70 -156 -70q-110 0 -166 83q-34 51 -41 150q12 -55 42 -89
q61 -71 165 -71t165 71q30 34 42 89zM341 653q128 0 220.5 -94t92.5 -224q0 -132 -93.5 -225t-225.5 -93t-225 94t-93 227q0 131 94.5 223t229.5 92zM340 611q-126 0 -209 -92q-71 -79 -71 -182q0 -116 80.5 -197t195.5 -81q114 0 195 81t81 195q0 113 -80.5 194.5
t-191.5 81.5z" />
    <glyph glyph-name="invsmileface" unicode="&#x263b;" horiz-adv-x="670" 
d="M341 653q128 0 220.5 -94t92.5 -224q0 -132 -93.5 -225t-225.5 -93t-225 94t-93 227q0 131 94.5 223t229.5 92zM241 468q-19 0 -32 -13t-13 -31q0 -19 13 -32t31 -13q19 0 32 13t13 32q0 18 -13 31t-31 13zM437 468q-19 0 -32.5 -13t-13.5 -31q0 -19 13 -32t32 -13t32 13
t13 32q0 18 -13 31t-31 13zM543 374q-12 -55 -42 -89q-61 -71 -165 -71t-165 71q-30 34 -42 89q8 -108 51 -162q56 -70 156 -70q110 0 166 83q34 51 41 149z" />
    <glyph glyph-name="sun" unicode="&#x263c;" horiz-adv-x="670" 
d="M160 475l-75 75l35 35l75 -75q51 42 114 48v106h51v-106q67 -8 114 -47l75 74l36 -35l-75 -75q39 -48 47 -114h106v-52h-106q-7 -64 -47 -113l75 -75l-36 -36l-75 75q-52 -40 -114 -47v-106h-51v106q-58 6 -114 47l-75 -75l-35 36l74 74q-40 49 -46 114h-106v52h105
q9 65 48 114zM337 496q-68 0 -115.5 -46.5t-47.5 -113.5t46.5 -114t113.5 -47t114 47t47 113t-46.5 113.5t-111.5 47.5z" />
    <glyph glyph-name="female" unicode="&#x2640;" horiz-adv-x="670" 
d="M310 210v105q-68 11 -112 62t-44 121q0 76 53 130t127 54q76 0 129 -54t53 -130q0 -70 -44 -121.5t-114 -61.5v-105h164v-43h-164v-167h-48v167h-162v43h162zM337 635q-57 0 -96.5 -39.5t-39.5 -97.5q0 -56 39.5 -96t94.5 -40t94.5 40t39.5 96t-39 96.5t-93 40.5z" />
    <glyph glyph-name="male" unicode="&#x2642;" horiz-adv-x="670" 
d="M573 502l-153 -153q36 -48 36 -110q0 -76 -53 -129.5t-128 -53.5q-74 0 -127.5 54t-53.5 130t53 130t128 54q63 0 113 -40l151 151q-57 15 -106 41q-22 12 -22 23q0 12 13 12q6 0 21 -3q40 -8 83 -8q56 0 94 10q19 5 22 5q11 0 11 -11q0 -4 -5 -22q-11 -40 -11 -88
q0 -40 9 -84q3 -15 3 -21q0 -13 -12 -13q-10 0 -24 21q-30 46 -42 105zM277 377q-57 0 -96.5 -39.5t-39.5 -97.5q0 -56 39.5 -96t94.5 -40t94.5 40t39.5 96t-39 96.5t-93 40.5z" />
    <glyph glyph-name="spade" unicode="&#x2660;" horiz-adv-x="670" 
d="M108 0v19q71 13 103.5 28t62.5 49q53 61 56 160q-6 -15 -13 -27q-20 -34 -56 -54.5t-76 -20.5q-50 0 -85.5 37t-35.5 89q0 83 104 169q143 118 166 240q26 -80 51.5 -118t99.5 -105t98 -104.5t24 -84.5q0 -51 -36 -87t-87 -36q-86 0 -140 102q6 -108 59 -163.5t168 -73.5
v-19h-463z" />
    <glyph glyph-name="club" unicode="&#x2663;" horiz-adv-x="670" 
d="M564 0h-458v19q222 29 222 257q-19 -34 -34 -53q-59 -76 -146 -76q-60 0 -102.5 45t-42.5 108q0 62 38.5 105t93.5 43q29 0 71 -21q4 -1 16 -8q-36 53 -36 100q0 59 44 101.5t105 42.5q62 0 105.5 -42t43.5 -102q0 -49 -36 -100q58 29 87 29q55 0 93.5 -43.5t38.5 -104.5
q0 -64 -43 -108.5t-104 -44.5q-36 0 -75 19.5t-65 50.5q-11 13 -38 59q1 -121 59 -183q31 -33 62 -47t101 -27v-19z" />
    <glyph glyph-name="heart" unicode="&#x2665;" horiz-adv-x="670" 
d="M334 -11q-17 66 -53 128.5t-134 193.5q-54 73 -72.5 112.5t-18.5 83.5q0 57 37.5 96t92.5 39q75 0 120 -68q16 -24 28 -62q37 131 147 131q55 0 94 -38.5t39 -92.5q0 -51 -24 -102t-86 -129q-145 -182 -170 -292z" />
    <glyph glyph-name="diamond" unicode="&#x2666;" horiz-adv-x="670" 
d="M334 697q23 -48 113 -174.5t143 -186.5q-162 -192 -256 -362q-72 138 -254 362q182 228 254 361z" />
    <glyph glyph-name="musicalnote" unicode="&#x266a;" horiz-adv-x="670" 
d="M308 156v514h46v-61q7 -8 15 -19q18 -21 53 -63q91 -109 91 -226q0 -94 -58 -163h-28q34 79 34 150q0 65 -32 116.5t-75 57.5v-306q0 -61 -29 -101q-46 -64 -124 -64q-69 0 -69 61q0 46 37 81t85 35q27 0 54 -12z" />
    <glyph glyph-name="musicalnotedbl" unicode="&#x266b;" horiz-adv-x="670" 
d="M196 590l423 108v-505q0 -72 -42.5 -118.5t-109.5 -46.5q-69 0 -69 61q0 46 36.5 81t83.5 35q29 0 55 -12v272l-331 -91v-237q0 -61 -29 -101q-46 -64 -124 -64q-69 0 -69 60q0 46 37 80.5t85 34.5q27 0 54 -10v453zM242 451l331 90v70l-331 -91v-69z" />
    <glyph glyph-name="gtilde" unicode="&#xe005;" horiz-adv-x="623" 
d="M573 503v-442q0 -65 -3 -88q-6 -48 -29 -82q-36 -53 -104 -84t-150 -31q-102 0 -170.5 48.5t-79.5 128.5h173q21 -50 89 -50q63 0 98 46q24 31 24 90v16q-16 -31 -59 -51.5t-92 -20.5q-101 0 -172 77.5t-71 187.5q0 117 73 194.5t183 77.5q94 0 148 -64v47h142zM300 379
q-51 0 -86.5 -36.5t-35.5 -88.5q0 -56 34.5 -93t86.5 -37q54 0 88.5 35t34.5 90q0 57 -34.5 93.5t-87.5 36.5zM436 701l40 -78q-47 -46 -107 -46q-18 0 -60 16q-34 13 -62 13q-33 0 -61 -31l-46 78q48 46 98 46q25 0 101 -23q20 -6 33 -6q18 0 64 31z" />
    <glyph glyph-name="ncircumflex" unicode="&#xe009;" horiz-adv-x="563" 
d="M50 0v503h142v-53q51 70 138 70q83 0 136 -51q28 -27 39 -61t11 -94v-314h-151v274q0 51 -15 74q-20 31 -64 31q-59 0 -79 -49q-6 -15 -6 -49v-281h-151zM289 634l-42 -58h-143l134 151h105l129 -151h-142z" />
    <glyph glyph-name="nmacron" unicode="&#xe00c;" horiz-adv-x="563" 
d="M50 0v503h142v-53q51 70 138 70q83 0 136 -51q28 -27 39 -61t11 -94v-314h-151v274q0 51 -15 74q-20 31 -64 31q-59 0 -79 -49q-6 -15 -6 -49v-281h-151zM450 684v-88h-321v88h321z" />
    <glyph glyph-name="Nmacron" unicode="&#xe00d;" horiz-adv-x="680" 
d="M57 0v670h147l262 -421l-7 421h164v-670h-149l-259 408l6 -408h-164zM515 865v-101h-345v101h345z" />
    <glyph glyph-name="Ahungarumlaut" unicode="&#xeb00;" horiz-adv-x="664" 
d="M449 97h-232l-36 -97h-184l269 670h135l266 -670h-185zM263 233h141l-70 229zM347 937l62 -89l-183 -134l-54 79zM548 937l62 -89l-183 -134l-54 79z" />
    <glyph glyph-name="ahungarumlaut" unicode="&#xeb01;" horiz-adv-x="631" 
d="M580 503v-503h-142v54q-35 -71 -156 -71q-113 0 -184 75t-71 194q0 118 72.5 193.5t186.5 75.5q111 0 152 -71v53h142zM303 379q-53 0 -89 -36.5t-36 -89.5q0 -55 36 -92t90 -37q55 0 90.5 36t35.5 92q0 55 -36 91t-91 36zM324 766l74 -75l-145 -145l-63 59zM493 766
l74 -75l-146 -145l-62 59z" />
    <glyph glyph-name="amacrondot" unicode="&#xeb03;" horiz-adv-x="631" 
d="M580 503v-503h-142v54q-35 -71 -156 -71q-113 0 -184 75t-71 194q0 118 72.5 193.5t186.5 75.5q111 0 152 -71v53h142zM303 379q-53 0 -89 -36.5t-36 -89.5q0 -55 36 -92t90 -37q55 0 90.5 36t35.5 92q0 55 -36 91t-91 36zM499 684v-88h-322v88h322zM261 744v137h144
v-137h-144z" />
    <glyph glyph-name="Dbreve" unicode="&#xeb06;" horiz-adv-x="666" 
d="M57 0v670h226q97 0 156 -20t107 -70q91 -94 91 -242q0 -171 -108 -265q-84 -73 -208 -73h-264zM228 151h74q65 0 102 28q62 47 62 153q0 102 -54 151q-39 36 -109 36h-75v-368zM119 885h115q9 -50 71 -50q67 0 74 50h116q-6 -71 -49 -108q-55 -47 -139 -47q-96 0 -149 57
q-35 37 -39 98z" />
    <glyph glyph-name="Dmacron" unicode="&#xeb07;" horiz-adv-x="666" 
d="M57 0v670h226q97 0 156 -20t107 -70q91 -94 91 -242q0 -171 -108 -265q-84 -73 -208 -73h-264zM228 151h74q65 0 102 28q62 47 62 153q0 102 -54 151q-39 36 -109 36h-75v-368zM477 865v-101h-346v101h346z" />
    <glyph glyph-name="dcroat" unicode="&#xeb08;" horiz-adv-x="626" 
d="M575 670v-670h-142v54q-60 -71 -155 -71q-110 0 -181 76t-71 193q0 116 71 192t179 76q89 0 148 -60v210h151zM306 379q-56 0 -92.5 -35.5t-36.5 -90.5q0 -56 36 -92.5t91 -36.5t92 37t37 93q0 53 -36.5 89t-90.5 36zM667 865v-101h-345v101h345z" />
    <glyph glyph-name="gcommamirror" unicode="&#xeb0c;" horiz-adv-x="623" 
d="M573 503v-442q0 -65 -3 -88q-6 -48 -29 -82q-36 -53 -104 -84t-150 -31q-102 0 -170.5 48.5t-79.5 128.5h173q21 -50 89 -50q63 0 98 46q24 31 24 90v16q-16 -31 -59 -51.5t-92 -20.5q-101 0 -172 77.5t-71 187.5q0 117 73 194.5t183 77.5q94 0 148 -64v47h142zM300 379
q-51 0 -86.5 -36.5t-35.5 -88.5q0 -56 34.5 -93t86.5 -37q54 0 88.5 35t34.5 90q0 57 -34.5 93.5t-87.5 36.5zM251 573v102q0 52 19 75q24 29 60 29h55v-60h-27q-33 0 -33 -29v-17h60v-100h-134z" />
    <glyph glyph-name="ggrave" unicode="&#xeb0d;" horiz-adv-x="623" 
d="M573 503v-442q0 -65 -3 -88q-6 -48 -29 -82q-36 -53 -104 -84t-150 -31q-102 0 -170.5 48.5t-79.5 128.5h173q21 -50 89 -50q63 0 98 46q24 31 24 90v16q-16 -31 -59 -51.5t-92 -20.5q-101 0 -172 77.5t-71 187.5q0 117 73 194.5t183 77.5q94 0 148 -64v47h142zM300 379
q-51 0 -86.5 -36.5t-35.5 -88.5q0 -56 34.5 -93t86.5 -37q54 0 88.5 35t34.5 90q0 57 -34.5 93.5t-87.5 36.5zM161 770l196 -150l-52 -74l-204 132z" />
    <glyph glyph-name="idotaccent" unicode="&#xeb0e;" horiz-adv-x="251" 
d="M201 503v-503h-151v503h151zM56 577v137h144v-137h-144z" />
    <glyph glyph-name="Kdieresis" unicode="&#xeb10;" horiz-adv-x="606" 
d="M57 0v670h171v-302l191 302h180l-222 -334l236 -336h-200l-185 290v-290h-171zM131 737v151h158v-151h-158zM349 737v151h158v-151h-158z" />
    <glyph glyph-name="Lmacron" unicode="&#xeb11;" horiz-adv-x="440" 
d="M57 0v670h171v-519h199v-151h-370zM326 865v-101h-345v101h345z" />
    <glyph glyph-name="lmacron" unicode="&#xeb12;" horiz-adv-x="251" 
d="M51 0v670h151v-670h-151zM301 865v-101h-345v101h345z" />
    <glyph glyph-name="ocommaaccent" unicode="&#xeb15;" horiz-adv-x="598" 
d="M298 520q134 0 211 -95q61 -75 61 -173q0 -113 -79 -194q-74 -75 -194 -75q-118 0 -194 76t-76 194q0 112 79 192q74 75 192 75zM299 379q-50 0 -85.5 -37t-35.5 -89q0 -55 34.5 -92t86.5 -37q51 0 85.5 36.5t34.5 91.5q0 52 -35 89.5t-85 37.5zM367 -52v-102
q0 -49 -19 -74q-22 -29 -59 -29h-55v60h27q33 0 33 29v16h-60v100h133z" />
    <glyph glyph-name="omacrondot" unicode="&#xeb17;" horiz-adv-x="598" 
d="M298 520q134 0 211 -95q61 -75 61 -173q0 -113 -79 -194q-74 -75 -194 -75q-118 0 -194 76t-76 194q0 112 79 192q74 75 192 75zM299 379q-50 0 -85.5 -37t-35.5 -89q0 -55 34.5 -92t86.5 -37q51 0 85.5 36.5t34.5 91.5q0 52 -35 89.5t-85 37.5zM463 684v-88h-322v88h322
zM232 744v137h144v-137h-144z" />
    <glyph glyph-name="oring" unicode="&#xeb18;" horiz-adv-x="598" 
d="M298 520q134 0 211 -95q61 -75 61 -173q0 -113 -79 -194q-74 -75 -194 -75q-118 0 -194 76t-76 194q0 112 79 192q74 75 192 75zM299 379q-50 0 -85.5 -37t-35.5 -89q0 -55 34.5 -92t86.5 -37q51 0 85.5 36.5t34.5 91.5q0 52 -35 89.5t-85 37.5zM303 778q46 0 79 -33
t33 -79t-33 -79.5t-80 -33.5t-80.5 33t-33.5 80t33.5 79.5t81.5 32.5zM302 711q-18 0 -31 -13t-13 -32t12.5 -32t31.5 -13q17 0 30 13.5t13 31.5t-13 31.5t-30 13.5z" />
    <glyph glyph-name="Rgrave" unicode="&#xeb1a;" horiz-adv-x="590" 
d="M57 0v670h212q84 0 128 -10t78 -38q83 -68 83 -183q0 -107 -73 -169q-37 -31 -94 -42l182 -228h-196l-156 217v-217h-164zM221 334h61q112 0 112 95q0 51 -42 76q-23 14 -69 14h-62v-185zM115 937l242 -131l-45 -92l-248 109z" />
    <glyph glyph-name="rgrave" unicode="&#xeb1b;" horiz-adv-x="325" 
d="M50 0v503h142v-53q22 39 53 54.5t69 15.5h4v-151q-65 -1 -92 -22t-27 -69v-278h-149zM-6 770l196 -150l-51 -74l-205 132z" />
    <glyph glyph-name="Rmacron" unicode="&#xeb1c;" horiz-adv-x="590" 
d="M57 0v670h212q84 0 128 -10t78 -38q83 -68 83 -183q0 -107 -73 -169q-37 -31 -94 -42l182 -228h-196l-156 217v-217h-164zM221 334h61q112 0 112 95q0 51 -42 76q-23 14 -69 14h-62v-185zM461 865v-101h-345v101h345z" />
    <glyph glyph-name="rmacron" unicode="&#xeb1d;" horiz-adv-x="325" 
d="M50 0v503h142v-53q22 39 53 54.5t69 15.5h4v-151q-65 -1 -92 -22t-27 -69v-278h-149zM305 684v-88h-322v88h322z" />
    <glyph glyph-name="Sbreve" unicode="&#xeb1e;" horiz-adv-x="519" 
d="M486 475h-170q-9 65 -61 65q-25 0 -42 -15.5t-17 -37.5q0 -24 16.5 -39t122.5 -63q84 -38 120.5 -83t36.5 -110q0 -96 -62.5 -151t-171.5 -55q-95 0 -159 43q-71 48 -83 138q-2 18 -2 54h172q0 -42 18.5 -66.5t50.5 -24.5q28 0 47 18.5t19 45.5t-19.5 43.5t-129.5 61.5
q-147 60 -147 186q0 83 68 141t167 58q117 0 181 -77q40 -48 45 -132zM75 885h116q7 -50 70 -50q67 0 74 50h116q-6 -71 -49 -108q-55 -47 -139 -47q-96 0 -149 57q-35 37 -39 98z" />
    <glyph glyph-name="Smacron" unicode="&#xeb20;" horiz-adv-x="519" 
d="M486 475h-170q-9 65 -61 65q-25 0 -42 -15.5t-17 -37.5q0 -24 16.5 -39t122.5 -63q84 -38 120.5 -83t36.5 -110q0 -96 -62.5 -151t-171.5 -55q-95 0 -159 43q-71 48 -83 138q-2 18 -2 54h172q0 -42 18.5 -66.5t50.5 -24.5q28 0 47 18.5t19 45.5t-19.5 43.5t-129.5 61.5
q-147 60 -147 186q0 83 68 141t167 58q117 0 181 -77q40 -48 45 -132zM431 865v-101h-345v101h345z" />
    <glyph glyph-name="smacron" unicode="&#xeb21;" horiz-adv-x="448" 
d="M409 362h-147q-4 37 -43 37q-48 0 -48 -32q0 -34 78 -55q96 -26 128 -53q48 -40 48 -106q0 -73 -60 -122t-149 -49q-90 0 -149 55q-45 42 -52 112h150q6 -46 57 -46q22 0 37 11.5t15 27.5q0 17 -13.5 28t-30 16.5t-103.5 28.5q-47 12 -77 51t-30 88q0 70 59 118t144 48
q100 0 153 -67q28 -35 33 -91zM383 684v-88h-321v88h321z" />
    <glyph glyph-name="Tcaron_1" unicode="&#xeb22;" horiz-adv-x="634" 
d="M140 0v519h-133v151h436v-151h-132v-519h-171zM627 670v-102q0 -50 -20 -75q-23 -29 -59 -29h-54v60h26q33 0 33 29v17h-59v100h133z" />
    <glyph glyph-name="tcaron_1" unicode="&#xeb23;" horiz-adv-x="295" 
d="M214 670v-167h73v-114h-73v-389h-151v389h-73v114h73v167h151zM147 830l41 58h143l-133 -150h-105l-130 150h142z" />
    <glyph glyph-name="Tmacron" unicode="&#xeb24;" horiz-adv-x="450" 
d="M140 0v519h-133v151h436v-151h-132v-519h-171zM398 865v-101h-345v101h345z" />
    <glyph glyph-name="tmacron" unicode="&#xeb25;" horiz-adv-x="295" 
d="M214 670v-167h72v-114h-72v-389h-151v389h-74v114h74v167h151zM313 865v-101h-345v101h345z" />
    <glyph glyph-name="ucommaaccent" unicode="&#xeb26;" horiz-adv-x="565" 
d="M515 503v-503h-142v54q-38 -71 -134 -71q-91 0 -146 63q-26 31 -36 64t-10 92v301h151v-281q0 -55 21.5 -76.5t59.5 -21.5q85 0 85 98v281h151zM347 -52v-102q0 -49 -20 -74q-23 -29 -59 -29h-55v60h27q33 0 33 29v16h-60v100h134z" />
    <glyph glyph-name="udotaccent" unicode="&#xeb27;" horiz-adv-x="565" 
d="M515 503v-503h-142v54q-38 -71 -134 -71q-91 0 -146 63q-26 31 -36 64t-10 92v301h151v-281q0 -55 21.5 -76.5t59.5 -21.5q85 0 85 98v281h151zM212 577v137h144v-137h-144z" />
    <glyph glyph-name="Ybreve" unicode="&#xeb29;" horiz-adv-x="550" 
d="M190 0v244l-200 426h186l100 -269l100 269h184l-199 -426v-244h-171zM90 885h115q9 -50 71 -50q67 0 74 50h116q-6 -71 -49 -108q-55 -47 -139 -47q-96 0 -149 57q-35 37 -39 98z" />
    <glyph glyph-name="ybreve" unicode="&#xeb2a;" horiz-adv-x="499" 
d="M349 503h160l-252 -671h-160l80 193l-187 478h160l102 -292zM87 709h95q20 -44 76 -44q51 0 69 44h95q-8 -136 -167 -136q-77 0 -120.5 35.5t-47.5 100.5z" />
    <glyph glyph-name="yhungarumlaut" unicode="&#xeb2b;" horiz-adv-x="499" 
d="M349 503h160l-252 -671h-160l80 193l-187 478h160l102 -292zM249 766l73 -75l-145 -145l-62 59zM418 766l73 -75l-145 -145l-62 59z" />
    <glyph glyph-name="zmacron" unicode="&#xeb2c;" horiz-adv-x="408" 
d="M194 114h197v-114h-374v103l212 286h-212v114h374v-115zM368 684v-88h-322v88h322z" />
    <glyph glyph-name="adieresistilde" unicode="&#xeb2d;" horiz-adv-x="631" 
d="M580 503v-503h-142v54q-35 -71 -156 -71q-113 0 -184 75t-71 194q0 118 72.5 193.5t186.5 75.5q111 0 152 -71v53h142zM303 379q-53 0 -89 -36.5t-36 -89.5q0 -55 36 -92t90 -37q55 0 90.5 36t35.5 92q0 55 -36 91t-91 36zM161 577v137h144v-137h-144zM362 577v137h144
v-137h-144zM461 869l40 -78q-47 -46 -107 -46q-17 0 -60 16q-35 13 -62 13q-33 0 -61 -31l-46 78q48 46 98 46q26 0 101 -23q19 -6 33 -6q18 0 64 31z" />
    <glyph glyph-name="dcaron_1" unicode="&#xeb30;" horiz-adv-x="626" 
d="M575 670v-670h-142v54q-60 -71 -155 -71q-110 0 -181 76t-71 193q0 116 71 192t179 76q89 0 148 -60v210h151zM306 379q-56 0 -92.5 -35.5t-36.5 -90.5q0 -56 36 -92.5t91 -36.5t92 37t37 93q0 53 -36.5 89t-90.5 36zM503 830l41 58h144l-134 -150h-105l-130 150h142z
" />
    <glyph glyph-name="Lcaron_1" unicode="&#xeb31;" horiz-adv-x="440" 
d="M57 0v670h171v-519h198v-151h-369zM422 670v-102q0 -49 -20 -75q-22 -29 -59 -29h-55v60h27q33 0 33 29v17h-60v100h134z" />
    <glyph glyph-name="lcaron_1" unicode="&#xeb32;" horiz-adv-x="251" 
d="M51 0v670h151v-670h-151zM128 824l45 64h160l-132 -151h-149l-128 151h159z" />
    <glyph glyph-name="Commaaccent" unicode="&#xeb86;" 
d="M453 670v-102q0 -50 -20 -75q-23 -29 -59 -29h-55v60h27q33 0 33 29v17h-60v100h134z" />
    <glyph glyph-name="commaaccent" unicode="&#xeb87;" 
d="M319 670v-102q0 -50 -20 -75q-23 -29 -59 -29h-55v60h27q33 0 33 29v17h-60v100h134z" />
    <glyph glyph-name="commamirror" unicode="&#xeb9d;" 
d="M185 573v102q0 50 20 75q23 29 59 29h55v-60h-27q-33 0 -33 -29v-17h60v-100h-134z" />
    <glyph glyph-name="Slashstroke" unicode="&#xeb9e;" 
d="M38 162v143l313 222v-142z" />
    <glyph glyph-name="slashstroke" unicode="&#xeb9f;" 
d="M126 201v121l251 176v-122z" />
    <glyph glyph-name="Dieresisnarrow" unicode="&#xebce;" 
d="M90 737v151h137v-151h-137zM275 737v151h137v-151h-137z" />
    <glyph glyph-name="dieresisnarrow" unicode="&#xebcf;" 
d="M104 577v137h124v-137h-124zM275 577v137h124v-137h-124z" />
    <glyph glyph-name="Pts" unicode="&#xec00;" horiz-adv-x="1028" 
d="M54 0v670h179q143 0 202 -49q77 -64 77 -178q0 -108 -69 -175q-60 -58 -191 -58h-40v-210h-158zM212 355h36q106 0 106 85q0 47 -26 66.5t-87 19.5h-29v-171zM661 402v-99h47v-72h-47v-231h-105v231h-48v72h48v99h105zM988 215h-100q-1 22 -26 22q-29 0 -29 -17
q0 -19 49 -31q66 -17 84 -31q32 -25 32 -64q0 -44 -39.5 -74t-98.5 -30q-56 0 -92 27.5t-41 75.5h102q3 -27 35 -27t32 21q0 9 -8 15q-11 8 -86 26q-31 7 -51 31t-20 54q0 42 39 71t95 29q53 0 85.5 -26t37.5 -72z" />
    <glyph glyph-name="peseta2" unicode="&#xec01;" horiz-adv-x="553" 
d="M56 509v161h179q99 0 152.5 -20.5t86.5 -71.5q19 -29 30 -69h49v-121h-46q-12 -54 -39 -92q-62 -86 -214 -86h-40v-210h-158v388h-57v121h57zM214 355h36q105 0 105 84q0 47 -25.5 67t-86.5 20h-29v-171z" />
    <glyph glyph-name="onenarrow" unicode="&#xec02;" horiz-adv-x="365" 
d="M292 670v-670h-171v526h-110v144h281z" />
    <glyph glyph-name="oneone" unicode="&#xec03;" horiz-adv-x="905" 
d="M260 670v-402h-115v312h-71v90h186zM547 670h92l-281 -670h-93zM790 402v-402h-115v312h-72v90h187z" />
    <glyph glyph-name="eightperemspace" unicode="&#xec04;" horiz-adv-x="126" 
 />
    <glyph glyph-name="space10mm" unicode="&#xec05;" horiz-adv-x="67" 
 />
    <glyph glyph-name="space5mm" unicode="&#xec06;" horiz-adv-x="34" 
 />
    <glyph glyph-name="space2mm" unicode="&#xec07;" horiz-adv-x="13" 
 />
    <glyph glyph-name="space1mm" unicode="&#xec08;" horiz-adv-x="7" 
 />
    <glyph glyph-name="spacehalfmm" unicode="&#xec09;" horiz-adv-x="3" 
 />
    <glyph glyph-name="ft" unicode="&#xec0a;" horiz-adv-x="577" 
d="M64 0v389h-56v114h56v26q0 77 47 116t145 39h22v-114h-17q-46 0 -46 -47v-20h131v167h151v-167h72v-114h-72v-389h-151v389h-131v-389h-151z" />
    <glyph glyph-name="fff" unicode="&#xec0b;" horiz-adv-x="860" 
d="M64 0v389h-56v114h56v26q0 77 47 116t145 39h22v-114h-17q-46 0 -46 -47v-20h131v26q0 77 47 116t145 39h22v-114h-17q-46 0 -46 -47v-20h131v26q0 77 47 116t145 39h22v-114h-17q-46 0 -46 -47v-20h63v-114h-63v-389h-151v389h-131v-389h-151v389h-131v-389h-151z" />
    <glyph glyph-name="fft" unicode="&#xec0c;" horiz-adv-x="859" 
d="M64 0v389h-56v114h56v26q0 77 47 116t145 39h22v-114h-17q-46 0 -46 -47v-20h131v26q0 77 47 116t145 39h22v-114h-17q-46 0 -46 -47v-20h131v167h151v-167h72v-114h-72v-389h-151v389h-131v-389h-151v389h-131v-389h-151z" />
    <glyph glyph-name="currency_2" unicode="&#xec13;" horiz-adv-x="596" 
d="M113 466l-74 73l55 55l74 -74q59 42 130 42q72 0 131 -42l76 76l54 -54l-76 -77q41 -60 41 -128q0 -70 -41 -132l74 -74l-55 -55l-73 74q-60 -41 -132 -41t-129 41l-76 -76l-55 54l76 77q-42 62 -42 132q0 71 42 129zM298 462q-48 0 -83.5 -37t-35.5 -88
q0 -53 34.5 -90.5t83.5 -37.5q50 0 85.5 37t35.5 90q0 52 -35.5 89t-84.5 37z" />
    <glyph glyph-name="Dotaccent" unicode="&#xefed;" 
d="M173 737v151h158v-151h-158z" />
    <glyph glyph-name="Breve" unicode="&#xefee;" 
d="M63 885h116q7 -50 70 -50q67 0 74 50h116q-6 -71 -49 -108q-55 -47 -139 -47q-96 0 -149 57q-35 37 -39 98z" />
    <glyph glyph-name="Ogonek" unicode="&#xeff1;" 
d="M368 0h78q-36 -19 -48.5 -31.5t-12.5 -31.5t13.5 -32t33.5 -13q16 0 47 13v-82q-48 -18 -81 -18q-47 0 -80.5 27t-33.5 64q0 59 84 104z" />
    <glyph glyph-name="Cedilla" unicode="&#xeff2;" 
d="M291 0l-24 -47q9 2 19 2q33 0 55.5 -22.5t22.5 -55.5q0 -46 -31.5 -76.5t-79.5 -30.5q-92 0 -101 92h71q10 -26 33 -26q35 0 35 34q0 33 -34 33q-15 0 -28 -14l-52 31l42 80h72z" />
    <glyph glyph-name="Ring" unicode="&#xeff3;" 
d="M253 947q47 0 80.5 -34t33.5 -81t-34 -81t-82 -34t-82 34t-34 82q0 47 34.5 80.5t83.5 33.5zM252 876q-18 0 -30.5 -12.5t-12.5 -30.5q0 -19 12.5 -31.5t29.5 -12.5t29.5 13t12.5 30q0 18 -12 31t-29 13z" />
    <glyph glyph-name="Tilde" unicode="&#xeff5;" 
d="M387 880l47 -89q-55 -41 -108 -41q-32 0 -117 26q-13 4 -26 4q-29 0 -66 -32l-49 89q52 43 101 43q33 0 113 -25q13 -4 25 -4q29 0 80 29z" />
    <glyph glyph-name="Circumflex" unicode="&#xeff7;" 
d="M252 801l-45 -64h-160l133 151h148l128 -151h-158z" />
    <glyph glyph-name="apple" unicode="&#xf000;" horiz-adv-x="670" 
d="M336 521h-2q-1 69 40.5 118t108.5 57q0 -60 -26 -101q-21 -33 -56 -53.5t-65 -20.5zM627 459q-81 -61 -81 -139q0 -109 100 -150q-80 -197 -171 -197q-19 0 -81 27q-9 3 -38 3q-25 0 -35.5 -3t-53.5 -20q-20 -8 -39 -8q-65 0 -130 112t-65 225q0 66 27.5 120.5t73.5 79.5
q37 20 87 20q32 0 78 -17q35 -13 47 -13q17 0 44 10q59 22 92 22q93 0 145 -72z" />
    <glyph glyph-name="fi" unicode="&#xf001;" horiz-adv-x="547" 
d="M64 0v389h-56v114h56v26q0 77 47 116t145 39h22v-114h-17q-46 0 -46 -47v-20h63v-114h-63v-389h-151zM497 503v-503h-151v503h151zM497 670v-114h-151v114h151z" />
    <glyph glyph-name="fl" unicode="&#xf002;" horiz-adv-x="547" 
d="M64 0v389h-56v114h56v26q0 77 47 116t145 39h22v-114h-17q-46 0 -46 -47v-20h63v-114h-63v-389h-151zM346 0v670h151v-670h-151z" />
    <glyph glyph-name="Commabelow" unicode="&#xf634;" 
d="M319 -52v-102q0 -49 -20 -74q-23 -29 -59 -29h-55v60h27q33 0 33 29v16h-60v100h134z" />
    <glyph glyph-name="zeronarrow" unicode="&#xf639;" horiz-adv-x="564" 
d="M32 238v194q0 99 60 165q36 39 88 62.5t104 23.5q59 0 117 -30.5t92 -80.5q39 -56 39 -140v-194q0 -94 -50 -156q-76 -95 -197 -95q-58 0 -113.5 28t-92.5 75q-47 60 -47 148zM361 237v196q0 53 -23 76t-56 23q-30 0 -52 -21q-27 -25 -27 -78v-196q0 -53 27 -78
q22 -21 52 -21q42 0 66 34q13 20 13 65z" />
    <glyph glyph-name="twonarrow" unicode="&#xf63a;" horiz-adv-x="542" 
d="M282 144h227v-144h-473v133q123 80 173 129q125 122 125 206q0 29 -18 47t-46 18q-71 0 -77 -107h-163q3 97 39 154q66 104 208 104q98 0 163 -56t65 -140q0 -114 -104 -229q-44 -49 -119 -115z" />
    <glyph glyph-name="threenarrow" unicode="&#xf63b;" horiz-adv-x="545" 
d="M20 199h173q15 -61 77 -61q33 0 53.5 18.5t20.5 47.5q0 41 -34 58q-18 9 -57 9h-60v126h29q84 0 84 77q0 58 -47 58q-50 0 -53 -57h-169q2 94 65 151t165 57q89 0 149.5 -52.5t60.5 -130.5q0 -94 -89 -141q127 -43 127 -161q0 -88 -73 -149.5t-176 -61.5q-69 0 -127 27
t-86 72.5t-33 112.5z" />
    <glyph glyph-name="fournarrow" unicode="&#xf63c;" horiz-adv-x="553" 
d="M305 118h-295v125l300 427h159v-418h74v-134h-74v-118h-164v118zM316 252v210l-135 -210h135z" />
    <glyph glyph-name="fivenarrow" unicode="&#xf63d;" horiz-adv-x="553" 
d="M42 291l57 379h371v-144h-239l-15 -91q39 20 91 20q105 0 167 -74q56 -67 56 -151q0 -99 -72.5 -171.5t-184.5 -72.5q-100 0 -169.5 52.5t-86.5 141.5h173q31 -43 78 -43q37 0 64 26.5t27 62.5q0 38 -26 63t-66 25q-62 0 -87 -57z" />
    <glyph glyph-name="sixnarrow" unicode="&#xf63e;" horiz-adv-x="564" 
d="M446 670l-148 -204q27 4 42 4q87 0 145.5 -65.5t58.5 -162.5q0 -110 -74.5 -182.5t-187.5 -72.5q-133 0 -210 101q-54 71 -54 156q0 88 63 181l166 245h199zM279 319q-39 0 -65.5 -25.5t-26.5 -62.5q0 -39 26.5 -66t66.5 -27q39 0 66 26t27 64t-27 64.5t-67 26.5z" />
    <glyph glyph-name="sevennarrow" unicode="&#xf63f;" horiz-adv-x="459" 
d="M14 670h437v-132l-236 -538h-188l247 526h-260v144z" />
    <glyph glyph-name="eightnarrow" unicode="&#xf640;" horiz-adv-x="542" 
d="M411 369q105 -45 105 -167q0 -89 -71.5 -152.5t-171.5 -63.5q-101 0 -173.5 63.5t-72.5 152.5q0 122 105 167q-66 53 -66 125q0 82 58 135.5t147 53.5q87 0 145.5 -53.5t58.5 -132.5q0 -76 -64 -128zM272 544q-26 0 -44.5 -18.5t-18.5 -44.5t17.5 -43t43.5 -17t44 18.5
t18 44.5q0 25 -18 42.5t-42 17.5zM271 290q-31 0 -52 -21.5t-21 -53.5q0 -34 21.5 -56t54.5 -22q29 0 50 22.5t21 53.5q0 32 -21.5 54.5t-52.5 22.5z" />
    <glyph glyph-name="ninenarrow" unicode="&#xf641;" horiz-adv-x="566" 
d="M133 0l151 208q-23 -7 -45 -7q-65 0 -115 31q-46 29 -75 85t-29 117q0 107 74.5 178.5t186.5 71.5q116 0 190.5 -74t74.5 -189q0 -83 -47 -156l-171 -265h-195zM282 533q-37 0 -64 -26.5t-27 -62.5q0 -38 27 -65t64 -27q39 0 66 26.5t27 64.5q0 37 -27.5 63.5t-65.5 26.5
z" />
    <glyph glyph-name="dotlessj" unicode="&#xf6be;" horiz-adv-x="251" 
d="M201 503v-491q0 -111 -40.5 -153.5t-146.5 -42.5h-37v114h20q30 0 41.5 16.5t11.5 59.5v497h151z" />
    <glyph glyph-name="Scedilla1" unicode="&#xf6c1;" horiz-adv-x="519" 
d="M275 -14l-17 -33q9 2 19 2q33 0 55.5 -22.5t22.5 -55.5q0 -46 -31.5 -76.5t-79.5 -30.5q-92 0 -101 92h71q10 -26 33 -26q35 0 35 34t-34 34q-14 0 -28 -15l-52 31l37 70q-95 14 -145 74t-46 157h172q0 -41 18.5 -65.5t50.5 -24.5q28 0 47 18.5t19 45.5q0 28 -20 44.5
t-129 60.5q-147 60 -147 186q0 83 68.5 140.5t166.5 57.5q117 0 181 -77q40 -48 45 -132h-170q-9 65 -61 65q-25 0 -42 -15.5t-17 -37.5q0 -24 17 -38q12 -12 27.5 -20t94.5 -44q85 -38 121 -83t36 -110q0 -131 -109 -182q-35 -16 -108 -24z" />
    <glyph glyph-name="scedilla1" unicode="&#xf6c2;" horiz-adv-x="448" 
d="M231 -17l-18 -35q15 3 25 3q30 0 51.5 -22t21.5 -53q0 -43 -28 -69.5t-72 -26.5q-86 0 -96 83h63q11 -25 31 -25q35 0 35 34q0 31 -31 31q-14 0 -28 -14l-44 32l31 65q-67 11 -110.5 56.5t-46.5 106.5h150q6 -46 57 -46q22 0 37 11.5t15 27.5q0 17 -13.5 28t-30 16.5
t-103.5 28.5q-47 12 -77 51t-30 88q0 70 59 118t144 48q100 0 153 -67q28 -35 33 -91h-147q-4 37 -43 37q-48 0 -48 -32q0 -34 78 -55q96 -26 128 -53q48 -40 48 -105q0 -71 -53.5 -118t-140.5 -53z" />
    <glyph glyph-name="Acute" unicode="&#xf6c9;" 
d="M386 937l51 -114l-247 -109l-45 92z" />
    <glyph glyph-name="Caron" unicode="&#xf6ca;" 
d="M251 824l45 64h160l-132 -151h-149l-128 151h159z" />
    <glyph glyph-name="Dieresis" unicode="&#xf6cb;" 
d="M64 737v151h158v-151h-158zM281 737v151h158v-151h-158z" />
    <glyph glyph-name="Grave" unicode="&#xf6ce;" 
d="M116 937l241 -131l-44 -92l-248 109z" />
    <glyph glyph-name="Hungarumlaut" unicode="&#xf6cf;" 
d="M248 937l62 -89l-183 -134l-54 79zM449 937l62 -89l-183 -134l-54 79z" />
    <glyph glyph-name="Macron" unicode="&#xf6d0;" 
d="M424 865v-101h-345v101h345z" />
    <glyph glyph-name="onefitted" unicode="&#xf6dc;" horiz-adv-x="365" 
d="M292 670v-670h-171v526h-110v144h281z" />
    <glyph glyph-name="centsuperior" unicode="&#xf6e0;" horiz-adv-x="376" 
d="M227 660v-55q41 -8 74 -41.5t35 -69.5h-105q-15 22 -41 22q-20 0 -34 -13t-14 -31t14 -31t34 -13q21 0 39 19h107q-6 -38 -36.5 -68.5t-68.5 -37.5v-57h-85v57q-105 35 -105 130q0 46 28.5 82t76.5 50v57h81z" />
    <glyph glyph-name="commasuperior" unicode="&#xf6e2;" horiz-adv-x="184" 
d="M146 366v-116q0 -31 -17.5 -49.5t-45.5 -18.5h-44v54h24q21 0 21 17v15h-45v98h107z" />
    <glyph glyph-name="dollarsuperior" unicode="&#xf6e4;" horiz-adv-x="376" 
d="M230 709v-55q38 -8 61 -38t21 -68h-95q-3 34 -30 34q-30 0 -30 -28q0 -17 13.5 -26t64.5 -27q88 -31 88 -106q0 -82 -93 -111v-57h-83v55q-46 9 -72 37t-26 67v7h105q3 -39 33 -39q31 0 31 31q0 17 -13.5 27t-58.5 25q-93 31 -93 107q0 86 94 110v55h83z" />
    <glyph glyph-name="hyphensuperior" unicode="&#xf6e6;" horiz-adv-x="213" 
d="M192 463v-80h-170v80h170z" />
    <glyph glyph-name="periodsuperior" unicode="&#xf6e8;" horiz-adv-x="184" 
d="M146 366v-98h-107v98h107z" />
    <glyph glyph-name="asuperior" unicode="&#xf6e9;" horiz-adv-x="427" 
d="M387 571v-303h-96v27q-31 -37 -100 -37q-74 0 -121 45t-47 117q0 71 47.5 116.5t123.5 45.5q66 0 97 -38v27h96zM204 494q-33 0 -56 -21t-23 -52q0 -32 23 -53.5t57 -21.5q35 0 57.5 21t22.5 54q0 32 -23 52.5t-58 20.5z" />
    <glyph glyph-name="esuperior" unicode="&#xf6ec;" horiz-adv-x="395" 
d="M256 365h104q-50 -107 -163 -107q-72 0 -122.5 47t-50.5 113q0 68 50 115.5t122 47.5q74 0 124 -47.5t50 -118.5q0 -11 -3 -26h-244q3 -22 23 -37t46 -15q29 0 59 24zM126 453h142q-12 48 -72 48q-58 0 -70 -48z" />
    <glyph glyph-name="isuperior" unicode="&#xf6ed;" horiz-adv-x="180" 
d="M141 571v-303h-102v303h102zM141 670v-72h-102v72h102z" />
    <glyph glyph-name="lsuperior" unicode="&#xf6ee;" horiz-adv-x="180" 
d="M39 268v402h102v-402h-102z" />
    <glyph glyph-name="msuperior" unicode="&#xf6ef;" horiz-adv-x="581" 
d="M39 268v303h97v-27q26 37 87 37q63 0 95 -51q37 51 103 51q52 0 86 -30q25 -22 33 -54q4 -18 4 -64v-165h-102v161q0 64 -46 64q-52 0 -52 -60v-165h-102v165q0 60 -48 60q-53 0 -53 -60v-165h-102z" />
    <glyph glyph-name="osuperior" unicode="&#xf6f0;" horiz-adv-x="405" 
d="M202 581q77 0 128 -46t51 -115q0 -70 -51 -116t-130 -46q-76 0 -126 46t-50 117q0 68 51 114t127 46zM202 493q-32 0 -54 -21t-22 -51q0 -32 22 -53.5t54 -21.5q33 0 55 21t22 53q0 30 -22.5 51.5t-54.5 21.5z" />
    <glyph glyph-name="rsuperior" unicode="&#xf6f1;" horiz-adv-x="228" 
d="M39 268v303h97v-27q21 39 81 37v-94q-43 -1 -60 -12.5t-17 -39.5v-167h-101z" />
    <glyph glyph-name="ssuperior" unicode="&#xf6f2;" horiz-adv-x="308" 
d="M277 483h-100q-1 22 -26 22q-29 0 -29 -17q0 -19 49 -31q66 -17 84 -31q32 -25 32 -64q0 -44 -39.5 -74t-98.5 -30q-57 0 -92.5 27.5t-40.5 75.5h101q5 -27 36 -27q32 0 32 21q0 8 -9 15.5t-85 25.5q-31 7 -51 31t-20 53q0 43 39 72t95 29q53 0 85.5 -26t37.5 -72z" />
    <glyph glyph-name="tsuperior" unicode="&#xf6f3;" horiz-adv-x="208" 
d="M150 670v-99h47v-72h-47v-231h-102v231h-48v72h48v99h102z" />
    <glyph glyph-name="ff" unicode="&#xfb00;" horiz-adv-x="578" 
d="M64 0v389h-56v114h56v26q0 77 47 116t145 39h22v-114h-17q-46 0 -46 -47v-20h131v26q0 77 47 116t145 39h22v-114h-17q-46 0 -46 -47v-20h63v-114h-63v-389h-151v389h-131v-389h-151z" />
    <glyph glyph-name="ffi" unicode="&#xfb03;" horiz-adv-x="829" 
d="M64 0v389h-56v114h56v26q0 77 47 116t145 39h22v-114h-17q-46 0 -46 -47v-20h131v26q0 77 47 116t145 39h22v-114h-17q-46 0 -46 -47v-20h63v-114h-63v-389h-151v389h-131v-389h-151zM779 503v-503h-151v503h151zM779 670v-114h-151v114h151z" />
    <glyph glyph-name="ffl" unicode="&#xfb04;" horiz-adv-x="829" 
d="M64 0v389h-56v114h56v26q0 77 47 116t145 39h22v-114h-17q-46 0 -46 -47v-20h131v26q0 77 47 116t145 39h22v-114h-17q-46 0 -46 -47v-20h63v-114h-63v-389h-151v389h-131v-389h-151zM628 0v670h151v-670h-151z" />
    <glyph glyph-name="NULL" horiz-adv-x="0" 
 />
    <glyph glyph-name="glyph743" horiz-adv-x="251" 
 />
    </font>
</defs>
</svg>
