<?xml version="1.0" standalone="no"?>
<!DOCTYPE svg PUBLIC "-//W3C//DTD SVG 1.1//EN" "http://www.w3.org/Graphics/SVG/1.1/DTD/svg11.dtd" >
<svg xmlns="http://www.w3.org/2000/svg">
<metadata>Generated by IcoMoon</metadata>
<defs>
<font id="Tiupicons" horiz-adv-x="1024">
<font-face units-per-em="1024" ascent="960" descent="-64" />
<missing-glyph horiz-adv-x="1024" />
<glyph unicode="&#x20;" d="" horiz-adv-x="512" />
<glyph unicode="&#xe600;" d="M484.96 19.968c-3.104-3.584-4.896-7.488-4.896-11.648 0-16.928 28.672-30.624 64-30.624 35.328 0 64 13.696 64 30.624 0 4.16-1.952 8.064-5.056 11.648 20.032 10.272 42.688 18.976 69.056 18.976 142.176 0 351.936-30.624 351.936-30.624v643.008c0 0-21.344 3.008-53.088 7.072v-559.072c0 0-169.056 73.44-295.584 31.424-42.656-14.176-85.664-62.272-110.24-93.888-2.944 0.48-6.176 0.64-9.28 0.896 16.288 38.176 48.704 102.592 90.048 123.584 112.192 57.152 271.808 19.552 271.808 19.552v623.52c0 0-60.576-12.448-133.536-32.064v-457.856l-66.592 37.056-66.592-85.504v464.736c-0.16-0.064-0.32-0.064-0.48-0.16-59.936-22.304-106.336-96.32-106.336-96.32s-46.4 74.016-106.336 96.32c-112.256 41.856-267.456 73.792-267.456 73.792v-623.456c0 0 155.2 37.632 267.392-19.552 41.376-21.088 75.904-85.504 93.472-123.68-2.592-0.256-5.536-0.32-8.128-0.8-24.768 31.584-67.744 79.712-110.432 93.888-126.368 42.016-295.392-31.424-295.392-31.424v559.040c-31.904-4.096-53.248-7.104-53.248-7.104v-643.008c0 0 209.76 30.624 352.096 30.624 26.368 0 48.832-8.704 68.864-18.976z" />
<glyph unicode="&#xe601;" d="M809.984 738.4c9.696-36.064 9.696-74.016 0-110.080-2.016-7.456-10.368-13.472-17.92-13.472h68.608c15.072 0 27.264 12.288 27.264 27.424v82.176c0 15.136-12.224 27.424-27.264 27.424h-68.608c7.552 0 15.936-5.952 17.92-13.472zM322.944 340.864c-15.232-90.688-15.232-183.296 0-273.984h551.456c25.088 60.32 25.088 213.728 0 273.984h-551.456zM120.832 340.864c-15.072 0-27.264-12.224-27.264-27.36v-219.168c0-15.136 12.224-27.424 27.264-27.424h37.632c-10.528 28.096-10.528 245.952 0 273.984h-37.632zM970.272 340.864h-68.608c23.776-57.056 21.92-221.44 0-273.984h68.608c15.072 0 27.264 12.288 27.264 27.424v219.168c0.032 15.168-12.192 27.392-27.264 27.392zM240.8 340.864c-19.904-52.128-19.904-221.792 0-273.984h54.72c-15.232 90.688-15.232 183.296 0 273.984h-54.72zM942.848 423.104v109.6c0 15.136-12.224 27.36-27.424 27.36h-739.712c-15.232 0-27.424-12.224-27.424-27.36v-109.6c0-15.136 12.224-27.456 27.424-27.456h739.712c15.2 0 27.424 12.32 27.424 27.456zM299.008 532.704c7.52 0 13.728-6.112 13.728-13.728 0-7.52-6.176-13.728-13.728-13.728s-13.728 6.208-13.728 13.728c0 7.616 6.208 13.728 13.728 13.728zM257.856 436.832c0-7.616-6.208-13.728-13.728-13.728s-13.728 6.112-13.728 13.728v82.144c0 7.616 6.208 13.728 13.728 13.728s13.728-6.112 13.728-13.728v-82.144zM299.008 450.464c-7.52 0-13.728 6.208-13.728 13.728 0 7.616 6.208 13.728 13.728 13.728s13.728-6.112 13.728-13.728c0-7.552-6.176-13.728-13.728-13.728zM326.464 423.104c-7.712 0-13.728 6.112-13.728 13.728 0 7.52 6.016 13.632 13.728 13.632 7.52 0 13.568-6.112 13.568-13.632-0.032-7.616-6.048-13.728-13.568-13.728zM326.464 477.888c-7.712 0-13.728 6.112-13.728 13.728 0 7.52 6.016 13.632 13.728 13.632 7.52 0 13.568-6.112 13.568-13.632-0.032-7.616-6.048-13.728-13.568-13.728zM887.968 450.464c0-15.072-12.224-27.36-27.264-27.36-15.232 0-27.424 12.288-27.424 27.36v54.784c0 15.136 12.224 27.456 27.424 27.456 15.072 0 27.264-12.288 27.264-27.456v-54.784zM230.432 614.848h561.664c-7.52 0-11.552 6.016-9.536 13.472 9.696 36.064 9.696 74.048 0 110.080-2.016 7.52 2.016 13.472 9.536 13.472h-561.664c-15.072 0-27.264-12.288-27.264-27.424v-82.144c-0.032-15.168 12.192-27.456 27.264-27.456zM641.504 724.448h109.6v-82.144h-109.6v82.144z" />
<glyph unicode="&#xe602;" d="M587.296 453.184h-286.976v-19.584h280.896c1.792 6.688 3.456 13.312 6.080 19.584zM611.552 492.256h-311.232v-19.584h297.376c4.064 6.944 8.704 13.376 13.856 19.584zM300.32 394.496h275.168c0 6.688 1.056 13.12 1.92 19.584h-277.088v-19.584zM596.992 316.288h-374.88v430.080h586.432v-219.552c14.912-8.704 28.064-19.808 39.168-32.896v291.52h-664.768v-508.288h446.368c-12.864 11.2-23.744 24.352-32.32 39.136zM847.68 277.184v16.608c-5.12-5.984-10.496-11.456-16.352-16.608h16.352zM822.848 270.272c-21.6-16.224-47.52-26.56-75.808-29.664l25.44-94.56 28.544 49.536 49.536-28.64-27.712 103.328zM605.344 136.032l49.536 28.608 28.544-49.472 33.536 125.12c-28.288 2.464-54.432 12-76.288 27.648l-35.328-131.904zM730.336 609.568h-430.016v-19.584h430.016v19.584zM660.384 531.36h-360.064v-19.584h330.688c8.96 7.648 18.752 14.144 29.376 19.584zM730.336 570.464h-430.016v-19.584h430.016v19.584zM358.944 707.264v-58.624h332.352v58.624h-332.352zM730.336 460.448c-36.768 0-66.624-29.792-66.624-66.624 0-36.768 29.856-66.624 66.624-66.624 36.768 0 66.624 29.856 66.624 66.624 0 36.832-29.856 66.624-66.624 66.624zM844.48 393.824c0 63.104-51.104 114.208-114.144 114.208s-114.24-51.104-114.24-114.208c0-63.040 51.232-114.208 114.24-114.208 63.040 0.032 114.144 51.2 114.144 114.208zM730.336 308.224c-47.296 0-85.6 38.336-85.6 85.6 0 47.328 38.304 85.664 85.6 85.664 47.264 0 85.6-38.336 85.6-85.664 0-47.264-38.336-85.6-85.6-85.6z" />
<glyph unicode="&#xe603;" d="M812.64 339.264c-30.88 30.88-71.872 46.944-116.576 49.536l-13.696-61.024c1.344 0.192 2.688 0.256 4.032 0.352l-54.528-54.528c1.504 14.336 5.184 29.088 10.976 43.712 0.512 0.192 1.024 0.352 1.568 0.576l15.84 70.272c-0.672-0.064-1.344-0.064-2.080-0.096 6.208 59.136-9.312 115.040-48.736 154.464-30.944 30.944-72.064 46.976-116.864 49.504l-9.888-43.84-50.272-50.24c1.888 7.52 4.256 15.040 7.232 22.56 0.416 0.16 0.8 0.32 1.216 0.48l15.84 70.432c-0.576-0.064-1.152-0.064-1.728-0.096 6.208 59.136-9.376 114.976-48.8 154.4-16.96 17.024-37.088 29.44-59.136 37.728l-48.064-48c15.36-0.512 29.92-3.872 42.976-9.984l-107.264-107.264c-6.144 13.024-9.504 27.552-10.016 42.944l-48.128-48.128c8.32-21.984 20.896-42.016 37.856-59.008 31.2-31.2 72.768-47.232 118.048-49.568l13.792 61.28c-1.92-0.32-3.776-0.352-5.664-0.576l54.528 54.528c-1.472-14.112-5.056-28.576-10.688-42.944l-16.128-71.52h0.512c-6.208-59.136 9.376-114.976 48.8-154.432 31.168-31.2 72.672-47.232 117.888-49.568l10.176 45.184 48.96 48.896c-1.856-7.488-4.256-15.072-7.232-22.56h-0.064l-15.936-70.784c0.224 0 0.48 0 0.704 0.064-6.208-59.136 9.376-115.040 48.8-154.464 16.96-16.96 37.088-29.408 59.136-37.728l48.032 48.064c-15.36 0.512-29.952 3.84-43.008 9.984l107.264 107.264c6.144-13.056 9.504-27.584 10.048-42.944l48.064 48.064c-8.288 22.080-20.864 42.048-37.792 59.008zM291.744 569.248c-12.64 3.936-24.192 10.208-34.176 18.848l114.56 114.56c8.608-9.984 14.912-21.536 18.848-34.144l-99.232-99.264zM429.504 442.080l88.576 88.576c13.92-2.336 26.816-7.36 38.24-14.752l-112.064-112.032c-7.456 11.424-12.448 24.288-14.752 38.208zM508.992 362.656c-13.952 2.336-26.848 7.296-38.24 14.752l112.032 112.032c7.424-11.424 12.416-24.32 14.784-38.24l-88.576-88.544zM654.944 190.688c-8.64 9.984-15.008 21.472-18.88 34.112l99.264 99.264c12.672-3.872 24.16-10.208 34.208-18.784l-114.592-114.592z" />
<glyph unicode="&#xe604;" d="M310.848 447.168v-8.48l9.696-2.912-9.696 11.392zM319.36 420.768l30.592-4.064 6.208 3.744-34.464 7.040-2.336-6.72zM508.736 504.704l17.024-7.712 1.152 9.504-10.816 13.44-5.056 14.272-8.512-4.64 11.2-17.056-4.992-7.808zM559.072 442.368l-4.64-5.248 7.328-6.016-2.688 11.264zM497.888 507.36l7.36 5.184-8.928 15.264-6.976-9.248 8.544-11.2zM291.904 420.896l18.944 0.32 2.336 7.904-19.36 1.472-1.92-9.696zM457.6 587.936l13.152-25.664 22.080 5.824-10.816 15.008-24.416 4.832zM628.96 657.44l-211.808 110.56-211.744-58.848v-529.344l211.744 58.784 211.808-110.592 211.744 58.848v529.344l-211.744-58.752zM317.344 252.928l-69.568-20.096v164.288l20.48-6.976 9.664 3.296 7.36-13.056 17.024 3.744v-12.416l-7.36-12.48 17.024-38.784 15.872-3.872-10.496-63.648zM396 275.616l-32.192-9.312 32.192 41.504v-32.192zM396 701.184l-44.896-15.424-26.688-38.848 8.512-9.312 15.872 8.512 14.752-7.936 7.328-35.936 18.208-24.256 6.912 1.024v-195.52l-0.704 0.32-12.416-2.784-2.336 16.928-18.56-4.128-1.568 14.816-22.848-4.32-12 1.984-17.056-11.104-17.44-3.872-2.304 14.208-9.696-0.96 2.336 14.016-6.208 2.112-9.664-7.936-4.64-1.024-10.048 7.424 10.048 20.416 26.72 5.952 7.328-9.248 8.544 1.888-5.056 14.816 17.44 18.56-1.568 9.312 7.392 8.992 7.328 0.512v13.12l43.008 33.952-30.592 29.984-37.952-2.208v-18.24l3.488-3.104-5.824-19.456-15.872 14.688-17.056 1.28-8.928 5.376 12.416 19.776 24.384 3.040-3.456 11.264 4.64 14.624 11.232 2.464-3.84-20.544 31.744 1.216 17.056 21.92-53.44 31.936 40.288 54.24-45.344-7.776-47.2-28.512v30.784l148.224 42.752v-21.76zM607.776 426.592l-5.728-1.76-1.952 9.376 7.68 6.080v-13.696zM607.776 543.936l-11.168 7.68-30.592 6.464-27.872-24.896-1.152-14.208 17.024-5.376 3.488-11.264 15.872-2.592 1.152 11.904-5.824 7.648 15.872 13.312 7.36-10.656-12.384-4.064 5.024-13.12 17.024-1.888 4.64-7.936-26.688 2.080-1.152-6.464-24.416 9.504-5.024 9.632-7.328-0.128 3.84-11.456-13.536-6.208-7.36 2.144-12.384-4.064 7.36-10.656-3.488-6.912-19.744 10.080 10.080-31.68 27.872 13.312 5.056-4.992 8.512 3.488 14.72-17.504 3.488-16.288 8.544 8.544-13.152 24.192 3.072 1.696 16.256-26.368 2.336-15.776 13.536-15.776-2.304 20.352 13.44-23.808v-6.4l-19.648 9.76-7.36 9.568-9.664-4.128-19.744 15.136 1.568 5.504-6.208 9.824-24.384 8.736-44.16-17.984 1.152-38.080 19.744-26.4 34.080-16.608 17.056-18.56-7.36-1.696 17.44-28.448v-14.688l-6.176-5.76 20.544-65.44 23.2-12.096 9.984 7.552v-33.44l-169.44 92.192v331.584l10.368-1.568 22.048 24.128 2.72 29.344 14.368 5.888-26.72 34.208-22.752 7.488v16.256l169.44-92.192v-81.632zM798.368 354.048l-12.352-4.128 12.352-8.48v-118.976l-148.256-40.16v25.408l6.56-1.76 10.816 39.712-6.176 1.312-11.232-13.376v46.496l21.28 39.648-20.896-10.208-0.384 0.128v12.16l3.872-5.824 25.92 20.448 10.816 18.112-10.816 6.336-10.080-7.68-9.664 11.904 58.88 13.568-1.152-16.736 6.944 0.576 10.080-23.744 15.872 11.264v14.752l20.544 24.384 2.72 12.352 5.792 2.4v-12.352l18.56-32.448v-5.088zM678.72 398.656l-10.080-6.848-1.504 25.28 6.944 8.352 3.488-2.464-6.592-11.648 7.744-12.672zM693.44 429.568l6.208 3.36 1.152-9.184-6.592-3.552-0.768 9.376zM798.368 612.928l-41.76-33.216-4.64-11.648-30.592-5.312-17.056-21.792 4.64-6.592-27.872 5.44 13.536 20.352 24.416 18.624-3.872 6.912-25.568-21.472-18.208-26.112 15.872-11.648-23.2-9.632-13.952-14.816v127.616l148.256 40.096v-56.8z" />
<glyph unicode="&#xe605;" d="M782.112 201.92h-525.28c-23.2 0-42.016-18.784-42.016-42.016 0-23.168 18.848-42.016 42.016-42.016h525.312c23.2 0 42.016 18.848 42.016 42.016 0 23.232-18.848 42.016-42.048 42.016zM277.824 243.936h483.264v42.016h-483.264v-42.016zM319.872 610.144v-282.144h42.016v325.696c0 17.376 14.112 31.488 31.52 31.488 17.376 0 31.488-14.112 31.488-31.488v-325.696h63.040v325.696c0 17.376 14.112 31.488 31.52 31.488s31.488-14.112 31.488-31.488v-325.696h63.072v325.696c0 17.376 14.080 31.488 31.488 31.488 17.408 0 31.488-14.112 31.488-31.488v-325.696h42.048v277.408c7.008-1.472 13.536-4.224 21.024-4.224 58.016 0 105.056 46.88 105.056 104.704 0 57.856-47.072 104.768-105.056 104.768v0.64h-462.24v-0.64c-58.016 0-105.056-46.88-105.056-104.768 0-57.792 47.040-104.704 105.056-104.704 15.008-0.032 29.152 3.296 42.048 8.96zM214.784 706.176c0 34.848 28.224 63.072 63.040 63.072h462.272c34.816 0 63.040-28.224 63.040-63.072 0-34.784-28.224-63.008-63.040-63.008-11.616 0-21.024 9.44-21.024 20.992 0 11.616 9.408 21.056 21.024 21.056 11.584 0 20.992 9.44 20.992 20.992 0 11.616-9.408 21.056-20.992 21.056h-462.272c-11.584 0-21.024-9.44-21.024-21.056 0-11.552 9.44-20.992 21.024-20.992 11.616 0 21.024-9.44 21.024-21.056 0-11.552-9.408-20.992-21.024-20.992-34.784 0-63.040 28.256-63.040 63.008z" />
<glyph unicode="&#xe606;" d="M605.465 960c-228.802 0-414.265-185.463-414.265-414.265 0-98.468 34.48-188.714 91.839-259.84l-270.037-270.037c-17.272-17.272-17.272-45.314 0-62.586 17.272-17.272 45.314-17.272 62.586 0l270.037 270.037c71.126-57.36 161.372-91.839 259.84-91.839 228.802 0 414.265 185.463 414.265 414.265s-185.463 414.265-414.265 414.265zM796.664 513.868h-382.399c-17.59 0-31.867 14.276-31.867 31.867 0 17.59 14.276 31.867 31.867 31.867h382.399c17.59 0 31.867-14.276 31.867-31.867 0-17.59-14.276-31.867-31.867-31.867z" />
<glyph unicode="&#xe607;" d="M605.465 960c-228.802 0-414.265-185.463-414.265-414.265 0-98.468 34.48-188.714 91.839-259.84l-270.037-270.037c-17.272-17.272-17.272-45.314 0-62.586 17.272-17.272 45.314-17.272 62.586 0l270.037 270.037c71.126-57.36 161.372-91.839 259.84-91.839 228.802 0 414.265 185.463 414.265 414.265s-185.463 414.265-414.265 414.265zM605.465 195.203c-193.303 0-350.532 157.23-350.532 350.532s157.23 350.532 350.532 350.532 350.532-157.23 350.532-350.532-157.23-350.532-350.532-350.532zM796.664 577.601h-382.399c-17.59 0-31.867-14.276-31.867-31.867 0-17.59 14.276-31.867 31.867-31.867h382.399c17.59 0 31.867 14.276 31.867 31.867 0 17.59-14.276 31.867-31.867 31.867z" />
<glyph unicode="&#xe608;" d="M605.465 960c-228.802 0-414.265-185.463-414.265-414.265 0-98.468 34.48-188.714 91.839-259.84l-270.037-270.037c-17.272-17.272-17.272-45.314 0-62.586 17.272-17.272 45.314-17.272 62.586 0l270.037 270.037c71.126-57.36 161.372-91.839 259.84-91.839 228.802 0 414.265 185.463 414.265 414.265s-185.463 414.265-414.265 414.265zM796.664 513.868h-159.333v-159.333c0-17.59-14.276-31.867-31.867-31.867s-31.867 14.276-31.867 31.867v159.333h-159.333c-17.59 0-31.867 14.276-31.867 31.867 0 17.59 14.276 31.867 31.867 31.867h159.333v159.333c0 17.59 14.276 31.867 31.867 31.867s31.867-14.276 31.867-31.867v-159.333h159.333c17.59 0 31.867-14.276 31.867-31.867 0-17.59-14.276-31.867-31.867-31.867z" />
<glyph unicode="&#xe609;" d="M605.465 960c-228.802 0-414.265-185.463-414.265-414.265 0-98.468 34.48-188.714 91.839-259.84l-270.037-270.037c-17.272-17.272-17.272-45.314 0-62.586 17.272-17.272 45.314-17.272 62.586 0l270.037 270.037c71.126-57.36 161.372-91.839 259.84-91.839 228.802 0 414.265 185.463 414.265 414.265s-185.463 414.265-414.265 414.265zM605.465 195.203c-193.303 0-350.532 157.23-350.532 350.532s157.23 350.532 350.532 350.532 350.532-157.23 350.532-350.532-157.23-350.532-350.532-350.532zM796.664 577.601h-159.333v159.333c0 17.59-14.276 31.867-31.867 31.867s-31.867-14.276-31.867-31.867v-159.333h-159.333c-17.59 0-31.867-14.276-31.867-31.867 0-17.59 14.276-31.867 31.867-31.867h159.333v-159.333c0-17.59 14.276-31.867 31.867-31.867s31.867 14.276 31.867 31.867v159.333h159.333c17.59 0 31.867 14.276 31.867 31.867 0 17.59-14.276 31.867-31.867 31.867z" />
<glyph unicode="&#xe60a;" d="M960 512v192c0 35.328-28.672 64-64 64h-19.072l-21.568 133.12c-1.344 8.384-5.952 15.872-12.864 20.8-6.784 4.992-15.36 7.104-23.808 5.632l-695.808-112.896c-17.472-2.816-29.312-19.264-26.432-36.736l1.6-9.92h-34.048c-35.328 0-64-28.672-64-64v-704c0-35.328 28.672-64 64-64h832c35.328 0 64 28.672 64 64v192c35.328 0 64 28.672 64 64v192c0 35.328-28.672 64-64 64zM64 704h832v-192h-256c-35.328 0-64-28.672-64-64v-192c0-35.328 28.672-64 64-64h256v-192h-832v704zM234.752 768l562.56 91.328 14.784-91.328h-577.344zM640 256v192h320v-192h-320zM704 352c0-17.673 14.327-32 32-32s32 14.327 32 32c0 17.673-14.327 32-32 32-17.673 0-32-14.327-32-32z" />
<glyph unicode="&#xe60b;" d="M704 192v192c0 35.328 28.672 64 64 64h192v128c0 35.328-28.672 64-64 64h-73.472l-31.232 185.536c-1.408 8.448-6.208 16-13.184 20.864-7.040 4.928-15.808 6.656-24.192 5.312l-631.744-116.224c-8.384-1.536-15.872-6.4-20.672-13.504-4.8-7.104-6.592-15.808-4.864-24.256l11.456-57.728h-44.096c-35.328 0-64-28.672-64-64v-576c0-35.328 28.672-64 64-64h832c35.328 0 64 28.672 64 64v128h-192c-35.328 0-64 28.672-64 64zM165.696 678.4l567.872 104.512 24.064-142.912h-584.32l-7.616 38.4zM992 384h-224v-192h224c17.664 0 32 14.336 32 32v128c0 17.664-14.336 32-32 32zM864 256c-17.664 0-32 14.336-32 32s14.336 32 32 32 32-14.336 32-32c0-17.664-14.336-32-32-32z" />
<glyph unicode="&#xe60c;" d="M657.578 959.808c-11.628 1.086-25.237-1.725-41.274-11.437 0 0-266.43-232.44-277.995-243.94h-146.633c-35.268 0-63.892-28.624-63.892-63.892v-391.467c0-35.268 28.624-63.892 63.892-63.892h146.633c11.564-11.501 277.995-235.762 277.995-235.762 16.037-9.712 29.646-12.523 41.274-11.437 23.64 2.236 40.252 22.043 45.3 42.936 0.319 2.045 0.319 933.912 0 935.893-5.047 20.957-21.723 40.763-45.3 42.999zM801.272 337.243c-15.781-7.987-22.107-27.154-14.184-42.936 5.623-11.117 16.868-17.57 28.496-17.57 4.856 0 9.712 1.086 14.376 3.386 64.595 32.585 104.719 97.18 104.719 168.739s-40.124 136.154-104.719 168.739c-15.781 7.987-34.949 1.597-42.872-14.184-7.923-15.781-1.597-34.949 14.184-42.936 42.872-21.596 69.515-64.339 69.515-111.62s-26.643-90.024-69.515-111.62z" horiz-adv-x="1022" />
<glyph unicode="&#xe60d;" d="M653.632 960c-10.56 0-22.656-3.264-36.544-11.648 0 0-266.88-232.832-278.464-244.352h-146.624c-35.328 0-64-28.672-64-64v-392.128c0-35.328 28.672-64 64-64h146.624c11.584-11.52 278.464-236.16 278.464-236.16 13.888-8.448 25.984-11.712 36.544-11.712 1.6 0 3.2 0.064 4.736 0.192 23.68 2.24 40.576 22.080 45.632 43.008v937.536c-4.992 20.992-21.952 40.832-45.632 43.008-1.536 0.192-3.072 0.256-4.736 0.256zM640 12.032c-99.84 84.096-244.48 206.272-256.256 217.152-11.968 11.968-28.224 18.624-45.184 18.624h-146.56v392.192h146.624c16.384 0 32.768 6.848 44.608 18.112 11.648 11.072 156.288 137.6 256.768 225.28v-871.36zM802.624 336.192c-15.808-8-22.144-27.2-14.208-43.008 5.632-11.136 16.896-17.6 28.544-17.6 4.864 0 9.728 1.088 14.4 3.392 64.704 32.64 104.896 97.344 104.896 169.024s-40.192 136.384-104.896 169.024c-15.808 8-35.008 1.6-42.944-14.208-7.936-15.808-1.6-35.008 14.208-43.008 42.944-21.632 69.632-64.448 69.632-111.808s-26.688-90.176-69.632-111.808z" />
<glyph unicode="&#xe60e;" d="M63.892 185.179h146.633c11.564-11.501 277.995-235.762 277.995-235.762 16.037-9.712 29.646-12.523 41.274-11.437 23.64 2.236 40.252 22.043 45.3 42.936 0.256 2.045 0.256 933.848-0.064 935.893-4.984 20.957-21.659 40.763-45.236 42.999-11.628 1.086-25.237-1.725-41.274-11.437 0 0-266.43-232.44-277.995-243.94h-146.633c-35.268 0-63.892-28.624-63.892-63.892v-391.467c0-35.332 28.624-63.892 63.892-63.892zM673.488 337.243c-15.781-7.987-22.107-27.154-14.184-42.936 5.623-11.117 16.868-17.57 28.496-17.57 4.856 0 9.712 1.086 14.376 3.386 64.595 32.585 104.719 97.18 104.719 168.739s-40.124 136.154-104.719 168.739c-15.781 7.987-34.885 1.597-42.872-14.184-7.923-15.781-1.597-34.949 14.184-42.936 42.872-21.596 69.515-64.339 69.515-111.62s-26.643-90.024-69.515-111.62zM629.53 82.185c3.003-15.27 16.356-25.812 31.307-25.812 2.045 0 4.089 0.192 6.198 0.575 187.332 36.546 323.294 201.388 323.294 391.915s-135.963 355.368-323.358 391.915c-17.059 3.45-34.118-7.923-37.441-25.237-3.386-17.315 7.923-34.118 25.237-37.505 157.43-30.668 271.67-169.123 271.67-329.173s-114.239-298.504-271.67-329.173c-17.315-3.386-28.624-20.19-25.237-37.505z" horiz-adv-x="1022" />
<glyph unicode="&#xe60f;" d="M64 183.872h146.624c11.584-11.52 278.464-236.16 278.464-236.16 13.888-8.448 25.984-11.712 36.544-11.712 1.6 0 3.2 0.064 4.736 0.192 23.68 2.24 40.576 22.080 45.632 43.008v937.536c-4.992 20.992-21.952 40.832-45.632 43.072-1.536 0.128-3.072 0.192-4.736 0.192-10.56 0-22.656-3.264-36.544-11.648 0 0-266.88-232.832-278.464-244.352h-146.624c-35.328 0-64-28.672-64-64v-392.128c0-35.392 28.672-64 64-64zM64 256v384h146.624c16.384 0 32.768 6.848 44.608 18.112 11.648 11.072 156.288 137.6 256.768 225.28v-871.36c-99.84 84.096-244.48 206.272-256.256 217.152-11.968 11.968-28.224 18.624-45.184 18.624h-146.56v8.192zM674.624 336.192c-15.808-8-22.144-27.2-14.208-43.008 5.632-11.136 16.896-17.6 28.544-17.6 4.864 0 9.728 1.088 14.4 3.392 64.704 32.64 104.896 97.344 104.896 169.024s-40.192 136.384-104.896 169.024c-15.808 8-35.008 1.6-42.944-14.208-7.936-15.808-1.6-35.008 14.208-43.008 42.944-21.632 69.632-64.448 69.632-111.808s-26.688-90.176-69.632-111.808zM630.592 80.704c3.008-15.296 16.384-25.856 31.36-25.856 2.048 0 4.096 0.192 6.208 0.576 187.648 36.608 323.84 201.728 323.84 392.576s-136.192 355.968-323.904 392.576c-17.024 3.456-34.176-7.936-37.504-25.28-3.392-17.344 7.936-34.176 25.28-37.568 157.696-30.72 272.128-169.408 272.128-329.728s-114.432-299.008-272.128-329.728c-17.344-3.392-28.672-20.224-25.28-37.568z" />
<glyph unicode="&#xe610;" d="M63.892 185.179h146.633c11.564-11.501 277.995-235.762 277.995-235.762 16.037-9.712 29.646-12.523 41.274-11.437 23.64 2.236 40.252 22.043 45.3 42.936 0.256 2.045 0.256 933.848-0.064 935.893-4.984 20.957-21.659 40.763-45.236 42.999-11.628 1.086-25.237-1.725-41.274-11.437 0 0-266.43-232.44-277.995-243.94h-146.633c-35.268 0-63.892-28.624-63.892-63.892v-391.467c0-35.332 28.624-63.892 63.892-63.892zM1010.838 614.279c-15.206 15.206-39.933 15.206-55.139 0l-110.278-110.278-110.278 110.278c-15.206 15.206-39.933 15.206-55.139 0s-15.206-39.933 0-55.139l110.278-110.278-110.278-110.278c-15.206-15.206-15.206-39.933 0-55.139s39.933-15.206 55.139 0l110.278 110.278 110.278-110.278c15.206-15.206 39.933-15.206 55.139 0s15.206 39.933 0 55.139l-110.278 110.278 110.278 110.278c15.27 15.206 15.27 39.933 0 55.139z" horiz-adv-x="1026" />
<glyph unicode="&#xe611;" d="M64 183.872h146.624c11.584-11.52 278.464-236.16 278.464-236.16 13.888-8.448 25.984-11.712 36.544-11.712 1.6 0 3.2 0.064 4.736 0.192 23.68 2.24 40.576 22.080 45.632 43.008v937.536c-4.992 20.992-21.952 40.832-45.632 43.072-1.536 0.128-3.072 0.192-4.736 0.192-10.56 0-22.656-3.264-36.544-11.648 0 0-266.88-232.832-278.464-244.352h-146.624c-35.328 0-64-28.672-64-64v-392.128c0-35.392 28.672-64 64-64zM64 256v384h146.624c16.384 0 32.768 6.848 44.608 18.112 11.648 11.072 156.288 137.6 256.768 225.28v-871.36c-99.84 84.096-244.48 206.272-256.256 217.152-11.968 11.968-28.224 18.624-45.184 18.624h-146.56v8.192zM1012.544 613.696c-15.232 15.232-40 15.232-55.232 0l-110.464-110.464-110.464 110.464c-15.232 15.232-40 15.232-55.232 0s-15.232-40 0-55.232l110.464-110.464-110.464-110.464c-15.232-15.232-15.232-40 0-55.232s40-15.232 55.232 0l110.464 110.464 110.464-110.464c15.232-15.232 40-15.232 55.232 0s15.232 40 0 55.232l-110.464 110.464 110.464 110.464c15.296 15.232 15.296 40 0 55.232z" horiz-adv-x="1028" />
<glyph unicode="&#xe612;" d="M192 576h192v-384h256l-1.344 384h193.344l-320 320zM768 64h-512v128h-128v-256h768v256h-128z" />
<glyph unicode="&#xe613;" d="M352 448h512c17.664 0 32 14.336 32 32s-14.336 32-32 32h-512c-17.664 0-32-14.336-32-32s14.336-32 32-32zM352 704h512c17.664 0 32 14.336 32 32s-14.336 32-32 32h-512c-17.664 0-32-14.336-32-32s14.336-32 32-32zM352 192h512c17.664 0 32 14.336 32 32s-14.336 32-32 32h-512c-17.664 0-32-14.336-32-32s14.336-32 32-32zM128 736c0-17.673 14.327-32 32-32s32 14.327 32 32c0 17.673-14.327 32-32 32-17.673 0-32-14.327-32-32zM128 480c0-17.673 14.327-32 32-32s32 14.327 32 32c0 17.673-14.327 32-32 32-17.673 0-32-14.327-32-32zM128 224c0-17.673 14.327-32 32-32s32 14.327 32 32c0 17.673-14.327 32-32 32-17.673 0-32-14.327-32-32z" />
<glyph unicode="&#xe614;" d="M832 896h-128c0 35.328-28.672 64-64 64h-192c-35.328 0-64-28.672-64-64h-128c-35.328 0-64-28.672-64-64h704c0 35.328-28.672 64-64 64zM192 0c0-35.328 28.672-64 64-64h576c35.328 0 64 28.672 64 64v768h-704v-768zM704 608c0 17.664 14.336 32 32 32s32-14.336 32-32v-512c0-17.664-14.336-32-32-32s-32 14.336-32 32v512zM512 608c0 17.664 14.336 32 32 32s32-14.336 32-32v-512c0-17.664-14.336-32-32-32s-32 14.336-32 32v512zM320 608c0 17.664 14.336 32 32 32s32-14.336 32-32v-512c0-17.664-14.336-32-32-32s-32 14.336-32 32v512z" />
<glyph unicode="&#xe615;" d="M832 896h-128c0 35.328-28.672 64-64 64h-192c-35.328 0-64-28.672-64-64h-128c-35.328 0-64-28.672-64-64h704c0 35.328-28.672 64-64 64zM192 0c0-35.328 28.672-64 64-64h576c35.328 0 64 28.672 64 64v768h-704v-768zM256 704h576v-704h-576v704zM352 640c-17.664 0-32-14.336-32-32v-512c0-17.664 14.336-32 32-32s32 14.336 32 32v512c0 17.664-14.336 32-32 32zM544 640c-17.664 0-32-14.336-32-32v-512c0-17.664 14.336-32 32-32s32 14.336 32 32v512c0 17.664-14.336 32-32 32zM736 640c-17.664 0-32-14.336-32-32v-512c0-17.664 14.336-32 32-32s32 14.336 32 32v512c0 17.664-14.336 32-32 32z" />
<glyph unicode="&#xe616;" d="M27.111 99.687c-37.469-37.469-37.469-98.148 0-135.617 18.734-18.734 43.287-28.070 67.84-28.070 24.553 0 49.106 9.335 67.84 28.070l314.905 314.905-135.681 135.617-314.905-314.905zM814.149 683.331l137.024 70.91 71.869 138.814-66.945 66.945-138.814-71.869-70.91-137.024-167.011-167.011 67.776-67.776zM844.137 319.321c-4.348 0.256-8.504 1.279-12.916 1.279-23.402 0-45.589-4.796-66.306-12.468l-393.743 393.743c7.673 20.717 12.468 42.904 12.468 66.306 0 4.412-1.023 8.568-1.279 12.916-6.778 99.81-89.005 178.904-190.541 178.904-29.54 0-57.226-7.225-82.227-19.182l127.433-127.433c6.714-6.714 11.317-14.642 14.387-23.018 8.376-22.699 3.836-49.106-14.387-67.393-12.468-12.468-28.837-18.734-45.206-18.734-7.545 0-15.026 1.662-22.187 4.348-8.376 3.133-16.305 7.673-23.018 14.387l-127.433 127.433c-11.957-25.001-19.182-52.687-19.182-82.227 0-101.537 79.094-183.764 178.904-190.541 4.348-0.256 8.504-1.279 12.916-1.279 23.402 0 45.589 4.796 66.306 12.468l393.743-393.743c-7.673-20.717-12.468-42.904-12.468-66.306 0-4.412 1.023-8.568 1.279-12.916 6.778-99.81 89.005-178.904 190.541-178.904 29.54 0 57.226 7.225 82.227 19.182l-127.433 127.433c-6.714 6.714-11.317 14.642-14.387 23.018-8.376 22.699-3.836 49.106 14.387 67.393 12.468 12.468 28.837 18.734 45.206 18.734 7.545 0 15.026-1.662 22.187-4.348 8.376-3.133 16.305-7.673 23.018-14.387l127.433-127.433c11.957 25.001 19.182 52.687 19.182 82.227 0 101.537-79.094 183.764-178.904 190.541z" horiz-adv-x="1033" />
<glyph unicode="&#xe617;" d="M960 640h-256v64c0 35.328-28.672 64-64 64h-256c-35.328 0-64-28.672-64-64v-64h-256c-35.328 0-64-28.672-64-64v-128h1024v128c0 35.328-28.672 64-64 64zM384 704h256v-64h-256v64zM384 384h256v-64h-256zM704 320c0-35.328-28.672-64-64-64h-256c-35.328 0-64 28.672-64 64v64h-320v-384c0-35.328 28.672-64 64-64h896c35.328 0 64 28.672 64 64v384h-320v-64z" />
<glyph unicode="&#xe618;" d="M960 640h-256c0-35.328-28.672-64-64-64h320v-128h-320c35.328 0 64-28.672 64-64h256v-384h-896v384h256c0 35.328 28.672 64 64 64h-320v128h320c-35.328 0-64 28.672-64 64h-256c-35.328 0-64-28.672-64-64v-576c0-35.328 28.672-64 64-64h896c35.328 0 64 28.672 64 64v576c0 35.328-28.672 64-64 64zM384 576h256c35.328 0 64 28.672 64 64v64c0 35.328-28.672 64-64 64h-256c-35.328 0-64-28.672-64-64v-64c0-35.328 28.672-64 64-64zM384 704h256v-64h-256v64zM320 384v-64c0-35.328 28.672-64 64-64h256c35.328 0 64 28.672 64 64v64c0 35.328-28.672 64-64 64h-256c-35.328 0-64-28.672-64-64zM640 320h-256v64h256v-64z" />
<glyph unicode="&#xe619;" d="M832 192c7.552 0 15.040-1.664 22.208-4.352 8.384-3.136 16.32-7.68 23.040-14.4l127.552-127.552c11.968 25.024 19.2 52.736 19.2 82.304 0 101.632-79.168 183.936-179.072 190.72-4.352 0.256-8.512 1.28-12.928 1.28-23.424 0-45.632-4.8-66.368-12.48l-394.112 394.112c7.68 20.736 12.48 42.944 12.48 66.368 0 4.416-1.024 8.576-1.28 12.928-6.784 99.904-89.088 179.072-190.72 179.072-29.568 0-57.28-7.232-82.304-19.2l127.552-127.552c6.72-6.72 11.328-14.656 14.4-23.040 8.384-22.72 3.84-49.152-14.4-67.456-12.48-12.48-28.864-18.752-45.248-18.752-7.552 0-15.040 1.664-22.208 4.352-8.384 3.136-16.32 7.68-23.040 14.4l-127.552 127.552c-11.968-25.024-19.2-52.736-19.2-82.304 0-101.632 79.168-183.936 179.072-190.72 4.352-0.256 8.512-1.28 12.928-1.28 23.424 0 45.632 4.8 66.368 12.48l394.112-394.112c-7.68-20.736-12.48-42.944-12.48-66.368 0-4.416 1.024-8.576 1.28-12.928 6.784-99.904 89.088-179.072 190.72-179.072 29.568 0 57.28 7.232 82.304 19.2l-127.552 127.552c-6.72 6.72-11.328 14.656-14.4 23.040-8.384 22.72-3.84 49.152 14.4 67.456 12.48 12.48 28.864 18.752 45.248 18.752z" />
<glyph unicode="&#xe61a;" d="M512 960c-282.752 0-512-229.248-512-512s229.248-512 512-512 512 229.248 512 512-229.248 512-512 512zM512 0c-247.040 0-448 200.96-448 448s200.96 448 448 448 448-200.96 448-448-200.96-448-448-448zM512 768c-176.704 0-320-143.296-320-320s143.296-320 320-320 320 143.296 320 320-143.296 320-320 320zM512 256c-105.856 0-192 86.144-192 192s86.144 192 192 192 192-86.144 192-192c0-105.856-86.144-192-192-192zM448 448c0-35.346 28.654-64 64-64s64 28.654 64 64c0 35.346-28.654 64-64 64-35.346 0-64-28.654-64-64z" />
<glyph unicode="&#xe61b;" d="M929.449 960c-0.576 0-1.151 0-1.727 0-0.512 0-0.96 0.064-1.471 0h-338.22c-9.788-0.512-32.050-15.801-34.929-18.68l-407.182-407.118c-24.949-24.949-24.949-65.379 0-90.328l50.794-50.794-50.794-50.794c-24.949-24.949-24.949-65.379 0-90.328l297.214-297.214c12.475-12.475 28.787-18.68 45.164-18.68s32.69 6.205 45.164 18.68l407.118 407.182c2.943 2.879 19 22.582 19 34.865v531.416c0.896 17.848-12.602 31.794-30.131 31.794zM863.622 896.284c17.656 0 31.986-14.33 31.986-31.986s-14.33-31.986-31.986-31.986-31.986 14.33-31.986 31.986 14.33 31.986 31.986 31.986zM895.416 407.090l-406.99-407.182-297.214 297.086 50.794 50.794 201.192-201.192c12.475-12.475 28.787-18.68 45.164-18.68s32.69 6.205 45.164 18.68l362.082 362.146v-101.14c-0.192-0.32-0.32-0.512-0.192-0.512-0.064 0-0.064 0 0 0z" />
<glyph unicode="&#xe61c;" d="M930.211 960c-0.384 0-0.768 0-1.152 0-0.192 0-0.384 0-0.576 0-0.064 0-0.128 0-0.192 0-0.32 0-0.576 0-0.832 0-0.128 0-0.256 0-0.384 0h-338.305c-9.788-0.512-32.052-15.802-34.931-18.681l-407.207-407.143c-24.951-24.951-24.951-65.383 0-90.334l50.797-50.797-50.797-50.797c-24.951-24.951-24.951-65.383 0-90.334l297.233-297.233c12.475-12.475 28.789-18.681 45.167-18.681 16.314 0 32.692 6.206 45.167 18.681l407.143 407.207c2.943 2.879 18.297 22.584 18.297 34.867v531.449c0.896 17.849-11.9 31.796-29.429 31.796zM896.368 407.567c-0.192-0.32-0.32-0.512-0.256-0.512 0 0 0 0 0 0l-407.015-407.207-297.233 297.105 50.797 50.797 201.205-201.205c12.475-12.475 28.789-18.681 45.167-18.681 16.314 0 32.692 6.206 45.167 18.681l362.168 362.168v-101.146zM896.368 704.096v-104.601c-0.192-0.32-0.32-0.512-0.256-0.512v0c0 0 0 0 0 0l-407.015-407.207-297.233 297.105 404.456 404.392c1.216 0.896 2.687 1.855 4.158 2.751h295.889v-191.928zM768.416 800.316c0-17.666 14.322-31.988 31.988-31.988 17.666 0 31.988 14.322 31.988 31.988 0 17.666-14.322 31.988-31.988 31.988-17.666 0-31.988-14.322-31.988-31.988z" />
<glyph unicode="&#xe61d;" d="M929.856 895.68c-0.576 0-1.152 0-1.728 0-0.512 0-0.96 0.064-1.472 0h-402.368c-9.792-0.448-32.064-15.744-34.944-18.624l-470.656-470.656c-24.96-24.96-24.96-65.408 0-90.368l361.344-361.344c12.544-12.48 28.864-18.688 45.184-18.688s32.704 6.208 45.184 18.688l470.656 470.656c2.88 2.88 18.944 22.656 18.944 34.944v403.648c0.896 17.856-12.608 31.744-30.144 31.744zM864 768c-17.664 0-32 14.336-32 32s14.336 32 32 32 32-14.336 32-32c0-17.664-14.336-32-32-32z" />
<glyph unicode="&#xe61e;" d="M929.856 895.68c-0.576 0-1.152 0-1.728 0-0.512 0-0.96 0.064-1.472 0h-402.368c-9.792-0.448-32.064-15.744-34.944-18.624l-470.656-470.656c-24.96-24.96-24.96-65.408 0-90.368l361.344-361.344c12.544-12.48 28.864-18.688 45.184-18.688s32.704 6.208 45.184 18.688l470.656 470.656c2.88 2.88 18.944 22.656 18.944 34.944v403.648c0.896 17.856-12.608 31.744-30.144 31.744zM896 472.256c-0.96-1.472-1.92-3.008-2.816-4.224l-467.904-468.032-361.344 361.152 468.032 468.032c1.28 0.896 2.752 1.856 4.288 2.816h359.744v-359.744zM768 736c0-17.673 14.327-32 32-32s32 14.327 32 32c0 17.673-14.327 32-32 32-17.673 0-32-14.327-32-32z" />
<glyph unicode="&#xe61f;" d="M832-64c35.328 0 64 28.672 64 64v896c0 35.328-28.672 64-64 64h-640c-35.328 0-64-28.672-64-64v-896c0-35.328 28.672-64 64-64h640zM512-35.968c-19.904 0-35.968 16.128-35.968 35.968s16.064 35.968 35.968 35.968 35.968-16.064 35.968-35.968-16.064-35.968-35.968-35.968zM256 832h512v-768h-512v768z" />
<glyph unicode="&#xe620;" d="M1022.912 835.328c-2.816 32.96-29.44 60.672-62.912 60.672h-896c-33.472 0-60.096-27.712-62.912-60.672h-1.088v-835.328c0-35.328 28.672-64 64-64h896c35.328 0 64 28.672 64 64v835.328h-1.088zM384 512v192h256v-192h-256zM640 448v-197.312h-256v197.312h256zM320 704v-192h-256v192h256zM64 448h256v-197.312h-256v197.312zM64 0v192h256v-192h-256zM384 0v192h256v-192h-256zM960 0h-256v192h256v-192zM960 250.688h-256v197.312h256v-197.312zM960 512h-256v192h256v-192z" />
<glyph unicode="&#xe621;" d="M640 256c35.328 0 64 28.672 64 64v256c0 35.328-28.672 64-64 64h-256c-35.328 0-64-28.672-64-64v-256c0-35.328 28.672-64 64-64h256z" />
<glyph unicode="&#xe622;" d="M512 960c-282.752 0-512-229.248-512-512s229.248-512 512-512 512 229.248 512 512-229.248 512-512 512zM512 0c-247.040 0-448 200.96-448 448s200.96 448 448 448 448-200.96 448-448-200.96-448-448-448zM640 640h-256c-35.328 0-64-28.672-64-64v-256c0-35.328 28.672-64 64-64h256c35.328 0 64 28.672 64 64v256c0 35.328-28.672 64-64 64z" />
<glyph unicode="&#xe623;" d="M512 960c-282.752 0-512-229.248-512-512s229.248-512 512-512 512 229.248 512 512-229.248 512-512 512zM704 320c0-35.328-28.672-64-64-64h-256c-35.328 0-64 28.672-64 64v256c0 35.328 28.672 64 64 64h256c35.328 0 64-28.672 64-64v-256z" />
<glyph unicode="&#xe624;" d="M664.192 583.424l-156.8 317.696-156.8-317.696-350.592-50.944 253.696-247.296-59.904-349.184 313.6 164.864 313.6-164.864-59.904 349.184 253.696 247.296z" />
<glyph unicode="&#xe625;" d="M512 100.864v800.256l-156.8-317.696-350.592-50.944 253.696-247.296-59.904-349.184z" />
<glyph unicode="&#xe626;" d="M1020.288 545.728c-7.552 23.168-27.584 40.064-51.712 43.52l-275.84 40.064-123.328 249.984c-10.816 21.888-33.024 35.712-57.408 35.712s-46.592-13.824-57.408-35.712l-123.328-249.92-275.84-40.064c-24.128-3.52-44.16-20.416-51.648-43.584-7.552-23.168-1.28-48.576 16.192-65.6l199.616-194.56-47.104-274.752c-4.096-24 5.76-48.256 25.472-62.592 11.072-8.128 24.256-12.224 37.568-12.224 10.176 0 20.416 2.432 29.76 7.36l246.72 129.728 246.72-129.728c9.344-4.928 19.584-7.36 29.76-7.36 13.248 0 26.496 4.096 37.632 12.224 19.712 14.336 29.568 38.592 25.472 62.592l-47.104 274.752 199.616 194.56c17.472 17.024 23.744 42.432 16.192 65.6zM735.68 307.904l52.8-307.904-276.48 145.344v705.664l138.24-280.128 309.12-44.928-223.68-218.048z" horiz-adv-x="1032" />
<glyph unicode="&#xe627;" d="M1020.288 545.728c-7.552 23.168-27.584 40.064-51.648 43.584l-275.84 40.064-123.392 249.92c-10.816 21.888-33.024 35.712-57.408 35.712s-46.592-13.824-57.408-35.712l-123.328-249.92-275.84-40.064c-24.128-3.52-44.16-20.416-51.648-43.584-7.552-23.168-1.28-48.576 16.192-65.6l199.616-194.56-47.104-274.752c-4.096-24 5.76-48.256 25.472-62.592 11.072-8.128 24.256-12.224 37.568-12.224 10.176 0 20.416 2.432 29.76 7.36l246.72 129.728 246.72-129.728c9.344-4.928 19.584-7.36 29.76-7.36 13.248 0 26.496 4.096 37.632 12.224 19.712 14.336 29.568 38.592 25.472 62.592l-47.104 274.752 199.616 194.56c17.408 16.96 23.68 42.432 16.192 65.6zM735.68 307.904l52.8-307.904-276.48 145.344-276.48-145.344 52.8 307.904-223.68 218.048 309.12 44.928 138.24 280.128 138.24-280.128 309.12-44.928-223.68-218.048z" horiz-adv-x="1032" />
<glyph unicode="&#xe628;" d="M494.4-61.504c5.76-1.664 11.712-2.496 17.6-2.496s11.84 0.832 17.6 2.496c396.096 113.152 454.4 513.536 429.952 709.504-4.032 31.936-31.296 56-63.552 56-9.152 0.704-64 10.176-64 128 0 16.96-6.72 33.28-18.752 45.248-13.824 13.824-93.248 82.752-301.248 82.752s-287.424-68.928-301.248-82.752c-12.032-11.968-18.752-28.288-18.752-45.248 0-117.824-54.848-127.296-65.856-128.064-32.256 0-57.664-24-61.696-56-24.448-195.904 33.92-596.288 429.952-709.44zM128 640c0 0 128 0 128 192 0 0 64 64 256 64s256-64 256-64c0-192 128-192 128-192s64-512-384-640c-448 128-384 640-384 640zM512 320c35.328 0 64 28.672 64 64v320c0 35.328-28.672 64-64 64s-64-28.672-64-64v-320c0-35.328 28.672-64 64-64zM448 192c0-35.346 28.654-64 64-64s64 28.654 64 64c0 35.346-28.654 64-64 64-35.346 0-64-28.654-64-64z" />
<glyph unicode="&#xe629;" d="M494.4-61.504c5.76-1.664 11.712-2.496 17.6-2.496s11.84 0.832 17.6 2.496c396.096 113.152 454.4 513.536 429.952 709.504-4.032 31.936-31.296 56-63.552 56-9.152 0.704-64 10.176-64 128 0 16.96-6.72 33.28-18.752 45.248-13.824 13.824-93.248 82.752-301.248 82.752s-287.424-68.928-301.248-82.752c-12.032-11.968-18.752-28.288-18.752-45.248 0-117.824-54.848-127.296-65.856-128.064-32.256 0-57.664-24-61.696-56-24.448-195.904 33.92-596.288 429.952-709.44zM128 640c0 0 128 0 128 192 0 0 64 64 256 64v-448h376.896c-25.216-159.424-109.824-371.712-376.896-448v448h-376.896c-17.024 108.032-7.104 192-7.104 192z" />
<glyph unicode="&#xe62a;" d="M603.324 960c-227.993 0-412.801-184.808-412.801-412.801 0-98.12 34.421-188.174 91.578-259.048l-272.83-272.83c-17.147-17.147-17.147-45.027 0-62.174s45.027-17.147 62.174 0l272.83 272.83c70.875-57.157 160.929-91.578 259.048-91.578 227.993 0 412.801 184.808 412.801 412.801s-184.808 412.801-412.801 412.801zM603.324 197.906c-192.619 0-349.293 156.674-349.293 349.293s156.674 349.293 349.293 349.293 349.293-156.674 349.293-349.293-156.674-349.293-349.293-349.293z" />
<glyph unicode="&#xe62b;" d="M64 0h576c35.328 0 64 28.672 64 64v86.4c13.632 6.528 26.368 14.336 38.336 23.36l196.416-196.416c6.272-6.272 14.464-9.344 22.656-9.344s16.384 3.136 22.656 9.344c12.48 12.48 12.48 32.768 0 45.248l-196.544 196.544c27.584 37.248 44.48 82.944 44.48 132.864 0 89.216-52.544 165.568-128 201.6v342.4c0 35.328-28.672 64-64 64h-576c-35.328 0-64-28.672-64-64v-832c0-35.328 28.672-64 64-64zM608 192c-88.192 0-160 71.808-160 160s71.808 160 160 160 160-71.808 160-160-71.808-160-160-160zM64 896h576v-320h-470.848c-22.72 0-41.152-14.336-41.152-32s18.432-32 41.152-32h282.432c-34.368-33.536-57.152-78.208-64.384-128h-227.2c-17.664 0-32-14.336-32-32s14.336-32 32-32h227.2c15.68-108.416 108.032-192 220.8-192 10.944 0 21.44 1.728 32 3.2v-67.2h-576v832zM160 704h384c17.664 0 32 14.336 32 32s-14.336 32-32 32h-384c-17.664 0-32-14.336-32-32s14.336-32 32-32z" />
<glyph unicode="&#xe62c;" d="M64 0h576c35.328 0 64 28.672 64 64v86.4c13.632 6.528 26.368 14.336 38.336 23.36l196.416-196.416c6.272-6.272 14.464-9.344 22.656-9.344s16.384 3.136 22.656 9.344c12.48 12.48 12.48 32.768 0 45.248l-196.544 196.544c27.584 37.248 44.48 82.944 44.48 132.864 0 89.216-52.544 165.568-128 201.6v342.4c0 35.328-28.672 64-64 64h-576c-35.328 0-64-28.672-64-64v-832c0-35.328 28.672-64 64-64zM608 192c-88.192 0-160 71.808-160 160s71.808 160 160 160 160-71.808 160-160-71.808-160-160-160zM544 704h-384c-17.664 0-32 14.336-32 32s14.336 32 32 32h384c17.664 0 32-14.336 32-32s-14.336-32-32-32zM160 576h384c6.208 0 11.648-2.24 16.512-5.248-41.856-9.088-79.36-29.824-108.928-58.752h-291.584c-17.664 0-32 14.336-32 32s14.336 32 32 32zM160 384h227.2c-1.472-10.56-3.2-21.056-3.2-32s1.728-21.44 3.2-32h-227.2c-17.664 0-32 14.336-32 32s14.336 32 32 32z" />
<glyph unicode="&#xe62d;" d="M640 512h-256v-320c0-64-128-156.672-128-192v-32c0-17.664 14.336-32 32-32h448c17.664 0 32 14.336 32 32v32c0 35.328-128 128-128 192v320zM741.312 894.912v1.088h-64v-1.088c-1.792 0.32-3.392 1.088-5.312 1.088-17.664 0-32-14.336-32-32v-32h-64v32c0 15.808-11.648 28.288-26.688 30.912v1.088h-64v-1.088c-1.792 0.32-3.392 1.088-5.312 1.088-17.664 0-32-14.336-32-32v-32h-64v32c0 15.808-11.648 28.288-26.688 30.912v1.088h-64v-1.088c-1.792 0.32-3.392 1.088-5.312 1.088-17.664 0-32-14.336-32-32v-160c0-16.96 6.72-33.28 18.752-45.248l64-64c12.032-12.032 28.288-18.752 45.248-18.752h256c16.96 0 33.28 6.72 45.248 18.752l64 64c12.032 11.968 18.752 28.288 18.752 45.248v160c0 15.808-11.648 28.288-26.688 30.912z" />
<glyph unicode="&#xe62e;" d="M128 768v-768c0-25.856 15.616-49.216 39.488-59.136 7.936-3.264 16.256-4.864 24.512-4.864 16.64 0 33.024 6.528 45.248 18.752l274.752 274.752 274.752-274.752c12.224-12.224 28.608-18.752 45.248-18.752 8.256 0 16.576 1.6 24.448 4.864 23.936 9.92 39.552 33.28 39.552 59.136v768h-768zM896 832v64c0 35.328-28.672 64-64 64h-640c-35.328 0-64-28.672-64-64v-64h768z" />
<glyph unicode="&#xe62f;" d="M167.488-59.136c7.936-3.264 16.256-4.864 24.512-4.864 16.64 0 33.024 6.528 45.248 18.752l274.752 274.752 274.752-274.752c12.224-12.224 28.608-18.752 45.248-18.752 8.256 0 16.576 1.6 24.448 4.864 23.936 9.92 39.552 33.28 39.552 59.136v896c0 35.328-28.672 64-64 64h-640c-35.328 0-64-28.672-64-64v-896c0-25.856 15.616-49.216 39.488-59.136zM512 320l-320-320v704h640v-704l-320 320zM832 896v-128h-640v128h640z" />
<glyph unicode="&#xe630;" d="M959.168 960c-35.84 0-64.832-29.056-64.832-64.832v-151.168c-73.088 88.512-157.312 216-389.12 216-278.528 0-505.216-226.624-505.216-505.216 0-278.592 226.688-505.216 505.216-505.216 218.752 0 411.648 139.712 480.128 347.648 11.328 34.624-7.488 71.936-42.112 83.328-34.624 11.392-71.936-7.424-83.328-42.048-50.56-153.664-193.088-256.896-354.688-256.896-205.824 0-373.248 167.424-373.248 373.248s167.424 372.48 373.248 372.48c145.728 0 226.688-90.688 292.736-185.792h-163.008c-35.84 0-64.832-29.056-64.832-64.832 0-35.84 29.056-64.832 64.832-64.832h324.224c35.776-0.128 64.832 28.928 64.832 64.704v318.592c0 35.776-29.056 64.832-64.832 64.832z" />
<glyph unicode="&#xe631;" d="M255.936 540.224c0-54.080 42.24-97.92 94.272-97.92 16.704 0 32.128 4.864 45.76 12.8-4.672-52.352-31.040-128.704-127.68-206.528-13.504-10.944-16-31.168-5.504-45.184 6.144-8.192 15.296-12.48 24.512-12.48 6.656 0 13.312 2.176 19.008 6.784 118.592 95.68 148.224 193.984 152.192 259.648 6.784 83.968-18.688 128.128-41.984 151.168-2.112 2.24-4.096 4.672-6.464 6.656-5.568 4.736-10.56 8.064-14.912 10.56-0.192 0.128-0.32 0.32-0.512 0.384-0.32 0.192-0.64 0.256-0.96 0.384-6.336 3.52-10.88 5.184-10.88 5.184l0.32-0.768c-10.304 4.224-21.12 7.232-32.896 7.232-52.096 0-94.272-43.84-94.272-97.92zM566.208 540.224c0-54.080 42.176-97.92 94.272-97.92 16.704 0 32.128 4.864 45.76 12.8-4.672-52.352-31.040-128.704-127.68-206.528-13.568-10.944-16-31.168-5.504-45.184 6.144-8.192 15.296-12.48 24.512-12.48 6.656 0 13.312 2.176 19.008 6.784 118.592 95.68 148.224 193.984 152.192 259.648 6.784 83.968-18.752 128.128-41.984 151.168-2.176 2.24-4.16 4.672-6.528 6.656-5.568 4.736-10.56 8.064-14.912 10.56-0.192 0.128-0.32 0.256-0.512 0.384-0.32 0.192-0.64 0.256-0.96 0.384-6.336 3.456-10.88 5.184-10.88 5.184l0.32-0.768c-10.304 4.224-21.184 7.232-32.896 7.232-52.032 0-94.208-43.84-94.208-97.92z" />
<glyph unicode="&#xe632;" d="M512 960c-282.752 0-512-229.248-512-512s229.248-512 512-512 512 229.248 512 512-229.248 512-512 512zM512 0c-247.040 0-448 200.96-448 448s200.96 448 448 448 448-200.96 448-448-200.96-448-448-448zM410.048 615.168c-5.568 4.736-10.56 8.064-14.912 10.56-0.192 0.128-0.32 0.32-0.512 0.384-0.32 0.192-0.64 0.256-0.96 0.384-6.336 3.52-10.88 5.184-10.88 5.184l0.32-0.768c-10.304 4.224-21.12 7.232-32.896 7.232-52.096 0-94.272-43.84-94.272-97.92 0-54.080 42.24-97.92 94.272-97.92 16.704 0 32.128 4.864 45.76 12.8-4.672-52.352-31.040-128.704-127.68-206.528-13.504-10.944-16-31.168-5.504-45.184 6.144-8.192 15.296-12.48 24.512-12.48 6.656 0 13.312 2.176 19.008 6.784 118.592 95.68 148.224 193.984 152.192 259.648 6.784 83.968-18.688 128.128-41.984 151.168-2.112 2.24-4.096 4.672-6.464 6.656zM720.32 615.168c-5.568 4.736-10.56 8.064-14.912 10.56-0.192 0.128-0.32 0.256-0.512 0.384-0.32 0.192-0.64 0.256-0.96 0.384-6.336 3.456-10.88 5.184-10.88 5.184l0.32-0.768c-10.304 4.224-21.184 7.232-32.896 7.232-52.096 0-94.272-43.84-94.272-97.92 0-54.080 42.176-97.92 94.272-97.92 16.704 0 32.128 4.864 45.76 12.8-4.672-52.352-31.040-128.704-127.68-206.528-13.568-10.944-16-31.168-5.504-45.184 6.144-8.192 15.296-12.48 24.512-12.48 6.656 0 13.312 2.176 19.008 6.784 118.592 95.68 148.224 193.984 152.192 259.648 6.784 83.968-18.752 128.128-41.984 151.168-2.112 2.24-4.096 4.672-6.464 6.656z" />
<glyph unicode="&#xe633;" d="M512 960c-282.752 0-512-229.248-512-512s229.248-512 512-512 512 229.248 512 512-229.248 512-512 512zM768.832 457.344c-3.968-65.664-33.6-163.968-152.192-259.648-5.696-4.544-12.352-6.784-19.008-6.784-9.28 0-18.432 4.288-24.512 12.48-10.496 14.080-8.064 34.304 5.504 45.184 96.576 77.888 123.008 154.176 127.68 206.528-13.632-7.936-29.056-12.8-45.76-12.8-52.096 0-94.272 43.84-94.272 97.92 0 54.080 42.176 97.92 94.272 97.92 11.776 0 22.592-3.072 32.896-7.232l-0.384 0.768c0 0 4.544-1.664 10.88-5.184 0.32-0.192 0.64-0.256 0.96-0.384 0.192-0.128 0.32-0.256 0.512-0.384 4.352-2.496 9.344-5.824 14.912-10.56 2.368-2.048 4.352-4.416 6.528-6.656 23.232-23.104 48.704-67.2 41.984-151.168zM350.208 442.304c-52.096 0-94.272 43.84-94.272 97.92s42.24 97.92 94.272 97.92c11.776 0 22.592-3.072 32.896-7.232l-0.32 0.768c0 0 4.544-1.664 10.88-5.184 0.32-0.192 0.64-0.256 0.96-0.384 0.192-0.128 0.32-0.256 0.512-0.384 4.352-2.496 9.344-5.824 14.912-10.56 2.368-2.048 4.352-4.416 6.528-6.656 23.232-23.104 48.768-67.2 41.984-151.232-3.968-65.664-33.6-163.968-152.192-259.648-5.696-4.544-12.352-6.784-19.008-6.784-9.28 0-18.432 4.288-24.512 12.48-10.496 14.080-8.064 34.304 5.504 45.184 96.576 77.888 123.008 154.176 127.68 206.528-13.696-7.808-29.12-12.736-45.824-12.736z" />
<glyph unicode="&#xe634;" d="M440.768 127.104c0 0 0 0 0 0 0-36.407 29.513-65.92 65.92-65.92 36.407 0 65.92 29.513 65.92 65.92 0 0 0 0 0 0 0 36.407-29.513 65.92-65.92 65.92-36.407 0-65.92-29.513-65.92-65.92zM622.848 375.936c92.736 51.072 139.84 125.12 139.84 220.032 0 163.008-128.576 236.032-256 236.032-124.096 0-256-90.176-256-257.344 0-35.328 28.608-64 64-64s64 28.672 64 64c0 88.896 66.368 129.344 128 129.344 47.808 0 128-14.016 128-108.032 0-33.344-8.768-72.256-73.536-107.968-44.032-24.128-118.464-86.784-118.464-168 0-35.328 28.608-64 64-64s64 28.672 64 64c0 11.904 25.28 41.152 52.16 55.936z" />
<glyph unicode="&#xe635;" d="M512 960c-282.752 0-512-229.248-512-512s229.248-512 512-512 512 229.248 512 512-229.248 512-512 512zM512 0c-247.040 0-448 200.96-448 448s200.96 448 448 448 448-200.96 448-448-200.96-448-448-448zM440.768 127.104c0 0 0 0 0 0 0-36.407 29.513-65.92 65.92-65.92 36.407 0 65.92 29.513 65.92 65.92 0 0 0 0 0 0 0 36.407-29.513 65.92-65.92 65.92-36.407 0-65.92-29.513-65.92-65.92zM506.688 832c-124.096 0-256-90.176-256-257.344 0-35.328 28.608-64 64-64s64 28.672 64 64c0 88.896 66.368 129.344 128 129.344 47.808 0 128-14.016 128-108.032 0-33.344-8.768-72.256-73.536-107.968-44.032-24.128-118.464-86.784-118.464-168 0-35.328 28.608-64 64-64s64 28.672 64 64c0 11.904 25.344 41.152 52.16 55.936 92.736 51.072 139.84 125.12 139.84 220.032 0 163.072-128.576 236.032-256 236.032z" />
<glyph unicode="&#xe636;" d="M512-64c282.752 0 512 229.248 512 512s-229.248 512-512 512-512-229.248-512-512 229.248-512 512-512zM512 832c127.424 0 256-72.96 256-236.032 0-94.912-47.040-169.024-139.776-220.032-26.88-14.784-52.224-44.032-52.224-55.936 0-35.328-28.672-64-64-64s-64 28.672-64 64c0 81.216 74.496 143.872 118.528 168.064 64.704 35.712 73.472 74.624 73.472 107.904 0 94.016-80.192 108.032-128 108.032-61.632 0-128-40.448-128-129.344 0-35.328-28.672-64-64-64s-64 28.672-64 64c0 167.168 131.904 257.344 256 257.344zM512 61.184c-36.416 0-65.92 29.504-65.92 65.92s29.504 65.92 65.92 65.92 65.92-29.504 65.92-65.92-29.504-65.92-65.92-65.92z" />
<glyph unicode="&#xe637;" d="M359.936 209.792c-28.8 0-55.616 11.264-75.52 31.68-54.784 56.448-122.688 31.808-138.752-42.944-25.92-120.96-23.424-198.464 7.68-236.992 17.856-22.144 38.848-23.808 44.8-23.808l667.84-1.728c86.912 0 157.696 68.096 157.696 151.808v419.2l0.192 20.032c0.576 51.52 1.216 104.768-26.176 132.416-18.112 18.368-44.224 22.272-73.792 9.664-54.656-23.36-113.92-26.496-190.912-11.392-19.264 3.84-26.88 10.112-26.624 9.28 0 0.064 1.28 5.696 12.864 15.936 34.432 30.528 54.208 73.408 54.208 117.888-0.064 87.808-74.24 159.168-165.44 159.168-91.136 0-165.312-71.36-165.312-159.104 0-43.648 19.968-84.608 59.328-121.92 1.856-1.856 5.632-5.44 8.576-8.768-6.4-3.136-19.136-7.744-43.456-11.84-63.616-10.688-126.272 4.416-174.208 15.744-53.504 12.608-87.552 16.768-107.328-3.328-22.144-22.4-70.208-90.944-39.744-244.928 4.608-23.552 18.816-95.232 73.28-95.232 26.944 0 47.104 19.52 59.584 31.488 79.232 76.224 182.592 21.696 182.592-57.216-0.064-52.416-45.504-95.104-101.376-95.104zM359.936 464.064c-44.8 0-87.040-18.752-127.232-57.344-2.176-2.176-7.040-6.784-10.944-9.728-3.136 5.376-8.32 17.152-13.12 41.28-23.040 116.48 6.272 167.68 18.816 183.36 10.816-0.32 30.208-4.928 50.816-9.792 39.744-9.344 89.216-20.992 143.872-20.992 19.2 0 37.952 1.472 55.616 4.416 36.608 6.144 86.656 18.752 98.24 56.704 10.624 34.944-17.856 61.952-30.144 73.536-26.368 25.024-39.168 49.6-39.168 75.392 0 52.416 45.44 95.104 101.312 95.104s101.376-42.688 101.376-95.104c0-26.496-11.584-51.328-32.576-69.888-35.968-31.744-37.504-60.48-32.448-78.976 7.616-28.16 35.456-48.96 76.16-56.96 89.6-17.536 162.176-12.992 228.48 15.232 2.048 0.96 3.648 1.408 4.48 1.856 7.104-14.336 6.592-61.12 6.336-84.352l-0.192-440c0-48.384-41.984-87.808-93.632-87.808l-661.76 0.576c-0.32 0.256-30.080 26.368 3.968 184.512 3.52 16.576 10.048 23.936 11.712 24.704 0 0 6.4-0.32 18.56-12.864 32-32.96 75.136-51.072 121.344-51.072 91.136 0 165.312 71.36 165.312 159.104s-74.048 159.104-165.184 159.104z" />
<glyph unicode="&#xe638;" d="M379.344 159.786c-39.608 0-75.128 17.185-100.107 44.144-44.144 47.594-76.342 17.632-85.988-29.195-48.871-238.735 21.721-236.883 21.721-236.883l679.089-1.853c70.592 0 127.768 57.176 127.768 127.768v447.189c0 70.592 8.177 170.507-56.218 141.567-48.744-21.848-112.82-34.945-213.246-14.246-46.827 9.647-76.789 41.844-29.195 85.988 26.959 24.979 44.144 60.434 44.144 100.107-0.064 74.936-60.754 135.626-135.626 135.626-74.936 0-135.626-60.69-135.626-135.626 0-42.419 22.104-77.428 50.021-105.217 16.802-16.738 61.137-60.498-52.321-80.494-124.766-21.912-244.421 48.616-268.505 22.998-15.971-16.929-59.923-80.814-31.687-230.622 21.465-114.033 63.884-66.823 80.558-50.021 27.79 27.917 62.798 50.021 105.217 50.021 74.872 0 135.626-60.69 135.626-135.626 0-74.872-60.69-135.626-135.626-135.626z" horiz-adv-x="1022" />
<glyph unicode="&#xe639;" d="M249.543 351.302c0-47.85 120.405-73.241 249.605-76.797 0-0.25-0.062-0.499-0.062-0.749v-187.157c0-34.437 13.974-124.772 31.193-124.772s31.193 90.335 31.193 124.772v187.157c0 0.25-0.062 0.499-0.062 0.749 129.201 3.556 249.605 28.947 249.605 76.797 0 50.782-45.978 87.839-124.772 107.803v323.096c78.793 26.701 124.772 69.685 124.772 100.254 0 103.373-561.472 103.373-561.472 0 0-33.626 45.978-75.674 124.772-101.377v-321.973c-78.793-20.026-124.772-57.021-124.772-107.803z" horiz-adv-x="998" />
<glyph unicode="&#xe63a;" d="M278.080 391.296c-13.632-15.488-18.944-36.608-14.336-56.704s18.688-36.736 37.696-44.672c45.44-19.008 122.688-31.040 210.624-33.472 0-0.128-0.064-0.256-0.064-0.448v-192c0-35.328 14.336-128 32-128s32 92.672 32 128v192c0 0.192-0.064 0.32-0.064 0.512 87.936 2.368 165.184 14.464 210.624 33.472 19.008 7.936 33.088 24.576 37.696 44.672 4.608 20.096-0.704 41.216-14.336 56.64-26.24 29.76-72.064 46.208-105.92 54.784v331.52c33.472 11.328 61.888 25.536 84.352 42.112 19.2 14.144 28.928 37.888 25.216 61.44s-20.224 43.136-42.88 50.752c-31.232 10.496-102.272 28.096-226.688 28.096-131.52 0-204.16-20.288-229.312-28.992-22.336-7.744-38.592-27.2-42.24-50.56-3.648-23.296 5.888-46.784 24.768-61.056 22.784-17.088 51.904-31.552 86.72-42.944h0.064v-330.368c-33.792-8.512-79.68-24.96-105.92-54.784zM403.904 837.248c-33.408 10.944-55.104 23.424-68.224 33.344 34.048 11.776 102.976 25.408 208.32 25.408 103.296 0 171.712-13.12 206.4-24.768-13.568-9.984-35.072-22.208-66.944-33.024l-43.456-14.72v-427.2l48.256-12.224c35.392-8.96 62.144-22.016 73.6-35.072-29.632-12.352-101.632-28.992-217.856-28.992s-188.224 16.64-217.856 28.992c11.52 13.056 38.272 26.112 73.6 35.072l48.256 12.224v426.56l-44.096 14.4z" />
<glyph unicode="&#xe63b;" d="M667.259 778.020c0 97.42-84.56 181.98-181.98 181.98s-181.98-84.56-181.98-181.98c0-97.42 84.56-181.98 181.98-181.98s181.98 84.56 181.98 181.98zM485.279 535.381c-159.414 0-303.3-171.971-303.3-385.676s606.599-213.705 606.599 0-143.885 385.676-303.3 385.676z" horiz-adv-x="971" />
<glyph unicode="&#xe63c;" d="M960 640h-64v256c0 35.328-28.672 64-64 64h-640c-35.328 0-64-28.672-64-64v-256h-64c-35.328 0-64-28.672-64-64v-320c0-35.328 28.672-64 64-64h64v-192c0-35.328 28.672-64 64-64h640c35.328 0 64 28.672 64 64v192h64c35.328 0 64 28.672 64 64v320c0 35.328-28.672 64-64 64zM192 320h640v-320h-640v320zM832 384h-640c-35.328 0-64-28.672-64-64v-64h-64v320h896v-320h-64v64c0 35.328-28.672 64-64 64zM192 896h640v-256h-640v256zM704 480c0-17.673 14.327-32 32-32s32 14.327 32 32c0 17.673-14.327 32-32 32-17.673 0-32-14.327-32-32zM128 480c0-17.673 14.327-32 32-32s32 14.327 32 32c0 17.673-14.327 32-32 32-17.673 0-32-14.327-32-32zM832 480c0-17.673 14.327-32 32-32s32 14.327 32 32c0 17.673-14.327 32-32 32-17.673 0-32-14.327-32-32zM768 224c0 17.664-14.336 32-32 32h-448c-17.664 0-32-14.336-32-32s14.336-32 32-32h448c17.664 0 32 14.336 32 32zM736 128h-448c-17.664 0-32-14.336-32-32s14.336-32 32-32h448c17.664 0 32 14.336 32 32s-14.336 32-32 32z" />
<glyph unicode="&#xe63d;" d="M960 640h-64v256c0 35.328-28.672 64-64 64h-640c-35.328 0-64-28.672-64-64v-256h-64c-35.328 0-64-28.672-64-64v-320c0-35.328 28.672-64 64-64h64v-192c0-35.328 28.672-64 64-64h640c35.328 0 64 28.672 64 64v192h64c35.328 0 64 28.672 64 64v320c0 35.328-28.672 64-64 64zM192 320h640v-320h-640v320zM704 480c0 17.664 14.336 32 32 32s32-14.336 32-32c0-17.664-14.336-32-32-32s-32 14.336-32 32zM160 448c-17.664 0-32 14.336-32 32s14.336 32 32 32 32-14.336 32-32c0-17.664-14.336-32-32-32zM864 448c-17.664 0-32 14.336-32 32s14.336 32 32 32 32-14.336 32-32c0-17.664-14.336-32-32-32zM192 896h640v-256h-640v256zM768 224c0 17.664-14.336 32-32 32h-448c-17.664 0-32-14.336-32-32s14.336-32 32-32h448c17.664 0 32 14.336 32 32zM736 128h-448c-17.664 0-32-14.336-32-32s14.336-32 32-32h448c17.664 0 32 14.336 32 32s-14.336 32-32 32z" />
<glyph unicode="&#xe63e;" d="M288 384h224v-224c0-17.664 14.336-32 32-32s32 14.336 32 32v224h224c17.664 0 32 14.336 32 32s-14.336 32-32 32h-224v224c0 17.664-14.336 32-32 32s-32-14.336-32-32v-224h-224c-17.664 0-32-14.336-32-32s14.336-32 32-32z" />
<glyph unicode="&#xe63f;" d="M256 640v-448c0-35.328 28.672-64 64-64h448c35.328 0 64 28.672 64 64v448c0 35.328-28.672 64-64 64h-448c-35.328 0-64-28.672-64-64zM768 192h-448v448h448v-448zM416 384h96v-96c0-17.664 14.336-32 32-32s32 14.336 32 32v96h96c17.664 0 32 14.336 32 32s-14.336 32-32 32h-96v96c0 17.664-14.336 32-32 32s-32-14.336-32-32v-96h-96c-17.664 0-32-14.336-32-32s14.336-32 32-32z" />
<glyph unicode="&#xe640;" d="M544 896c-265.088 0-480-214.912-480-480s214.912-480 480-480 480 214.912 480 480-214.912 480-480 480zM544 0c-229.376 0-416 186.624-416 416s186.624 416 416 416 416-186.624 416-416-186.624-416-416-416zM800 448h-224v224c0 17.664-14.336 32-32 32s-32-14.336-32-32v-224h-224c-17.664 0-32-14.336-32-32s14.336-32 32-32h224v-224c0-17.664 14.336-32 32-32s32 14.336 32 32v224h224c17.664 0 32 14.336 32 32s-14.336 32-32 32z" />
<glyph unicode="&#xe641;" d="M544 896c-265.088 0-480-214.912-480-480s214.912-480 480-480 480 214.912 480 480-214.912 480-480 480zM800 384h-224v-224c0-17.664-14.336-32-32-32s-32 14.336-32 32v224h-224c-17.664 0-32 14.336-32 32s14.336 32 32 32h224v224c0 17.664 14.336 32 32 32s32-14.336 32-32v-224h224c17.664 0 32-14.336 32-32s-14.336-32-32-32z" />
<glyph unicode="&#xe642;" d="M488.704-46.656c5.376-5.952 10.56-9.792 15.552-12.48 0.064-0.064 0.192-0.064 0.256-0.128 3.456-1.792 6.848-3.136 10.048-3.136 3.2 0 6.592 1.344 10.048 3.136 0.064 0.064 0.192 0.064 0.256 0.128 4.992 2.688 10.176 6.528 15.552 12.48 0 0 297.472 323.52 327.36 603.84 1.792 14.464 3.008 29.12 3.008 44.032 0 198.144-160.64 358.784-358.784 358.784s-358.784-160.64-358.784-358.784c0-15.168 1.216-29.952 3.072-44.608 30.656-280.192 332.416-603.264 332.416-603.264zM512 832c127.232 0 230.784-103.552 230.784-230.784s-103.552-230.784-230.784-230.784-230.784 103.552-230.784 230.784c0 127.232 103.552 230.784 230.784 230.784z" />
<glyph unicode="&#xe643;" d="M486.784 434.432c91.968 0 166.784 74.816 166.784 166.784s-74.816 166.784-166.784 166.784-166.784-74.816-166.784-166.784c0-91.968 74.816-166.784 166.784-166.784zM486.784 704c56.64 0 102.784-46.080 102.784-102.784s-46.080-102.784-102.784-102.784-102.784 46.144-102.784 102.784 46.080 102.784 102.784 102.784zM463.488-46.656c5.376-5.952 10.56-9.792 15.552-12.48 0.064-0.064 0.192-0.064 0.256-0.128 3.456-1.792 6.848-3.136 10.048-3.136 3.2 0 6.592 1.344 10.048 3.136 0.064 0.064 0.192 0.064 0.256 0.128 4.992 2.688 10.176 6.528 15.552 12.48 0 0 297.472 323.52 327.36 603.84 1.792 14.464 3.008 29.12 3.008 44.032 0 198.144-160.64 358.784-358.784 358.784s-358.784-160.64-358.784-358.784c0-15.168 1.216-29.952 3.072-44.608 30.656-280.192 332.416-603.264 332.416-603.264zM486.784 896c162.56 0 294.784-132.224 294.784-294.784 0-10.816-0.768-22.336-2.624-37.248-22.912-214.784-224.576-466.816-289.536-543.488-66.624 76.8-271.168 328.192-294.848 544-1.728 14.144-2.56 25.792-2.56 36.736 0 162.56 132.224 294.784 294.784 294.784z" />
<glyph unicode="&#xe644;" d="M512-64c165.056 0 311.488 78.464 405.12 199.744l-405.12 312.256v512c-282.752 0-512-229.248-512-512s229.248-512 512-512zM448 891.456v-443.456c0-19.84 9.216-38.592 24.896-50.688l350.848-270.464c-83.136-81.28-193.792-126.848-311.744-126.848-247.040 0-448 200.96-448 448 0 225.28 167.168 412.288 384 443.456zM600 951.424v-457.92l365.568-281.792c37.12 70.72 58.432 150.912 58.432 236.288 0 252.672-183.296 461.632-424 503.424z" />
<glyph unicode="&#xe645;" d="M422.912 701.952c-12.224 140.608-158.912 209.6-165.12 212.416-5.824 2.752-12.352 3.584-18.624 2.496-169.344-28.096-194.816-126.656-195.84-130.752-1.408-5.76-1.152-11.712 0.64-17.28 201.984-626.688 621.76-742.848 759.744-781.056 10.624-2.944 19.392-5.312 26.048-7.488 3.2-1.088 6.528-1.536 9.856-1.536 4.544 0 9.088 0.96 13.248 2.88 4.224 1.92 103.936 48.896 128.32 202.112 1.088 6.656 0 13.568-3.072 19.584-2.176 4.224-54.336 103.488-198.976 138.56-10.112 2.624-20.48-0.064-28.288-6.72-45.632-38.976-108.672-80.512-135.872-84.8-182.336 89.152-284.16 260.224-288 292.672-2.24 18.24 39.552 82.304 87.616 134.4 6.080 6.592 9.152 15.552 8.32 24.512z" />
<glyph unicode="&#xe646;" d="M512 960c-282.752 0-512-229.248-512-512s229.248-512 512-512 512 229.248 512 512-229.248 512-512 512zM512 0c-247.040 0-448 200.96-448 448s200.96 448 448 448 448-200.96 448-448-200.96-448-448-448zM451.968 609.984c0 54.144-43.904 97.984-97.984 97.984s-97.984-43.84-97.984-97.984 43.904-97.984 97.984-97.984 97.984 43.904 97.984 97.984zM320 609.984c0 18.752 15.232 33.984 33.984 33.984s33.984-15.232 33.984-33.984-15.232-33.984-33.984-33.984-33.984 15.232-33.984 33.984zM670.016 387.968c-54.144 0-97.984-43.904-97.984-97.984s43.84-97.984 97.984-97.984 97.984 43.904 97.984 97.984-43.904 97.984-97.984 97.984zM670.016 256c-18.752 0-33.984 15.232-33.984 33.984s15.232 33.984 33.984 33.984 33.984-15.232 33.984-33.984-15.232-33.984-33.984-33.984zM726.656 662.656c-12.48 12.48-32.768 12.48-45.248 0l-384-384c-12.48-12.48-12.48-32.768 0-45.248 6.208-6.272 14.4-9.408 22.592-9.408s16.384 3.136 22.656 9.344l384 384c12.48 12.544 12.48 32.768 0 45.312z" />
<glyph unicode="&#xe647;" d="M320 609.984c0-18.769 15.215-33.984 33.984-33.984s33.984 15.215 33.984 33.984c0 18.769-15.215 33.984-33.984 33.984-18.769 0-33.984-15.215-33.984-33.984zM512 960c-282.752 0-512-229.248-512-512s229.248-512 512-512 512 229.248 512 512-229.248 512-512 512zM256 609.984c0 54.144 43.904 97.984 97.984 97.984s97.984-43.904 97.984-97.984-43.84-97.984-97.984-97.984-97.984 43.904-97.984 97.984zM342.656 233.344c-6.272-6.208-14.464-9.344-22.656-9.344s-16.384 3.136-22.656 9.344c-12.48 12.48-12.48 32.768 0 45.248l384 384c12.48 12.48 32.768 12.48 45.248 0s12.48-32.768 0-45.248l-383.936-384zM670.016 192c-54.144 0-97.984 43.904-97.984 97.984s43.904 97.984 97.984 97.984 97.984-43.84 97.984-97.984-43.904-97.984-97.984-97.984zM636.032 289.984c0 0 0 0 0 0 0-18.769 15.215-33.984 33.984-33.984 18.769 0 33.984 15.215 33.984 33.984 0 0 0 0 0 0 0 18.769-15.215 33.984-33.984 33.984-18.769 0-33.984-15.215-33.984-33.984z" />
<glyph unicode="&#xe648;" d="M128 768v-512l128-320 128 320-0.32 0.128c0.192 0.192 0.128 0.512 0.32 0.704v575.168c0 70.72-57.28 128-128 128s-128-57.28-128-128v-64zM192 832c0 35.264 28.736 64 64 64s64-28.736 64-64v-64h-128v64zM256 108.352l-46.72 116.736 46.72 23.36 46.72-23.36-0.96-2.432-12.8-32-32.96-82.304zM320 288l-64 32-64-32v416h128v-416zM805.888 769.344l-61.312 158.656-0.576-0.192c-4.48 18.304-20.288 32.192-40 32.192-21.184 0-37.888-15.872-40.832-36.224l-1.152 0.256-59.904-154.688-26.112-65.344v-640c0-70.72 57.28-128 128-128s128 57.28 128 128c35.328 0 64 28.672 64 64v192c0 35.328-28.672 64-64 64v320l-26.112 65.344zM768 320v-256c0-35.264-28.736-64-64-64s-64 28.736-64 64v640h128v-384zM737.472 768h-66.944l33.472 83.648 33.472-83.648z" />
<glyph unicode="&#xe649;" d="M128 832v-576l128-320 128 320-0.32 0.128c0.192 0.192 0.128 0.512 0.32 0.704v575.168c0 70.72-57.28 128-128 128s-128-57.28-128-128zM192 832c0 35.264 28.736 64 64 64s64-28.736 64-64v-64h-128v64zM256 108.352l-46.72 116.736 46.72 23.36 46.72-23.36-0.96-2.432-12.8-32-32.96-82.304zM805.888 769.344l-60.48 154.688-0.576-0.128c-3.008 20.288-19.712 36.096-40.832 36.096-20.864 0-37.952-16.064-41.344-36.16l-0.64 0.128-59.904-154.624-26.112-65.344v-640c0-70.72 57.28-128 128-128s128 57.28 128 128c35.328 0 64 28.672 64 64v192c0 35.328-28.672 64-64 64v320l-26.112 65.344zM746.432 745.536l16.64-41.536h-118.144l16.64 41.536 8.96 22.464 33.472 83.648 33.472-83.648 8.96-22.464z" />
<glyph unicode="&#xe64a;" d="M963.904-3.904l-67.264 203.008-543.040 543.040-135.744-135.744 543.040-543.040zM127.36 696.896l135.744 135.744-67.2 67.2c-37.504 37.504-98.24 37.504-135.744 0-37.504-37.44-37.504-98.304 0-135.744l67.2-67.2z" />
<glyph unicode="&#xe64b;" d="M672.294 287.706l-56.585 170.836-326.43 326.43-114.251-114.251 326.43-326.43zM23.688 936.312c-31.563-31.563-31.563-82.687 0-114.251l84.084-84.084 114.251 114.251-84.084 84.084c-31.563 31.563-82.687 31.563-114.251 0zM952.617 769.477h-450.207l63.508-63.508h386.699v-698.586h-698.586v386.699l-63.508 63.508v-450.207c0-35.056 28.451-63.508 63.508-63.508h698.586c35.056 0 63.508 28.451 63.508 63.508v698.586c0 35.056-28.451 63.508-63.508 63.508z" />
<glyph unicode="&#xe64c;" d="M659.84 185.024l172.16-57.024-57.024 172.16-328.96 328.96-115.136-115.136zM263.104 581.76l115.136 115.136-84.736 84.736c-31.808 31.808-83.328 31.808-115.136 0s-31.808-83.328 0-115.136l84.736-84.736zM960 960h-896c-35.328 0-64-28.672-64-64v-896c0-35.328 28.672-64 64-64h896c35.328 0 64 28.672 64 64v896c0 35.328-28.672 64-64 64zM960 0h-896v896h896v-896z" />
<glyph unicode="&#xe64d;" d="M960 960h-896c-35.328 0-64-28.672-64-64v-896c0-35.328 28.672-64 64-64h896c35.328 0 64 28.672 64 64v896c0 35.328-28.672 64-64 64zM178.368 666.496c-31.808 31.808-31.808 83.328 0 115.136s83.328 31.808 115.136 0l84.736-84.736-115.136-115.136-84.736 84.736zM659.84 185.024l-328.96 328.96 115.136 115.136 328.96-328.96 57.024-172.16-172.16 57.024z" />
<glyph unicode="&#xe64e;" d="M384 640c-35.328 0-64-28.672-64-64v-256c0-35.328 28.672-64 64-64s64 28.672 64 64v256c0 35.328-28.672 64-64 64zM576 320c0-35.328 28.672-64 64-64s64 28.672 64 64v256c0 35.328-28.672 64-64 64s-64-28.672-64-64v-256z" />
<glyph unicode="&#xe64f;" d="M512-64c282.752 0 512 229.248 512 512s-229.248 512-512 512-512-229.248-512-512 229.248-512 512-512zM512 896c247.040 0 448-200.96 448-448s-200.96-448-448-448-448 200.96-448 448 200.96 448 448 448zM384 256c35.328 0 64 28.672 64 64v256c0 35.328-28.672 64-64 64s-64-28.672-64-64v-256c0-35.328 28.672-64 64-64zM640 256c35.328 0 64 28.672 64 64v256c0 35.328-28.672 64-64 64s-64-28.672-64-64v-256c0-35.328 28.672-64 64-64z" />
<glyph unicode="&#xe650;" d="M512 960c-282.752 0-512-229.248-512-512s229.248-512 512-512 512 229.248 512 512-229.248 512-512 512zM448 320c0-35.328-28.672-64-64-64s-64 28.672-64 64v256c0 35.328 28.672 64 64 64s64-28.672 64-64v-256zM704 320c0-35.328-28.672-64-64-64s-64 28.672-64 64v256c0 35.328 28.672 64 64 64s64-28.672 64-64v-256z" />
<glyph unicode="&#xe651;" d="M436.73 743.497c-65.714 65.59-148.245 71.113-205.644 13.714-57.399-57.337-51.938-139.992 13.652-205.644l355.192-355.192c12.1-12.1 31.771-12.1 43.872 0s12.1 31.771 0 43.872l-355.192 355.192c-31.833 31.833-52.125 79.49-13.714 117.901 38.349 38.411 86.068 18.057 117.901-13.776l394.906-394.844c113.247-113.371 141.481-165.62 74.029-233.133-68.258-68.196-140.612-51.318-249.577 57.585l-438.715 438.839c-70.865 70.865-120.507 186.594-27.365 279.673 110.579 110.579 236.857 1.862 272.847-34.191l403.097-403.159c12.1-12.1 31.771-12.1 43.872 0s12.1 31.771 0 43.872l-403.097 403.159c-121.872 121.872-260.064 134.903-360.653 34.191-101.643-101.581-90.66-249.267 27.427-367.416l438.777-438.777c37.294-37.294 117.156-117.094 208.995-117.094 41.265 0 85.013 16.196 128.326 59.509 123.299 123.362 9.246 237.539-74.029 320.876l-394.906 394.844z" horiz-adv-x="1028" />
<glyph unicode="&#xe652;" d="M864 512h-512c-17.664 0-32-14.336-32-32s14.336-32 32-32h512c17.664 0 32 14.336 32 32s-14.336 32-32 32zM864 768h-512c-17.664 0-32-14.336-32-32s14.336-32 32-32h512c17.664 0 32 14.336 32 32s-14.336 32-32 32zM864 256h-512c-17.664 0-32-14.336-32-32s14.336-32 32-32h512c17.664 0 32 14.336 32 32s-14.336 32-32 32zM222.72 657.088v157.824h-18.24l-34.496-18.432 4.16-16.256 27.456 14.784h0.448v-137.92zM171.968 430.464l-16.704-16.256v-13.12h100.736v17.728h-70.912v0.448l12.608 11.648c33.28 32.064 54.4 55.616 54.4 84.736 0 22.592-14.336 45.888-48.32 45.888-18.24 0-33.728-6.784-44.672-16.064l6.784-15.040c7.296 6.080 19.2 13.376 33.536 13.376 23.552 0 31.296-14.784 31.296-30.848-0.192-23.744-18.432-44.16-58.752-82.496zM198.208 162.304c-14.784 0-28.864 6.080-34.944 9.92l-5.824-16.512c7.744-5.12 23.296-10.688 41.024-10.688 37.888 0 57.536 22.080 57.536 47.36 0 22.080-15.808 36.672-35.2 40.576v0.448c19.456 7.040 29.12 20.864 29.12 37.184 0 19.2-14.080 37.632-45.184 37.632-17.024 0-33.024-6.080-41.28-12.16l5.568-15.552c6.784 4.864 18.944 10.432 31.552 10.432 19.648 0 27.712-11.2 27.712-23.808 0-18.688-19.648-26.688-35.2-26.688h-11.904v-16h11.904c20.672 0 40.576-9.472 40.768-31.552 0.32-13.12-8.192-30.592-35.648-30.592z" />
<glyph unicode="&#xe653;" d="M24.936 8.308c46.747-60.684 143.304-64.621 215.674-8.874 29.436 22.686 49.809 51.809 61.121 82.37 6.5 12.874 10.749 31.123 10.749 51.997v467.034l562.466 106.306v-246.61c0-86.995-66.558-106.993-90.12-111.431-2.062-0.25-4.062-0.75-6.125-1.125-1.062-0.125-2.625-0.312-2.625-0.312l0.375-0.125c-27.873-5.062-55.934-16.749-81.12-36.123-72.371-55.747-93.182-150.116-46.435-210.8 46.747-60.684 143.304-64.684 215.674-8.937 36.623 28.248 59.934 66.371 68.058 104.994 2.812 9.374 4.812 19.686 4.812 31.373v606.588c0 3.812-0.75 7.062-1.062 10.687 0.125 1.875 1.062 4 1.062 5.875v62.496c0 34.498-27.998 53.997-62.496 43.435l-562.466-106.306c-34.498-10.499-62.496-47.060-62.496-81.558v-62.496c0-0.875 0.437-1.5 0.5-2.312-0.062-1.875-0.5-3.5-0.5-5.375v-330.855c0-87.12-66.746-107.056-90.245-111.431-1.187-0.187-2.375-0.562-3.625-0.75-3.062-0.5-5.062-0.687-5.062-0.687l0.687-0.312c-27.623-5.187-55.434-16.749-80.37-35.935-72.371-55.747-93.119-150.116-46.435-210.8z" horiz-adv-x="1000" />
<glyph unicode="&#xe654;" d="M828.48 639.872c1.792 26.752 2.88 48.448 3.456 61.44 0.704 17.408-5.696 34.368-17.728 46.976s-28.8 19.712-46.208 19.712h-704c-17.408 0-34.112-7.104-46.208-19.712s-18.432-29.568-17.728-46.976c3.52-84.544 27.328-511.872 149.248-620.992 11.712-10.496 26.944-16.32 42.688-16.32h448c15.744 0 30.976 5.824 42.688 16.32 38.208 34.24 66.816 99.712 88.128 176.128 31.68 0.128 53.568 0.192 56.128 0.192 108.864 0 197.12 79.36 197.12 191.68-0.064 152.512-131.904 190.976-195.584 191.552zM640 128h-448c-107.968 96.64-128 576-128 576h704c0 0-20.032-479.36-128-576zM826.88 320.64l-20.16-0.064c-5.76 0-12.608-0.064-20.352-0.064 19.072 87.616 30.528 181.12 37.12 255.488h3.392c5.44 0 133.12-1.472 133.12-127.68 0-73.984-56-127.68-133.12-127.68z" horiz-adv-x="1025" />
<glyph unicode="&#xe655;" d="M828.48 639.872c1.792 26.752 2.88 48.448 3.456 61.44 0.704 17.408-5.696 34.368-17.728 46.976s-28.8 19.712-46.208 19.712h-704c-17.408 0-34.112-7.104-46.208-19.712s-18.432-29.568-17.728-46.976c3.52-84.544 27.328-511.872 149.248-620.992 11.712-10.496 26.944-16.32 42.688-16.32h448c15.744 0 30.976 5.824 42.688 16.32 38.208 34.24 66.816 99.712 88.128 176.128 31.68 0.128 53.568 0.192 56.128 0.192 108.864 0 197.12 79.36 197.12 191.68-0.064 152.512-131.904 190.976-195.584 191.552zM826.88 352.64l-20.288-0.064c-3.84 0-8.704 0-13.44-0.064 12.736 65.6 21.44 132.864 27.328 191.488h6.4c16.896 0 101.12-4.608 101.12-95.68 0-65.728-52.416-95.68-101.12-95.68z" horiz-adv-x="1025" />
<glyph unicode="&#xe656;" d="M768-64c35.328 0 64 28.672 64 64v896c0 35.328-28.672 64-64 64h-448c-35.328 0-64-28.672-64-64v-896c0-35.328 28.672-64 64-64h448zM512 35.968c0 19.904 16.128 35.968 35.968 35.968s35.968-16.128 35.968-35.968-16.064-35.968-35.968-35.968-35.968 16.128-35.968 35.968zM672 896c17.664 0 32-14.336 32-32s-14.336-32-32-32h-64c-17.664 0-32 14.336-32 32s14.336 32 32 32h64zM512 864c0-17.664-14.336-32-32-32s-32 14.336-32 32c0 17.664 14.336 32 32 32s32-14.336 32-32zM320 768h448v-640h-448v640z" />
<glyph unicode="&#xe657;" d="M256 640v-448c0-35.328 28.672-64 64-64h448c35.328 0 64 28.672 64 64v448c0 35.328-28.672 64-64 64h-448c-35.328 0-64-28.672-64-64zM768 192h-448v448h448v-448zM416 384h256c17.664 0 32 14.336 32 32s-14.336 32-32 32h-256c-17.664 0-32-14.336-32-32s14.336-32 32-32z" />
<glyph unicode="&#xe658;" d="M288 384h512c17.664 0 32 14.336 32 32s-14.336 32-32 32h-512c-17.664 0-32-14.336-32-32s14.336-32 32-32z" />
<glyph unicode="&#xe659;" d="M544 896c-265.088 0-480-214.912-480-480s214.912-480 480-480 480 214.912 480 480-214.912 480-480 480zM544 0c-229.376 0-416 186.624-416 416s186.624 416 416 416 416-186.624 416-416-186.624-416-416-416zM800 448h-512c-17.664 0-32-14.336-32-32s14.336-32 32-32h512c17.664 0 32 14.336 32 32s-14.336 32-32 32z" />
<glyph unicode="&#xe65a;" d="M544 896c-265.088 0-480-214.912-480-480s214.912-480 480-480 480 214.912 480 480-214.912 480-480 480zM800 384h-512c-17.664 0-32 14.336-32 32s14.336 32 32 32h512c17.664 0 32-14.336 32-32s-14.336-32-32-32z" />
<glyph unicode="&#xe65b;" d="M448 134.144v-134.144h-96c-17.664 0-32-14.336-32-32s14.336-32 32-32h320c17.664 0 32 14.336 32 32s-14.336 32-32 32h-96v134.528c133.312 26.304 256 134.208 256 313.472v96c0 17.664-14.336 32-32 32s-32-14.336-32-32v-96c0-168.064-128.832-256-256-256-123.328 0-256 80.128-256 256v96c0 17.664-14.336 32-32 32s-32-14.336-32-32v-96c0-181.76 120.512-288.384 256-313.856zM512 320c70.72 0 128 57.28 128 128v384c0 70.72-57.28 128-128 128s-128-57.28-128-128v-384c0-70.72 57.28-128 128-128z" />
<glyph unicode="&#xe65c;" d="M448 134.144v-134.144h-96c-17.664 0-32-14.336-32-32s14.336-32 32-32h320c17.664 0 32 14.336 32 32s-14.336 32-32 32h-96v134.528c133.312 26.304 256 134.208 256 313.472v96c0 17.664-14.336 32-32 32s-32-14.336-32-32v-96c0-168.064-128.832-256-256-256-123.328 0-256 80.128-256 256v96c0 17.664-14.336 32-32 32s-32-14.336-32-32v-96c0-181.76 120.512-288.384 256-313.856zM512 256c105.856 0 192 86.144 192 192v320c0 105.856-86.144 192-192 192s-192-86.144-192-192v-320c0-105.856 86.144-192 192-192zM384 768c0 70.72 57.28 128 128 128s128-57.28 128-128v-320c0-70.72-57.28-128-128-128s-128 57.28-128 128v320z" />
<glyph unicode="&#xe65d;" d="M224 448h576c17.664 0 32 14.336 32 32s-14.336 32-32 32h-576c-17.664 0-32-14.336-32-32s14.336-32 32-32zM224 640h576c17.664 0 32 14.336 32 32s-14.336 32-32 32h-576c-17.664 0-32-14.336-32-32s14.336-32 32-32zM224 256h576c17.664 0 32 14.336 32 32s-14.336 32-32 32h-576c-17.664 0-32-14.336-32-32s14.336-32 32-32z" />
<glyph unicode="&#xe65e;" d="M960 896h-832c-35.328 0-64-28.672-64-64v-832c0-35.328 28.672-64 64-64h832c35.328 0 64 28.672 64 64v832c0 35.328-28.672 64-64 64zM960 0h-832v832h832v-832zM288 384h512c17.664 0 32 14.336 32 32s-14.336 32-32 32h-512c-17.664 0-32-14.336-32-32s14.336-32 32-32zM288 576h512c17.664 0 32 14.336 32 32s-14.336 32-32 32h-512c-17.664 0-32-14.336-32-32s14.336-32 32-32zM288 192h512c17.664 0 32 14.336 32 32s-14.336 32-32 32h-512c-17.664 0-32-14.336-32-32s14.336-32 32-32z" />
<glyph unicode="&#xe65f;" d="M960 896h-832c-35.328 0-64-28.672-64-64v-832c0-35.328 28.672-64 64-64h832c35.328 0 64 28.672 64 64v832c0 35.328-28.672 64-64 64zM800 192h-512c-17.664 0-32 14.336-32 32s14.336 32 32 32h512c17.664 0 32-14.336 32-32s-14.336-32-32-32zM800 384h-512c-17.664 0-32 14.336-32 32s14.336 32 32 32h512c17.664 0 32-14.336 32-32s-14.336-32-32-32zM800 576h-512c-17.664 0-32 14.336-32 32s14.336 32 32 32h512c17.664 0 32-14.336 32-32s-14.336-32-32-32z" />
<glyph unicode="&#xe660;" d="M544 896c-265.088 0-480-214.912-480-480s214.912-480 480-480 480 214.912 480 480-214.912 480-480 480zM544 0c-229.376 0-416 186.624-416 416s186.624 416 416 416 416-186.624 416-416-186.624-416-416-416zM800 448h-512c-17.664 0-32-14.336-32-32s14.336-32 32-32h512c17.664 0 32 14.336 32 32s-14.336 32-32 32zM800 640h-512c-17.664 0-32-14.336-32-32s14.336-32 32-32h512c17.664 0 32 14.336 32 32s-14.336 32-32 32zM800 256h-512c-17.664 0-32-14.336-32-32s14.336-32 32-32h512c17.664 0 32 14.336 32 32s-14.336 32-32 32z" />
<glyph unicode="&#xe661;" d="M544 896c-265.088 0-480-214.912-480-480s214.912-480 480-480 480 214.912 480 480-214.912 480-480 480zM800 192h-512c-17.664 0-32 14.336-32 32s14.336 32 32 32h512c17.664 0 32-14.336 32-32s-14.336-32-32-32zM800 384h-512c-17.664 0-32 14.336-32 32s14.336 32 32 32h512c17.664 0 32-14.336 32-32s-14.336-32-32-32zM800 576h-512c-17.664 0-32 14.336-32 32s14.336 32 32 32h512c17.664 0 32-14.336 32-32s-14.336-32-32-32z" />
<glyph unicode="&#xe662;" d="M322.688 774.272l-258.688 121.728v-768l258.688-121.728zM386.688 7.168l254.656 114.752v768l-254.656-114.752zM705.344 120.576l254.656-120.576v768l-254.656 120.576z" />
<glyph unicode="&#xe663;" d="M973.888 830.464l-288 128c-4.544 1.024-9.216 1.536-13.888 1.536-4.16 0-8.384-0.384-12.48-1.216l-308.096-125.376-273.472 125.056c-4.608 1.024-9.28 1.536-13.952 1.536-14.4 0-28.544-4.864-40-14.080-15.168-12.096-24-30.464-24-49.92v-768c0-29.952 20.8-55.936 50.048-62.464l286.656-128c4.608-1.024 9.28-1.536 13.952-1.536 4.16 0 8.384 0.384 12.48 1.216l308.096 125.376 274.816-125.056c4.672-1.024 9.344-1.536 13.952-1.536 14.4 0 28.608 4.864 40.064 14.080 15.104 12.16 23.936 30.528 23.936 49.92v768c0 30.016-20.864 56-50.112 62.464zM384 781.248l256 101.952v-768l-256-101.952v768zM64 896l256-114.304v-768l-256 114.304v768zM960 0l-256 113.792v768l256-113.792v-768z" />
<glyph unicode="&#xe664;" d="M960 704h-896c-35.328 0-64-28.672-64-64v-107.456l512-204.8 512 204.8v107.456c0 35.328-28.672 64-64 64zM0 428.032v-428.032c0-35.328 28.672-64 64-64h896c35.328 0 64 28.672 64 64v428.032l-512-204.8-512 204.8z" />
<glyph unicode="&#xe665;" d="M960 704h-896c-35.328 0-64-28.672-64-64v-640c0-35.328 28.672-64 64-64h896c35.328 0 64 28.672 64 64v640c0 35.328-28.672 64-64 64zM363.52 254.272l148.608-100.992 147.712 101.696 254.912-254.976h-805.504l254.272 254.272zM64 45.248v412.672l245.632-166.976-245.632-245.696zM713.408 291.84l246.592 169.728v-416.32l-246.592 246.592zM960 640v-103.552l-1.344 1.92-446.784-307.648-447.872 304.512v104.768h896z" />
<glyph unicode="&#xe666;" d="M512 960c-179.456 0-324.928-145.472-324.928-324.928v-59.072h-59.072c-35.328 0-64-28.672-64-64v-512c0-35.328 28.672-64 64-64h768c35.328 0 64 28.672 64 64v512c0 35.328-28.672 64-64 64h-59.072v59.072c0 179.456-145.472 324.928-324.928 324.928zM315.072 635.072c0 108.608 88.32 196.928 196.928 196.928s196.928-88.32 196.928-196.928v-59.072h-393.856v59.072zM512 128c-70.72 0-128 57.28-128 128s57.28 128 128 128 128-57.28 128-128c0-70.72-57.28-128-128-128z" />
<glyph unicode="&#xe667;" d="M832 576h-580.928v59.072c0 108.608 88.32 196.928 196.928 196.928 71.552 0 133.824-38.656 168.256-95.936 0.32 0.384 0.896 0.576 1.28 0.96 11.584-16.512 29.824-28.032 51.52-28.032 35.328 0 64 28.672 64 64 0 8.64-1.792 16.896-4.928 24.448-0.256 0.448-0.448 0.96-0.704 1.408-2.816 6.4-6.848 12.032-11.52 17.088-58.24 86.464-155.776 144.064-267.904 144.064-179.456 0-324.928-145.472-324.928-324.928v-59.072h-59.072c-35.328 0-64-28.672-64-64v-512c0-35.328 28.672-64 64-64h768c35.328 0 64 28.672 64 64v512c0 35.328-28.672 64-64 64zM448 128c-70.72 0-128 57.28-128 128s57.28 128 128 128 128-57.28 128-128-57.28-128-128-128z" />
<glyph unicode="&#xe668;" d="M960 0v512c0 35.328-28.672 64-64 64h-640.32l0.32 27.136c0 172.416 106.496 292.864 259.072 292.864 111.68 0 211.2-64.192 259.776-167.552 7.488-16 26.496-22.848 42.56-15.296 16 7.488 22.848 26.56 15.296 42.56-59.2 125.952-180.864 204.288-317.632 204.288-187.2 0-323.072-150.080-323.072-356.48l-0.32-27.52h-63.68c-35.328 0-64-28.672-64-64v-512c0-35.328 28.672-64 64-64h768c35.328 0 64 28.672 64 64zM128 512h768v-512h-768v512zM512 384c-70.72 0-128-57.28-128-128s57.28-128 128-128 128 57.28 128 128-57.28 128-128 128zM512 192c-35.264 0-64 28.736-64 64s28.736 64 64 64 64-28.736 64-64-28.736-64-64-64z" />
<glyph unicode="&#xe669;" d="M512 960c-176.704 0-320-145.472-320-324.928v-59.072h-64c-35.328 0-64-28.672-64-64v-512c0-35.328 28.672-64 64-64h768c35.328 0 64 28.672 64 64v512c0 35.328-28.672 64-64 64h-64v59.072c0 179.456-143.296 324.928-320 324.928zM256 635.072c0 143.872 114.816 260.928 256 260.928s256-117.056 256-260.928v-59.072h-512v59.072zM896 0h-768v512h768v-512zM640 256c0 70.72-57.28 128-128 128s-128-57.28-128-128 57.28-128 128-128 128 57.28 128 128zM512 192c-35.264 0-64 28.736-64 64s28.736 64 64 64 64-28.736 64-64-28.736-64-64-64z" />
<glyph unicode="&#xe66a;" d="M864.64 229.76c0-3.217 2.607-5.824 5.824-5.824s5.824 2.607 5.824 5.824c0 3.217-2.607 5.824-5.824 5.824-3.217 0-5.824-2.607-5.824-5.824zM736.064 97.088c0 0 0 0 0 0 0-6.398 5.186-11.584 11.584-11.584 6.398 0 11.584 5.186 11.584 11.584 0 0 0 0 0 0 0 6.398-5.186 11.584-11.584 11.584-6.398 0-11.584-5.186-11.584-11.584zM562.752 28.8c0-9.614 7.794-17.408 17.408-17.408s17.408 7.794 17.408 17.408c0 9.614-7.794 17.408-17.408 17.408-9.614 0-17.408-7.794-17.408-17.408zM376.192 37.952c0 0 0 0 0 0 0-12.795 10.373-23.168 23.168-23.168 12.795 0 23.168 10.373 23.168 23.168 0 0 0 0 0 0 0 12.795-10.373 23.168-23.168 23.168-12.795 0-23.168-10.373-23.168-23.168zM210.688 122.88c0-16.012 12.98-28.992 28.992-28.992s28.992 12.98 28.992 28.992c0 16.012-12.98 28.992-28.992 28.992-16.012 0-28.992-12.98-28.992-28.992zM96.064 267.264c0-19.228 15.588-34.816 34.816-34.816s34.816 15.588 34.816 34.816c0 19.228-15.588 34.816-34.816 34.816-19.228 0-34.816-15.588-34.816-34.816zM53.056 444.544c0-22.41 18.166-40.576 40.576-40.576s40.576 18.166 40.576 40.576c0 22.41-18.166 40.576-40.576 40.576-22.41 0-40.576-18.166-40.576-40.576zM88.448 620.672c0-25.626 20.774-46.4 46.4-46.4s46.4 20.774 46.4 46.4c0 25.626-20.774 46.4-46.4 46.4-25.626 0-46.4-20.774-46.4-46.4zM194.624 762.688c0-28.843 23.381-52.224 52.224-52.224s52.224 23.381 52.224 52.224c0 28.843-23.381 52.224-52.224 52.224-28.843 0-52.224-23.381-52.224-52.224zM350.528 844.032c0 0 0 0 0 0 0-32.024 25.96-57.984 57.984-57.984 32.024 0 57.984 25.96 57.984 57.984 0 0 0 0 0 0 0 32.024-25.96 57.984-57.984 57.984-32.024 0-57.984-25.96-57.984-57.984zM525.632 849.088c0-35.24 28.568-63.808 63.808-63.808s63.808 28.568 63.808 63.808c0 35.24-28.568 63.808-63.808 63.808-35.24 0-63.808-28.568-63.808-63.808zM685.952 776.96c0 0 0 0 0 0 0-38.421 31.147-69.568 69.568-69.568 38.421 0 69.568 31.147 69.568 69.568 0 0 0 0 0 0 0 38.421-31.147 69.568-69.568 69.568-38.421 0-69.568-31.147-69.568-69.568zM799.872 641.472c0-41.638 33.754-75.392 75.392-75.392s75.392 33.754 75.392 75.392c0 41.638-33.754 75.392-75.392 75.392-41.638 0-75.392-33.754-75.392-75.392zM845.184 465.984c0-44.854 36.362-81.216 81.216-81.216s81.216 36.362 81.216 81.216c0 44.854-36.362 81.216-81.216 81.216-44.854 0-81.216-36.362-81.216-81.216z" />
<glyph unicode="&#xe66b;" d="M229.927 479.104c38.972-38.972 96.301-52.633 148.446-37.081l-288.111 288.050c-9.392 9.392-14.332 22.993-14.332 39.216 0 26.835 14.027 61.111 32.629 79.712 24.395 24.395 90.568 51.413 121.367 20.797l288.050-288.111c4.208 14.088 6.343 28.726 6.343 43.363 0 39.765-15.43 77.029-43.424 105.083l-195.347 195.286c-58.671 58.671-175.281 36.654-232.672-20.736-33.3-33.3-53.975-84.896-53.975-134.663 0-38.667 12.686-72.638 35.678-95.63l195.347-195.286zM745.892 465.077c-38.972 38.972-96.301 52.633-148.446 37.081l288.111-288.111c9.392-9.392 14.332-22.932 14.332-39.216 0-26.835-14.027-61.111-32.629-79.712-24.395-24.395-90.568-51.413-121.367-20.797l-288.050 288.172c-4.208-14.088-6.343-28.726-6.343-43.363 0-39.765 15.43-77.029 43.424-105.083l195.286-195.286c58.671-58.671 175.281-36.654 232.672 20.736 33.3 33.3 53.975 84.896 53.975 134.663 0 38.667-12.686 72.638-35.678 95.63l-195.286 195.286zM279.45 680.611c-7.807-7.746-12.076-18.114-12.076-29.092s4.269-21.285 12.015-29.031l358.857-358.918c16.040-15.979 42.082-15.979 58.122 0 7.807 7.746 12.015 18.114 12.015 29.092s-4.269 21.285-12.015 29.031l-358.857 358.918c-15.979 15.979-42.082 15.979-58.061 0z" horiz-adv-x="978" />
<glyph unicode="&#xe66c;" d="M298.251 833.435c36.509 36.509 95.86 36.509 132.369 0l334.697-334.697c16.476 62.346 1.061 131.37-47.805 180.236l-220.677 220.614c-73.143 73.143-191.657 73.143-264.8 0l-49.615-49.615c-73.143-73.143-73.143-191.657 0-264.8l220.677-220.677c48.866-48.866 117.89-64.281 180.236-47.805l-334.697 334.697c-36.509 36.509-36.509 95.86 0 132.369l49.615 49.677zM501.703 21.874c73.143-73.143 191.657-73.143 264.8 0l49.615 49.677c73.143 73.143 73.143 191.657 0 264.8l-220.677 220.552c-48.866 48.866-117.89 64.281-180.236 47.805l334.697-334.697c36.509-36.509 36.509-95.86 0-132.369l-49.677-49.677c-36.509-36.509-95.86-36.509-132.369 0l-334.635 334.76c-16.476-62.346-1.061-131.37 47.805-180.236l220.677-220.614z" horiz-adv-x="999" />
<glyph unicode="&#xe66d;" d="M867.2 640c0 0-243.904 0-291.2 0v166.016c2.304 89.856-17.984 153.856-94.016 153.856-81.984 0-97.984-68.032-97.984-68.032-14.976-240.96-256-315.84-256-315.84v-512l93.504-3.968c242.112 0 96.832-124.032 494.656-124.032 302.080 0 307.84 265.856 307.84 448s-83.008 256-156.8 256zM716.16 0c-202.112 0-244.928 32.192-282.752 60.608-47.808 35.904-93.696 63.36-208.768 63.36-0.128 0-0.256 0-0.384 0l-32.256 1.344v407.68c79.808 37.248 238.4 137.088 255.296 346.688 2.496 5.12 10.752 16.192 34.688 16.192 5.696 0 13.056-0.64 16.192-3.84 2.624-2.624 15.488-19.264 13.824-86.016v-230.016h355.2c46.144 0 92.8-65.92 92.8-192 0-249.024-38.848-384-243.84-384zM32 0c17.664 0 32 14.336 32 32v573.312c0 17.664-14.336 32-32 32s-32-14.336-32-32v-573.312c0-17.664 14.336-32 32-32z" />
<glyph unicode="&#xe66e;" d="M867.2 640c0 0-222.4 0-289.984 0v174.784c4.736 78.72-17.92 145.152-66.304 145.088-84.224-0.128-81.856-68.032-81.856-68.032-14.976-240.96-237.056-315.84-237.056-315.84v-512l29.504-3.968c242.112 0 96.832-124.032 494.656-124.032 302.080 0 307.84 265.856 307.84 448s-83.008 256-156.8 256zM64 0c35.328 0 64 28.672 64 64v510.016c0 35.328-28.672 64-64 64s-64-28.672-64-64v-510.016c0-35.328 28.672-64 64-64z" />
<glyph unicode="&#xe66f;" d="M867.896 444.040c4.535 12.136 8.303 24.655 11.561 37.238 0.575 2.172 1.277 4.216 1.788 6.387 2.874 11.816 4.918 23.888 6.643 36.024 0.383 2.81 1.086 5.621 1.405 8.431 1.725 14.754 2.683 29.637 2.683 44.647 0 211.289-171.944 383.234-383.234 383.234s-383.234-171.944-383.234-383.234c0-15.010 0.958-29.892 2.747-44.583 0.319-2.874 0.958-5.621 1.341-8.431 1.725-12.136 3.768-24.208 6.643-36.024 0.511-2.172 1.214-4.279 1.788-6.387 3.257-12.583 7.026-25.102 11.561-37.238 0.447-1.15 0.958-2.299 1.341-3.449 5.046-13.094 10.667-25.932 17.118-38.387 0.255-0.511 0.511-0.958 0.766-1.405 6.707-12.902 14.116-25.421 22.291-37.557 0.255-0.383 0.511-0.703 0.703-1.086 7.984-11.816 16.671-23.122 25.932-34.044 0.766-0.894 1.469-1.725 2.236-2.619 8.431-9.772 17.565-19.034 27.018-27.976 2.108-1.98 4.088-3.96 6.259-5.876 2.81-2.491 5.301-5.301 8.24-7.729 1.725-1.469 3.832-2.427 5.749-3.641 6.323-5.238 12.327-10.731 19.034-15.585 2.683-1.916 4.343-3.768 6.643-5.685 44.072-36.599 22.547-65.533 71.601-65.533 6.834 0 224.064 0 288.447 0 48.99 0 27.529 28.934 71.665 65.533 2.299 1.916 3.96 3.705 6.643 5.685 6.707 4.854 12.711 10.347 19.034 15.585 1.852 1.277 3.96 2.172 5.749 3.641 2.874 2.427 5.429 5.238 8.24 7.729 2.108 1.916 4.152 3.96 6.259 5.876 9.453 8.942 18.523 18.204 27.018 27.976 0.766 0.894 1.469 1.725 2.236 2.619 9.261 10.922 17.948 22.228 25.932 34.044 0.255 0.383 0.511 0.703 0.703 1.086 8.112 12.072 15.521 24.591 22.228 37.493 0.255 0.447 0.511 0.958 0.766 1.405 6.451 12.455 12.072 25.293 17.118 38.387 0.383 1.214 0.894 2.299 1.341 3.449zM734.531 573.764c-17.629 0-31.936 14.307-31.936 31.936 0 97.341-87.824 162.683-159.681 162.683-17.629 0-31.936 14.307-31.936 31.936s14.307 31.936 31.936 31.936c109.796 0 223.553-80.862 223.553-226.555 0-17.629-14.307-31.936-31.936-31.936zM504.846 1.916h-140.327l115.162-58.89c9.134-4.663 19.098-7.026 29.062-7.026 9.836 0 19.737 2.299 28.806 6.834l116.822 59.082h-149.525zM702.595 97.725c0 17.629-14.307 31.936-31.936 31.936h-319.361c-17.629 0-31.936-14.307-31.936-31.936s14.307-31.936 31.936-31.936h319.361c17.629 0 31.936 14.307 31.936 31.936z" horiz-adv-x="1022" />
<glyph unicode="&#xe670;" d="M511.010 960c-211.303 0-383.257-171.955-383.257-383.257 0-123.537 60.044-240.175 160.713-312.035 1.533-1.086 3.13-2.108 4.727-3.066 23.379-13.733 25.678-58 25.167-66.112-0.064-1.341-0.128-2.683-0.128-3.96v-125.836c0-24.017 13.414-45.927 34.813-56.85l128.902-65.856c9.134-4.663 19.099-7.026 29.064-7.026 9.901 0 19.738 2.3 28.808 6.835l130.435 65.856c21.526 10.859 35.068 32.896 35.068 57.041v125.070c0 63.046 38.517 83.87 38.901 84.061 5.11 2.363 9.837 5.429 14.117 9.070 86.361 73.074 135.929 179.748 135.929 292.809 0 211.303-171.955 383.257-383.257 383.257zM382.108 191.505c0 0 0 1.278 0.064 1.98h259.465c0-0.958-0.256-1.661-0.256-2.683 0-25.103 0-44.969 0-61.193h-259.274v61.896zM511.010-0.124l-128.838 65.856h259.274l-130.435-65.856zM717.075 332.735c0 0-42.797-20.121-64.004-75.374h-281.183c-7.921 22.101-21.654 44.841-46.31 59.341-81.059 57.872-133.948 152.792-133.948 260.040 0 176.362 143.019 319.381 319.381 319.381s319.381-143.019 319.381-319.381c0-97.858-44.011-185.433-113.316-244.007zM542.948 832.248c-17.63 0-31.938-14.308-31.938-31.938s14.308-31.938 31.938-31.938c71.861 0 159.691-65.345 159.691-162.693 0-17.63 14.308-31.938 31.938-31.938s31.938 14.308 31.938 31.938c0 145.702-113.764 226.569-223.567 226.569z" horiz-adv-x="1022" />
<glyph unicode="&#xe671;" d="M512 960c-131.008 0-262.080-49.984-362.048-149.952-199.936-199.936-199.936-524.16 0-724.096 99.968-99.968 231.040-149.952 362.048-149.952s262.080 49.984 362.048 149.952c199.936 199.936 199.936 524.16 0 724.096-99.968 99.968-231.040 149.952-362.048 149.952zM331.008 267.008c-48.384 48.32-75.008 112.64-75.008 180.992s26.624 132.672 75.008 180.992c48.32 48.384 112.64 75.008 180.992 75.008s132.672-26.624 180.992-75.008c48.384-48.32 75.008-112.64 75.008-180.992 0-68.352-26.624-132.672-75.008-180.992-48.32-48.384-112.64-75.008-180.992-75.008s-132.672 26.624-180.992 75.008zM709.952 849.6l-98.752-98.752c-32.256 10.56-65.6 17.152-99.2 17.152-30.592 0-60.864-5.824-90.496-14.528l-99.84 99.84c58.88 27.584 123.392 42.688 190.336 42.688 69.888 0 137.088-16.32 197.952-46.4zM106.752 638.272l99.84-99.84c-18.304-62.080-17.536-128 2.56-189.696l-98.752-98.752c-30.080 60.928-46.4 128.128-46.4 198.016 0 66.944 15.104 131.456 42.752 190.272zM195.2 131.264v0c0-0.064 0-0.064 0 0v0zM329.408 39.104l100.864 100.864c26.816-7.104 54.144-11.968 81.728-11.968 30.592 0 60.864 5.824 90.496 14.592l99.84-99.84c-58.88-27.648-123.392-42.752-190.336-42.752-64.064 0-125.824 13.76-182.592 39.104zM917.12 257.856l-99.648 99.648c16.576 56.256 17.536 115.584 2.56 172.224l100.672 100.672c52.672-118.464 51.456-254.912-3.584-372.544z" horiz-adv-x="1124" />
<glyph unicode="&#xe672;" d="M990.976 192h-30.976v576c0 35.328-28.672 64-64 64h-768c-35.328 0-64-28.672-64-64v-576h-30.976c-18.24 0-33.024-14.336-33.024-32s14.784-32 33.024-32h957.952c18.24 0 33.024 14.336 33.024 32s-14.784 32-33.024 32zM896 768v-509.312h-768v509.312h768z" />
<glyph unicode="&#xe673;" d="M992 960h-128c-7.744 0-15.232-2.816-21.12-7.936l-441.728-387.264c-22.848 4.8-58.176 11.2-81.152 11.2-176.448 0-320-143.552-320-320s143.552-320 320-320 320 143.552 320 320c0 52.416-9.984 87.552-21.312 116.736l108.928 36.992c13.248 4.48 22.016 17.088 21.696 31.040l-2.688 121.472 122.24 8.512c16.384 1.152 29.248 14.528 29.76 30.912l4.544 145.856 95.744 21.248c14.656 3.2 25.088 16.256 25.088 31.232v128c0 17.664-14.336 32-32 32zM224 256c38.4 0 71.552-22.592 86.912-55.168 5.824-12.416 9.088-26.24 9.088-40.832 0-52.992-43.008-96-96-96s-96 43.008-96 96 43.008 96 96 96z" />
<glyph unicode="&#xe674;" d="M352 160c0 19.008-4.096 37.376-12.16 54.464-20.992 44.672-66.496 73.536-115.84 73.536-70.592 0-128-57.408-128-128 0-12.608 2.368-24.512 5.76-36.032 21.44-35.328 50.88-64.768 86.208-86.208 11.52-3.392 23.424-5.76 36.032-5.76 70.592 0 128 57.408 128 128zM224 224c24.704 0 47.424-14.464 57.984-36.8 3.968-8.512 6.016-17.664 6.016-27.2 0-35.264-28.736-64-64-64s-64 28.736-64 64 28.736 64 64 64zM992 960h-138.496c-7.552 0-14.848-2.688-20.672-7.552l-453.12-382.656c-20.864 4.16-40.512 6.208-59.712 6.208-176.448 0-320-143.552-320-320s143.552-320 320-320 320 143.552 320 320c0 33.664-5.376 66.944-16 99.2l97.408 63.296c9.088 5.888 14.592 16 14.592 26.816v116.288l121.664 6.4c15.872 0.832 28.672 13.184 30.144 28.992l11.648 123.264 106.304 50.816c11.2 5.376 18.24 16.64 18.24 28.928v128c0 17.664-14.336 32-32 32zM960 820.16l-104.448-49.92c-10.112-4.864-17.024-14.656-18.048-25.856l-10.752-113.856-124.416-6.528c-17.024-0.96-30.336-14.976-30.336-32v-129.28l-104.448-67.904c-12.992-8.448-18.112-25.024-12.032-39.296 13.632-32.064 20.48-65.536 20.48-99.52 0-141.184-114.816-256-256-256-48.448 0-93.312 14.272-132.032 37.76-35.328 21.44-64.768 50.88-86.208 86.208-23.488 38.72-37.76 83.584-37.76 132.032 0 141.184 114.816 256 256 256 18.88 0 38.72-2.624 60.672-7.936 9.92-2.432 20.416 0 28.224 6.656l456.32 385.28h94.784v-75.84z" />
<glyph unicode="&#xe675;" d="M512 960c-282.752 0-512-229.248-512-512s229.248-512 512-512 512 229.248 512 512-229.248 512-512 512zM448 512c0 35.328 28.672 64 64 64s64-28.672 64-64v-320c0-35.328-28.672-64-64-64s-64 28.672-64 64v320zM512 638.976c-35.328 0-64 28.672-64 64s28.672 64 64 64 64-28.672 64-64c0-35.328-28.672-64-64-64z" />
<glyph unicode="&#xe676;" d="M512 960c-282.752 0-512-229.248-512-512s229.248-512 512-512 512 229.248 512 512-229.248 512-512 512zM512 0c-247.040 0-448 200.96-448 448s200.96 448 448 448 448-200.96 448-448-200.96-448-448-448zM512 576c-35.328 0-64-28.672-64-64v-320c0-35.328 28.672-64 64-64s64 28.672 64 64v320c0 35.328-28.672 64-64 64zM448 702.976c0-35.346 28.654-64 64-64s64 28.654 64 64c0 35.346-28.654 64-64 64-35.346 0-64-28.654-64-64z" />
<glyph unicode="&#xe677;" d="M960 768h-64v128c0 35.328-28.672 64-64 64h-768c-35.328 0-64-28.672-64-64v-704c0-35.328 28.672-64 64-64h64v-128c0-35.328 28.672-64 64-64h768c35.328 0 64 28.672 64 64v704c0 35.328-28.672 64-64 64zM64 192v704h768v-704h-768zM960 0h-768v128h64v-64h640v640h64v-704zM473.28 697.984c0-49.167 39.857-89.024 89.024-89.024s89.024 39.857 89.024 89.024c0 49.167-39.857 89.024-89.024 89.024-49.167 0-89.024-39.857-89.024-89.024zM320 640l-192-128v-256h640v320l-256-128z" />
<glyph unicode="&#xe678;" d="M551.296 585.984c0-49.167 39.857-89.024 89.024-89.024s89.024 39.857 89.024 89.024c0 49.167-39.857 89.024-89.024 89.024-49.167 0-89.024-39.857-89.024-89.024zM832 64h64v384l-256-192-320 256-192-192v-256h64zM960 832h-896c-35.328 0-64-28.672-64-64v-768c0-35.328 28.672-64 64-64h896c35.328 0 64 28.672 64 64v768c0 35.328-28.672 64-64 64zM960 0h-896v768h896v-768z" />
<glyph unicode="&#xe679;" d="M960 768h-896c-35.328 0-64-28.672-64-64v-576c0-35.328 28.672-64 64-64h896c35.328 0 64 28.672 64 64v576c0 35.328-28.672 64-64 64zM64 704h896v-576h-896v576zM869.312 448h-389.312c-17.664 0-32-14.336-32-32s14.336-32 32-32h389.312c17.664 0 32 14.336 32 32s-14.336 32-32 32zM869.312 320h-389.312c-17.664 0-32-14.336-32-32s14.336-32 32-32h389.312c17.664 0 32 14.336 32 32s-14.336 32-32 32zM869.312 576h-389.312c-17.664 0-32-14.336-32-32s14.336-32 32-32h389.312c17.664 0 32 14.336 32 32s-14.336 32-32 32zM178.56 562.688c0-42.698 34.614-77.312 77.312-77.312 42.698 0 77.312 34.614 77.312 77.312 0 42.698-34.614 77.312-77.312 77.312-42.698 0-77.312-34.614-77.312-77.312zM257.536 454.464c-69.888 0-126.464-75.904-126.464-169.6s252.928-93.632 252.928 0-56.64 169.6-126.464 169.6z" />
<glyph unicode="&#xe67a;" d="M960 768h-320v-128c0-35.328-28.672-64-64-64h32c52.992 0 96 43.008 96 96 0 12.16-0.192 22.72-0.576 32h256.576v-704h-896v704h256.576c-0.384-9.28-0.576-19.84-0.576-32 0-52.992 43.008-96 96-96h32c-35.328 0-64 28.672-64 64v128h-320c-35.328 0-64-28.672-64-64v-704c0-35.328 28.672-64 64-64h896c35.328 0 64 28.672 64 64v704c0 35.328-28.672 64-64 64zM869.312 320h-389.312c-17.664 0-32-14.336-32-32s14.336-32 32-32h389.312c17.664 0 32 14.336 32 32s-14.336 32-32 32zM869.312 192h-389.312c-17.664 0-32-14.336-32-32s14.336-32 32-32h389.312c17.664 0 32 14.336 32 32s-14.336 32-32 32zM480 384h389.312c17.664 0 32 14.336 32 32s-14.336 32-32 32h-389.312c-17.664 0-32-14.336-32-32s14.336-32 32-32zM178.56 434.688c0-42.698 34.614-77.312 77.312-77.312 42.698 0 77.312 34.614 77.312 77.312 0 42.698-34.614 77.312-77.312 77.312-42.698 0-77.312-34.614-77.312-77.312zM257.536 326.464c-69.888 0-126.464-75.904-126.464-169.6s252.928-93.632 252.928 0-56.64 169.6-126.464 169.6zM384 640c0-35.328 28.672-64 64-64h128c35.328 0 64 28.672 64 64v256c0 35.328-28.672 64-64 64h-128c-35.328 0-64-28.672-64-64v-256zM576 640h-128v256h128v-256z" />
<glyph unicode="&#xe67b;" d="M960 768h-320v-64c35.328 0 64-28.672 64-64s-28.672-64-64-64h-256c-35.328 0-64 28.672-64 64s28.672 64 64 64v64h-320c-35.328 0-64-28.672-64-64v-704c0-35.328 28.672-64 64-64h896c35.328 0 64 28.672 64 64v704c0 35.328-28.672 64-64 64zM480 448h389.312c17.664 0 32-14.336 32-32s-14.336-32-32-32h-389.312c-17.664 0-32 14.336-32 32s14.336 32 32 32zM480 320h389.312c17.664 0 32-14.336 32-32s-14.336-32-32-32h-389.312c-17.664 0-32 14.336-32 32s14.336 32 32 32zM480 192h389.312c17.664 0 32-14.336 32-32s-14.336-32-32-32h-389.312c-17.664 0-32 14.336-32 32s14.336 32 32 32zM384 156.864c0-93.696-252.992-93.696-252.992 0s56.64 169.6 126.464 169.6c69.888 0 126.528-75.904 126.528-169.6zM333.184 434.688c0-42.688-34.624-77.312-77.312-77.312s-77.312 34.624-77.312 77.312c0.064 42.688 34.624 77.312 77.312 77.312 42.752 0 77.312-34.624 77.312-77.312zM448 896h128v-256h-128z" />
<glyph unicode="&#xe67c;" d="M960 768h-896c-35.328 0-64-28.672-64-64v-576c0-35.328 28.672-64 64-64h896c35.328 0 64 28.672 64 64v576c0 35.328-28.672 64-64 64zM869.312 384h-389.312c-17.664 0-32 14.336-32 32s14.336 32 32 32h389.312c17.664 0 32-14.336 32-32s-14.336-32-32-32zM901.312 288c0-17.664-14.336-32-32-32h-389.312c-17.664 0-32 14.336-32 32s14.336 32 32 32h389.312c17.664 0 32-14.336 32-32zM869.312 512h-389.312c-17.664 0-32 14.336-32 32s14.336 32 32 32h389.312c17.664 0 32-14.336 32-32s-14.336-32-32-32zM257.536 454.464c69.824 0 126.464-75.904 126.464-169.6s-252.992-93.696-252.992 0 56.64 169.6 126.528 169.6zM178.624 562.688c0 42.688 34.56 77.312 77.248 77.312 42.688 0 77.312-34.624 77.312-77.312 0-42.688-34.624-77.312-77.312-77.312-42.688 0-77.248 34.624-77.248 77.312z" />
<glyph unicode="&#xe67d;" d="M52.992 391.808l459.008 397.824 459.008-397.824c6.080-5.248 13.568-7.808 20.992-7.808 8.96 0 17.856 3.776 24.192 11.008 11.584 13.376 10.112 33.536-3.2 45.184l-480 416c-12.032 10.432-29.888 10.432-41.92 0l-171.072-148.224v60.032c0 35.328-28.672 64-64 64s-64-28.672-64-64v-170.944l-180.992-156.864c-13.312-11.584-14.784-31.808-3.2-45.184 11.648-13.312 31.808-14.784 45.184-3.2zM384 256h256v-320h192c35.328 0 64 28.672 64 64v313.664c0 19.2-8.576 37.312-23.424 49.472l-320 262.336c-11.776 9.664-26.176 14.528-40.576 14.528s-28.8-4.864-40.576-14.528l-320-262.336c-14.848-12.096-23.424-30.272-23.424-49.472v-313.664c0-35.328 28.672-64 64-64h192v320z" horiz-adv-x="1032" />
<glyph unicode="&#xe67e;" d="M51.968 390.976l76.032 60.8v-451.776c0-35.328 28.672-64 64-64h192c35.328 0 64 28.672 64 64v256h128v-256c0-35.328 28.672-64 64-64h192c35.328 0 64 28.672 64 64v451.776l76.032-60.8c5.888-4.672 12.928-6.976 19.968-6.976 9.408 0 18.688 4.096 25.024 12.032 11.008 13.824 8.768 33.92-4.992 44.992l-480 384c-11.712 9.344-28.288 9.344-40 0l-172.032-137.6v80.576c0 35.328-28.672 64-64 64s-64-28.672-64-64v-182.976l-179.968-144c-13.76-11.072-16-31.168-4.992-44.992s31.104-16.064 44.928-5.056zM512 759.040l320-256v-503.040h-192v320h-256v-320h-192v502.976l320 256.064z" horiz-adv-x="1032" />
<glyph unicode="&#xe67f;" d="M832 619.136v276.864h31.552c17.92 0 32.448 14.336 32.448 32s-14.528 32-32.448 32h-639.104c-17.92 0-32.448-14.336-32.448-32s14.528-32 32.448-32h31.552v-276.864c0-18.24 7.808-35.648 21.44-47.808l138.368-123.328-138.368-123.328c-13.632-12.16-21.44-29.568-21.44-47.808v-276.864h-31.552c-17.92 0-32.448-14.336-32.448-32s14.528-32 32.448-32h639.168c17.856 0 32.384 14.336 32.384 32s-14.528 32-32.448 32h-31.552v276.864c0 18.24-7.808 35.648-21.44 47.808l-138.368 123.328 138.368 123.328c13.632 12.16 21.44 29.568 21.44 47.808zM768 619.136l-192-171.136 192-171.136v-276.864h-448v276.864l192 171.136-192 171.136v276.864h448v-276.864zM704 711.808v56.192h-320v-56.192l160-142.592zM384 183.936v-119.936h320v119.936l-80.832 72.064h-158.336z" />
<glyph unicode="&#xe680;" d="M1023.488 517.312c-2.688 157.056-130.112 297.024-287.488 297.024-91.008 0-171.2-47.616-224-117.504-52.8 69.888-132.992 117.504-224 117.504-157.376 0-284.8-139.968-287.488-297.024h-0.512c0-0.96 0.192-1.856 0.192-2.816 0-0.704-0.192-1.408-0.192-2.176 0-4.416 1.088-7.744 1.28-11.968 14.080-400.256 506.688-564.352 506.688-564.352s499.84 163.904 514.624 563.712c0.256 4.48 1.408 8 1.408 12.608 0 0.768-0.192 1.472-0.192 2.176 0 1.024 0.192 1.856 0.192 2.816h-0.512z" />
<glyph unicode="&#xe681;" d="M1023.488 517.312c-2.688 157.056-130.112 297.024-287.488 297.024-91.008 0-171.2-47.616-224-117.504-52.8 69.888-132.992 117.504-224 117.504-157.376 0-284.8-139.968-287.488-297.024h-0.512c0-0.96 0.192-1.856 0.192-2.816 0-0.704-0.192-1.408-0.192-2.176 0-4.416 1.088-7.744 1.28-11.968 14.080-400.256 506.688-564.352 506.688-564.352s499.84 163.904 514.624 563.712c0.256 4.48 1.408 8 1.408 12.608 0 0.768-0.192 1.472-0.192 2.176 0 1.024 0.192 1.856 0.192 2.816h-0.512zM958.656 502.080c-11.328-307.2-362.112-463.36-450.56-497.856-87.68 34.56-432.064 190.016-442.88 499.072-0.128 3.2-0.448 6.144-0.896 9.344 0.064 1.152 0.128 2.368 0.192 3.584 2.176 126.912 104.512 234.112 223.488 234.112 65.664 0 128.704-33.536 172.928-92.096 12.096-16 30.976-25.408 51.072-25.408s38.976 9.408 51.072 25.408c44.224 58.56 107.264 92.096 172.928 92.096 118.976 0 221.312-107.2 223.488-234.112 0-1.216 0.064-2.432 0.192-3.648-0.448-3.136-0.832-6.464-1.024-10.496z" />
<glyph unicode="&#xe682;" d="M960 320v128c0 294.144-225.344 448-448 448-217.216 0-448-156.992-448-448v-128c-35.328 0-64-28.672-64-64v-128c0-35.328 28.672-64 64-64 0-35.328 28.672-64 64-64s64 28.672 64 64v256c0 35.328-28.672 64-64 64v64c0 252.096 193.216 384 384 384 184.96 0 384-120.128 384-384v-64c-35.328 0-64-28.672-64-64v-256c0-35.328 28.672-64 64-64s64 28.672 64 64c35.328 0 64 28.672 64 64v128c0 35.328-28.672 64-64 64z" />
<glyph unicode="&#xe683;" d="M431.443 805.913c0 82.467-71.62 154.087-154.087 154.087s-154.087-71.62-154.087-154.087c0-82.467 71.62-154.087 154.087-154.087s154.087 71.62 154.087 154.087zM539.304 220.383c0 246.539-127.954 369.809-269.652 369.809s-269.652-123.27-269.652-369.809c0-168.879 539.304-168.879 539.304 0zM724.208 531.947c82.467 0 154.087 71.62 154.087 154.087s-71.62 154.087-154.087 154.087-154.087-71.62-154.087-154.087 71.62-154.087 154.087-154.087zM716.504 470.312c-42.59 0-83.392-12.512-120.373-34.824 22.373-60.156 35.625-131.467 35.625-215.105 0-83.022-55.348-147.677-150.327-184.658 117.784-99.725 504.727-78.461 504.727 64.778 0 246.539-127.954 369.809-269.652 369.809z" horiz-adv-x="986" />
</font>
</defs>
</svg>
