<?xml version="1.0" encoding="UTF-8"?>
<svg width="48px" height="46px" viewBox="0 0 48 46" version="1.1" xmlns="http://www.w3.org/2000/svg" xmlns:xlink="http://www.w3.org/1999/xlink">
    <!-- Generator: Sketch 63 (92445) - https://sketch.com -->
    <title>news</title>
    <desc>Created with Sketch.</desc>
    <g id="页面-1" stroke="none" stroke-width="1" fill="none" fill-rule="evenodd">
        <g id="纯线条" transform="translate(-191.000000, -854.000000)" fill-rule="nonzero">
            <g id="news" transform="translate(191.000000, 854.000000)">
                <path d="M36.3589015,45.8806818 L2.14488636,45.8806818 C0.961174242,45.8806818 0,44.9195076 0,43.7357955 L0,2.15909091 C0,0.975378788 0.961174242,0.0142045455 2.14488636,0.0142045455 L36.3589015,0.0142045455 C37.5426136,0.0142045455 38.5038053,0.975378788 38.5038053,2.15909091 L38.5038053,43.7357955 C38.5085227,44.9195076 37.5473485,45.8806818 36.3589015,45.8806818 Z" id="路径" fill="#ECEFF1"></path>
                <polygon id="路径" fill="#ECEFF1" points="29.4318182 36.4157197 43.3001894 36.4157197 43.3001894 45.999053 29.4318182 45.999053"></polygon>
                <path d="M43.5369318,45.999053 L42.7840909,45.999053 C40.4214015,45.999053 38.5037879,44.0814394 38.5037879,41.71875 L38.5037879,11.0558712 L45.6676136,11.0558712 C46.8513258,11.0558712 47.8125087,12.0170455 47.8125087,13.2007576 L47.8125087,41.71875 C47.8172348,44.0814394 45.8996212,45.999053 43.5369318,45.999053 Z" id="路径" fill="#CFD8DC"></path>
                <path d="M6.06534091,13.2291667 L6.06534091,6.80871212 L7.73200758,6.80871212 L10.8143939,10.7339015 L10.8143939,6.80871212 L12.4763258,6.80871212 L12.4763258,13.2244318 L10.8143939,13.2244318 L7.73200758,9.29924242 L7.73200758,13.2244318 L6.06534091,13.2244318 L6.06534091,13.2291667 Z M17.4715909,8.22443182 L15.4876894,8.22443182 L15.4876894,9.29450758 L17.3626894,9.29450758 L17.3626894,10.7054924 L15.4876894,10.7054924 L15.4876894,11.813447 L17.4715909,11.813447 L17.4715909,13.2244318 L13.8210227,13.2244318 L13.8210227,6.80871212 L17.4715909,6.80871212 L17.4715909,8.22443182 Z M19.7443182,6.80871212 L20.8522727,10.9564394 L22.2159091,6.80871212 L23.5416667,6.80871212 L24.905303,10.9564394 L26.0132576,6.80871212 L27.7604167,6.80871212 L25.842803,13.2244318 L24.1382576,13.2244318 L22.8787879,9.50284091 L21.6193182,13.2244318 L19.9147727,13.2244318 L17.9971591,6.80871212 L19.7443182,6.80871212 L19.7443182,6.80871212 Z M31.813447,8.45170455 C31.6335227,8.30492424 31.4488636,8.19602273 31.2689394,8.125 C31.0890152,8.05397727 30.9090909,8.02083333 30.7386364,8.02083333 C30.5208333,8.02083333 30.3456439,8.07291667 30.2130682,8.17234848 C30.0804924,8.2717803 30.0094697,8.40909091 30.0094697,8.57481061 C30.0094697,8.68844697 30.0426136,8.78314394 30.1136364,8.85416667 C30.1799242,8.92992424 30.2698864,8.99147727 30.3835227,9.04356061 C30.4924242,9.09564394 30.6202652,9.14299242 30.7575758,9.18560606 C30.8948864,9.22348485 31.032197,9.26609848 31.1695076,9.31344697 C31.7140152,9.49337121 32.1117424,9.73958333 32.3674242,10.0426136 C32.6183712,10.3456439 32.7462121,10.7433712 32.7462121,11.2310606 C32.7462121,11.5577652 32.6893939,11.8560606 32.5804924,12.125947 C32.4715909,12.3958333 32.3058712,12.6231061 32.0975379,12.8125 C31.8844697,13.0018939 31.624053,13.1486742 31.3162879,13.2528409 C31.0085227,13.3570076 30.6581439,13.4090909 30.2651515,13.4090909 C29.4554924,13.4090909 28.7026515,13.1676136 28.0113636,12.6846591 L28.7263258,11.3399621 C28.9772727,11.5625 29.2234848,11.7282197 29.4649621,11.8323864 C29.7064394,11.9412879 29.9479167,11.9933712 30.1893939,11.9933712 C30.4640152,11.9933712 30.6628788,11.9318182 30.8001894,11.8087121 C30.9327652,11.6856061 30.999053,11.5435606 30.999053,11.3825758 C30.999053,11.2878788 30.9801136,11.2026515 30.9469697,11.1316288 C30.9138258,11.0606061 30.8570076,10.9943182 30.7765152,10.9375 C30.6960227,10.875947 30.5918561,10.8238636 30.4640152,10.7717803 C30.3361742,10.719697 30.1799242,10.6628788 30,10.6013258 C29.7869318,10.5350379 29.5738636,10.4592803 29.3655303,10.374053 C29.157197,10.2935606 28.9725379,10.1846591 28.811553,10.0473485 C28.6505682,9.91003788 28.5179924,9.73958333 28.4185606,9.53125 C28.3191288,9.32291667 28.2717803,9.0625 28.2717803,8.74526515 C28.2717803,8.4280303 28.3238636,8.13920455 28.4280303,7.88352273 C28.532197,7.62310606 28.6789773,7.40530303 28.8683712,7.22064394 C29.0577652,7.03598485 29.2897727,6.89393939 29.5643939,6.78977273 C29.8390152,6.68560606 30.1467803,6.63825758 30.4876894,6.63825758 C30.8049242,6.63825758 31.1363636,6.68087121 31.4820076,6.77083333 C31.8276515,6.86079545 32.1590909,6.98863636 32.4763258,7.15909091 L31.813447,8.45170455 L31.813447,8.45170455 Z" id="形状" fill="#D75757"></path>
                <path d="M31.7708333,33.9914773 L6.16950758,33.9914773 C5.57765152,33.9914773 5.09469697,33.5132576 5.09469697,32.9166667 L5.09469697,32.7982955 C5.09469697,32.2064394 5.57291667,31.7234848 6.16950758,31.7234848 L31.7708333,31.7234848 C32.3626894,31.7234848 32.8456439,32.2017045 32.8456439,32.7982955 L32.8456439,32.9166667 C32.8456439,33.5085227 32.3626894,33.9914773 31.7708333,33.9914773 Z M31.7708333,38.5179924 L6.16950758,38.5179924 C5.57765152,38.5179924 5.09469697,38.0397727 5.09469697,37.4431818 L5.09469697,37.3248106 C5.09469697,36.7329545 5.57291667,36.25 6.16950758,36.25 L31.7708333,36.25 C32.3626894,36.25 32.8456439,36.7282197 32.8456439,37.3248106 L32.8456439,37.4431818 C32.8456439,38.0397727 32.3626894,38.5179924 31.7708333,38.5179924 Z M31.7708333,20.3977273 L21.4583333,20.3977273 C20.8664773,20.3977273 20.3835227,19.9195076 20.3835227,19.3229167 L20.3835227,19.2045455 C20.3835227,18.6126894 20.8617424,18.1297348 21.4583333,18.1297348 L31.7708333,18.1297348 C32.3626894,18.1297348 32.8456439,18.6079545 32.8456439,19.2045455 L32.8456439,19.3229167 C32.8456439,19.9195076 32.3626894,20.3977273 31.7708333,20.3977273 Z M31.7708333,24.9289773 L21.4583333,24.9289773 C20.8664773,24.9289773 20.3835227,24.4507576 20.3835227,23.8541667 L20.3835227,23.7357955 C20.3835227,23.1439394 20.8617424,22.6609848 21.4583333,22.6609848 L31.7708333,22.6609848 C32.3626894,22.6609848 32.8456439,23.1392045 32.8456439,23.7357955 L32.8456439,23.8541667 C32.8456439,24.4507576 32.3626894,24.9289773 31.7708333,24.9289773 Z M31.7708333,29.4602273 L21.4583333,29.4602273 C20.8664773,29.4602273 20.3835227,28.9820076 20.3835227,28.3854167 L20.3835227,28.2670455 C20.3835227,27.6751894 20.8617424,27.1922348 21.4583333,27.1922348 L31.7708333,27.1922348 C32.3626894,27.1922348 32.8456439,27.6704545 32.8456439,28.2670455 L32.8456439,28.3854167 C32.8456439,28.9772727 32.3626894,29.4602273 31.7708333,29.4602273 Z" id="形状" fill="#CFD8DC"></path>
                <path d="M15.3503788,29.4602273 L6.16950758,29.4602273 C5.57765152,29.4602273 5.09469697,28.9820076 5.09469697,28.3854167 L5.09469697,19.2092803 C5.09469697,18.6174242 5.57291667,18.1344697 6.16950758,18.1344697 L15.3503788,18.1344697 C15.9422348,18.1344697 16.4251894,18.6126894 16.4251894,19.2092803 L16.4251894,28.3901515 C16.4204545,28.9772727 15.9422348,29.4602273 15.3503788,29.4602273 L15.3503788,29.4602273 Z" id="路径" fill="#90CAF9"></path>
                <path d="M47.8172348,41.467803 L47.8172348,23.4280303 L38.5085227,11.1363636 L38.5085227,41.467803 C38.4801136,42.9214015 38.9251894,43.7310606 39.4886364,44.4412879 C40.3172348,45.4829545 41.6477273,46.0984848 43.3001894,45.999053 C44.4270833,46.0511364 45.5113636,45.719697 46.5293561,44.7774621 C47.5473485,43.7215909 47.8598485,42.6089015 47.8172348,41.467803 L47.8172348,41.467803 Z" id="路径" fill="#B0BEC5"></path>
                <path d="M16.3825758,21.1979167 L13.4469697,23.5653409 C12.9119318,23.9962121 12.125947,23.967803 11.624053,23.4943182 L10.5492424,22.4857955 C9.6969697,21.6808712 8.38541667,21.5956439 7.42897727,22.2774621 L5.09469697,23.9535985 L5.09469697,25.2746212 L8.05397727,23.1534091 C8.58901515,22.7698864 9.33238636,22.8172348 9.81060606,23.2717803 L10.8854167,24.280303 C11.7755682,25.1183712 13.1628788,25.1704545 14.1145833,24.4034091 L16.3731061,22.5804924 L16.3731061,21.1979167 L16.3825758,21.1979167 Z" id="路径" fill="#2196F3"></path>
            </g>
        </g>
    </g>
</svg>